<svg width="23" height="17" viewBox="0 0 23 17" fill="none" xmlns="http://www.w3.org/2000/svg">
<path d="M20.4971 1.09785L8.5265 13.1119L2.69357 6.49548C2.17122 5.88607 1.12651 5.79901 0.517103 6.32137C-0.0923072 6.84372 -0.179366 7.88842 0.342986 8.49783L7.26415 16.3331L7.35121 16.4202L7.43827 16.5072C7.52533 16.5072 7.52532 16.5943 7.61238 16.5943L7.69944 16.6813C7.7865 16.6813 7.87356 16.7684 7.91709 16.7684H8.00415C8.09121 16.7684 8.22179 16.7684 8.30885 16.7684C8.39591 16.7684 8.48297 16.7684 8.61356 16.7684H8.70062C8.78768 16.7684 8.87473 16.7684 8.91826 16.6813C8.91826 16.6813 9.00532 16.6813 9.00532 16.5943C9.09238 16.5943 9.09238 16.5072 9.17944 16.5072L9.2665 16.4202L9.35356 16.3331L22.5429 3.14373C23.1524 2.53432 23.1524 1.57667 22.5429 0.967259C21.9335 0.357848 21.1065 0.444907 20.4971 1.09785Z" fill="#2FD961"/>
</svg>
