<svg width="217" height="217" viewBox="0 0 217 217" fill="none" xmlns="http://www.w3.org/2000/svg">
<path d="M217 165.962H0V166.07H217V165.962Z" fill="#EBEBEB"/>
<path d="M75.1775 168.731H65.1174V168.839H75.1775V168.731Z" fill="#EBEBEB"/>
<path d="M199.106 171.057H174.511V171.165H199.106V171.057Z" fill="#EBEBEB"/>
<path d="M43.1352 171.057H18.5405V171.165H43.1352V171.057Z" fill="#EBEBEB"/>
<path d="M102.858 146.605H19.0569C18.4004 146.604 17.7712 146.342 17.3074 145.878C16.8436 145.413 16.5831 144.784 16.5831 144.127V26.3264C16.5888 25.6737 16.8519 25.0496 17.315 24.5897C17.7782 24.1297 18.4042 23.8711 19.0569 23.87H102.858C103.515 23.87 104.146 24.1311 104.61 24.5958C105.075 25.0606 105.336 25.6909 105.336 26.3481V144.127C105.336 144.784 105.075 145.415 104.61 145.879C104.146 146.344 103.515 146.605 102.858 146.605ZM19.0569 23.9568C18.4292 23.9579 17.8276 24.2081 17.3841 24.6524C16.9407 25.0966 16.6916 25.6987 16.6916 26.3264V144.127C16.6916 144.755 16.9407 145.357 17.3841 145.801C17.8276 146.245 18.4292 146.496 19.0569 146.497H102.858C103.486 146.494 104.087 146.244 104.531 145.8C104.975 145.356 105.225 144.755 105.228 144.127V26.3264C105.225 25.6987 104.975 25.0973 104.531 24.6534C104.087 24.2095 103.486 23.9591 102.858 23.9568H19.0569Z" fill="#EBEBEB"/>
<path d="M196.737 146.605H112.931C112.275 146.603 111.646 146.341 111.181 145.877C110.717 145.413 110.455 144.784 110.453 144.127V26.3264C110.46 25.6733 110.724 25.0492 111.188 24.5894C111.652 24.1296 112.278 23.8711 112.931 23.87H196.737C197.389 23.8723 198.013 24.1314 198.476 24.5912C198.938 25.051 199.2 25.6745 199.206 26.3264V144.127C199.207 144.452 199.143 144.774 199.019 145.074C198.896 145.374 198.714 145.647 198.485 145.878C198.255 146.108 197.983 146.29 197.683 146.415C197.383 146.54 197.061 146.605 196.737 146.605ZM112.931 23.9568C112.303 23.9591 111.702 24.2095 111.258 24.6534C110.814 25.0973 110.564 25.6987 110.562 26.3264V144.127C110.564 144.755 110.814 145.356 111.258 145.8C111.702 146.244 112.303 146.494 112.931 146.497H196.737C197.364 146.494 197.966 146.244 198.41 145.8C198.854 145.356 199.104 144.755 199.106 144.127V26.3264C199.104 25.6987 198.854 25.0973 198.41 24.6534C197.966 24.2095 197.364 23.9591 196.737 23.9568H112.931Z" fill="#EBEBEB"/>
<path d="M42.8358 56.5979H78.988C79.3518 56.5974 79.7121 56.6686 80.0483 56.8075C80.3845 56.9465 80.69 57.1504 80.9472 57.4077C81.2044 57.6649 81.4084 57.9704 81.5473 58.3066C81.6863 58.6428 81.7575 59.0031 81.7569 59.3668V165.862H40.0929V59.3625C40.094 58.6334 40.3827 57.9341 40.8962 57.4165C41.4098 56.8989 42.1067 56.6048 42.8358 56.5979Z" fill="#F5F5F5"/>
<path d="M48.9031 63.0515H43.5302V75.0126H48.9031V63.0515Z" fill="#EBEBEB"/>
<path d="M78.2849 63.0515H72.912V75.0126H78.2849V63.0515Z" fill="#EBEBEB"/>
<path d="M58.6942 63.0515H53.3212V75.0126H58.6942V63.0515Z" fill="#EBEBEB"/>
<path d="M68.4895 63.0515H63.1166V75.0126H68.4895V63.0515Z" fill="#EBEBEB"/>
<path d="M48.9031 81.9348H43.5302V93.8959H48.9031V81.9348Z" fill="#EBEBEB"/>
<path d="M78.2849 81.9348H72.912V93.8959H78.2849V81.9348Z" fill="#EBEBEB"/>
<path d="M58.6942 81.9348H53.3212V93.8959H58.6942V81.9348Z" fill="#EBEBEB"/>
<path d="M68.4895 81.9348H63.1166V93.8959H68.4895V81.9348Z" fill="#EBEBEB"/>
<path d="M48.9031 100.814H43.5302V112.775H48.9031V100.814Z" fill="#EBEBEB"/>
<path d="M78.2849 100.814H72.912V112.775H78.2849V100.814Z" fill="#EBEBEB"/>
<path d="M58.6942 100.814H53.3212V112.775H58.6942V100.814Z" fill="#EBEBEB"/>
<path d="M68.4895 100.814H63.1166V112.775H68.4895V100.814Z" fill="#EBEBEB"/>
<path d="M48.9031 119.697H43.5302V131.658H48.9031V119.697Z" fill="#EBEBEB"/>
<path d="M78.2849 119.697H72.912V131.658H78.2849V119.697Z" fill="#EBEBEB"/>
<path d="M58.6942 119.697H53.3212V131.658H58.6942V119.697Z" fill="#EBEBEB"/>
<path d="M68.4895 119.697H63.1166V131.658H68.4895V119.697Z" fill="#EBEBEB"/>
<path d="M48.9031 138.576H43.5302V150.537H48.9031V138.576Z" fill="#EBEBEB"/>
<path d="M78.2849 138.576H72.912V150.537H78.2849V138.576Z" fill="#EBEBEB"/>
<path d="M58.6942 138.576H53.3212V150.537H58.6942V138.576Z" fill="#EBEBEB"/>
<path d="M68.4895 138.576H63.1166V150.537H68.4895V138.576Z" fill="#EBEBEB"/>
<path d="M170.97 66.5235H196.854C197.451 66.5246 198.023 66.7623 198.445 67.1845C198.867 67.6067 199.105 68.1789 199.106 68.776V165.862H168.726V68.7803C168.726 68.184 168.962 67.6119 169.383 67.1891C169.803 66.7662 170.374 66.5269 170.97 66.5235Z" fill="#F5F5F5"/>
<path d="M177.471 72.3955H172.589V83.2672H177.471V72.3955Z" fill="#EBEBEB"/>
<path d="M186.377 72.3955H181.494V83.2672H186.377V72.3955Z" fill="#EBEBEB"/>
<path d="M195.278 72.3955H190.396V83.2672H195.278V72.3955Z" fill="#EBEBEB"/>
<path d="M177.471 89.5602H172.589V100.432H177.471V89.5602Z" fill="#EBEBEB"/>
<path d="M186.377 89.5602H181.494V100.432H186.377V89.5602Z" fill="#EBEBEB"/>
<path d="M195.278 89.5602H190.396V100.432H195.278V89.5602Z" fill="#EBEBEB"/>
<path d="M177.471 106.729H172.589V117.601H177.471V106.729Z" fill="#EBEBEB"/>
<path d="M186.377 106.729H181.494V117.601H186.377V106.729Z" fill="#EBEBEB"/>
<path d="M195.278 106.729H190.396V117.601H195.278V106.729Z" fill="#EBEBEB"/>
<path d="M177.471 123.89H172.589V134.761H177.471V123.89Z" fill="#EBEBEB"/>
<path d="M186.377 123.89H181.494V134.761H186.377V123.89Z" fill="#EBEBEB"/>
<path d="M195.278 123.89H190.396V134.761H195.278V123.89Z" fill="#EBEBEB"/>
<path d="M177.471 141.059H172.589V151.93H177.471V141.059Z" fill="#EBEBEB"/>
<path d="M186.377 141.059H181.494V151.93H186.377V141.059Z" fill="#EBEBEB"/>
<path d="M195.278 141.059H190.396V151.93H195.278V141.059Z" fill="#EBEBEB"/>
<path d="M111.673 38.7388H153.718C154.573 38.7388 155.392 39.0781 155.996 39.682C156.599 40.2859 156.939 41.105 156.939 41.9591V165.862H108.457V41.9591C108.457 41.1058 108.795 40.2874 109.398 39.6836C110.001 39.0798 110.819 38.74 111.673 38.7388Z" fill="#F5F5F5"/>
<path d="M118.729 46.2514H112.48V60.1654H118.729V46.2514Z" fill="#EBEBEB"/>
<path d="M152.911 46.2514H146.662V60.1654H152.911V46.2514Z" fill="#EBEBEB"/>
<path d="M130.122 46.2514H123.872V60.1654H130.122V46.2514Z" fill="#EBEBEB"/>
<path d="M141.519 46.2514H135.269V60.1654H141.519V46.2514Z" fill="#EBEBEB"/>
<path d="M118.729 68.2205H112.48V82.1345H118.729V68.2205Z" fill="#EBEBEB"/>
<path d="M152.911 68.2205H146.662V82.1345H152.911V68.2205Z" fill="#EBEBEB"/>
<path d="M130.122 68.2205H123.872V82.1345H130.122V68.2205Z" fill="#EBEBEB"/>
<path d="M141.519 68.2205H135.269V82.1345H141.519V68.2205Z" fill="#EBEBEB"/>
<path d="M118.729 90.1895H112.48V104.104H118.729V90.1895Z" fill="#EBEBEB"/>
<path d="M152.911 90.1895H146.662V104.104H152.911V90.1895Z" fill="#EBEBEB"/>
<path d="M130.122 90.1895H123.872V104.104H130.122V90.1895Z" fill="#EBEBEB"/>
<path d="M141.519 90.1895H135.269V104.104H141.519V90.1895Z" fill="#EBEBEB"/>
<path d="M118.729 112.154H112.48V126.068H118.729V112.154Z" fill="#EBEBEB"/>
<path d="M152.911 112.154H146.662V126.068H152.911V112.154Z" fill="#EBEBEB"/>
<path d="M130.122 112.154H123.872V126.068H130.122V112.154Z" fill="#EBEBEB"/>
<path d="M141.519 112.154H135.269V126.068H141.519V112.154Z" fill="#EBEBEB"/>
<path d="M118.729 134.119H112.48V148.033H118.729V134.119Z" fill="#EBEBEB"/>
<path d="M152.911 134.119H146.662V148.033H152.911V134.119Z" fill="#EBEBEB"/>
<path d="M130.122 134.119H123.872V148.033H130.122V134.119Z" fill="#EBEBEB"/>
<path d="M141.519 134.119H135.269V148.033H141.519V134.119Z" fill="#EBEBEB"/>
<path d="M108.452 84.2698H81.7439V165.866H108.452V84.2698Z" fill="#E6E6E6"/>
<path d="M168.744 93.0062H156.943V165.862H168.744V93.0062Z" fill="#E6E6E6"/>
<path d="M40.0669 165.862H16.6917V131.797L40.0669 123.89V165.862Z" fill="#E6E6E6"/>
<path d="M108.5 185.561C154.974 185.561 192.648 182.473 192.648 178.665C192.648 174.856 154.974 171.769 108.5 171.769C62.0262 171.769 24.3517 174.856 24.3517 178.665C24.3517 182.473 62.0262 185.561 108.5 185.561Z" fill="#F5F5F5"/>
<path d="M129.193 151.431H121.815C117.974 151.431 114.871 156.999 114.871 163.87C114.871 170.74 117.983 176.304 121.815 176.304H129.193C133.034 176.304 136.137 170.736 136.137 163.87C136.137 157.004 133.034 151.431 129.193 151.431Z" fill="#263238"/>
<mask id="mask0_414_7585" style="mask-type:luminance" maskUnits="userSpaceOnUse" x="114" y="151" width="23" height="26">
<path d="M129.193 151.431H121.815C117.974 151.431 114.871 156.999 114.871 163.87C114.871 170.74 117.983 176.304 121.815 176.304H129.193C133.034 176.304 136.137 170.736 136.137 163.87C136.137 157.004 133.034 151.431 129.193 151.431Z" fill="white"/>
</mask>
<g mask="url(#mask0_414_7585)">
<path opacity="0.05" d="M137.873 151.431H130.495C126.654 151.431 123.551 156.999 123.551 163.87C123.551 170.74 126.663 176.304 130.495 176.304H137.873C141.714 176.304 144.817 170.736 144.817 163.87C144.817 157.004 141.714 151.431 137.873 151.431Z" fill="white"/>
</g>
<path d="M188.959 154.096L59.7618 154.005V71.4798H188.959V154.096Z" fill="#294277"/>
<path opacity="0.3" d="M188.959 71.4798H101.395V154.092H188.959V71.4798Z" fill="#263238"/>
<path opacity="0.2" d="M101.395 71.4798H59.7618V155.724H101.395V71.4798Z" fill="white"/>
<path opacity="0.1" d="M60.0743 75.3163H188.959" stroke="white" stroke-width="2" stroke-linecap="round" stroke-linejoin="round"/>
<path opacity="0.1" d="M60.0743 78.8882H188.959" stroke="white" stroke-width="2" stroke-linecap="round" stroke-linejoin="round"/>
<path opacity="0.1" d="M60.0743 82.4557H188.959" stroke="white" stroke-width="2" stroke-linecap="round" stroke-linejoin="round"/>
<path opacity="0.1" d="M60.0743 86.0231H188.959" stroke="white" stroke-width="2" stroke-linecap="round" stroke-linejoin="round"/>
<path opacity="0.1" d="M60.0743 89.5949H188.959" stroke="white" stroke-width="2" stroke-linecap="round" stroke-linejoin="round"/>
<path opacity="0.1" d="M60.0743 93.1624H188.959" stroke="white" stroke-width="2" stroke-linecap="round" stroke-linejoin="round"/>
<path opacity="0.1" d="M60.0743 96.7299H188.959" stroke="white" stroke-width="2" stroke-linecap="round" stroke-linejoin="round"/>
<path opacity="0.1" d="M60.0743 100.297H188.959" stroke="white" stroke-width="2" stroke-linecap="round" stroke-linejoin="round"/>
<path opacity="0.1" d="M60.0743 103.869H188.959" stroke="white" stroke-width="2" stroke-linecap="round" stroke-linejoin="round"/>
<path opacity="0.1" d="M60.0743 107.437H188.959" stroke="white" stroke-width="2" stroke-linecap="round" stroke-linejoin="round"/>
<path opacity="0.1" d="M60.0743 111.004H188.959" stroke="white" stroke-width="2" stroke-linecap="round" stroke-linejoin="round"/>
<path opacity="0.1" d="M60.0743 114.576H188.959" stroke="white" stroke-width="2" stroke-linecap="round" stroke-linejoin="round"/>
<path opacity="0.1" d="M60.0743 118.143H188.959" stroke="white" stroke-width="2" stroke-linecap="round" stroke-linejoin="round"/>
<path opacity="0.1" d="M60.0743 121.711H188.959" stroke="white" stroke-width="2" stroke-linecap="round" stroke-linejoin="round"/>
<path opacity="0.1" d="M60.0743 125.278H188.959" stroke="white" stroke-width="2" stroke-linecap="round" stroke-linejoin="round"/>
<path opacity="0.1" d="M60.0743 128.85H188.959" stroke="white" stroke-width="2" stroke-linecap="round" stroke-linejoin="round"/>
<path opacity="0.1" d="M60.0743 132.418H188.959" stroke="white" stroke-width="2" stroke-linecap="round" stroke-linejoin="round"/>
<path opacity="0.1" d="M60.0743 135.985H188.959" stroke="white" stroke-width="2" stroke-linecap="round" stroke-linejoin="round"/>
<path opacity="0.1" d="M60.0743 139.557H188.959" stroke="white" stroke-width="2" stroke-linecap="round" stroke-linejoin="round"/>
<path opacity="0.1" d="M60.0743 143.125H188.959" stroke="white" stroke-width="2" stroke-linecap="round" stroke-linejoin="round"/>
<path opacity="0.1" d="M60.0743 146.692H188.959" stroke="white" stroke-width="2" stroke-linecap="round" stroke-linejoin="round"/>
<path opacity="0.1" d="M60.0743 150.264H188.959" stroke="white" stroke-width="2" stroke-linecap="round" stroke-linejoin="round"/>
<path d="M36.0524 153.054H29.2256C25.6668 153.054 22.785 158.21 22.785 164.573C22.785 170.935 25.6668 176.087 29.2256 176.087H36.0524C39.6112 176.087 42.4929 170.931 42.4929 164.573C42.4929 158.215 39.6112 153.054 36.0524 153.054Z" fill="#263238"/>
<path opacity="0.05" d="M44.7367 153.054H37.9056C34.3468 153.054 31.465 158.21 31.465 164.573C31.465 170.935 34.3468 176.087 37.9056 176.087H44.7367C48.2912 176.087 51.1773 170.931 51.1773 164.573C51.1773 158.215 48.2912 153.054 44.7367 153.054Z" fill="white"/>
<path d="M32.2549 130.56H29.0259C28.3923 130.582 27.8715 129.905 27.8585 129.046C27.8498 128.956 27.8498 128.866 27.8585 128.776L28.7265 119.024C28.835 118.022 29.4556 117.288 30.2021 117.241H33.4614C34.0907 117.241 34.6115 117.905 34.6245 118.764C34.6245 118.851 34.6245 118.938 34.6245 119.024L33.7565 128.776C33.6263 129.766 32.984 130.534 32.2549 130.56Z" fill="#263238"/>
<path d="M35.4839 98.3487L29.256 131.936L97.0598 158.497L96.5867 92.3031L81.6745 91.8691H40.8264C38.3699 91.8474 36.2043 94.4861 35.4839 98.3487Z" fill="#294277"/>
<path d="M85.932 103.752C83.4018 103.639 81.132 105.714 80.3898 108.808L75.26 130.3H65.3865L64.8483 158.653H97.3245" fill="#294277"/>
<path d="M36.456 128.494C35.4621 128.494 34.6592 127.218 34.6592 125.647C34.6588 125.373 34.685 125.1 34.7374 124.831L38.4654 105.11C38.7779 103.474 39.7327 102.355 40.8134 102.359H76.4795C76.8657 102.359 77.1826 102.854 77.1826 103.47C77.1834 103.579 77.1732 103.688 77.1522 103.795C76.371 107.858 73.8321 121.316 72.8599 126.463C72.6342 127.67 71.9312 128.494 71.1239 128.494H36.456Z" fill="#263238"/>
<path d="M69.2751 137.235C69.2744 137.581 69.2498 137.926 69.2013 138.268L69.0147 139.54L68.9062 140.29L68.1076 145.776L66.8056 154.695L66.4454 157.173H15.9756V154.695L16.0103 145.776L16.058 140.442V138.272C15.624 135.408 17.0085 132.63 19.1177 132.053C19.3652 131.986 19.6207 131.952 19.8772 131.953H65.3865C67.5348 131.936 69.2751 134.314 69.2751 137.235Z" fill="#294277"/>
<path d="M94.9288 105.028V126.168C94.9288 127.448 94.2735 128.49 93.4619 128.494H81.1276C80.316 128.494 79.6607 127.453 79.6607 126.168C79.6604 125.959 79.6779 125.75 79.7128 125.543L83.5146 103.93C83.6969 102.893 84.3045 102.194 84.9815 102.233L93.514 102.702C94.3039 102.749 94.9288 103.778 94.9288 105.028Z" fill="#263238"/>
<path opacity="0.1" d="M57.262 102.359H50.4482L42.6232 128.494H49.4413L57.262 102.359Z" fill="white"/>
<path opacity="0.1" d="M62.5655 102.359H59.3105L51.4898 128.494H54.7404L62.5655 102.359Z" fill="white"/>
<path d="M82.3515 145.776V154.695H15.9842L16.0189 145.776H82.3515Z" fill="black"/>
<path d="M73.1073 145.776H66.9705L55.9339 152.26V154.695H82.3515V145.776H73.1073Z" fill="white"/>
<path d="M27.4245 152.26V154.695H15.9842L16.0189 145.776H16.3922L27.4245 152.26Z" fill="white"/>
<path opacity="0.3" d="M97.0902 158.653L96.5867 92.3031L87.4727 91.8691C85.1986 91.7563 82.5729 94.3993 81.9088 97.4634L75.3034 131.936H72.7297C69.8393 131.936 67.8603 134.041 67.8646 136.276L67.9037 158.662H97.0902" fill="#263238"/>
<path d="M69.1058 139.852C69.1049 139.934 69.0867 140.016 69.0523 140.09C69.0179 140.165 68.9681 140.232 68.9062 140.286C68.8001 140.385 68.6604 140.439 68.5156 140.438H16.058V139.258H68.5286C68.6285 139.258 68.7267 139.283 68.814 139.332C68.9013 139.381 68.9748 139.451 69.0277 139.535C69.0826 139.632 69.1096 139.741 69.1058 139.852Z" fill="white"/>
<path d="M25.3109 139.262V140.442H16.0406L16.045 139.262H25.3109Z" fill="#263238"/>
<path d="M69.1058 139.852C69.1049 139.934 69.0867 140.016 69.0523 140.09C69.0179 140.165 68.9681 140.232 68.9062 140.286C68.8001 140.385 68.6604 140.439 68.5156 140.438H55.7907V139.258H68.5156C68.6155 139.258 68.7137 139.283 68.801 139.332C68.8883 139.381 68.9618 139.451 69.0147 139.535C69.0741 139.63 69.1057 139.74 69.1058 139.852Z" fill="#263238"/>
<path d="M191.277 156.24V156.474C191.277 157.05 191.048 157.602 190.641 158.009C190.234 158.416 189.682 158.644 189.107 158.644H16.722C16.1465 158.644 15.5946 158.416 15.1876 158.009C14.7807 157.602 14.552 157.05 14.552 156.474V156.24C14.552 155.664 14.7807 155.113 15.1876 154.706C15.5946 154.299 16.1465 154.07 16.722 154.07H189.107C189.682 154.07 190.234 154.299 190.641 154.706C191.048 155.113 191.277 155.664 191.277 156.24Z" fill="#263238"/>
<path d="M54.9487 155.854H29.256V157.108H54.9487V155.854Z" fill="black"/>
<path d="M22.4205 156.479C22.4204 156.62 22.3786 156.758 22.3001 156.876C22.2216 156.994 22.11 157.086 21.9794 157.14C21.8488 157.194 21.705 157.209 21.5662 157.181C21.4274 157.154 21.2998 157.086 21.1995 156.987C21.0992 156.887 21.0307 156.76 21.0025 156.621C20.9744 156.482 20.988 156.339 21.0415 156.208C21.0951 156.077 21.1862 155.965 21.3034 155.885C21.4205 155.806 21.5586 155.763 21.7 155.763C21.7944 155.762 21.888 155.78 21.9754 155.816C22.0628 155.852 22.1422 155.904 22.2092 155.971C22.2761 156.037 22.3293 156.116 22.3655 156.204C22.4018 156.291 22.4205 156.384 22.4205 156.479Z" fill="white"/>
<path d="M61.0855 156.479C61.0855 156.62 61.0435 156.759 60.9648 156.877C60.8862 156.994 60.7743 157.086 60.6435 157.14C60.5126 157.194 60.3686 157.209 60.2297 157.181C60.0908 157.153 59.9632 157.085 59.8631 156.985C59.7629 156.885 59.6947 156.757 59.6671 156.618C59.6395 156.479 59.6536 156.336 59.7078 156.205C59.762 156.074 59.8538 155.962 59.9716 155.883C60.0893 155.805 60.2278 155.763 60.3694 155.763C60.4635 155.763 60.5566 155.781 60.6435 155.817C60.7303 155.853 60.8093 155.906 60.8758 155.972C60.9423 156.039 60.995 156.118 61.031 156.205C61.067 156.292 61.0855 156.385 61.0855 156.479Z" fill="white"/>
<path d="M81.8481 163.588C81.8481 156.683 84.9772 151.084 88.8398 151.084H81.4228C77.5645 151.084 74.4353 156.683 74.4353 163.588C74.4353 170.493 77.5645 176.087 81.4228 176.087H88.8398C84.9772 176.1 81.8481 170.506 81.8481 163.588Z" fill="black"/>
<path opacity="0.7" d="M81.8481 163.588C81.8481 156.683 84.9772 151.084 88.8398 151.084H81.4228C77.5645 151.084 74.4353 156.683 74.4353 163.588C74.4353 170.493 77.5645 176.087 81.4228 176.087H88.8398C84.9772 176.1 81.8481 170.506 81.8481 163.588Z" fill="#263238"/>
<path d="M88.8398 176.104C92.7013 176.104 95.8316 170.506 95.8316 163.601C95.8316 156.695 92.7013 151.097 88.8398 151.097C84.9784 151.097 81.8481 156.695 81.8481 163.601C81.8481 170.506 84.9784 176.104 88.8398 176.104Z" fill="#263238"/>
<path d="M89.3997 173.348C92.1369 173.348 94.3559 168.984 94.3559 163.601C94.3559 158.217 92.1369 153.853 89.3997 153.853C86.6624 153.853 84.4434 158.217 84.4434 163.601C84.4434 168.984 86.6624 173.348 89.3997 173.348Z" fill="white"/>
<path d="M88.9483 172.038C91.5681 172.038 93.6919 168.26 93.6919 163.601C93.6919 158.941 91.5681 155.164 88.9483 155.164C86.3285 155.164 84.2047 158.941 84.2047 163.601C84.2047 168.26 86.3285 172.038 88.9483 172.038Z" fill="#263238"/>
<path d="M87.9067 169.759C89.8194 169.759 91.37 167.002 91.37 163.601C91.37 160.199 89.8194 157.442 87.9067 157.442C85.994 157.442 84.4434 160.199 84.4434 163.601C84.4434 167.002 85.994 169.759 87.9067 169.759Z" fill="black"/>
<path opacity="0.5" d="M191.277 156.24V156.474C191.277 157.05 191.048 157.602 190.641 158.009C190.234 158.416 189.682 158.644 189.107 158.644H101.395V154.07H189.107C189.682 154.07 190.234 154.299 190.641 154.706C191.048 155.113 191.277 155.664 191.277 156.24Z" fill="black"/>
<path d="M164.017 163.588C164.017 156.683 167.146 151.084 171.005 151.084H163.592C159.729 151.084 156.6 156.683 156.6 163.588C156.6 170.493 159.729 176.087 163.592 176.087H170.996C167.146 176.1 164.017 170.506 164.017 163.588Z" fill="black"/>
<path opacity="0.7" d="M164.017 163.588C164.017 156.683 167.146 151.084 171.005 151.084H163.592C159.729 151.084 156.6 156.683 156.6 163.588C156.6 170.493 159.729 176.087 163.592 176.087H170.996C167.146 176.1 164.017 170.506 164.017 163.588Z" fill="#263238"/>
<path d="M171.005 176.104C174.866 176.104 177.996 170.506 177.996 163.601C177.996 156.695 174.866 151.097 171.005 151.097C167.143 151.097 164.013 156.695 164.013 163.601C164.013 170.506 167.143 176.104 171.005 176.104Z" fill="#263238"/>
<path d="M171.569 173.348C174.306 173.348 176.525 168.984 176.525 163.601C176.525 158.217 174.306 153.853 171.569 153.853C168.832 153.853 166.613 158.217 166.613 163.601C166.613 168.984 168.832 173.348 171.569 173.348Z" fill="white"/>
<path d="M171.113 172.038C173.733 172.038 175.857 168.26 175.857 163.601C175.857 158.941 173.733 155.164 171.113 155.164C168.493 155.164 166.37 158.941 166.37 163.601C166.37 168.26 168.493 172.038 171.113 172.038Z" fill="#263238"/>
<path d="M170.072 169.759C171.984 169.759 173.535 167.002 173.535 163.601C173.535 160.199 171.984 157.442 170.072 157.442C168.159 157.442 166.608 160.199 166.608 163.601C166.608 167.002 168.159 169.759 170.072 169.759Z" fill="black"/>
<path d="M142.725 102.424C142.638 104.095 142.487 105.709 142.239 107.354C142.025 109.053 141.653 110.728 141.128 112.358C140.962 112.833 140.755 113.292 140.507 113.73C140.335 114.025 140.125 114.296 139.883 114.537L139.761 114.65L139.692 114.702L139.657 114.732L139.509 114.832L139.219 115.036C138.481 115.509 137.706 115.92 136.901 116.264C135.373 116.936 133.784 117.462 132.157 117.835L131.593 116.29C132.973 115.526 134.388 114.745 135.677 113.934C136.307 113.547 136.913 113.123 137.491 112.662L137.682 112.501L137.778 112.419C137.778 112.419 137.817 112.354 137.864 112.25C137.991 111.969 138.096 111.679 138.177 111.382C138.373 110.668 138.528 109.943 138.641 109.212C138.776 108.457 138.884 107.688 138.975 106.907C139.153 105.358 139.305 103.769 139.409 102.224L142.725 102.424Z" fill="#CE7A63"/>
<path d="M132.622 116.312L129.957 115.487L130.456 118.712C130.456 118.712 132.192 118.495 133.06 117.523L132.622 116.312Z" fill="#CE7A63"/>
<path d="M126.728 117.562L126.876 117.996C126.959 118.236 127.118 118.442 127.328 118.583C127.539 118.725 127.79 118.795 128.043 118.781L129.401 118.721L128.898 115.487L127.405 116.073C127.122 116.186 126.893 116.404 126.767 116.681C126.641 116.959 126.627 117.274 126.728 117.562Z" fill="#CE7A63"/>
<path d="M145.876 99.2949C145.876 100.302 145.39 102.289 144.973 103.782C144.665 104.854 144.409 105.67 144.409 105.67L143.797 105.518L138.754 104.242C138.676 101.638 138.776 98.8045 141.358 97.1032C142.973 96.0355 145.863 97.5024 145.876 99.2949Z" fill="#263238"/>
<path opacity="0.3" d="M145.872 99.4685C145.542 99.1213 144.795 99.0605 143.168 99.577C140.837 100.315 140.186 102.867 140.156 104.598L143.797 105.518L144.11 105.601L144.409 105.67C144.409 105.67 144.535 105.262 144.717 104.642C144.791 104.39 144.882 104.095 144.969 103.774C145.403 102.37 145.706 100.929 145.872 99.4685Z" fill="black"/>
<path d="M135.525 180.314L132.448 179.238L134.384 172.571L137.456 173.652L135.525 180.314Z" fill="#CE7A63"/>
<path d="M176.638 172.415L174.134 174.281L169.008 169.086L171.512 167.22L176.638 172.415Z" fill="#CE7A63"/>
<path d="M173.11 173.522L175.813 171.287C175.859 171.247 175.918 171.225 175.978 171.225C176.039 171.225 176.097 171.247 176.143 171.287L178.218 173.17C178.264 173.217 178.301 173.272 178.327 173.333C178.352 173.393 178.365 173.458 178.365 173.524C178.365 173.59 178.352 173.655 178.327 173.716C178.301 173.776 178.264 173.831 178.218 173.878L178.174 173.917C177.22 174.681 176.716 175.002 175.527 175.983C174.798 176.586 173.266 178.031 172.255 178.864C171.243 179.698 170.367 178.747 170.714 178.309C172.263 176.347 172.623 175.054 172.806 173.995C172.85 173.807 172.957 173.64 173.11 173.522Z" fill="#263238"/>
<path d="M132.24 178.274L135.66 179.702C135.721 179.729 135.771 179.774 135.804 179.832C135.837 179.89 135.85 179.957 135.842 180.023L135.456 183.04C135.441 183.16 135.378 183.27 135.282 183.345C135.186 183.42 135.064 183.454 134.944 183.439C134.899 183.434 134.855 183.422 134.813 183.404C133.603 182.914 133.034 182.671 131.532 182.041L126.923 180.11C125.673 179.585 125.942 178.213 126.489 178.313C129.02 178.773 130.651 178.621 131.65 178.244C131.745 178.21 131.846 178.195 131.948 178.2C132.049 178.205 132.148 178.23 132.24 178.274Z" fill="#263238"/>
<path opacity="0.2" d="M134.384 172.576L133.39 176.009L136.384 177.363L137.461 173.652L134.384 172.576Z" fill="black"/>
<path opacity="0.2" d="M171.517 167.22L169.008 169.086L171.651 171.764L174.156 169.898L171.517 167.22Z" fill="black"/>
<path d="M155.337 115.587L142.664 115.77C140.928 105.957 140.494 101.274 140.494 99.0215C140.492 98.4597 140.686 97.9147 141.043 97.4806C141.399 97.0464 141.896 96.7502 142.447 96.6431C143.22 96.4912 144.183 96.3176 145.151 96.1831C145.481 96.1397 145.815 96.0963 146.145 96.0616C148.059 95.8974 149.982 95.8699 151.9 95.9791C152.186 95.9791 152.469 96.0052 152.768 96.0225C154.07 96.105 155.259 96.2699 156.105 96.4001C156.41 96.4491 156.682 96.617 156.863 96.8669C157.044 97.1167 157.118 97.428 157.069 97.7325C157.071 97.7541 157.071 97.7759 157.069 97.7976C156.696 99.5336 156.392 101.074 156.149 102.446C155.763 104.616 155.52 106.386 155.376 107.931C155.159 110.478 155.146 113.038 155.337 115.587Z" fill="#263238"/>
<path opacity="0.1" d="M155.372 107.944C154.734 106.031 154.769 102.059 155.454 100.775L156.153 102.454C155.758 104.637 155.515 106.399 155.372 107.944Z" fill="black"/>
<path d="M142.664 115.77C142.664 115.77 140.494 134.219 138.537 145.716C136.988 154.717 133.073 173.452 133.073 173.452L138.155 175.254C138.155 175.254 143.975 155.724 144.995 147.382C149.096 135.356 152.048 115.678 152.048 115.678L142.664 115.77Z" fill="#294277"/>
<path d="M132.248 174.711L138.129 176.781L138.915 174.893L132.535 172.454L132.248 174.711Z" fill="#263238"/>
<path opacity="0.1" d="M149.088 121.251L147.187 124.892C146.492 127.635 146.657 134.31 147.538 138.528C149.118 132.17 150.381 125.478 151.167 120.986L149.088 121.251Z" fill="black"/>
<path d="M145.416 115.77C145.416 115.77 147.686 136.419 151.926 147.886C154.053 153.636 169.829 170.684 169.829 170.684L173.387 167.836C173.387 167.836 163.384 150.637 159.009 146.136C157.225 136.154 159.469 121.19 155.324 115.592L145.416 115.77Z" fill="#294277"/>
<path d="M170.128 171.903L174.303 168.483L173.175 166.63L168.605 170.61L170.128 171.903Z" fill="#263238"/>
<path d="M155.537 114.845L156.123 115.969C156.166 116.056 156.066 116.151 155.919 116.151L142.621 116.342C142.504 116.342 142.413 116.286 142.4 116.217L142.274 115.084C142.274 115.006 142.365 114.936 142.487 114.936L155.324 114.75C155.365 114.747 155.405 114.755 155.442 114.771C155.479 114.788 155.512 114.813 155.537 114.845Z" fill="#263238"/>
<path d="M153.814 116.312H154.165C154.231 116.312 154.283 116.273 154.278 116.234L154.092 114.758C154.092 114.715 154.031 114.685 153.961 114.685H153.636C153.567 114.685 153.514 114.724 153.523 114.763L153.705 116.234C153.684 116.269 153.749 116.312 153.814 116.312Z" fill="#294277"/>
<path d="M143.576 116.451H143.923C143.993 116.451 144.04 116.412 144.036 116.368L143.858 114.897C143.858 114.854 143.789 114.819 143.719 114.819H143.372C143.302 114.819 143.25 114.858 143.255 114.902L143.437 116.373C143.446 116.416 143.506 116.451 143.576 116.451Z" fill="#294277"/>
<path d="M148.697 116.368H149.044C149.114 116.368 149.166 116.329 149.161 116.286L148.979 114.815C148.979 114.767 148.914 114.732 148.845 114.737H148.497C148.428 114.737 148.38 114.776 148.38 114.819L148.563 116.29C148.558 116.342 148.628 116.368 148.697 116.368Z" fill="#294277"/>
<path d="M125.704 102.78L144.513 100.198L147.117 118.664L128.646 121.199L125.704 102.78Z" fill="#294277"/>
<path opacity="0.8" d="M125.704 102.78L144.513 100.198L147.117 118.664L128.646 121.199L125.704 102.78Z" fill="white"/>
<path opacity="0.2" d="M144.772 99.3059L139.749 100.016L142.443 119.067L147.466 118.357L144.772 99.3059Z" fill="#294277"/>
<path d="M149.847 116.338L147.243 115.318L147.499 118.573C147.499 118.573 149.235 118.486 150.168 117.579L149.847 116.338Z" fill="#CE7A63"/>
<path d="M158.037 100.132C158.735 102.085 159.339 104.038 159.851 106.035C160.111 107.037 160.354 108.044 160.55 109.073C160.645 109.594 160.728 110.123 160.788 110.674C160.858 111.25 160.883 111.831 160.862 112.41C160.85 112.788 160.792 113.162 160.688 113.526C160.546 113.973 160.307 114.383 159.99 114.728C159.526 115.225 158.974 115.633 158.362 115.93C157.361 116.416 156.306 116.784 155.22 117.028C153.189 117.499 151.119 117.777 149.036 117.857L148.832 116.221C149.782 115.995 150.754 115.743 151.7 115.479C152.646 115.214 153.588 114.919 154.491 114.589C155.353 114.293 156.185 113.913 156.973 113.456C157.26 113.289 157.516 113.073 157.729 112.818C157.785 112.732 157.785 112.71 157.776 112.71C157.785 112.581 157.785 112.452 157.776 112.324C157.76 111.903 157.715 111.484 157.642 111.069C157.572 110.635 157.477 110.149 157.373 109.672C157.156 108.743 156.913 107.793 156.639 106.842C156.097 104.959 155.485 103.045 154.873 101.2L158.037 100.132Z" fill="#CE7A63"/>
<path d="M144.843 116.924L145.047 117.679C145.108 117.922 145.247 118.138 145.442 118.294C145.637 118.451 145.878 118.54 146.128 118.547L147.525 118.586L147.269 115.336L145.846 115.496C145.695 115.511 145.548 115.556 145.414 115.628C145.28 115.7 145.162 115.798 145.066 115.915C144.97 116.033 144.899 116.169 144.855 116.314C144.812 116.46 144.797 116.612 144.813 116.763C144.819 116.818 144.829 116.871 144.843 116.924Z" fill="#CE7A63"/>
<path d="M156.557 96.4956C158.015 97.0902 159.209 101.882 159.209 101.882L155.181 105.028C155.181 105.028 152.325 100.558 152.907 98.6178C153.402 96.9773 154.699 95.7448 156.557 96.4956Z" fill="#263238"/>
<path d="M172.124 174.876H172.072C171.999 174.871 171.929 174.848 171.868 174.808C171.806 174.769 171.756 174.714 171.721 174.65C171.695 174.613 171.679 174.57 171.675 174.525C171.672 174.48 171.68 174.435 171.699 174.394C171.877 174.047 173.001 173.908 173.123 173.895C173.137 173.892 173.152 173.894 173.165 173.901C173.178 173.907 173.189 173.917 173.196 173.93C173.205 173.942 173.209 173.956 173.209 173.971C173.209 173.986 173.205 174 173.196 174.012C172.962 174.329 172.506 174.85 172.124 174.876ZM172.971 174.064C172.537 174.13 171.925 174.273 171.838 174.464C171.827 174.48 171.822 174.499 171.822 174.518C171.822 174.537 171.827 174.556 171.838 174.572C171.858 174.617 171.891 174.655 171.931 174.682C171.972 174.71 172.019 174.726 172.068 174.728C172.285 174.728 172.632 174.494 172.979 174.064H172.971Z" fill="#263238"/>
<path d="M173.071 174.034C172.693 174.034 171.938 173.899 171.769 173.6C171.742 173.548 171.733 173.489 171.744 173.431C171.755 173.374 171.785 173.321 171.829 173.283C171.868 173.241 171.915 173.208 171.967 173.186C172.02 173.165 172.076 173.155 172.133 173.157C172.589 173.157 173.166 173.856 173.183 173.895C173.19 173.906 173.193 173.918 173.193 173.93C173.193 173.942 173.19 173.954 173.183 173.965C173.18 173.977 173.173 173.989 173.163 173.997C173.153 174.006 173.14 174.011 173.127 174.012L173.071 174.034ZM172.107 173.314C172.046 173.319 171.989 173.347 171.946 173.392C171.881 173.461 171.894 173.505 171.912 173.539C172.012 173.73 172.606 173.886 172.988 173.886C172.77 173.613 172.476 173.412 172.142 173.309L172.107 173.314Z" fill="#263238"/>
<path d="M130.491 178.205C130.25 178.126 130.039 177.974 129.888 177.771C129.853 177.711 129.832 177.644 129.826 177.575C129.82 177.506 129.829 177.437 129.853 177.371C129.865 177.334 129.886 177.3 129.915 177.274C129.944 177.247 129.979 177.228 130.018 177.22C130.417 177.146 131.359 178.157 131.541 178.361C131.55 178.374 131.554 178.389 131.554 178.404C131.554 178.42 131.55 178.435 131.541 178.448C131.534 178.461 131.522 178.472 131.508 178.479C131.494 178.485 131.478 178.486 131.463 178.483C131.13 178.423 130.805 178.33 130.491 178.205ZM130.191 177.389C130.147 177.367 130.097 177.358 130.048 177.363C130.048 177.363 130.009 177.363 129.992 177.415C129.974 177.46 129.967 177.509 129.972 177.557C129.976 177.605 129.992 177.652 130.018 177.693C130.152 177.927 130.617 178.148 131.276 178.292C130.967 177.936 130.604 177.632 130.2 177.389H130.191Z" fill="#263238"/>
<path d="M131.459 178.474H131.433C131.116 178.157 130.599 177.207 130.777 176.903C130.816 176.838 130.899 176.768 131.085 176.82C131.784 177.024 131.571 178.378 131.558 178.435C131.558 178.449 131.553 178.463 131.543 178.473C131.534 178.484 131.521 178.49 131.506 178.491C131.498 178.493 131.488 178.492 131.48 178.489C131.472 178.486 131.464 178.481 131.459 178.474ZM131.111 176.959H131.068C130.999 176.937 130.946 176.959 130.929 176.959C130.825 177.137 131.159 177.853 131.463 178.235C131.459 177.901 131.502 177.133 131.111 176.959Z" fill="#263238"/>
<path d="M144.557 82.9938C144.557 82.9938 142.821 85.8973 144.123 87.1689C145.425 88.4405 145.807 83.9313 145.807 83.9313L144.557 82.9938Z" fill="#263238"/>
<path d="M152.62 89.8076C152.62 89.8076 154.79 86.4137 153.888 83.0416C152.985 79.6694 148.767 81.8481 146.987 80.9236C146.335 80.5274 145.641 80.2056 144.917 79.9645C144.801 79.93 144.678 79.9227 144.558 79.943C144.439 79.9633 144.325 80.0107 144.227 80.0817C143.793 80.4636 144.548 81.1797 144.782 81.4488C144.638 81.282 144.472 81.136 144.288 81.0148C144.058 80.8629 143.749 80.8499 143.854 81.2361C144.032 81.6511 144.352 81.9895 144.756 82.1909C144.587 82.0954 143.585 81.5877 143.515 81.9045C143.506 81.9813 143.527 82.0586 143.572 82.1215C144.223 83.3367 145.533 84.8644 147.044 84.8947C148.862 84.9208 150.598 90.0376 152.62 89.8076Z" fill="#263238"/>
<path d="M153.389 89.9595C153.276 91.1053 151.575 91.1183 151.575 91.1183C151.296 91.7741 150.833 92.3349 150.242 92.7328C150.19 93.4248 150.213 94.1204 150.312 94.8073C150.598 95.888 150.963 96.2612 151.418 96.5043L151.054 96.8645C150.356 97.2671 149.568 97.4865 148.762 97.5025L148.285 97.2247L147.66 97.3245C145.924 96.756 146.358 95.5885 146.358 95.5885C146.674 94.7957 146.691 93.9148 146.406 93.1104C144.739 92.5896 144.058 91.14 143.823 88.7009C143.589 86.2619 144.96 83.9269 144.96 83.9269C146.844 85.7454 150.576 84.5779 150.576 84.5779C150.416 87.9979 152.013 89.2608 152.013 89.2608C152.538 88.7921 153.497 88.8181 153.389 89.9595Z" fill="#CE7A63"/>
<path d="M147.33 90.272C147.778 90.1467 148.165 89.8629 148.419 89.4735C148.44 89.4427 148.448 89.4052 148.441 89.3688C148.435 89.3324 148.414 89.2999 148.385 89.2782C148.37 89.2672 148.353 89.2593 148.335 89.2549C148.317 89.2505 148.299 89.2497 148.281 89.2525C148.262 89.2554 148.245 89.2618 148.229 89.2714C148.214 89.281 148.2 89.2936 148.189 89.3085C148.043 89.5718 147.816 89.7812 147.542 89.9062C147.268 90.0311 146.961 90.065 146.666 90.0029C146.631 89.9921 146.593 89.9956 146.56 90.0126C146.528 90.0297 146.503 90.059 146.492 90.0941C146.481 90.1298 146.485 90.1683 146.502 90.2016C146.519 90.2348 146.548 90.2601 146.583 90.272C146.828 90.336 147.085 90.336 147.33 90.272Z" fill="#263238"/>
<path d="M147.825 87.2861C147.825 87.5074 147.738 87.6984 147.59 87.7201C147.443 87.7418 147.308 87.5595 147.291 87.3382C147.274 87.1168 147.382 86.9042 147.53 86.9042C147.677 86.9042 147.807 87.0604 147.825 87.2861Z" fill="#263238"/>
<path d="M145.169 87.1732C145.169 87.3946 145.082 87.5855 144.934 87.6072C144.787 87.6289 144.657 87.4467 144.639 87.2253C144.622 87.004 144.726 86.813 144.874 86.7913C145.021 86.7696 145.156 86.9476 145.169 87.1732Z" fill="#263238"/>
<path d="M145.872 89.3216L145.841 87.7158L145.043 89.0698C145.153 89.1714 145.285 89.2467 145.429 89.2903C145.572 89.3339 145.724 89.3446 145.872 89.3216Z" fill="#BA4D3C"/>
<path d="M149.036 85.932C149.054 85.9269 149.072 85.918 149.088 85.906C149.109 85.8935 149.127 85.8769 149.142 85.8571C149.157 85.8374 149.167 85.8148 149.173 85.7909C149.178 85.767 149.179 85.7422 149.175 85.7179C149.171 85.6937 149.162 85.6706 149.148 85.6499C149.004 85.4077 148.794 85.2109 148.543 85.082C148.292 84.9531 148.01 84.8972 147.729 84.9208C147.705 84.9234 147.681 84.931 147.66 84.943C147.638 84.955 147.62 84.9713 147.605 84.9907C147.59 85.0102 147.579 85.0325 147.572 85.0563C147.566 85.08 147.565 85.1048 147.569 85.1291C147.575 85.178 147.601 85.2223 147.64 85.2523C147.679 85.2824 147.728 85.2959 147.777 85.2897C147.987 85.2766 148.196 85.3215 148.382 85.4195C148.568 85.5175 148.724 85.6648 148.832 85.8452C148.852 85.8796 148.883 85.9066 148.919 85.9222C148.956 85.9378 148.997 85.9413 149.036 85.932Z" fill="#263238"/>
<path d="M144.327 85.7541C144.375 85.7413 144.417 85.7102 144.444 85.6673C144.522 85.5496 144.632 85.457 144.761 85.4007C144.891 85.3445 145.034 85.327 145.173 85.3505C145.197 85.3555 145.222 85.3556 145.246 85.3508C145.27 85.3461 145.293 85.3365 145.313 85.3228C145.333 85.309 145.35 85.2913 145.364 85.2707C145.377 85.2501 145.386 85.227 145.39 85.2029C145.399 85.1546 145.388 85.1047 145.361 85.0641C145.333 85.0235 145.291 84.9954 145.242 84.9859C145.028 84.9461 144.806 84.972 144.606 85.0603C144.406 85.1485 144.238 85.2951 144.123 85.4807C144.098 85.5235 144.092 85.574 144.104 85.6218C144.116 85.6695 144.146 85.7107 144.188 85.7367C144.23 85.7595 144.28 85.7656 144.327 85.7541Z" fill="#263238"/>
<path d="M152.126 96.6562L151.193 97.5676L149.53 99.1994L148.905 98.2055L148.285 97.2247L150.455 94.6381L152.035 96.5477L152.126 96.6562Z" fill="white"/>
<path d="M148.285 97.2247L147.803 98.0276L147.096 99.1994L145.472 96.2699L146.51 95.0504L148.285 97.2247Z" fill="white"/>
</svg>
