<svg width="20" height="20" viewBox="0 0 20 20" fill="none" xmlns="http://www.w3.org/2000/svg">
<path opacity="0.4" d="M0.000244141 9.07849C0.0502441 11.4165 0.190244 15.4155 0.210244 15.8565C0.281244 16.7995 0.642244 17.7525 1.20424 18.4245C1.98624 19.3675 2.94924 19.7885 4.29224 19.7885C6.14824 19.7985 8.19424 19.7985 10.1812 19.7985C12.1762 19.7985 14.1122 19.7985 15.7472 19.7885C17.0712 19.7885 18.0642 19.3565 18.8362 18.4245C19.3982 17.7525 19.7592 16.7895 19.8102 15.8565C19.8302 15.4855 19.9302 11.1445 19.9902 9.07849H0.000244141Z" fill="#FFB700"/>
<path d="M9.24536 13.3842V14.6782C9.24536 15.0922 9.58136 15.4282 9.99536 15.4282C10.4094 15.4282 10.7454 15.0922 10.7454 14.6782V13.3842C10.7454 12.9702 10.4094 12.6342 9.99536 12.6342C9.58136 12.6342 9.24536 12.9702 9.24536 13.3842Z" fill="#FFB700"/>
<path fill-rule="evenodd" clip-rule="evenodd" d="M8.21124 12.5564C8.11124 12.9194 7.76224 13.1514 7.38424 13.1014C4.83324 12.7454 2.39524 11.8404 0.337244 10.4814C0.126244 10.3434 0.000244141 10.1074 0.000244141 9.8554V6.3894C0.000244141 4.2894 1.71224 2.5814 3.81724 2.5814H5.78424C5.97224 1.1294 7.20224 0.000396729 8.70424 0.000396729H11.2862C12.7872 0.000396729 14.0182 1.1294 14.2062 2.5814H16.1832C18.2822 2.5814 19.9902 4.2894 19.9902 6.3894V9.8554C19.9902 10.1074 19.8632 10.3424 19.6542 10.4814C17.5922 11.8464 15.1442 12.7554 12.5762 13.1104C12.5412 13.1154 12.5072 13.1174 12.4732 13.1174C12.1342 13.1174 11.8312 12.8884 11.7462 12.5524C11.5442 11.7564 10.8212 11.1994 9.99024 11.1994C9.14824 11.1994 8.43324 11.7444 8.21124 12.5564ZM11.2862 1.5004H8.70424C8.03124 1.5004 7.46924 1.9604 7.30124 2.5814H12.6882C12.5202 1.9604 11.9582 1.5004 11.2862 1.5004Z" fill="#FFB700"/>
</svg>
