<svg width="66" height="24" viewBox="0 0 66 24" fill="none" xmlns="http://www.w3.org/2000/svg">
<path d="M0 3.05934H60.298C60.9785 3.1179 62.3109 3.14984 63.6766 2.59529C64.1802 2.38944 64.9711 2.05849 65.5057 1.33535C65.8977 0.806536 65.9816 0.296351 66 0V20.9105C65.9816 21.2068 65.8977 21.717 65.5057 22.2459C64.9711 22.9681 64.1813 23.2999 63.6766 23.5049C62.4696 23.9956 61.2901 24.0275 60.5624 23.9876V24H0L6.61906 13.5292L0 3.05934Z" fill="#928FFF"/>
<path d="M16.092 18V8.13H20.418C21.4913 8.13 22.3173 8.35867 22.896 8.816C23.4747 9.264 23.764 9.88933 23.764 10.692C23.764 11.2893 23.5867 11.7933 23.232 12.204C22.8773 12.6147 22.3873 12.89 21.762 13.03V12.82C22.4807 12.9227 23.036 13.184 23.428 13.604C23.8293 14.0147 24.03 14.5607 24.03 15.242C24.03 16.1193 23.7267 16.8007 23.12 17.286C22.5133 17.762 21.6687 18 20.586 18H16.092ZM17.828 16.628H20.376C20.9827 16.628 21.454 16.516 21.79 16.292C22.126 16.0587 22.294 15.6807 22.294 15.158C22.294 14.626 22.126 14.248 21.79 14.024C21.454 13.7907 20.9827 13.674 20.376 13.674H17.828V16.628ZM17.828 12.316H20.11C20.754 12.316 21.23 12.1993 21.538 11.966C21.8553 11.7233 22.014 11.3687 22.014 10.902C22.014 10.4353 21.8553 10.0853 21.538 9.852C21.23 9.60933 20.754 9.488 20.11 9.488H17.828V12.316ZM25.618 18V10.93H27.368V18H25.618ZM25.52 9.6V7.892H27.466V9.6H25.52ZM29.2684 18V7.696H31.0184V18H29.2684ZM32.9188 18V7.696H34.6688V18H32.9188ZM36.5692 18V10.93H38.3192V18H36.5692ZM36.4712 9.6V7.892H38.4172V9.6H36.4712ZM40.2196 18V12.694C40.2196 12.4047 40.2102 12.1107 40.1916 11.812C40.1729 11.5133 40.1449 11.2193 40.1076 10.93H41.8016L41.9416 12.33H41.7736C41.9976 11.8353 42.3289 11.4573 42.7676 11.196C43.2062 10.9253 43.7149 10.79 44.2936 10.79C45.1242 10.79 45.7496 11.0233 46.1696 11.49C46.5896 11.9567 46.7996 12.6847 46.7996 13.674V18H45.0496V13.758C45.0496 13.1887 44.9376 12.7827 44.7136 12.54C44.4989 12.288 44.1722 12.162 43.7336 12.162C43.1922 12.162 42.7629 12.33 42.4456 12.666C42.1282 13.002 41.9696 13.45 41.9696 14.01V18H40.2196ZM51.9311 21.136C51.2778 21.136 50.6851 21.066 50.1531 20.926C49.6305 20.786 49.1638 20.5713 48.7531 20.282L49.1311 19.022C49.4018 19.1993 49.6818 19.344 49.9711 19.456C50.2605 19.568 50.5591 19.652 50.8671 19.708C51.1751 19.764 51.4878 19.792 51.8051 19.792C52.4585 19.792 52.9438 19.6287 53.2611 19.302C53.5878 18.9847 53.7511 18.5273 53.7511 17.93V16.236H53.8911C53.7418 16.7213 53.4385 17.1087 52.9811 17.398C52.5331 17.6873 52.0151 17.832 51.4271 17.832C50.7925 17.832 50.2371 17.692 49.7611 17.412C49.2945 17.1227 48.9305 16.712 48.6691 16.18C48.4078 15.648 48.2771 15.0227 48.2771 14.304C48.2771 13.5853 48.4078 12.9647 48.6691 12.442C48.9305 11.91 49.2945 11.504 49.7611 11.224C50.2371 10.9347 50.7925 10.79 51.4271 10.79C52.0245 10.79 52.5425 10.9347 52.9811 11.224C53.4291 11.504 53.7278 11.8867 53.8771 12.372L53.7511 12.288L53.8911 10.93H55.5851C55.5478 11.2193 55.5198 11.5133 55.5011 11.812C55.4825 12.1107 55.4731 12.4047 55.4731 12.694V17.72C55.4731 18.8307 55.1698 19.6753 54.5631 20.254C53.9658 20.842 53.0885 21.136 51.9311 21.136ZM51.9031 16.488C52.4631 16.488 52.9065 16.3013 53.2331 15.928C53.5691 15.5453 53.7371 15.004 53.7371 14.304C53.7371 13.604 53.5691 13.0673 53.2331 12.694C52.9065 12.3207 52.4631 12.134 51.9031 12.134C51.3338 12.134 50.8811 12.3207 50.5451 12.694C50.2091 13.0673 50.0411 13.604 50.0411 14.304C50.0411 15.004 50.2091 15.5453 50.5451 15.928C50.8811 16.3013 51.3338 16.488 51.9031 16.488Z" fill="white"/>
</svg>
