<svg width="19" height="17" viewBox="0 0 19 17" fill="none" xmlns="http://www.w3.org/2000/svg">
<path fill-rule="evenodd" clip-rule="evenodd" d="M7.42218 12.9872V15.8251C7.42218 15.9989 7.3532 16.1652 7.23052 16.2883C7.1074 16.411 6.94105 16.48 6.76728 16.48C5.5924 16.48 3.13958 16.48 1.96469 16.48C1.79093 16.48 1.62458 16.411 1.50146 16.2883C1.37878 16.1652 1.3098 15.9989 1.3098 15.8251C1.3098 13.8656 1.3098 8.18462 1.3098 8.18462C1.3098 8.18462 0.982348 8.18462 0.654898 8.18462C0.293394 8.18462 0 7.89123 0 7.52972C0 7.02414 0 6.34305 0 5.93002C0 5.70299 0.117441 5.49255 0.309981 5.37292C1.70404 4.5102 7.38245 0.995148 8.83108 0.0983737C9.0389 -0.030423 9.30087 -0.0330459 9.51131 0.092258C12.4627 1.8535 15.0635 3.6143 18.0171 5.37511C18.2158 5.49343 18.3372 5.70692 18.3372 5.93788C18.3372 6.35178 18.3372 7.0272 18.3372 7.52972C18.3372 7.89123 18.0438 8.18462 17.6823 8.18462C17.3548 8.18462 17.0274 8.18462 17.0274 8.18462C17.0274 8.18462 17.0274 13.8656 17.0274 15.8251C17.0274 15.9989 16.9584 16.1652 16.8357 16.2883C16.7126 16.411 16.5462 16.48 16.3725 16.48C15.1976 16.48 12.7448 16.48 11.5699 16.48C11.3961 16.48 11.2298 16.411 11.1066 16.2883C10.984 16.1652 10.915 15.9989 10.915 15.8251V12.9759C10.9089 12.0171 10.1287 11.2408 9.16858 11.2408C8.20457 11.2408 7.42218 12.0232 7.42218 12.9872Z" fill="#CDCFD3"/>
</svg>
