<svg width="16" height="18" viewBox="0 0 16 18" fill="none" xmlns="http://www.w3.org/2000/svg">
<path d="M6.32649 14.5C6.19372 14.7763 6.12154 15.083 6.12154 15.4C6.12154 16.1426 6.51769 16.8287 7.16077 17.2C7.80385 17.5713 8.59615 17.5713 9.23923 17.2C9.88231 16.8287 10.2785 16.1426 10.2785 15.4C10.2785 15.083 10.2063 14.7763 10.0735 14.5H6.32649Z" fill="#CDCFD3"/>
<path d="M8.08822 2.5C6.81519 2.5 5.59429 3.00571 4.69411 3.90589L4.50589 4.09411C3.60571 4.99429 3.1 6.21519 3.1 7.48823V8.36968C3.1 9.98994 2.45635 11.5438 1.31064 12.6895C1.11174 12.8884 1 13.1582 1 13.4395C1 14.0252 1.47483 14.5 2.06056 14.5H14.3394C14.9252 14.5 15.4 14.0252 15.4 13.4395C15.4 13.1582 15.2883 12.8884 15.0894 12.6895C13.9437 11.5438 13.3 9.98994 13.3 8.36968V7.48822C13.3 6.21519 12.7943 4.99429 11.8941 4.09411L11.7059 3.90589C10.8057 3.00571 9.58481 2.5 8.31177 2.5H8.08822Z" fill="#CDCFD3"/>
<path d="M8.8 2.52488V1.6C8.8 1.26863 8.53137 1 8.2 1C7.86863 1 7.6 1.26863 7.6 1.6V2.52488C7.7615 2.50837 7.92443 2.5 8.08822 2.5H8.31177C8.47557 2.5 8.6385 2.50837 8.8 2.52488Z" fill="#CDCFD3"/>
<path d="M8.08822 2.5C6.81519 2.5 5.59429 3.00571 4.69411 3.90589L4.50589 4.09411C3.60571 4.99429 3.1 6.21519 3.1 7.48823V8.36968C3.1 9.98994 2.45635 11.5438 1.31064 12.6895C1.11174 12.8884 1 13.1582 1 13.4395C1 14.0252 1.47483 14.5 2.06056 14.5H14.3394C14.9252 14.5 15.4 14.0252 15.4 13.4395C15.4 13.1582 15.2883 12.8884 15.0894 12.6895C13.9437 11.5438 13.3 9.98994 13.3 8.36968V7.48822C13.3 6.21519 12.7943 4.99429 11.8941 4.09411L11.7059 3.90589C10.8057 3.00571 9.58481 2.5 8.31177 2.5M8.08822 2.5H8.31177M8.08822 2.5C7.92443 2.5 7.7615 2.50837 7.6 2.52488V1.6C7.6 1.26863 7.86863 1 8.2 1C8.53137 1 8.8 1.26863 8.8 1.6V2.52488C8.6385 2.50837 8.47557 2.5 8.31177 2.5M6.12154 15.4C6.12154 15.083 6.19372 14.7763 6.32649 14.5H10.0735C10.2063 14.7763 10.2785 15.083 10.2785 15.4C10.2785 16.1426 9.88231 16.8287 9.23923 17.2C8.59615 17.5713 7.80385 17.5713 7.16077 17.2C6.51769 16.8287 6.12154 16.1426 6.12154 15.4Z" stroke="#CDCFD3" stroke-linecap="round" stroke-linejoin="round"/>
</svg>
