<svg width="21" height="14" viewBox="0 0 21 14" fill="none" xmlns="http://www.w3.org/2000/svg">
<path d="M11.8806 0H0.699999C0.313366 0 0 0.313366 0 0.699999V10.9132C0 11.2996 0.313366 11.6132 0.699999 11.6132H1.74207C1.74207 10.4393 2.6971 9.48406 3.871 9.48406C5.0449 9.48406 5.99993 10.4393 5.99993 11.6132H12.5806V0.699999C12.5806 0.313366 12.2673 0 11.8806 0Z" fill="#CDCFD3"/>
<path d="M20.8542 6.59196L17.2749 2.11757C17.1942 2.017 17.0248 1.93533 16.8957 1.93533H13.2581V11.6131H14.0323C14.0323 10.4392 14.9871 9.48389 16.161 9.48389C17.3349 9.48389 18.2899 10.4392 18.2899 11.6131H20.3001C20.6867 11.6131 21 11.2995 21 10.9131V7.00753C21 6.87873 20.9349 6.69253 20.8542 6.59196ZM14.5162 6.3871V2.9032H16.4517L19.2389 6.3871H14.5162Z" fill="#CDCFD3"/>
<path d="M3.87097 9.87122C2.91057 9.87122 2.12891 10.6526 2.12891 11.613C2.12891 12.5732 2.91057 13.3551 3.87097 13.3551C4.8316 13.3551 5.61304 12.5737 5.61304 11.613C5.61304 10.6524 4.8316 9.87122 3.87097 9.87122Z" fill="#CDCFD3"/>
<path d="M16.1617 9.87122C15.2011 9.87122 14.4194 10.6526 14.4194 11.613C14.4194 12.5732 15.2011 13.3551 16.1617 13.3551C17.1219 13.3551 17.9036 12.5737 17.9036 11.613C17.9036 10.6524 17.1219 9.87122 16.1617 9.87122Z" fill="#CDCFD3"/>
</svg>
