<svg width="18" height="18" viewBox="0 0 18 18" fill="none" xmlns="http://www.w3.org/2000/svg">
<path d="M5.8101 8.97844C6.65189 10.2423 7.73612 11.3265 8.99995 12.1683C9.3985 12.3907 9.85889 12.4765 10.3108 12.4127C10.7627 12.3489 11.1813 12.139 11.5028 11.8149C11.8234 11.4944 12.258 11.3139 12.7114 11.313C13.1649 11.312 13.6002 11.4908 13.9221 11.81L15.9293 13.8172C17.0485 14.9327 16.0889 16.374 15.0753 17.1542C14.6165 17.5327 14.0731 17.795 13.4914 17.9189C12.9097 18.0427 12.3066 18.0246 11.7334 17.8659C8.97125 17.078 6.46699 15.5727 4.47529 13.5031C2.40566 11.5114 0.900386 9.00713 0.112521 6.24498C-0.0899192 5.40898 -0.0178786 4.53001 0.317984 3.73812C0.653847 2.94624 1.23569 2.2835 1.97744 1.84795C2.30743 1.6206 2.70672 1.51622 3.10575 1.55298C3.50479 1.58973 3.87829 1.76531 4.1612 2.04911L6.16833 4.05624C6.32755 4.21507 6.45341 4.40412 6.53854 4.61228C6.62366 4.82044 6.66632 5.04351 6.66402 5.26839C6.66355 5.7212 6.48353 6.15533 6.16345 6.47561C5.83942 6.79703 5.62948 7.21565 5.56568 7.66757C5.50187 8.11949 5.58772 8.57988 5.8101 8.97844ZM12.1329 8.12481C12.1264 7.5223 11.8842 6.9463 11.4581 6.52024C11.0321 6.09417 10.4561 5.85194 9.85357 5.84544C9.76784 5.84795 9.68345 5.86732 9.6052 5.90245C9.52696 5.93758 9.4564 5.98777 9.39756 6.05017C9.33871 6.11257 9.29273 6.18594 9.26225 6.26611C9.23176 6.34628 9.21736 6.43166 9.21988 6.51739C9.22141 6.60343 9.24012 6.68829 9.27491 6.76699C9.3097 6.84569 9.35988 6.91665 9.42248 6.97568C9.48508 7.03472 9.55885 7.08065 9.63946 7.11077C9.72006 7.1409 9.80587 7.1546 9.89185 7.15109C10.1367 7.15987 10.3686 7.26334 10.5386 7.43972C10.6273 7.52298 10.6984 7.62305 10.748 7.73409C10.7975 7.84514 10.8245 7.96494 10.8273 8.0865C10.8249 8.25796 10.8901 8.42346 11.0087 8.54729C11.1273 8.67111 11.2899 8.74333 11.4613 8.74836C11.6326 8.75339 11.7991 8.69082 11.9248 8.57416C12.0505 8.4575 12.1252 8.2961 12.1329 8.12481ZM17.9674 8.12864C18.2322 3.98765 13.9861 -0.245026 9.84966 0.0110666C9.67652 0.0171679 9.51291 0.091796 9.3948 0.218534C9.27669 0.345271 9.21376 0.513737 9.21986 0.68687C9.22596 0.860003 9.30059 1.02362 9.42733 1.14173C9.55407 1.25984 9.72253 1.32276 9.89567 1.31666C13.2905 1.0868 16.8873 4.68412 16.6616 8.08278C16.6582 8.25435 16.7223 8.42039 16.8403 8.54505C16.9582 8.6697 17.1204 8.74295 17.2919 8.74897C17.4634 8.75499 17.6304 8.6933 17.7568 8.57723C17.8832 8.46116 17.9588 8.30002 17.9674 8.12864ZM15.0448 8.13183C15.2274 5.4881 12.4917 2.75507 9.8465 2.93369C9.76081 2.93713 9.67664 2.95741 9.59879 2.99338C9.52094 3.02934 9.45094 3.08029 9.39278 3.14331C9.33462 3.20633 9.28945 3.28019 9.25983 3.36067C9.23022 3.44115 9.21675 3.52668 9.22018 3.61236C9.22362 3.69805 9.2439 3.78222 9.27987 3.86007C9.31584 3.93792 9.36679 4.00792 9.42981 4.06608C9.49283 4.12423 9.56669 4.16941 9.64717 4.19903C9.72765 4.22864 9.81317 4.24211 9.89886 4.23867C11.7968 4.101 13.8793 6.1777 13.7397 8.07956C13.7353 8.25109 13.7986 8.41746 13.9159 8.5427C14.0331 8.66794 14.195 8.742 14.3664 8.74886C14.5379 8.75573 14.7052 8.69485 14.8321 8.57939C14.959 8.46393 15.0354 8.30316 15.0448 8.13183ZM12.1329 8.12481C12.1264 7.5223 11.8842 6.9463 11.4581 6.52024C11.0321 6.09417 10.4561 5.85194 9.85357 5.84544C9.76784 5.84795 9.68345 5.86732 9.6052 5.90245C9.52696 5.93758 9.4564 5.98777 9.39756 6.05017C9.33871 6.11257 9.29273 6.18594 9.26225 6.26611C9.23176 6.34628 9.21736 6.43166 9.21988 6.51739C9.22141 6.60343 9.24012 6.68829 9.27491 6.76699C9.30962 6.8458 9.35931 6.91715 9.42196 6.97623C9.48461 7.03532 9.55875 7.08074 9.63946 7.11077C9.72006 7.1409 9.80587 7.1546 9.89185 7.15109C10.1367 7.15987 10.3686 7.26334 10.5386 7.43972C10.6273 7.52298 10.6984 7.62305 10.748 7.73409C10.7975 7.84514 10.8245 7.96494 10.8273 8.0865C10.8249 8.25796 10.8901 8.42346 11.0087 8.54729C11.1273 8.67111 11.2899 8.74333 11.4613 8.74836C11.6326 8.75339 11.7991 8.69082 11.9248 8.57416C12.0505 8.4575 12.1252 8.2961 12.1329 8.12481ZM12.1329 8.12481C12.1264 7.5223 11.8842 6.9463 11.4581 6.52024C11.0321 6.09417 10.4561 5.85194 9.85357 5.84544C9.76784 5.84795 9.68345 5.86732 9.6052 5.90245C9.52696 5.93758 9.4564 5.98777 9.39756 6.05017C9.33871 6.11257 9.29273 6.18594 9.26225 6.26611C9.23176 6.34628 9.21736 6.43166 9.21988 6.51739C9.22141 6.60343 9.24012 6.68829 9.27491 6.76699C9.30962 6.8458 9.35931 6.91715 9.42196 6.97623C9.48461 7.03532 9.55875 7.08074 9.63946 7.11077C9.72006 7.1409 9.80587 7.1546 9.89185 7.15109C10.1367 7.15987 10.3686 7.26334 10.5386 7.43972C10.6273 7.52298 10.6984 7.62305 10.748 7.73409C10.7975 7.84514 10.8245 7.96494 10.8273 8.0865C10.8249 8.25796 10.8901 8.42346 11.0087 8.54729C11.1273 8.67111 11.2899 8.74333 11.4613 8.74836C11.6326 8.75339 11.7991 8.69082 11.9248 8.57416C12.0505 8.4575 12.1252 8.2961 12.1329 8.12481Z" fill="#A9A9A9"/>
</svg>
