<svg width="18" height="21" viewBox="0 0 18 21" fill="none" xmlns="http://www.w3.org/2000/svg">
<path d="M1.28571 20.5714H12.8571C13.3988 20.5714 13.8613 20.2361 14.0506 19.7621C13.9746 19.7657 13.8983 19.7679 13.8214 19.7679C12.8383 19.7679 11.9235 19.4715 11.1602 18.9643H2.89286C2.80403 18.9643 2.73214 18.8923 2.73214 18.8036C2.73214 18.7148 2.80403 18.6429 2.89286 18.6429H10.7302C10.2991 18.2816 9.93243 17.8464 9.64866 17.3571H2.89286C2.80403 17.3571 2.73214 17.2852 2.73214 17.1964C2.73214 17.1077 2.80403 17.0357 2.89286 17.0357H9.47665C9.28313 16.6348 9.14455 16.2028 9.06827 15.75H2.89286C2.80403 15.75 2.73214 15.678 2.73214 15.5893C2.73214 15.5005 2.80403 15.4286 2.89286 15.4286H9.02417C9.00833 15.27 9 15.1092 9 14.9464C9 14.6726 9.02417 14.4044 9.06827 14.1429H2.89286C2.80403 14.1429 2.73214 14.0709 2.73214 13.9821C2.73214 13.8934 2.80403 13.8214 2.89286 13.8214H9.13387C9.24358 13.3642 9.41874 12.9322 9.64866 12.5357H2.89286C2.80403 12.5357 2.73214 12.4637 2.73214 12.375C2.73214 12.2863 2.80403 12.2143 2.89286 12.2143H9.85175C10.2021 11.707 10.6465 11.2699 11.1602 10.9286H2.89286C2.80403 10.9286 2.73214 10.8566 2.73214 10.7679C2.73214 10.6791 2.80403 10.6071 2.89286 10.6071H11.25C11.3388 10.6071 11.4107 10.6791 11.4107 10.7679C11.4107 10.7702 11.4095 10.7721 11.4095 10.7744C12.1195 10.3623 12.943 10.125 13.8214 10.125C13.9296 10.125 14.0364 10.1299 14.1429 10.1369V4.66071V4.33929V4.22455L8.92043 0H8.83929H8.67857H1.28571C0.575679 0 0 0.575605 0 1.28571V19.2857C0 19.9958 0.575679 20.5714 1.28571 20.5714ZM9.32143 1.22505L12.7347 4.01786H9.96115C9.60834 4.01786 9.32143 3.74453 9.32143 3.40851V1.22505ZM2.89286 5.78571H11.25C11.3388 5.78571 11.4107 5.85768 11.4107 5.94643C11.4107 6.03517 11.3388 6.10714 11.25 6.10714H2.89286C2.80403 6.10714 2.73214 6.03517 2.73214 5.94643C2.73214 5.85768 2.80403 5.78571 2.89286 5.78571ZM2.89286 7.39286H11.25C11.3388 7.39286 11.4107 7.46482 11.4107 7.55357C11.4107 7.64232 11.3388 7.71429 11.25 7.71429H2.89286C2.80403 7.71429 2.73214 7.64232 2.73214 7.55357C2.73214 7.46482 2.80403 7.39286 2.89286 7.39286ZM2.89286 9H11.25C11.3388 9 11.4107 9.07197 11.4107 9.16071C11.4107 9.24946 11.3388 9.32143 11.25 9.32143H2.89286C2.80403 9.32143 2.73214 9.24946 2.73214 9.16071C2.73214 9.07197 2.80403 9 2.89286 9Z" fill="#928FFF"/>
<path d="M9.64282 14.9464C9.64282 17.2543 11.514 19.125 13.8214 19.125C16.1288 19.125 18 17.2543 18 14.9464C18 12.6386 16.1288 10.7679 13.8214 10.7679C11.514 10.7679 9.64282 12.6386 9.64282 14.9464ZM15.6558 13.112C15.7814 13.2375 15.7814 13.4411 15.6558 13.5665L14.2759 14.9464L15.6558 16.3263C15.7814 16.4518 15.7814 16.6553 15.6558 16.7808C15.593 16.8436 15.5108 16.875 15.4285 16.875C15.3463 16.875 15.2641 16.8436 15.2013 16.7808L13.8214 15.4009L12.4415 16.7808C12.3787 16.8436 12.2965 16.875 12.2143 16.875C12.132 16.875 12.0498 16.8436 11.987 16.7808C11.8614 16.6553 11.8614 16.4518 11.987 16.3263L13.3669 14.9464L11.987 13.5665C11.8614 13.4411 11.8614 13.2375 11.987 13.112C12.1126 12.9865 12.316 12.9865 12.4415 13.112L13.8214 14.4919L15.2013 13.112C15.3268 12.9865 15.5302 12.9865 15.6558 13.112Z" fill="#C5C4FF"/>
</svg>
