<svg width="66" height="24" viewBox="0 0 66 24" fill="none" xmlns="http://www.w3.org/2000/svg">
<path d="M0 3.05934H60.298C60.9785 3.1179 62.3109 3.14984 63.6766 2.59529C64.1802 2.38944 64.9711 2.05849 65.5057 1.33535C65.8977 0.806536 65.9816 0.296351 66 0V20.9105C65.9816 21.2068 65.8977 21.717 65.5057 22.2459C64.9711 22.9681 64.1813 23.2999 63.6766 23.5049C62.4696 23.9956 61.2901 24.0275 60.5624 23.9876V24H0L6.61906 13.5292L0 3.05934Z" fill="#FFB700"/>
<path d="M24.684 18.14C23.6573 18.14 22.7753 17.9347 22.038 17.524C21.31 17.104 20.75 16.516 20.358 15.76C19.966 14.9947 19.77 14.094 19.77 13.058C19.77 12.022 19.966 11.126 20.358 10.37C20.75 9.614 21.31 9.03067 22.038 8.62C22.7753 8.2 23.6573 7.99 24.684 7.99C25.3747 7.99 25.9953 8.088 26.546 8.284C27.106 8.48 27.5867 8.76933 27.988 9.152L27.4 10.58C26.9613 10.2253 26.5367 9.97333 26.126 9.824C25.7247 9.66533 25.2627 9.586 24.74 9.586C23.7413 9.586 22.976 9.88933 22.444 10.496C21.9213 11.0933 21.66 11.9473 21.66 13.058C21.66 14.1687 21.9213 15.0273 22.444 15.634C22.976 16.2407 23.7413 16.544 24.74 16.544C25.2627 16.544 25.7247 16.4693 26.126 16.32C26.5367 16.1613 26.9613 15.9 27.4 15.536L27.988 16.964C27.5867 17.3373 27.106 17.6267 26.546 17.832C25.9953 18.0373 25.3747 18.14 24.684 18.14ZM32.0199 18.14C31.4039 18.14 30.8626 17.9953 30.3959 17.706C29.9292 17.4073 29.5652 16.9827 29.3039 16.432C29.0426 15.8813 28.9119 15.2233 28.9119 14.458C28.9119 13.6927 29.0426 13.0393 29.3039 12.498C29.5652 11.9473 29.9292 11.5273 30.3959 11.238C30.8626 10.9393 31.4039 10.79 32.0199 10.79C32.6172 10.79 33.1399 10.9393 33.5879 11.238C34.0452 11.5273 34.3486 11.9193 34.4979 12.414H34.3439L34.4979 10.93H36.1779C36.1499 11.2193 36.1219 11.5133 36.0939 11.812C36.0752 12.1107 36.0659 12.4047 36.0659 12.694V18H34.3299L34.3159 16.544H34.4839C34.3346 17.0293 34.0312 17.4167 33.5739 17.706C33.1166 17.9953 32.5986 18.14 32.0199 18.14ZM32.5099 16.796C33.0606 16.796 33.5039 16.6047 33.8399 16.222C34.1759 15.83 34.3439 15.242 34.3439 14.458C34.3439 13.674 34.1759 13.0907 33.8399 12.708C33.5039 12.3253 33.0606 12.134 32.5099 12.134C31.9592 12.134 31.5159 12.3253 31.1799 12.708C30.8439 13.0907 30.6759 13.674 30.6759 14.458C30.6759 15.242 30.8392 15.83 31.1659 16.222C31.5019 16.6047 31.9499 16.796 32.5099 16.796ZM40.4915 18.14C39.8849 18.14 39.3249 18.07 38.8115 17.93C38.3075 17.7807 37.8829 17.5753 37.5375 17.314L38.0275 16.138C38.3822 16.3807 38.7742 16.5673 39.2035 16.698C39.6329 16.8287 40.0669 16.894 40.5055 16.894C40.9722 16.894 41.3175 16.8147 41.5415 16.656C41.7749 16.4973 41.8915 16.2827 41.8915 16.012C41.8915 15.7973 41.8169 15.6293 41.6675 15.508C41.5275 15.3773 41.2989 15.2793 40.9815 15.214L39.5815 14.948C38.9842 14.8173 38.5269 14.5933 38.2095 14.276C37.9015 13.9587 37.7475 13.5433 37.7475 13.03C37.7475 12.5913 37.8642 12.204 38.0975 11.868C38.3402 11.532 38.6809 11.2707 39.1195 11.084C39.5675 10.888 40.0902 10.79 40.6875 10.79C41.2102 10.79 41.7002 10.86 42.1575 11C42.6242 11.14 43.0162 11.35 43.3335 11.63L42.8295 12.764C42.5402 12.5307 42.2089 12.3487 41.8355 12.218C41.4622 12.0873 41.0982 12.022 40.7435 12.022C40.2582 12.022 39.9035 12.1107 39.6795 12.288C39.4555 12.456 39.3435 12.6753 39.3435 12.946C39.3435 13.1513 39.4089 13.324 39.5395 13.464C39.6795 13.5947 39.8942 13.6927 40.1835 13.758L41.5835 14.024C42.2089 14.1453 42.6802 14.36 42.9975 14.668C43.3242 14.9667 43.4875 15.3773 43.4875 15.9C43.4875 16.3667 43.3615 16.768 43.1095 17.104C42.8575 17.44 42.5075 17.6967 42.0595 17.874C41.6115 18.0513 41.0889 18.14 40.4915 18.14ZM44.9852 18V7.696H46.7352V12.344H46.5392C46.7539 11.84 47.0852 11.4573 47.5332 11.196C47.9812 10.9253 48.4945 10.79 49.0732 10.79C49.9132 10.79 50.5385 11.028 50.9492 11.504C51.3599 11.9707 51.5652 12.6847 51.5652 13.646V18H49.8152V13.73C49.8152 13.1793 49.7079 12.7827 49.4932 12.54C49.2879 12.288 48.9565 12.162 48.4992 12.162C47.9672 12.162 47.5379 12.33 47.2112 12.666C46.8939 12.9927 46.7352 13.4313 46.7352 13.982V18H44.9852Z" fill="white"/>
</svg>
