<svg width="29" height="22" viewBox="0 0 29 22" fill="none" xmlns="http://www.w3.org/2000/svg">
<path d="M6.18157 12.7289C2.84448 13.6096 0.743412 15.7428 0.0620649 18.7391C-0.136193 19.5963 0.171031 19.8465 0.552579 19.965C3.17548 20.7792 8.03009 21.0684 9.93526 21.0684C11.8404 21.0684 16.695 20.7792 19.3179 19.965C19.6995 19.8465 20.0067 19.5963 19.8084 18.7391C19.1271 15.743 17.0257 13.6097 13.6889 12.7289L10.2395 15.6413C10.0638 15.7896 9.80794 15.7896 9.63227 15.6413L6.18157 12.7289Z" fill="#BC2119"/>
<path fill-rule="evenodd" clip-rule="evenodd" d="M9.93495 0.0683899C7.03273 0.0683899 4.69629 2.44855 4.69629 5.40502V5.76582C4.69629 8.72226 7.03273 11.1024 9.93495 11.1024C12.8372 11.1024 15.1736 8.72226 15.1736 5.76582V5.40502C15.1736 2.44855 12.8372 0.0683899 9.93495 0.0683899Z" fill="#BC2119"/>
<path fill-rule="evenodd" clip-rule="evenodd" d="M23.0522 3.87766C22.3904 3.87759 21.7352 4.00892 21.1238 4.26413C20.5124 4.51935 19.9569 4.89345 19.4889 5.36508C19.021 5.83671 18.6497 6.39664 18.3965 7.01288C18.1432 7.62913 18.0128 8.28963 18.0128 8.95666C18.0132 9.08078 18.0181 9.20485 18.0275 9.32861L16.541 10.5924V11.3715H18.6243C19.0559 12.1764 19.6951 12.8488 20.4745 13.3178C21.2539 13.7867 22.1445 14.0348 23.0522 14.0357C24.3885 14.0356 25.6701 13.5005 26.615 12.548C27.5599 11.5955 28.0908 10.3037 28.0909 8.95666C28.0908 7.60964 27.5599 6.31782 26.615 5.36533C25.6701 4.41285 24.3885 3.87772 23.0522 3.87766ZM23.0522 6.00999C23.5216 6.00999 23.902 6.39346 23.902 6.86659C23.902 7.33972 23.5216 7.72319 23.0522 7.72319C22.5828 7.72319 22.2024 7.33972 22.2024 6.86659C22.2024 6.39346 22.5828 6.00999 23.0522 6.00999ZM21.8229 8.28251H23.2849C23.5447 8.28251 23.7538 8.49335 23.7538 8.75519V10.734H24.2808V11.9033H21.8229V10.734H22.3498V9.18138L21.8229 8.94469V8.28251Z" fill="#BC2119"/>
</svg>
