<svg width="21" height="22" viewBox="0 0 21 22" fill="none" xmlns="http://www.w3.org/2000/svg">
<path d="M21 16.6535C21 16.922 20.9503 17.2724 20.8509 17.705C20.7514 18.1375 20.647 18.4781 20.5377 18.7267C20.329 19.2239 19.7224 19.7509 18.7181 20.3077C17.7835 20.8148 16.8588 21.0684 15.944 21.0684C15.6755 21.0684 15.4144 21.0509 15.161 21.0162C14.9074 20.9813 14.6216 20.9192 14.3033 20.8297C13.9852 20.7402 13.7491 20.6682 13.5949 20.6135C13.4408 20.5589 13.1648 20.4569 12.7672 20.3078C12.3695 20.1587 12.1258 20.0692 12.0364 20.0393C11.062 19.6913 10.1918 19.2786 9.42629 18.8014C8.15362 18.0159 6.83865 16.9445 5.4813 15.5872C4.12399 14.2298 3.05258 12.9147 2.267 11.6422C1.78973 10.8765 1.37712 10.0066 1.02905 9.03215C0.999167 8.94265 0.909665 8.69905 0.760543 8.30136C0.611421 7.90366 0.50947 7.62767 0.454832 7.47358C0.400195 7.31948 0.328124 7.08336 0.238623 6.76517C0.149122 6.44699 0.0870111 6.16109 0.0521474 5.90751C0.0174308 5.65395 0 5.3929 0 5.1244C0 4.20959 0.253563 3.28485 0.760686 2.35027C1.31748 1.34599 1.84451 0.73954 2.34168 0.530666C2.59012 0.421387 2.93069 0.316946 3.36325 0.217481C3.79581 0.11802 4.14621 0.0683594 4.41471 0.0683594C4.55387 0.0683594 4.65832 0.0833008 4.7279 0.113037C4.9069 0.172654 5.17043 0.550586 5.51832 1.24655C5.62774 1.43551 5.77686 1.70386 5.96584 2.05193C6.15481 2.39998 6.32883 2.71564 6.48792 2.99895C6.647 3.2824 6.8011 3.54825 6.95022 3.79684C6.9801 3.83654 7.06711 3.9609 7.21125 4.16964C7.35539 4.37838 7.46232 4.55488 7.5319 4.69918C7.60148 4.84332 7.63635 4.98511 7.63635 5.12427C7.63635 5.3232 7.4947 5.5718 7.21125 5.87004C6.9278 6.16828 6.61961 6.44176 6.2865 6.69035C5.9534 6.93893 5.64518 7.20244 5.36175 7.48077C5.07831 7.75909 4.93665 7.98788 4.93665 8.1669C4.93665 8.2564 4.96156 8.36832 5.01122 8.5025C5.06087 8.63668 5.10321 8.73863 5.13792 8.80821C5.17279 8.87779 5.24237 8.99717 5.34666 9.16622C5.45111 9.33526 5.50824 9.42974 5.5182 9.44966C6.27389 10.8118 7.1389 11.9802 8.1133 12.9546C9.0877 13.929 10.2561 14.7941 11.6182 15.5497C11.6382 15.5597 11.7325 15.6168 11.9017 15.7212C12.0707 15.8257 12.19 15.8952 12.2597 15.93C12.3293 15.9648 12.4312 16.007 12.5654 16.0567C12.6996 16.1065 12.8115 16.1312 12.901 16.1312C13.08 16.1312 13.3086 15.9896 13.5871 15.7061C13.8656 15.4227 14.1291 15.1145 14.3775 14.7814C14.6261 14.4483 14.8996 14.1401 15.1979 13.8566C15.4961 13.5732 15.7447 13.4315 15.9436 13.4315C16.0828 13.4315 16.2246 13.4664 16.3687 13.536C16.5129 13.6056 16.6894 13.7125 16.8983 13.8566C17.107 14.0008 17.2314 14.0878 17.2711 14.1177C17.5196 14.2668 17.7857 14.4209 18.0689 14.58C18.3524 14.7391 18.6681 14.9131 19.016 15.102C19.364 15.291 19.6324 15.4401 19.8213 15.5496C20.5174 15.8976 20.8952 16.1612 20.9549 16.34C20.9847 16.4096 20.9995 16.514 20.9995 16.6532L21 16.6535Z" fill="#BC2119"/>
</svg>
