<svg width="21" height="20" viewBox="0 0 21 20" fill="none" xmlns="http://www.w3.org/2000/svg">
<path fill-rule="evenodd" clip-rule="evenodd" d="M8.5 15.7612V19.2052C8.5 19.4161 8.421 19.618 8.2805 19.7674C8.1395 19.9163 7.949 20 7.75 20C6.4045 20 3.5955 20 2.25 20C2.051 20 1.8605 19.9163 1.7195 19.7674C1.579 19.618 1.5 19.4161 1.5 19.2052C1.5 16.8272 1.5 9.93279 1.5 9.93279C1.5 9.93279 1.125 9.93279 0.75 9.93279C0.336 9.93279 0 9.57673 0 9.13801C0 8.52444 0 7.69787 0 7.19663C0 6.92111 0.134496 6.66572 0.354996 6.52054C1.9515 5.47355 8.4545 1.2077 10.1135 0.119386C10.3515 -0.0369211 10.6515 -0.0401042 10.8925 0.111964C14.2725 2.24939 17.251 4.38629 20.6335 6.52319C20.861 6.66678 21 6.92588 21 7.20617C21 7.70847 21 8.52815 21 9.13801C21 9.57673 20.664 9.93279 20.25 9.93279C19.875 9.93279 19.5 9.93279 19.5 9.93279C19.5 9.93279 19.5 16.8272 19.5 19.2052C19.5 19.4161 19.421 19.618 19.2805 19.7674C19.1395 19.9163 18.949 20 18.75 20C17.4045 20 14.5955 20 13.25 20C13.051 20 12.8605 19.9163 12.7195 19.7674C12.579 19.618 12.5 19.4161 12.5 19.2052V15.7474C12.493 14.5838 11.5995 13.6418 10.5 13.6418C9.396 13.6418 8.5 14.5913 8.5 15.7612Z" fill="#BC2119"/>
</svg>
