<svg width="24" height="25" viewBox="0 0 24 25" fill="none" xmlns="http://www.w3.org/2000/svg">
<path d="M23.9332 1.2718V19.8208C23.9332 19.9607 23.8564 20.1088 23.7303 20.1774C23.4313 20.3364 23.1296 20.4955 22.8306 20.6518C21.5306 21.3375 20.2278 22.0259 18.9278 22.7144C18.1049 23.1477 17.2849 23.5838 16.4621 24.0172C16.1905 24.1625 15.8422 23.9842 15.8422 23.6606C15.8422 23.6496 15.8422 23.6387 15.8422 23.6277C15.8367 23.3781 15.8422 23.1258 15.8422 22.8734V20.6436H8.02545C7.57839 20.6436 7.20264 20.2651 7.20264 19.8208V13.8993C7.20264 13.4385 7.58113 13.0957 8.02545 13.0765C8.46977 13.0573 8.84827 13.4687 8.84827 13.8993V18.998H15.8422V4.32445C15.8422 4.18457 15.919 4.03646 16.0452 3.96789C16.3441 3.80882 16.6458 3.64974 16.9448 3.4934C18.0638 2.90098 19.1828 2.31129 20.3046 1.71887H8.84827V6.29646C8.84827 6.75724 8.46977 7.10008 8.02545 7.11928C7.58113 7.13847 7.20264 6.72707 7.20264 6.29646V0.896051C7.20264 0.448988 7.58113 0.0732353 8.02545 0.0732353C8.03642 0.0732353 8.04465 0.0732353 8.05562 0.0732353C8.75227 0.0622644 9.45167 0.0732353 10.1511 0.0732353H23.5492C23.6288 0.075978 23.7001 0.106148 23.7632 0.152774C23.7659 0.155517 23.7714 0.158259 23.7741 0.161002C23.8153 0.191172 23.8509 0.22957 23.8784 0.278939C23.8948 0.306366 23.9085 0.339279 23.9168 0.369449C23.9168 0.372192 23.9195 0.374934 23.9195 0.377677C23.9305 0.413332 23.936 0.448988 23.936 0.484643C23.936 0.495614 23.936 0.506585 23.936 0.517555C23.9387 0.767143 23.9332 1.01947 23.9332 1.2718Z" fill="#BC2119"/>
<path d="M10.4422 9.14892V11.1566C10.4422 11.3788 10.253 11.568 10.0308 11.568H5.77959V13.9459C5.77959 14.2284 5.41755 14.4972 5.15974 14.3025C4.95678 14.1462 4.75107 13.9898 4.54811 13.8362C3.65673 13.156 2.76535 12.4731 1.87396 11.7929C1.31445 11.365 0.754933 10.9372 0.195419 10.5093C-0.0651396 10.3091 -0.0651396 9.99916 0.195419 9.79895C0.39838 9.64261 0.604084 9.48628 0.807045 9.33268C1.69843 8.65249 2.58981 7.96955 3.48119 7.28936C4.04071 6.86149 4.60022 6.43363 5.15974 6.00577C5.41755 5.80829 5.77959 6.07708 5.77959 6.36232V8.74026H10.0308C10.253 8.72654 10.4422 8.93225 10.4422 9.14892Z" fill="#BC2119"/>
</svg>
