<svg width="20" height="24" viewBox="0 0 20 24" fill="none" xmlns="http://www.w3.org/2000/svg">
<path d="M7.47941 19.4168C7.31791 19.7937 7.2301 20.2121 7.2301 20.6446C7.2301 21.6576 7.712 22.5936 8.49427 23.1001C9.27654 23.6066 10.2403 23.6066 11.0226 23.1001C11.8049 22.5936 12.2868 21.6576 12.2868 20.6446C12.2868 20.2121 12.199 19.7937 12.0375 19.4168H7.47941Z" fill="#BC2119"/>
<path d="M9.62247 3.04631C8.07388 3.04631 6.58872 3.7362 5.49371 4.96422L5.26474 5.221C4.16972 6.44903 3.55455 8.11459 3.55455 9.85127V11.0538C3.55455 13.2641 2.77157 15.384 1.37788 16.9469C1.13593 17.2182 1 17.5862 1 17.97C1 18.769 1.5776 19.4168 2.29012 19.4168H17.2268C17.9393 19.4168 18.5169 18.769 18.5169 17.97C18.5169 17.5862 18.381 17.2182 18.139 16.9469C16.7453 15.384 15.9623 13.2641 15.9623 11.0538V9.85127C15.9623 8.11458 15.3472 6.44903 14.2521 5.22101L14.0232 4.96423C12.9282 3.7362 11.443 3.04631 9.89441 3.04631H9.62247Z" fill="#BC2119"/>
<path d="M10.4883 3.08025V1.81852C10.4883 1.36647 10.1615 1 9.75844 1C9.35535 1 9.02857 1.36647 9.02857 1.81852V3.08025C9.22503 3.05773 9.42322 3.04631 9.62247 3.04631H9.89441C10.0937 3.04631 10.2919 3.05773 10.4883 3.08025Z" fill="#BC2119"/>
<path d="M9.62247 3.04631C8.07388 3.04631 6.58872 3.7362 5.49371 4.96422L5.26474 5.221C4.16972 6.44903 3.55455 8.11459 3.55455 9.85127V11.0538C3.55455 13.2641 2.77157 15.384 1.37788 16.9469C1.13593 17.2182 1 17.5862 1 17.97C1 18.769 1.5776 19.4168 2.29012 19.4168H17.2268C17.9393 19.4168 18.5169 18.769 18.5169 17.97C18.5169 17.5862 18.381 17.2182 18.139 16.9469C16.7453 15.384 15.9623 13.2641 15.9623 11.0538V9.85127C15.9623 8.11458 15.3472 6.44903 14.2521 5.22101L14.0232 4.96423C12.9282 3.7362 11.443 3.04631 9.89441 3.04631M9.62247 3.04631H9.89441M9.62247 3.04631C9.42322 3.04631 9.22502 3.05773 9.02857 3.08025V1.81852C9.02857 1.36647 9.35535 1 9.75844 1C10.1615 1 10.4883 1.36647 10.4883 1.81852V3.08025C10.2919 3.05773 10.0937 3.04631 9.89441 3.04631M7.2301 20.6446C7.2301 20.2121 7.31791 19.7937 7.47941 19.4168H12.0375C12.199 19.7937 12.2868 20.2121 12.2868 20.6446C12.2868 21.6576 11.8049 22.5936 11.0226 23.1001C10.2403 23.6066 9.27654 23.6066 8.49427 23.1001C7.712 22.5936 7.2301 21.6576 7.2301 20.6446Z" stroke="#BC2119" stroke-linecap="round" stroke-linejoin="round"/>
</svg>
