<svg width="18" height="24" viewBox="0 0 18 24" fill="none" xmlns="http://www.w3.org/2000/svg">
<path d="M8.57301 12.5623C10.4907 12.5623 12.2274 11.8007 13.4851 10.5693C15.8309 12.0945 17.3777 14.7069 17.3777 17.6733V18.6568C17.3778 19.3926 17.0689 20.1041 16.4751 20.5385C14.3027 22.1275 11.6077 23.0684 8.68892 23.0684C5.77011 23.0684 3.07538 22.1277 0.902703 20.5385C0.308902 20.1042 0 19.3928 0 18.6571L0.000178261 17.6732L0.000534783 17.5861C0.0299478 14.7136 1.5095 12.1815 3.75578 10.6601C5.00503 11.8382 6.7026 12.5623 8.57299 12.5623L8.57301 12.5623Z" fill="#BC2119"/>
<path d="M2.78027 5.74761C2.78027 2.61113 5.37361 0.0683594 8.5727 0.0683594C11.7718 0.0683594 14.3651 2.6109 14.3651 5.74761C14.3651 8.88396 11.7718 11.4264 8.5727 11.4264C5.37361 11.4264 2.78027 8.88387 2.78027 5.74761Z" fill="#BC2119"/>
</svg>
