<svg width="24" height="24" viewBox="0 0 24 24" fill="none" xmlns="http://www.w3.org/2000/svg">
<path d="M19.2837 16.5756C19.2837 16.9692 18.9645 17.2883 18.571 17.2883C18.1775 17.2883 17.8584 16.9691 17.8584 16.5756C17.8584 16.1821 18.1775 15.863 18.571 15.863C18.9645 15.863 19.2837 16.1821 19.2837 16.5756Z" fill="#BC2119"/>
<path d="M21.3171 14.7719H15.8233C15.7217 14.7719 15.6387 14.8549 15.6387 14.9566V18.3411C15.6387 18.4427 15.7217 18.5258 15.8233 18.5258H18.319V17.7654C17.7691 17.6492 17.3548 17.16 17.3548 16.5756C17.3548 15.9053 17.9004 15.3597 18.5707 15.3597C19.2411 15.3597 19.7866 15.9053 19.7866 16.5756C19.7866 17.16 19.3724 17.6492 18.8223 17.7654V18.5258H21.3171C21.4192 18.5258 21.5028 18.4427 21.5028 18.3411V14.9566C21.5028 14.8549 21.4192 14.7719 21.3171 14.7719H21.3171Z" fill="#BC2119"/>
<path d="M20.3507 12.8051C20.3507 11.8227 19.552 11.0235 18.5707 11.0235C17.5887 11.0235 16.7896 11.8227 16.7896 12.8051V14.2686H20.3507V12.8051Z" fill="#BC2119"/>
<path d="M23.1345 0.0684977H5.2583V20.431H18.1067C18.2455 20.431 18.3584 20.5437 18.3584 20.6827C18.3584 21.3229 18.6055 21.9228 19.0549 22.3717C19.5083 22.8201 20.1088 23.0676 20.7438 23.0676C22.0619 23.0676 23.1344 21.9976 23.1344 20.6825V0.0683899L23.1345 0.0684977ZM7.64572 2.7218H21.0046C21.1434 2.7218 21.2563 2.83449 21.2563 2.97351C21.2563 3.11235 21.1436 3.22522 21.0046 3.22522H7.64572C7.50688 3.22522 7.39401 3.11253 7.39401 2.97351C7.39401 2.83467 7.50635 2.7218 7.64572 2.7218ZM7.64572 5.20714H18.0011C18.1399 5.20714 18.2528 5.31983 18.2528 5.45885C18.2528 5.59769 18.1401 5.71056 18.0011 5.71056L7.64572 5.71038C7.50688 5.71038 7.39401 5.59769 7.39401 5.45867C7.39401 5.31983 7.50635 5.20714 7.64572 5.20714V5.20714ZM7.64572 7.69229H20.7453C20.8841 7.69229 20.997 7.80498 20.997 7.944C20.997 8.08284 20.8843 8.19571 20.7453 8.19571L7.64572 8.19554C7.50688 8.19554 7.39401 8.08285 7.39401 7.94383C7.39401 7.80499 7.50635 7.69229 7.64572 7.69229ZM7.64572 10.1779H15.8788C16.0176 10.1779 16.1305 10.2906 16.1305 10.4297C16.1305 10.5685 16.0178 10.6814 15.8788 10.6814L7.64572 10.6812C7.50688 10.6812 7.39401 10.5685 7.39401 10.4295C7.39401 10.2906 7.50635 10.1779 7.64572 10.1779ZM12.9787 13.1669H7.64572C7.50688 13.1669 7.39401 13.0542 7.39401 12.9152C7.39401 12.7763 7.5067 12.6634 7.64572 12.6634H12.9791C13.118 12.6634 13.2308 12.7761 13.2308 12.9152C13.2306 13.0542 13.118 13.1669 12.9789 13.1669H12.9787ZM22.0057 18.3412C22.0057 18.7207 21.6968 19.0291 21.3168 19.0291H15.823C15.4435 19.0291 15.1351 18.7205 15.1351 18.3412V14.9566C15.1351 14.5772 15.4436 14.2687 15.823 14.2687H16.286V12.8052C16.286 11.5454 17.3108 10.5203 18.5704 10.5203C19.8296 10.5203 20.8536 11.5454 20.8536 12.8052V14.2687H21.3167C21.6967 14.2687 22.0057 14.5773 22.0057 14.9566L22.0057 18.3412Z" fill="#BC2119"/>
<path d="M18.7002 22.7291C18.2151 22.2439 17.9377 21.6129 17.8798 20.9348H0C0.127787 22.1305 1.13341 23.0682 2.36491 23.0682L19.1164 23.0684C18.97 22.9682 18.8296 22.8569 18.7002 22.7291L18.7002 22.7291Z" fill="#BC2119"/>
</svg>
