<svg width="24" height="25" viewBox="0 0 24 25" fill="none" xmlns="http://www.w3.org/2000/svg">
<path d="M19.1999 14.4684C17.2399 14.4684 15.5519 15.6523 14.808 17.3404L9.11196 14.1723C9.42392 13.5323 9.60001 12.8204 9.60001 12.0684C9.60001 10.9084 9.18393 9.83645 8.48805 9.0045L13.3118 5.9884C13.9999 7.22036 15.2959 8.0684 16.7999 8.0684C19.0079 8.0684 20.7999 6.27644 20.7999 4.0684C20.7999 1.86035 19.0079 0.0683899 16.7999 0.0683899C14.5918 0.0683899 12.7999 1.86035 12.7999 4.0684C12.7999 4.18036 12.8238 4.29232 12.8318 4.40447L7.20806 7.92447L5.60001 8.86839L6.76646 7.70194C6.16486 7.42765 5.50396 7.26836 4.80001 7.26836C2.15196 7.26836 0 9.42032 0 12.0684C0 14.7164 2.15196 16.8684 4.80001 16.8684C6.11196 16.8684 7.30392 16.3403 8.1761 15.4764L14.4161 18.9484C14.4081 19.0523 14.4 19.1564 14.4 19.2684C14.4 21.9164 16.552 24.0684 19.2 24.0684C21.8481 24.0684 24.0001 21.9164 24.0001 19.2684C24.0001 16.6203 21.8481 14.4684 19.2 14.4684L19.1999 14.4684Z" fill="#BC2119"/>
</svg>
