<svg width="25" height="16" viewBox="0 0 25 16" fill="none" xmlns="http://www.w3.org/2000/svg">
<path d="M13.6643 0H0.805092C0.360413 0 0 0.360413 0 0.805092V12.5516C0 12.9961 0.360413 13.3567 0.805092 13.3567H2.0036C2.0036 12.0066 3.10202 10.9079 4.45216 10.9079C5.8023 10.9079 6.90071 12.0066 6.90071 13.3567H14.4694V0.805092C14.4694 0.360413 14.109 0 13.6643 0Z" fill="#BC2119"/>
<path d="M23.9851 7.58172L19.8684 2.43557C19.7756 2.31991 19.5807 2.22598 19.4323 2.22598H15.2485V13.3566H16.139C16.139 12.0065 17.2371 10.9078 18.5873 10.9078C19.9374 10.9078 21.0358 12.0065 21.0358 13.3566H23.3478C23.7924 13.3566 24.1528 12.996 24.1528 12.5515V8.05968C24.1528 7.91154 24.078 7.69738 23.9851 7.58172ZM16.6956 7.3461V3.33916H18.9216L22.1272 7.3461H16.6956Z" fill="#BC2119"/>
<path d="M4.45234 11.353C3.34775 11.353 2.44873 12.2517 2.44873 13.3563C2.44873 14.4607 3.34775 15.3599 4.45234 15.3599C5.55719 15.3599 6.45594 14.4612 6.45594 13.3563C6.45594 12.2515 5.55719 11.353 4.45234 11.353Z" fill="#BC2119"/>
<path d="M18.5874 11.353C17.4825 11.353 16.5835 12.2517 16.5835 13.3563C16.5835 14.4607 17.4825 15.3599 18.5874 15.3599C19.6917 15.3599 20.5907 14.4612 20.5907 13.3563C20.5907 12.2515 19.6917 11.353 18.5874 11.353Z" fill="#BC2119"/>
</svg>
