<svg width="373" height="248" viewBox="0 0 373 248" fill="none" xmlns="http://www.w3.org/2000/svg">
<g clip-path="url(#clip0_415_8499)">
<path d="M373 0H0V248H373V0Z" fill="#FFF3F3"/>
<path d="M255.129 203.951C221.155 203.951 190.842 204.967 170.998 206.556C154.276 206.052 132.451 205.748 108.574 205.748C55.9404 205.748 13.2727 207.228 13.2727 209.055C13.2727 210.881 55.9409 212.361 108.574 212.361C122.71 212.361 136.125 212.254 148.19 212.063C149.859 212.758 153.101 213.42 157.673 214.032C153.73 214.973 151.313 216.238 151.313 217.628C151.313 220.537 161.869 222.895 174.892 222.895C187.915 222.895 198.472 220.537 198.472 217.628C198.472 217.398 198.398 217.172 198.27 216.949C214.795 217.613 234.271 217.996 255.129 217.996C314.907 217.996 363.367 214.852 363.367 210.974C363.367 207.095 314.907 203.951 255.129 203.951Z" fill="#F9E5CF"/>
<path d="M310.004 197.664H7.84839C6.77415 197.664 5.90332 196.795 5.90332 195.724V195.684C5.90332 194.613 6.77415 193.745 7.84839 193.745H310.004C311.079 193.745 311.949 194.613 311.949 195.684V195.724C311.95 196.795 311.079 197.664 310.004 197.664Z" fill="#F9E5CF"/>
<path d="M33.9893 75.9222C34.6582 72.5539 37.9098 69.3988 36.565 66.2378C35.6902 64.1809 33.1409 63.2038 32.3088 61.1295C31.4226 58.9198 32.4784 55.6383 30.0295 54.7445C28.6793 54.2515 27.1773 54.9236 26.5159 56.1973C24.6255 59.8374 23.7905 63.9919 24.0451 68.0765C24.2038 70.621 23.0878 73.041 21.0507 74.581C17.6076 77.184 15.5188 81.6356 16.0982 85.937C12.0733 89.4928 9.85819 94.9904 10.2958 100.335C10.6306 104.423 12.5115 108.348 15.4129 111.246C16.8174 112.649 17.2889 114.681 16.7701 116.594C16.3862 118.009 16.4001 119.533 16.8606 120.926C17.4167 122.606 18.6083 124.054 20.1157 124.981C21.2625 125.687 21.9285 126.92 22.1254 128.25C22.3975 130.084 23.7751 131.824 25.5794 132.444C28.1566 133.33 31.1366 132.227 32.9738 130.219C34.8109 128.21 35.6434 125.459 35.8747 122.75C36.0204 121.044 35.9553 119.297 36.464 117.663C37.2986 114.982 39.548 112.985 40.7834 110.464C42.4559 107.05 41.9427 102.739 39.7076 99.693C38.9905 98.7154 38.9338 97.4065 39.4948 96.3321C40.3716 94.6542 40.4049 92.4747 39.8345 90.6137C39.0462 88.042 37.3577 85.8606 35.9742 83.5522C34.5901 81.2443 33.4656 78.5604 33.9893 75.9222Z" fill="#189FB1"/>
<path d="M18.0389 91.4684C17.9563 91.4207 17.9285 91.3156 17.9762 91.2332C18.0239 91.1509 18.1294 91.1231 18.2114 91.1707C18.294 91.2184 18.3218 91.3235 18.2746 91.4054C18.2264 91.4877 18.1209 91.516 18.0389 91.4684Z" fill="#54CED1"/>
<path d="M17.4623 93.3204C17.2977 93.2252 17.241 93.0149 17.3364 92.8507C17.4319 92.6865 17.6428 92.63 17.8074 92.7252C17.972 92.8204 18.0282 93.0307 17.9332 93.1949C17.8378 93.3591 17.6269 93.4151 17.4623 93.3204Z" fill="#54CED1"/>
<path d="M24.3445 88.2796C24.5235 88.4383 24.5399 88.7121 24.3808 88.8906C24.2216 89.0692 23.9471 89.0856 23.7681 88.9268C23.589 88.7681 23.5726 88.4943 23.7318 88.3158C23.8909 88.1367 24.1654 88.1209 24.3445 88.2796Z" fill="#54CED1"/>
<path d="M24.5871 90.894C24.8174 91.0983 24.8382 91.45 24.6333 91.6801C24.4284 91.9103 24.0758 91.9306 23.8456 91.7267C23.6153 91.5224 23.5944 91.1707 23.7988 90.9406C24.0037 90.7104 24.3568 90.6896 24.5871 90.894Z" fill="#54CED1"/>
<path d="M25.4442 87.1849C25.662 87.3778 25.6814 87.7102 25.4879 87.9274C25.2945 88.1447 24.9613 88.164 24.7439 87.9711C24.5261 87.7781 24.5067 87.4458 24.7002 87.2285C24.8931 87.0118 25.2263 86.9925 25.4442 87.1849Z" fill="#54CED1"/>
<path d="M32.0854 84.2297C32.252 84.377 32.2669 84.6315 32.1192 84.7977C31.9715 84.9638 31.7164 84.9787 31.5503 84.8309C31.3837 84.6836 31.3688 84.4291 31.5165 84.2635C31.6642 84.0973 31.9188 84.0819 32.0854 84.2297Z" fill="#54CED1"/>
<path d="M32.2535 90.2184C32.343 90.2978 32.3514 90.4347 32.2714 90.524C32.1918 90.6133 32.0545 90.6217 31.965 90.5418C31.8755 90.4625 31.867 90.3256 31.9471 90.2363C32.0267 90.147 32.164 90.1391 32.2535 90.2184Z" fill="#54CED1"/>
<path d="M31.8369 92.0829C32.0035 92.2302 32.0184 92.4847 31.8707 92.6508C31.723 92.817 31.4679 92.8319 31.3017 92.6845C31.1351 92.5372 31.1202 92.2828 31.2679 92.1166C31.4156 91.9505 31.6703 91.9356 31.8369 92.0829Z" fill="#54CED1"/>
<path d="M34.42 93.0481C34.6249 93.2296 34.6433 93.5426 34.4613 93.7465C34.2793 93.9508 33.966 93.9692 33.7611 93.7876C33.5562 93.6061 33.5378 93.2931 33.7198 93.0893C33.9018 92.8849 34.2151 92.8666 34.42 93.0481Z" fill="#54CED1"/>
<path d="M18.5693 84.2094C18.438 84.0303 18.4773 83.7784 18.6568 83.6474C18.8364 83.5165 19.0885 83.5557 19.2203 83.7347C19.3516 83.9138 19.3123 84.1657 19.1328 84.2967C18.9528 84.4276 18.7006 84.3889 18.5693 84.2094Z" fill="#54CED1"/>
<path d="M16.9809 88.5236C16.87 88.3718 16.9029 88.159 17.055 88.0484C17.2072 87.9373 17.4206 87.9706 17.532 88.1223C17.6429 88.2741 17.6101 88.4869 17.4579 88.5975C17.3057 88.7081 17.0923 88.6754 16.9809 88.5236Z" fill="#54CED1"/>
<path d="M18.3104 86.6978C18.0578 86.3531 18.1329 85.8695 18.4785 85.6175C18.8242 85.3656 19.3091 85.441 19.5617 85.7857C19.8143 86.1304 19.7387 86.614 19.3931 86.866C19.0484 87.1174 18.5636 87.0426 18.3104 86.6978Z" fill="#54CED1"/>
<path d="M22.3771 87.6943C22.582 87.8758 22.6004 88.1888 22.4184 88.3927C22.2363 88.597 21.9225 88.6154 21.7181 88.4338C21.5132 88.2523 21.4948 87.9393 21.6768 87.7355C21.8584 87.5311 22.1722 87.5128 22.3771 87.6943Z" fill="#54CED1"/>
<path d="M25.6484 92.4965C25.9558 92.7688 25.9836 93.2381 25.7106 93.5446C25.4375 93.8511 24.9671 93.8789 24.6597 93.6066C24.3524 93.3343 24.3245 92.8651 24.5975 92.5585C24.8711 92.252 25.3411 92.2242 25.6484 92.4965Z" fill="#54CED1"/>
<path d="M35.3699 88.4745C35.5489 88.6332 35.5653 88.907 35.4062 89.0856C35.247 89.2641 34.9725 89.2805 34.7934 89.1218C34.6144 88.9631 34.598 88.6893 34.7571 88.5107C34.9163 88.3321 35.1903 88.3158 35.3699 88.4745Z" fill="#54CED1"/>
<path d="M32.5197 93.5982C32.8524 93.8933 32.8828 94.4017 32.5869 94.7335C32.2909 95.0653 31.7817 95.0956 31.4485 94.8005C31.1157 94.5054 31.0854 93.9975 31.3813 93.6651C31.6772 93.3333 32.1865 93.3031 32.5197 93.5982Z" fill="#54CED1"/>
<path d="M37.1467 91.2446C37.3133 91.392 37.3282 91.6464 37.1805 91.8121C37.0328 91.9782 36.7777 91.9931 36.6111 91.8458C36.4445 91.6985 36.4295 91.444 36.5773 91.2779C36.7255 91.1122 36.9801 91.0968 37.1467 91.2446Z" fill="#54CED1"/>
<path d="M18.9584 117.495C19.125 117.642 19.1399 117.897 18.9922 118.062C18.8445 118.229 18.5894 118.243 18.4228 118.096C18.2562 117.949 18.2412 117.694 18.3894 117.529C18.5371 117.363 18.7923 117.348 18.9584 117.495Z" fill="#54CED1"/>
<path d="M22.7634 103.855C22.5023 103.499 22.5799 102.999 22.9375 102.739C23.2945 102.479 23.7959 102.556 24.057 102.913C24.3181 103.269 24.2405 103.769 23.8829 104.029C23.5258 104.289 23.0245 104.212 22.7634 103.855Z" fill="#54CED1"/>
<path d="M14.7648 91.9624C14.5589 91.8433 14.4883 91.5804 14.6076 91.3751C14.727 91.1698 14.9906 91.0993 15.1965 91.2184C15.4024 91.3374 15.473 91.6003 15.3536 91.8056C15.2343 92.011 14.9707 92.0814 14.7648 91.9624Z" fill="#54CED1"/>
<path d="M19.7516 120.101C19.7401 119.957 19.848 119.831 19.9923 119.82C20.1365 119.808 20.2628 119.915 20.2743 120.06C20.2857 120.204 20.1778 120.33 20.0336 120.341C19.8893 120.352 19.763 120.245 19.7516 120.101Z" fill="#54CED1"/>
<path d="M18.7097 111.171C18.6868 110.883 18.9021 110.632 19.1906 110.609C19.4791 110.586 19.7312 110.801 19.7541 111.089C19.777 111.376 19.5616 111.628 19.2732 111.651C18.9852 111.673 18.7326 111.459 18.7097 111.171Z" fill="#54CED1"/>
<path d="M23.9358 123.45C23.9159 123.198 24.1044 122.978 24.3565 122.958C24.6087 122.938 24.8295 123.126 24.8494 123.378C24.8693 123.629 24.6808 123.849 24.4286 123.869C24.1765 123.89 23.9557 123.702 23.9358 123.45Z" fill="#54CED1"/>
<path d="M24.895 120.047C24.8691 119.724 25.1118 119.441 25.4361 119.415C25.7608 119.389 26.0443 119.631 26.0702 119.955C26.096 120.278 25.8533 120.561 25.5291 120.587C25.2043 120.612 24.9203 120.371 24.895 120.047Z" fill="#54CED1"/>
<path d="M22.296 123.481C22.2716 123.176 22.5004 122.908 22.8067 122.884C23.1131 122.86 23.3811 123.088 23.4055 123.393C23.4299 123.699 23.2011 123.966 22.8943 123.991C22.5884 124.015 22.3203 123.787 22.296 123.481Z" fill="#54CED1"/>
<path d="M16.9337 108.094C16.9153 107.86 17.0899 107.656 17.3246 107.637C17.5589 107.619 17.7638 107.793 17.7827 108.027C17.8011 108.26 17.6265 108.465 17.3917 108.484C17.157 108.502 16.9521 108.327 16.9337 108.094Z" fill="#54CED1"/>
<path d="M18.7371 105.986C18.7271 105.86 18.8211 105.75 18.9474 105.741C19.0737 105.731 19.1842 105.825 19.1941 105.951C19.204 106.077 19.1101 106.187 18.9837 106.197C18.8574 106.206 18.747 106.112 18.7371 105.986Z" fill="#54CED1"/>
<path d="M20.422 104.871C20.4036 104.637 20.5781 104.433 20.8129 104.414C21.0471 104.396 21.2525 104.57 21.2709 104.804C21.2893 105.037 21.1143 105.242 20.88 105.261C20.6458 105.279 20.4409 105.104 20.422 104.871Z" fill="#54CED1"/>
<path d="M19.1633 102.251C19.1404 101.963 19.3558 101.711 19.6442 101.689C19.9327 101.666 20.1848 101.881 20.2077 102.169C20.2306 102.456 20.0152 102.708 19.7268 102.731C19.4388 102.753 19.1862 102.539 19.1633 102.251Z" fill="#54CED1"/>
<path d="M16.7352 104.768C16.7168 104.534 16.8919 104.33 17.1261 104.311C17.3604 104.293 17.5653 104.468 17.5842 104.701C17.6031 104.935 17.428 105.139 17.1933 105.158C16.959 105.176 16.7541 105.002 16.7352 104.768Z" fill="#54CED1"/>
<path d="M16.4887 97.7264C16.4732 97.529 16.6209 97.3559 16.8194 97.34C17.0178 97.3246 17.1909 97.4719 17.2068 97.6698C17.2227 97.8677 17.0745 98.0404 16.8761 98.0562C16.6776 98.0721 16.5046 97.9243 16.4887 97.7264Z" fill="#54CED1"/>
<path d="M15.5148 100.359C15.479 99.9093 15.8157 99.5159 16.2663 99.4807C16.7169 99.445 17.1113 99.7808 17.1466 100.23C17.1824 100.68 16.8457 101.073 16.3951 101.108C15.9445 101.144 15.5506 100.808 15.5148 100.359Z" fill="#54CED1"/>
<path d="M22.125 119.371C22.1021 119.084 22.3174 118.832 22.6059 118.809C22.8943 118.787 23.1465 119.001 23.1694 119.289C23.1922 119.577 22.9769 119.828 22.6884 119.851C22.4005 119.874 22.1478 119.659 22.125 119.371Z" fill="#54CED1"/>
<path d="M25.262 118.053C25.2277 117.621 25.551 117.244 25.9837 117.21C26.4163 117.176 26.7948 117.498 26.8291 117.929C26.8634 118.361 26.5402 118.738 26.1075 118.773C25.6748 118.806 25.2963 118.484 25.262 118.053Z" fill="#54CED1"/>
<path d="M16.9377 106.488C16.9178 106.237 17.1063 106.017 17.3585 105.996C17.6111 105.976 17.8314 106.164 17.8518 106.416C17.8717 106.667 17.6832 106.887 17.4311 106.908C17.1784 106.928 16.9576 106.74 16.9377 106.488Z" fill="#54CED1"/>
<path d="M22.951 99.0641C22.9137 98.5968 23.2638 98.1876 23.7323 98.1504C24.2008 98.1137 24.6111 98.4624 24.6479 98.9302C24.6847 99.3979 24.335 99.8066 23.8661 99.8433C23.3981 99.8805 22.9878 99.5313 22.951 99.0641Z" fill="#54CED1"/>
<path d="M17.7015 97.4799C17.6831 97.2463 17.8582 97.0419 18.0924 97.0231C18.3267 97.0047 18.5316 97.1793 18.5505 97.4129C18.5689 97.6465 18.3943 97.8509 18.1596 97.8697C17.9248 97.8881 17.7199 97.7135 17.7015 97.4799Z" fill="#54CED1"/>
<path d="M17.91 95.9254C17.8981 95.7716 18.013 95.6372 18.1672 95.6248C18.3213 95.6124 18.4561 95.7275 18.4685 95.8812C18.481 96.035 18.3656 96.1694 18.2114 96.1818C18.0567 96.1942 17.922 96.0791 17.91 95.9254Z" fill="#54CED1"/>
<path d="M13.324 97.583C13.2997 97.2775 13.5284 97.0101 13.8348 96.9858C14.1412 96.9615 14.4092 97.1897 14.4336 97.4957C14.458 97.8013 14.2292 98.0686 13.9228 98.0929C13.6165 98.1172 13.3484 97.8886 13.324 97.583Z" fill="#54CED1"/>
<path d="M14.5282 102.828C14.4998 102.468 14.7689 102.154 15.1294 102.125C15.49 102.097 15.8053 102.365 15.8337 102.725C15.862 103.084 15.593 103.399 15.2324 103.427C14.8723 103.456 14.557 103.187 14.5282 102.828Z" fill="#54CED1"/>
<path d="M27.7578 98.8176V125.939C26.7462 125.682 26.4528 125.201 26.1857 124.074L25.5809 124.217C25.8938 125.539 26.324 126.247 27.7573 126.571V183.701H28.3789V129.272C30.3722 128.768 31.8369 127.291 32.7251 124.868L32.1413 124.655C31.3406 126.84 30.1037 128.136 28.3789 128.627V103.89C32.2616 103.668 34.1868 99.6479 35.3038 96.5717L34.7199 96.3604C33.0489 100.96 31.0705 103.111 28.3789 103.279V91.7992C29.4741 91.3691 30.6463 90.148 32.0358 87.983L31.5126 87.6486C30.3121 89.5196 29.2816 90.6569 28.3789 91.1192V75.8607H27.7573V84.3006C27.0456 84.1965 26.2056 82.8126 25.6162 81.7254L25.0702 82.02C25.8778 83.5105 26.7591 84.8567 27.7578 84.9216V98.1594C24.9458 97.154 22.9321 95.051 21.6326 91.7168L21.0537 91.9415C22.4348 95.4859 24.6947 97.7889 27.7578 98.8176Z" fill="#14345A"/>
<path d="M130.491 54.8501H117.734V83.1231H130.491V54.8501Z" fill="#D3A479"/>
<path d="M117.734 60.4832V83.1236H130.491V72.7012L117.734 60.4832Z" fill="#B27C4F"/>
<path d="M91.8456 38.004L20.3062 109.352V115.166H164.843V110.805L91.8456 38.004Z" fill="#F0CD95"/>
<path d="M92.0037 44.5968L163.326 115.251H149.294V186.953H34.7129V115.251H20.6807L92.0037 44.5968Z" fill="#54CED1"/>
<path d="M92.0032 53.3145L154.526 115.251H163.326L92.0032 44.5968L20.6807 115.251H29.481L92.0032 53.3145Z" fill="#189FB1"/>
<path d="M92.8125 45.3984V54.1156L154.527 115.251H163.326L92.8125 45.3984Z" fill="#14345A"/>
<path d="M89.8512 116.539H68.167V189.049H89.8512V116.539Z" fill="#14345A"/>
<path d="M113.362 116.539H91.6775V189.049H113.362V116.539Z" fill="#14345A"/>
<path d="M89.8512 123.406H68.167V189.048H89.8512V123.406Z" fill="#189FB1"/>
<path d="M113.362 123.406H91.6775V189.048H113.362V123.406Z" fill="#189FB1"/>
<path d="M126.134 106.006H53.9209V112.865H126.134V106.006Z" fill="#189FB1"/>
<path d="M66.0876 116.828H55.938V126.951H66.0876V116.828Z" fill="white"/>
<path d="M53.986 116.828H43.8364V126.951H53.986V116.828Z" fill="white"/>
<path d="M66.0876 128.8H55.938V138.922H66.0876V128.8Z" fill="white"/>
<path d="M53.986 128.8H43.8364V138.922H53.986V128.8Z" fill="white"/>
<path d="M137.657 116.828H127.507V126.951H137.657V116.828Z" fill="white"/>
<path d="M125.556 116.828H115.406V126.951H125.556V116.828Z" fill="white"/>
<path d="M137.657 128.8H127.507V138.922H137.657V128.8Z" fill="white"/>
<path d="M125.556 128.8H115.406V138.922H125.556V128.8Z" fill="white"/>
<path d="M154.828 57.2835C155.497 53.9152 158.748 50.7601 157.403 47.5991C156.528 45.5422 153.979 44.5651 153.147 42.4908C152.261 40.2811 153.317 36.9996 150.868 36.1058C149.518 35.6128 148.016 36.2849 147.354 37.5586C145.464 41.1987 144.629 45.3532 144.884 49.4373C145.042 51.9818 143.926 54.4018 141.889 55.9418C138.446 58.5448 136.357 62.9964 136.937 67.2978C132.912 70.8541 130.697 76.3512 131.134 81.6961C131.469 85.7842 133.35 89.7085 136.251 92.6067C137.656 94.0093 138.127 96.042 137.609 97.955C137.225 99.3701 137.239 100.894 137.7 102.287C138.255 103.967 139.447 105.414 140.954 106.342C142.101 107.048 142.767 108.281 142.964 109.611C143.236 111.445 144.613 113.185 146.418 113.805C148.995 114.691 151.975 113.588 153.812 111.58C155.649 109.571 156.482 106.82 156.713 104.11C156.859 102.405 156.794 100.658 157.302 99.0234C158.137 96.343 160.386 94.3461 161.622 91.8245C163.294 88.411 162.781 84.1003 160.546 81.0538C159.829 80.0762 159.772 78.7673 160.333 77.6929C161.21 76.015 161.243 73.8355 160.673 71.9745C159.885 69.4028 158.196 67.2214 156.813 64.913C155.428 62.6056 154.304 59.9217 154.828 57.2835Z" fill="#189FB1"/>
<path d="M149.218 109.988V85.2515C153.101 85.0293 155.026 81.0092 156.143 77.933L155.559 77.7217C153.888 82.3216 151.91 84.4728 149.218 84.6399V73.16C150.313 72.73 151.486 71.5088 152.875 69.3438L152.352 69.0095C151.151 70.8804 150.121 72.0182 149.218 72.48V57.2215H148.597V65.6615C147.885 65.5573 147.045 64.1735 146.456 63.0862L145.91 63.3809C146.717 64.8713 147.598 66.218 148.597 66.2825V79.5202C145.785 78.5148 143.771 76.4118 142.472 73.0777L141.893 73.3023C143.274 76.8468 145.534 79.1497 148.597 80.1784V107.3C147.586 107.043 147.292 106.562 147.025 105.435L146.421 105.578C146.734 106.899 147.164 107.608 148.597 107.932V123.078H149.219V110.633C151.212 110.128 152.677 108.652 153.565 106.229L152.981 106.016C152.18 108.201 150.943 109.496 149.218 109.988Z" fill="#14345A"/>
<path d="M141.317 101.415C141.659 101.363 141.979 101.597 142.031 101.938C142.083 102.279 141.849 102.598 141.507 102.65C141.165 102.702 140.845 102.468 140.793 102.127C140.741 101.786 140.976 101.467 141.317 101.415Z" fill="#54CED1"/>
<path d="M144.451 103.553C144.891 103.486 145.302 103.787 145.369 104.225C145.437 104.664 145.135 105.074 144.695 105.141C144.256 105.208 143.845 104.907 143.777 104.469C143.71 104.031 144.012 103.621 144.451 103.553Z" fill="#54CED1"/>
<path d="M141.111 99.1901C141.526 99.1266 141.914 99.4108 141.978 99.8249C142.041 100.239 141.756 100.626 141.341 100.689C140.926 100.753 140.538 100.469 140.474 100.055C140.411 99.6404 140.696 99.2535 141.111 99.1901Z" fill="#54CED1"/>
<path d="M145.328 99.5383C145.645 99.4897 145.942 99.7069 145.991 100.024C146.039 100.34 145.822 100.636 145.504 100.685C145.187 100.734 144.89 100.516 144.841 100.199C144.793 99.883 145.01 99.5869 145.328 99.5383Z" fill="#54CED1"/>
<path d="M146.27 96.7676C146.441 96.7413 146.601 96.8584 146.627 97.029C146.653 97.1996 146.536 97.3588 146.365 97.3851C146.193 97.4114 146.034 97.2944 146.007 97.1237C145.982 96.9531 146.099 96.7939 146.27 96.7676Z" fill="#54CED1"/>
<path d="M150.08 103.957C150.397 103.908 150.694 104.125 150.743 104.442C150.791 104.759 150.574 105.055 150.256 105.103C149.939 105.152 149.642 104.935 149.593 104.618C149.545 104.301 149.762 104.005 150.08 103.957Z" fill="#54CED1"/>
<path d="M153.533 101.985C153.924 101.925 154.289 102.192 154.349 102.582C154.408 102.972 154.14 103.336 153.75 103.396C153.36 103.455 152.994 103.188 152.934 102.798C152.874 102.409 153.142 102.045 153.533 101.985Z" fill="#54CED1"/>
<path d="M141.419 93.0124C141.736 92.9638 142.033 93.181 142.082 93.4975C142.131 93.8139 141.913 94.11 141.595 94.1586C141.278 94.2072 140.981 93.99 140.932 93.6731C140.884 93.3571 141.102 93.061 141.419 93.0124Z" fill="#54CED1"/>
<path d="M136.939 88.1164C137.207 88.0752 137.458 88.2592 137.5 88.5271C137.541 88.7949 137.356 89.0454 137.088 89.0866C136.819 89.1277 136.568 88.9437 136.527 88.6759C136.486 88.408 136.67 88.1571 136.939 88.1164Z" fill="#54CED1"/>
<path d="M138.398 91.0274C139.009 90.9341 139.579 91.3518 139.673 91.9609C139.766 92.57 139.347 93.1389 138.737 93.2321C138.126 93.3254 137.556 92.9077 137.462 92.2986C137.369 91.6901 137.788 91.1206 138.398 91.0274Z" fill="#54CED1"/>
<path d="M140.158 96.0405C140.549 95.981 140.914 96.2483 140.974 96.6377C141.034 97.0275 140.766 97.3916 140.375 97.4516C139.984 97.5111 139.619 97.2438 139.559 96.8544C139.499 96.4641 139.768 96.1 140.158 96.0405Z" fill="#54CED1"/>
<path d="M146.818 101.639C147.403 101.55 147.952 101.951 148.042 102.536C148.132 103.12 147.729 103.666 147.143 103.756C146.557 103.846 146.009 103.445 145.919 102.86C145.829 102.276 146.232 101.729 146.818 101.639Z" fill="#54CED1"/>
<path d="M151.279 98.5259C151.62 98.4739 151.94 98.7075 151.992 99.0487C152.045 99.3895 151.81 99.7084 151.468 99.7605C151.127 99.8126 150.807 99.5789 150.754 99.2377C150.702 98.8969 150.937 98.578 151.279 98.5259Z" fill="#54CED1"/>
<path d="M146.141 108.744C146.776 108.646 147.369 109.081 147.467 109.714C147.564 110.348 147.128 110.939 146.493 111.037C145.858 111.134 145.265 110.699 145.168 110.066C145.071 109.432 145.506 108.84 146.141 108.744Z" fill="#54CED1"/>
<path d="M154.035 97.3043C154.352 97.2557 154.649 97.4729 154.698 97.7899C154.747 98.1063 154.529 98.4024 154.211 98.451C153.894 98.4996 153.597 98.2824 153.548 97.9655C153.5 97.649 153.718 97.3529 154.035 97.3043Z" fill="#54CED1"/>
<path d="M153.358 93.1964C153.675 93.1478 153.972 93.365 154.021 93.682C154.069 93.9984 153.852 94.2945 153.534 94.3432C153.217 94.3918 152.92 94.1745 152.871 93.8576C152.823 93.5411 153.04 93.245 153.358 93.1964Z" fill="#54CED1"/>
<path d="M147.087 92.1384C147.502 92.075 147.89 92.3592 147.954 92.7733C148.017 93.1875 147.732 93.5744 147.317 93.6379C146.902 93.7013 146.514 93.4171 146.45 93.003C146.387 92.5893 146.672 92.2019 147.087 92.1384Z" fill="#54CED1"/>
<path d="M152.117 75.3082C152.407 75.1241 152.791 75.2095 152.976 75.4981C153.16 75.7868 153.075 76.1702 152.785 76.3542C152.496 76.5382 152.111 76.4529 151.927 76.1648C151.742 75.8756 151.827 75.4922 152.117 75.3082Z" fill="#54CED1"/>
<path d="M140.83 80.1824C140.957 80.2359 141.016 80.3813 140.962 80.5072C140.908 80.6332 140.763 80.6922 140.636 80.6392C140.51 80.5856 140.451 80.4403 140.504 80.3143C140.557 80.1883 140.704 80.1293 140.83 80.1824Z" fill="#54CED1"/>
<path d="M141.324 77.4291C141.577 77.5357 141.695 77.8269 141.588 78.0788C141.481 78.3313 141.189 78.4489 140.936 78.3422C140.683 78.2356 140.565 77.9444 140.672 77.6925C140.779 77.44 141.071 77.3219 141.324 77.4291Z" fill="#54CED1"/>
<path d="M143.58 83.5641C143.802 83.6573 143.905 83.9118 143.812 84.1325C143.718 84.3532 143.463 84.4564 143.242 84.3632C143.02 84.2699 142.917 84.015 143.011 83.7947C143.104 83.574 143.359 83.4708 143.58 83.5641Z" fill="#54CED1"/>
<path d="M144.653 85.9687C144.937 86.0887 145.071 86.4161 144.95 86.6998C144.83 86.9835 144.502 87.1164 144.217 86.9964C143.933 86.8764 143.799 86.549 143.92 86.2653C144.04 85.9816 144.368 85.8482 144.653 85.9687Z" fill="#54CED1"/>
<path d="M144.271 82.1728C144.54 82.2864 144.666 82.5954 144.552 82.8633C144.438 83.1311 144.129 83.2566 143.86 83.1435C143.592 83.0299 143.466 82.7209 143.58 82.4531C143.693 82.1847 144.003 82.0597 144.271 82.1728Z" fill="#54CED1"/>
<path d="M146.639 83.9123C146.844 83.9991 146.94 84.2352 146.853 84.4405C146.766 84.6454 146.529 84.7411 146.324 84.6548C146.118 84.568 146.022 84.3314 146.109 84.1265C146.196 83.9212 146.433 83.8255 146.639 83.9123Z" fill="#54CED1"/>
<path d="M147.629 86.3496C147.74 86.3962 147.792 86.5237 147.745 86.6338C147.698 86.7444 147.57 86.796 147.46 86.7489C147.349 86.7023 147.297 86.5748 147.344 86.4647C147.391 86.3541 147.518 86.3025 147.629 86.3496Z" fill="#54CED1"/>
<path d="M147.834 88.2533C148.039 88.3401 148.136 88.5762 148.049 88.7815C147.962 88.9864 147.725 89.0821 147.519 88.9958C147.313 88.909 147.218 88.6729 147.304 88.4675C147.392 88.2622 147.628 88.1665 147.834 88.2533Z" fill="#54CED1"/>
<path d="M150.597 88.342C150.85 88.4487 150.968 88.7398 150.861 88.9918C150.754 89.2438 150.462 89.3623 150.21 89.2552C149.956 89.1485 149.839 88.8574 149.945 88.6054C150.052 88.3534 150.344 88.2354 150.597 88.342Z" fill="#54CED1"/>
<path d="M147.081 80.8004C147.477 80.967 147.661 81.4219 147.494 81.8157C147.327 82.21 146.871 82.3945 146.476 82.2274C146.081 82.0607 145.896 81.6059 146.063 81.2116C146.23 80.8182 146.686 80.6337 147.081 80.8004Z" fill="#54CED1"/>
<path d="M141.524 83.6385C141.777 83.7451 141.895 84.0363 141.788 84.2882C141.681 84.5407 141.389 84.6588 141.137 84.5516C140.884 84.445 140.766 84.1538 140.873 83.9014C140.979 83.6499 141.271 83.5318 141.524 83.6385Z" fill="#54CED1"/>
<path d="M146.176 87.1497C146.556 87.3099 146.733 87.7464 146.572 88.1248C146.412 88.5033 145.974 88.6803 145.595 88.5201C145.215 88.3599 145.038 87.9234 145.198 87.5455C145.359 87.1665 145.797 86.9895 146.176 87.1497Z" fill="#54CED1"/>
<path d="M147.992 84.6181C148.214 84.7113 148.317 84.9658 148.224 85.1865C148.13 85.4072 147.874 85.5104 147.653 85.4171C147.432 85.3239 147.328 85.069 147.422 84.8482C147.516 84.628 147.771 84.5248 147.992 84.6181Z" fill="#54CED1"/>
<path d="M152.605 85.7564C152.811 85.8432 152.907 86.0798 152.82 86.2846C152.733 86.4895 152.496 86.5857 152.29 86.4989C152.085 86.4121 151.989 86.1755 152.076 85.9707C152.163 85.7658 152.4 85.6696 152.605 85.7564Z" fill="#54CED1"/>
<path d="M153.248 88.8549C153.454 88.9417 153.55 89.1783 153.463 89.3832C153.376 89.588 153.139 89.6837 152.933 89.5974C152.728 89.5106 152.632 89.274 152.719 89.0692C152.806 88.8638 153.042 88.7681 153.248 88.8549Z" fill="#54CED1"/>
<path d="M150.383 80.1749C150.652 80.288 150.778 80.5975 150.664 80.8654C150.55 81.1332 150.24 81.2587 149.972 81.1451C149.703 81.0315 149.577 80.7225 149.691 80.4547C149.805 80.1868 150.115 80.0613 150.383 80.1749Z" fill="#54CED1"/>
<path d="M145.428 78.8913C145.744 79.0247 145.892 79.3883 145.758 79.7037C145.624 80.0192 145.26 80.1665 144.943 80.0331C144.627 79.8996 144.479 79.5361 144.613 79.2206C144.747 78.9051 145.111 78.7578 145.428 78.8913Z" fill="#54CED1"/>
<path d="M44.4283 135.94C44.3641 135.448 43.5067 135.346 43.2526 134.897C42.8179 134.13 42.1281 133.738 41.2006 133.821C40.4626 133.886 39.7101 133.698 39.2401 134.412C38.8 135.08 38.1967 135.642 37.8033 136.336C37.5278 136.822 36.5242 137.067 36.6405 137.742C36.7604 138.436 37.2906 138.776 37.029 139.525C36.8972 139.903 36.7012 140.275 36.657 140.679C36.283 140.651 35.906 140.703 35.535 140.741C34.4766 140.849 33.5049 140.803 32.4729 141.145C31.6627 141.414 31.045 141.432 30.2981 141.93C29.5829 142.408 28.9776 143.031 28.2242 143.443C27.4115 143.889 27.5886 144.286 27.4334 145.082C27.2753 145.894 26.0752 145.628 25.9419 146.509C25.8126 147.365 25.4903 148.045 25.3088 148.876C25.0915 149.872 25.3491 151.011 25.0502 151.981C24.8095 152.762 24.5558 153.152 25.3367 153.65C26.3497 154.295 25.4978 154.682 25.8778 155.514C24.7026 155.175 23.688 155.264 22.8366 156.293C22.4586 156.749 22.1353 157.106 21.8742 157.642C21.6261 158.153 21.167 158.236 20.7925 158.607C20.3449 159.05 20.7811 159.696 20.6707 160.219C20.5439 160.819 19.8749 161.138 20.0769 161.821C20.2733 162.485 20.4946 162.824 20.2693 163.527C20.0495 164.213 20.2017 164.935 20.2753 165.637C19.7924 165.214 18.9514 165.182 18.38 164.868C17.6524 164.469 16.7243 164.778 15.9987 165.054C15.0782 165.406 15.0185 165.895 14.3839 166.502C13.9442 166.923 12.781 166.362 12.6726 167.177C12.5656 167.983 12.8347 168.349 12.2001 169.003C11.5232 169.7 12.0111 170.193 11.8067 170.996C11.5983 171.814 11.6013 172.806 11.466 173.657C11.3661 174.283 10.542 174.588 10.3858 175.32C10.1879 176.249 10.258 176.439 10.8091 177.158C11.2139 177.686 11.09 178.771 11.0314 179.399C10.9483 180.291 10.8856 180.532 10.3246 181.205C9.85119 181.772 10.2272 183.053 10.4898 183.673C10.7608 184.314 11.01 184.733 11.3656 185.322C11.8525 186.128 10.8086 186.596 11.9604 186.993C12.504 187.179 13.333 187.166 13.9144 187.166C14.6539 187.166 15.0468 186.628 15.8898 186.747C16.5607 186.843 17.1973 186.706 17.8652 186.706C18.4486 186.706 18.5988 187.418 19.1822 187.418C19.8068 187.418 19.8749 186.562 20.4996 186.561C21.2913 186.561 21.9374 186.708 22.7431 186.589C23.4911 186.478 23.5582 186.859 24.0157 187.3C24.4146 187.684 25.2655 187.424 25.7659 187.424C26.1985 187.424 27.2429 187.263 27.5697 186.991C28.073 186.571 28.4883 186.239 29.0562 186.821C29.4934 187.269 29.9559 187.186 30.4736 186.924C31.1574 186.578 31.6806 187.101 32.3486 187.101C33.0006 187.101 33.6764 187.075 34.325 187.018C35.1107 186.948 35.9448 187.383 36.6933 187.186C37.3413 187.016 37.7337 186.858 38.3792 187.159C39.0078 187.452 39.6191 187.085 40.2572 187.085C40.8927 187.085 41.2822 187.569 41.9645 187.404C42.6737 187.232 43.4714 186.964 44.2105 186.964C44.7983 186.964 45.323 187.197 45.9218 187.108C46.4768 187.026 46.9642 186.874 47.5108 187.119C47.9554 187.319 48.7302 187.427 49.2226 187.409C49.9875 187.38 49.3598 186.43 49.24 185.956C49.0848 185.341 49.5374 184.903 49.4991 184.312C49.4593 183.697 49.2857 182.895 48.9704 182.361C48.5915 181.72 48.7919 181.372 48.9595 180.707C49.1594 179.914 48.3458 179.295 48.8396 178.531C49.1589 178.037 49.3867 177.707 48.953 177.199C48.6143 176.804 48.2767 176.481 48.6472 175.984C49.6229 174.676 48.7123 173.876 48.6198 172.456C48.5233 170.975 48.0812 169.57 47.9703 168.085C47.8499 166.476 47.6077 164.855 47.5038 163.262C47.469 162.724 48.2011 162.434 48.1662 161.895C48.1185 161.164 48.024 160.434 47.9698 159.702C47.9221 159.058 47.468 158.576 47.4287 157.972C47.3715 157.091 47.3979 156.207 47.3412 155.33C47.2561 154.02 48.314 152.893 47.101 151.942C46.0993 151.156 47.6316 149.554 47.2124 148.389C46.7658 147.148 46.2828 145.704 46.3182 144.366C46.354 143.001 47.1084 141.166 46.1779 140.051C45.6577 139.428 46.1749 138.899 46.1297 138.201C46.0849 137.511 45.9004 136.899 46.0307 136.206C46.352 134.475 45.0509 134.579 44.4283 135.94C44.6859 135.376 44.3631 135.441 44.4283 135.94Z" fill="#189FB1"/>
<path d="M41.8875 165.818H19.0444V189.58H41.8875V165.818Z" fill="#D3A479"/>
<path d="M41.8869 171.963L24.2227 189.58H41.8869V171.963Z" fill="#B27C4F"/>
<path d="M69.2741 154.795H45.9397V188.845H69.2741V154.795Z" fill="#D3A479"/>
<path d="M45.9397 186.314V188.845H69.2741V163.043L45.9397 186.314Z" fill="#B27C4F"/>
<path d="M236 143.927H62.3547V194.512H236V143.927Z" fill="#189FB1"/>
<path d="M236 139.692H225.405V195.029H236V139.692Z" fill="white"/>
<path d="M223.99 139.692H213.685V195.029H223.99V139.692Z" fill="white"/>
<path d="M212.27 139.692H201.965V195.029H212.27V139.692Z" fill="white"/>
<path d="M200.551 139.692H190.246V195.029H200.551V139.692Z" fill="white"/>
<path d="M188.831 139.692H178.526V195.029H188.831V139.692Z" fill="white"/>
<path d="M177.111 139.692H166.806V195.029H177.111V139.692Z" fill="white"/>
<path d="M165.391 139.692H155.086V195.029H165.391V139.692Z" fill="white"/>
<path d="M153.672 139.692H143.366V195.029H153.672V139.692Z" fill="white"/>
<path d="M141.951 139.692H131.646V195.029H141.951V139.692Z" fill="white"/>
<path d="M130.232 139.692H119.927V195.029H130.232V139.692Z" fill="white"/>
<path d="M118.512 139.692H108.207V195.029H118.512V139.692Z" fill="white"/>
<path d="M106.793 139.692H96.4873V195.029H106.793V139.692Z" fill="white"/>
<path d="M95.0723 139.692H84.7671V195.029H95.0723V139.692Z" fill="white"/>
<path d="M83.3526 139.692H73.0474V195.029H83.3526V139.692Z" fill="white"/>
<path d="M71.633 139.692H62.3547V195.029H71.633V139.692Z" fill="white"/>
<path d="M236 141.282H225.405V195.029H236V141.282Z" fill="#F9E5CF"/>
<path d="M223.99 141.282H213.685V195.029H223.99V141.282Z" fill="#F9E5CF"/>
<path d="M212.27 141.282H201.965V195.029H212.27V141.282Z" fill="#F9E5CF"/>
<path d="M200.551 141.282H190.246V195.029H200.551V141.282Z" fill="#F9E5CF"/>
<path d="M188.831 141.282H178.526V195.029H188.831V141.282Z" fill="#F9E5CF"/>
<path d="M177.111 141.282H166.806V195.029H177.111V141.282Z" fill="#F9E5CF"/>
<path d="M165.391 141.282H155.086V195.029H165.391V141.282Z" fill="#F9E5CF"/>
<path d="M153.672 141.282H143.366V195.029H153.672V141.282Z" fill="#F9E5CF"/>
<path d="M141.951 141.282H131.646V195.029H141.951V141.282Z" fill="#F9E5CF"/>
<path d="M130.232 141.282H119.927V195.029H130.232V141.282Z" fill="#F9E5CF"/>
<path d="M118.512 141.282H108.207V195.029H118.512V141.282Z" fill="#F9E5CF"/>
<path d="M106.793 141.282H96.4873V195.029H106.793V141.282Z" fill="#F9E5CF"/>
<path d="M95.0723 141.282H84.7671V195.029H95.0723V141.282Z" fill="#F9E5CF"/>
<path d="M83.3526 141.282H73.0474V195.029H83.3526V141.282Z" fill="#F9E5CF"/>
<path d="M71.633 141.282H62.3547V195.029H71.633V141.282Z" fill="#F9E5CF"/>
<path d="M236 187.906H225.405V195.029H236V187.906Z" fill="#D3A479"/>
<path d="M223.99 187.906H213.685V195.029H223.99V187.906Z" fill="#D3A479"/>
<path d="M212.27 187.906H201.965V195.029H212.27V187.906Z" fill="#D3A479"/>
<path d="M200.551 187.906H190.246V195.029H200.551V187.906Z" fill="#D3A479"/>
<path d="M188.831 187.906H178.526V195.029H188.831V187.906Z" fill="#D3A479"/>
<path d="M177.111 187.906H166.806V195.029H177.111V187.906Z" fill="#D3A479"/>
<path d="M165.391 187.906H155.086V195.029H165.391V187.906Z" fill="#D3A479"/>
<path d="M153.672 187.906H143.366V195.029H153.672V187.906Z" fill="#D3A479"/>
<path d="M141.951 187.906H131.646V195.029H141.951V187.906Z" fill="#D3A479"/>
<path d="M130.232 187.906H119.927V195.029H130.232V187.906Z" fill="#D3A479"/>
<path d="M118.512 187.906H108.207V195.029H118.512V187.906Z" fill="#D3A479"/>
<path d="M106.793 187.906H96.4873V195.029H106.793V187.906Z" fill="#D3A479"/>
<path d="M95.0723 187.906H84.7671V195.029H95.0723V187.906Z" fill="#D3A479"/>
<path d="M83.3526 187.906H73.0474V195.029H83.3526V187.906Z" fill="#D3A479"/>
<path d="M71.633 187.906H62.3547V195.029H71.633V187.906Z" fill="#D3A479"/>
<path d="M324.573 99.3855L344.761 123.139V114.905H353.593V133.531L364.366 146.207H356.537V186.212H292.609V146.207H284.78L324.573 99.3855Z" fill="#F0CD95"/>
<path d="M351.741 146.517H344.562V153.677H351.741V146.517Z" fill="white"/>
<path d="M343.181 146.517H336.003V153.677H343.181V146.517Z" fill="white"/>
<path d="M351.741 154.985H344.562V162.144H351.741V154.985Z" fill="white"/>
<path d="M343.181 154.985H336.003V162.144H343.181V154.985Z" fill="white"/>
<path d="M366.259 167.225H328.129V193.184H366.259V167.225Z" fill="#E0CACA"/>
<path d="M367.097 165.868H364.448V193.449H367.097V165.868Z" fill="white"/>
<path d="M361.918 165.868H359.27V193.449H361.918V165.868Z" fill="white"/>
<path d="M356.739 165.868H354.091V193.449H356.739V165.868Z" fill="white"/>
<path d="M351.56 165.868H348.912V193.449H351.56V165.868Z" fill="white"/>
<path d="M346.382 165.868H343.733V193.449H346.382V165.868Z" fill="white"/>
<path d="M341.203 165.868H338.555V193.449H341.203V165.868Z" fill="white"/>
<path d="M336.024 165.868H333.376V193.449H336.024V165.868Z" fill="white"/>
<path d="M330.713 165.868H328.329V193.449H330.713V165.868Z" fill="white"/>
<path d="M218.053 179.261C217.5 178.721 217.829 177.723 218.455 177.27C219.081 176.818 219.05 176.935 220.622 176.479C221.531 176.216 222.305 175.693 223.757 174.082C225.269 174.294 226.81 174.305 228.325 174.114C228.696 175.688 228.834 177.316 228.732 178.929C225.18 179.201 221.615 179.311 218.053 179.261Z" fill="#14345A"/>
<path d="M164.576 156.428C164.413 157.424 164.49 160.863 164.33 161.817L180.48 161.776C180.415 161.416 179.784 157.215 179.682 156.877C178.782 153.912 179.01 152.832 178.9 149.735C178.777 146.289 179.502 144.881 180.296 141.526C180.685 139.883 180.747 138.219 178.986 136.055C177.744 134.528 177.349 133.809 175.811 131.079C174.98 129.602 173.295 130.35 171.617 130.094C170.901 129.985 169.712 131.064 169.12 131.483C168.678 131.796 167.92 133.016 167.728 133.524C167.23 134.846 167.018 136.447 166.868 137.852C166.458 141.707 167.437 143.363 167.131 147.229C166.874 150.471 165.149 152.917 164.576 156.428Z" fill="#189FB1"/>
<path d="M205.003 129.342H182.442V153.138H205.003V129.342Z" fill="#D3A479"/>
<path d="M177.533 139.607C176.97 138.175 176.55 137.341 176.059 135.259C175.708 133.771 175.032 131.284 173.623 130.825C172.213 130.367 170.478 130.82 169.707 132.14C169.06 133.248 169.195 134.661 169.439 135.935C169.914 138.414 170.717 140.824 171.818 143.073C173.71 146.935 176.248 149.251 179.683 151.671C183.118 154.091 186.264 155.508 191.534 156.938C191.971 156.09 192.459 155.018 192.896 154.17C186.532 150.802 180.249 146.523 177.533 139.607Z" fill="#F0CD95"/>
<path d="M243.37 126.21C241.451 127.21 239.3 127.705 237.144 127.905C236.502 127.965 235.82 127.991 235.251 127.688C234.683 127.385 234.305 126.637 234.62 126.077C239.927 125.327 244.964 122.793 248.724 118.983C249.188 119.797 248.787 120.824 248.296 121.623C247.108 123.556 245.385 125.159 243.37 126.21Z" fill="#14345A"/>
<path d="M243.413 126.497C243.102 125.919 242.856 125.305 242.682 124.67L243.162 124.539C243.326 125.138 243.558 125.718 243.851 126.262L243.413 126.497Z" fill="#54CED1"/>
<path d="M237.282 129.331C236.823 128.334 236.587 127.227 236.601 126.131L237.098 126.137C237.086 127.16 237.306 128.194 237.733 129.125L237.282 129.331Z" fill="#54CED1"/>
<path d="M172.485 148.808C173.488 150.108 174.61 151.342 175.98 152.25C176.406 152.531 176.867 152.784 177.372 152.859C177.877 152.933 178.437 152.801 178.771 152.415C179.198 151.922 179.149 151.185 179.021 150.546C177.67 143.798 170.625 139.314 169.193 132.582C167.953 135.211 167.842 138.283 168.542 141.103C169.242 143.922 170.708 146.507 172.485 148.808Z" fill="#14345A"/>
<path d="M333.169 58.2021C333.14 56.856 332.261 55.7296 331.046 55.3129C330.74 51.84 327.82 49.1149 324.258 49.1149C323.15 49.1149 322.107 49.3843 321.182 49.852C319.076 46.2104 315.141 43.7537 310.622 43.7537C306.17 43.7537 302.287 46.1409 300.158 49.6943C299.262 49.2439 298.254 48.984 297.183 48.984C293.824 48.984 291.056 51.4799 290.626 54.7123C288.994 55.4717 287.736 56.8739 287.144 58.5875C284.931 58.713 283.677 58.8544 283.677 59.0042C283.677 59.5185 298.361 59.9357 316.473 59.9357C334.586 59.9357 349.269 59.5185 349.269 59.0042C349.269 58.6629 342.805 58.3643 333.169 58.2021Z" fill="white"/>
<path d="M156.038 37.8086C156.012 36.6251 155.239 35.6346 154.171 35.2681C153.902 32.2147 151.335 29.8185 148.203 29.8185C147.229 29.8185 146.312 30.0551 145.499 30.4668C143.647 27.2651 140.187 25.105 136.214 25.105C132.3 25.105 128.885 27.2041 127.014 30.3284C126.227 29.9321 125.34 29.704 124.398 29.704C121.445 29.704 119.012 31.8983 118.633 34.7403C117.198 35.408 116.092 36.641 115.572 38.1474C113.626 38.2575 112.524 38.382 112.524 38.5139C112.524 38.9663 125.434 39.3333 141.359 39.3333C157.284 39.3333 170.194 38.9668 170.194 38.5139C170.193 38.2133 164.51 37.9509 156.038 37.8086Z" fill="white"/>
<path d="M347.111 160.945H268.06V194.668H347.111V160.945Z" fill="#14345A"/>
<path d="M340.194 180.996C338.571 180.996 334.231 180.996 332.609 180.996C330.193 180.996 328.234 187.424 328.234 195.352C328.234 203.28 330.193 209.707 332.609 209.707C334.231 209.707 338.572 209.707 340.194 209.707C342.61 209.707 344.568 203.28 344.568 195.352C344.568 187.424 342.61 180.996 340.194 180.996Z" fill="#14345A"/>
<path d="M343.379 196.187C343.379 201.976 342.016 206.668 340.333 206.668C338.651 206.668 337.287 201.976 337.287 196.187C337.287 190.398 338.651 185.705 340.333 185.705C342.016 185.705 343.379 190.398 343.379 196.187Z" fill="#FEECCB"/>
<path d="M341.847 116.71L306.151 90.7V194.587H333.479V184.349C333.479 180.852 336.639 178.198 340.095 178.795L340.219 178.816C343.454 179.374 345.817 182.174 345.817 185.448V194.586H349.901V150.856C349.901 150.493 349.87 150.131 349.81 149.773L345.16 122.065C344.8 119.917 343.611 117.995 341.847 116.71Z" fill="#F47362"/>
<path d="M352.718 150.311H351.957C350.611 150.311 349.52 149.223 349.52 147.881V140.893C349.52 139.551 350.611 138.463 351.957 138.463H352.718C354.064 138.463 355.155 139.551 355.155 140.893V147.881C355.155 149.223 354.064 150.311 352.718 150.311Z" fill="#5F45AA"/>
<path d="M352.061 150.311H351.3C349.954 150.311 348.863 149.223 348.863 147.881V140.893C348.863 139.551 349.954 138.463 351.3 138.463H352.061C353.407 138.463 354.498 139.551 354.498 140.893V147.881C354.498 149.223 353.407 150.311 352.061 150.311Z" fill="white"/>
<path d="M333.953 117.962L333.641 144.811C333.635 145.31 333.995 145.738 334.488 145.82L345.941 147.724C346.627 147.838 347.222 147.246 347.109 146.562L343.074 122.205C343.026 121.917 342.857 121.664 342.608 121.511L335.501 117.115C334.83 116.7 333.962 117.175 333.953 117.962Z" fill="#14345A"/>
<path d="M338.675 151.304L335.634 150.924C335.176 150.867 334.833 150.477 334.834 150.017L334.836 149.322L339.286 149.878L339.283 150.77C339.282 151.094 338.997 151.344 338.675 151.304Z" fill="#E3E6F4"/>
<path d="M347.322 188.187L346.672 188.162C347 179.527 342.965 178.474 342.924 178.464L332.506 177.099V112.866H333.157V176.529L343.041 177.826C343.261 177.877 347.67 179.025 347.322 188.187Z" fill="#14345A"/>
<path d="M189.007 169.147C186.381 169.147 179.354 169.147 176.727 169.147C172.816 169.147 169.645 179.553 169.645 192.389C169.645 205.225 172.816 215.631 176.727 215.631C179.354 215.631 186.381 215.631 189.007 215.631C192.919 215.631 196.09 205.225 196.09 192.389C196.09 179.553 192.919 169.147 189.007 169.147Z" fill="#14345A"/>
<path d="M192.435 193.908C192.435 202.466 191.071 209.403 189.388 209.403C187.706 209.403 186.342 202.466 186.342 193.908C186.342 185.351 187.706 178.414 189.388 178.414C191.071 178.414 192.435 185.351 192.435 193.908Z" fill="#FEECCB"/>
<path d="M267.602 169.147C264.976 169.147 257.949 169.147 255.322 169.147C251.411 169.147 248.24 179.553 248.24 192.389C248.24 205.225 251.411 215.631 255.322 215.631C257.949 215.631 264.976 215.631 267.602 215.631C271.514 215.631 274.685 205.225 274.685 192.389C274.685 179.553 271.514 169.147 267.602 169.147Z" fill="#14345A"/>
<path d="M267.983 209.403C269.665 209.403 271.029 202.466 271.029 193.908C271.029 185.351 269.665 178.414 267.983 178.414C266.301 178.414 264.937 185.351 264.937 193.908C264.937 202.466 266.301 209.403 267.983 209.403Z" fill="#FEECCB"/>
<path d="M208.2 169.147C205.573 169.147 198.545 169.147 195.919 169.147C192.007 169.147 188.836 179.553 188.836 192.389C188.836 205.225 192.007 215.631 195.919 215.631C198.545 215.631 205.573 215.631 208.2 215.631C212.111 215.631 215.282 205.225 215.282 192.389C215.282 179.553 212.111 169.147 208.2 169.147Z" fill="#14345A"/>
<path d="M208.58 209.403C210.262 209.403 211.626 202.466 211.626 193.908C211.626 185.351 210.262 178.414 208.58 178.414C206.898 178.414 205.534 185.351 205.534 193.908C205.534 202.466 206.898 209.403 208.58 209.403Z" fill="#FEECCB"/>
<path d="M287.708 169.147C285.082 169.147 278.054 169.147 275.428 169.147C271.516 169.147 268.345 179.553 268.345 192.389C268.345 205.225 271.516 215.631 275.428 215.631C278.054 215.631 285.082 215.631 287.708 215.631C291.62 215.631 294.791 205.225 294.791 192.389C294.791 179.553 291.62 169.147 287.708 169.147Z" fill="#14345A"/>
<path d="M292.049 193.908C292.049 202.466 290.685 209.403 289.003 209.403C287.32 209.403 285.957 202.466 285.957 193.908C285.957 185.351 287.32 178.414 289.003 178.414C290.685 178.414 292.049 185.351 292.049 193.908Z" fill="#FEECCB"/>
<path d="M331.803 109.392L306.151 90.7V194.587H331.803V109.392Z" fill="#14345A"/>
<path d="M155.752 61.1931V194.587H263.122V34.7617L155.752 61.1931Z" fill="#FDB2B0"/>
<path d="M259.214 40.7791L159.251 65.3877V194.711H259.214V40.7791Z" fill="#14345A"/>
<path d="M263.123 34.7612V194.586H278.009V173.972C278.009 169.33 282.201 165.808 286.788 166.595L291.067 167.33C295.17 168.034 298.169 171.584 298.169 175.737V194.587H330.43V83.508L263.123 34.7612Z" fill="#F47362"/>
<path d="M330.43 98.2591L263.123 56.6085V102.592L330.43 127.173V98.2591Z" fill="#F0CD95"/>
<path d="M267.226 44.7144L266.602 45.6515L329.891 87.5769L330.515 86.6399L267.226 44.7144Z" fill="#14345A"/>
<path d="M268.136 154.455L267.976 155.569L330.656 164.53L330.816 163.416L268.136 154.455Z" fill="#14345A"/>
<path d="M264.801 106.851L264.439 107.916L330.699 130.244L331.06 129.178L264.801 106.851Z" fill="#14345A"/>
<path d="M332.26 186.845L296.961 183.987V195.579H332.26V186.845Z" fill="#14345A"/>
<path d="M345.055 187.881V195.579H350.081V188.288L345.055 187.881Z" fill="#14345A"/>
<path d="M279.597 182.581L267.526 181.604V195.579H279.597V182.581Z" fill="#14345A"/>
<path d="M267.526 195.579H154.889C153.164 195.579 151.767 194.185 151.767 192.465V184.718C151.767 182.998 153.165 181.604 154.889 181.604H267.526L267.526 195.579Z" fill="#14345A"/>
<path d="M267.526 183.456V181.604H154.889C153.615 181.604 152.522 182.365 152.036 183.456H267.526Z" fill="white"/>
<path d="M166.183 189.427H159.283C158.034 189.427 157.021 188.418 157.021 187.172V187.126C157.021 185.88 158.034 184.87 159.283 184.87H166.183C167.433 184.87 168.445 185.88 168.445 187.126V187.172C168.445 188.417 167.432 189.427 166.183 189.427Z" fill="#F47362"/>
<path d="M255.745 189.427H248.845C247.595 189.427 246.583 188.418 246.583 187.172V187.126C246.583 185.88 247.595 184.87 248.845 184.87H255.745C256.994 184.87 258.007 185.88 258.007 187.126V187.172C258.007 188.417 256.994 189.427 255.745 189.427Z" fill="#F47362"/>
<path d="M210.249 128.578H161.061V179.468H210.249V128.578Z" fill="#F0CD95"/>
<path d="M205.375 174.468L203.596 172.384L201.818 174.468H202.738V178.154H204.454V174.468H205.375Z" fill="#5F45AA"/>
<path d="M200.589 178.105H194.995V172.526H200.589V178.105ZM195.492 177.609H200.092V173.022H195.492V177.609Z" fill="#604B9F"/>
<path d="M194.264 178.105H188.67V172.526H194.264V178.105ZM189.167 177.609H193.767V173.022H189.167V177.609Z" fill="#604B9F"/>
<path d="M209.278 88.0013H173.349V125.173H209.278V88.0013Z" fill="#F0CD95"/>
<path d="M206.309 112.086L202.552 107.685L198.796 112.086H200.739V113.431H204.365V112.086H206.309Z" fill="#5F45AA"/>
<path d="M247.268 103.026H211.339V179.128H247.268V103.026Z" fill="#D3A479"/>
<path d="M218.754 103.026H211.339V179.128H218.754V103.026Z" fill="#B27C4F"/>
<path d="M244.298 174.638L240.542 170.237L236.786 174.638H238.729V175.983H242.355V174.638H244.298Z" fill="#5F45AA"/>
<path d="M99.0729 137.96C97.1358 136.086 95.4911 133.931 94.1935 131.593C92.2544 132.184 90.4068 133.107 88.6438 134.2C90.479 137.462 92.893 140.945 96.1446 142.899C99.7498 145.065 103.542 146.793 110.434 147.829C110.764 146.862 111.093 145.895 111.423 144.928C106.768 143.674 102.475 141.251 99.0729 137.96Z" fill="#F0CD95"/>
<path d="M91.9813 125.905C91.6401 124.772 91.3223 123.502 90.3023 122.861C89.2321 122.189 87.6873 122.511 86.7708 123.399C85.8537 124.287 85.5031 125.609 85.5757 126.85C85.6483 128.091 86.0974 129.274 86.5862 130.416C87.1811 131.806 87.8505 133.17 88.595 134.493C90.4451 133.347 92.3832 132.378 94.4178 131.758C95.1672 133.58 92.6398 128.09 91.9813 125.905Z" fill="#D3584F"/>
<path d="M96.3099 209.939C97.2777 210.263 98.3191 210.275 99.3401 210.264C101.896 210.238 104.45 210.088 106.991 209.817C106.993 209.494 106.994 209.171 106.996 208.848C103.418 209.032 99.8355 209.124 96.2532 209.124C96.2716 209.396 96.2905 209.668 96.3099 209.939Z" fill="#14345A"/>
<path d="M106.951 209.244C107.474 208.676 107.094 207.696 106.445 207.276C105.796 206.857 105.834 206.973 104.24 206.599C103.319 206.384 102.518 205.901 100.984 204.368C99.4848 204.659 97.9466 204.75 96.4238 204.637C96.1358 206.228 96.0836 207.861 96.2691 209.467C99.8305 209.553 103.396 209.479 106.951 209.244Z" fill="#189FB1"/>
<path d="M96.177 150.371L82.9792 153.785C83.9103 158.745 84.9069 160.921 86.3735 164.418C91.985 177.798 94.8312 191.189 95.6165 206.014C97.7794 205.828 99.9428 205.641 102.106 205.454C101.82 193.384 101.211 181.319 100.134 169.295C99.5549 162.84 98.7745 156.258 96.177 150.371Z" fill="#14345A"/>
<path d="M97.5411 205.638C96.4629 188.699 94.9231 171.559 92.9641 154.697L93.458 154.64C95.418 171.511 96.9587 188.659 98.0374 205.607L97.5411 205.638Z" fill="#5F45AA"/>
<path d="M79.8072 205.294C80.0911 204.3 80.4373 203.324 80.8426 202.373C79.2586 202.223 77.6746 202.074 76.0906 201.924C75.7952 203.029 75.5883 204.157 75.4724 205.295C76.9152 205.193 78.3649 205.193 79.8072 205.294Z" fill="#5F45AA"/>
<path d="M75.3387 209.412C76.3065 209.736 77.3479 209.748 78.3689 209.737C80.9242 209.71 83.4785 209.561 86.0199 209.29C86.0214 208.967 86.0229 208.644 86.0244 208.321C82.4466 208.505 78.8643 208.596 75.282 208.597C75.3009 208.869 75.3198 209.14 75.3387 209.412Z" fill="#14345A"/>
<path d="M85.9089 208.728C86.4321 208.296 86.0522 207.065 85.4032 206.745C84.7541 206.425 84.7919 206.514 83.198 206.229C82.2769 206.065 81.4762 205.698 79.9424 204.53C78.443 204.751 76.9052 204.821 75.3819 204.735C75.0939 205.947 75.1586 207.753 75.3441 208.977C78.9055 209.042 82.354 208.907 85.9089 208.728Z" fill="#189FB1"/>
<path d="M82.7314 154.119C81.3781 162.429 85.8482 171.073 83.6768 179.198C83.1372 181.217 82.2062 183.099 81.3533 185.002C78.8009 190.696 76.9061 196.699 75.7205 202.845C77.5034 203.475 80.661 204.038 82.4305 204.357C86.615 196.023 90.72 189.264 93.2266 179.412C95.6944 169.712 95.1393 159.845 94.5838 150.783C94.5838 150.783 82.7468 154.025 82.7314 154.119Z" fill="#14345A"/>
<path d="M78.5812 203.13L78.1028 202.994C80.9789 192.958 82.7857 189.139 84.2374 186.071C85.3047 183.815 86.1481 182.033 87.0966 178.516C89.3077 170.315 90.2929 162.138 90.1954 152.781L90.6928 152.776C90.7903 162.179 89.8001 170.399 87.5765 178.645C86.6166 182.205 85.7224 184.094 84.687 186.282C83.2432 189.335 81.4459 193.133 78.5812 203.13Z" fill="#5F45AA"/>
<path d="M86.0531 153.799C85.1341 153.932 84.21 154.026 83.282 154.059C83.3093 154.447 83.3367 154.835 83.3635 155.224C84.3199 155.203 85.2748 155.122 86.2217 154.987C86.0929 154.606 86.0357 154.202 86.0531 153.799Z" fill="#189FB1"/>
<path d="M86.4296 153.749C86.4023 154.15 86.4614 154.554 86.5987 154.931C88.216 154.675 89.808 154.259 91.3403 153.683C91.4552 153.639 91.5701 153.591 91.6849 153.545C91.5432 153.207 91.4184 152.863 91.3169 152.512L91.6755 152.409C91.7735 152.749 91.8938 153.08 92.0311 153.406C93.6096 152.732 95.1126 151.778 95.9093 150.284C93.0168 152.042 89.7742 153.218 86.4296 153.749Z" fill="#189FB1"/>
<path d="M93.6416 134.253C93.4193 131.665 93.2164 129.049 92.4316 126.573C91.6468 124.097 90.211 121.734 88.0113 120.344C85.8116 118.954 82.7738 118.73 80.6463 120.227C78.3809 121.822 77.6533 124.829 77.4569 127.588C77.2211 130.898 77.5031 134.222 77.8139 137.525C78.3953 143.703 78.5938 148.314 80.8611 154.092C86.2418 154.567 91.7557 153.422 96.4993 150.846C96.7648 150.701 97.0488 150.529 97.1443 150.242C97.2512 149.922 97.0846 149.582 96.9294 149.283C94.2851 144.188 94.1329 139.97 93.6416 134.253Z" fill="#F47362"/>
<path d="M86.7649 124.749C88.3946 126.397 89.2043 128.696 89.5619 130.982C89.9194 133.268 89.8727 135.596 90.0527 137.903C90.3452 141.653 91.2424 145.355 92.6995 148.823C92.9437 149.404 93.2088 150.028 93.075 150.644C92.8443 151.703 91.6104 152.161 90.552 152.41C88.9442 152.787 87.3194 153.094 85.6846 153.329C85.2584 153.39 84.8004 153.442 84.416 153.248C83.9972 153.036 83.7674 152.584 83.571 152.159C81.1868 146.997 79.7077 141.421 79.2203 135.758C79.0189 133.42 78.998 130.995 79.8579 128.81C80.7178 126.625 82.634 124.72 84.9745 124.479L86.7649 124.749Z" fill="#D3584F"/>
<path d="M89.074 115.365C86.4859 115.101 85.8259 114.581 83.7834 112.974L81.3186 119.514C83.9356 119.041 86.4048 119.72 88.6995 120.981C88.2589 118.982 88.2872 116.913 89.074 115.365Z" fill="#F0CD95"/>
<path d="M88.4626 119.376C88.3388 117.915 88.4975 116.499 89.0739 115.365C86.7518 115.129 85.9795 114.683 84.3711 113.434C84.4362 116.312 86.1371 118.261 88.4626 119.376Z" fill="#14345A"/>
<path d="M81.2857 119.12C81.3285 118.955 81.3792 118.778 81.5135 118.672C81.6239 118.586 81.7701 118.564 81.9099 118.547C84.7855 118.202 87.759 118.711 90.3551 119.992C90.2531 121.169 90.2929 122.359 90.4739 123.526C89.0093 122.651 87.5218 121.792 85.9144 121.217C84.307 120.643 81.7254 120.442 80.0479 120.761C80.1826 120.24 81.1509 119.641 81.2857 119.12Z" fill="white"/>
<path d="M92.6477 114.799C92.5412 114.077 92.0653 113.433 91.9947 112.714C92.0961 112.482 92.3602 112.213 92.3771 112C92.4701 110.855 92.4418 110.171 92.4617 109.023C92.4696 108.553 92.4706 108.073 92.3289 107.624C92.0464 106.729 91.2208 106.082 90.3256 105.793C89.4299 105.505 88.4656 105.524 87.5276 105.6C86.3166 105.697 85.0091 105.934 84.193 106.832C83.6564 107.422 83.4102 108.223 83.3107 109.014C83.0248 111.281 83.8638 113.638 85.4324 115.302C87.0014 116.967 88.8784 118.192 91.0925 118.101C91.367 117.119 91.645 116.363 91.8634 115.497C91.9733 115.479 92.0832 115.461 92.1931 115.442C92.31 115.423 92.4338 115.401 92.5233 115.323C92.6661 115.201 92.675 114.985 92.6477 114.799Z" fill="#F0CD95"/>
<path d="M90.6051 115.874C90.6349 115.925 90.6916 115.954 90.7468 115.976C90.995 116.076 91.2745 116.098 91.5356 116.038C91.5535 115.953 91.5714 115.869 91.5888 115.784C91.4237 115.794 91.2576 115.803 91.0935 115.782C90.9293 115.76 90.7662 115.706 90.6384 115.601C90.5981 115.687 90.5578 115.791 90.6051 115.874Z" fill="#14345A"/>
<path d="M91.4234 112.237C91.4279 112.153 91.403 112.051 91.3229 112.025C91.2473 111.999 91.1688 112.056 91.118 112.117C91.0116 112.246 90.9514 112.412 90.9509 112.579C90.9509 112.634 90.9604 112.696 91.0051 112.728C91.0708 112.777 91.1648 112.731 91.2235 112.675C91.3418 112.561 91.4154 112.401 91.4234 112.237Z" fill="#14345A"/>
<path d="M90.6972 111.497C91.0349 111.439 91.3795 111.418 91.7217 111.437C91.7187 111.344 91.7157 111.25 91.7122 111.156C91.3701 111.1 91.013 111.137 90.6892 111.262C90.7126 111.338 90.7151 111.42 90.6972 111.497Z" fill="#14345A"/>
<path d="M83.3152 107.699C83.7723 106.377 85.0798 105.473 86.4534 105.189C87.827 104.904 89.2584 105.153 90.6027 105.555C91.098 105.703 91.6137 105.889 91.9445 106.285C92.1916 106.581 92.307 106.963 92.402 107.336C92.4751 107.624 92.5408 107.918 92.5184 108.213C92.4642 108.941 91.8719 109.547 91.1905 109.814C90.5092 110.082 89.7517 110.07 89.0221 110.007C87.3098 109.86 85.6323 109.451 83.9628 109.044C83.7887 109.002 83.6087 108.956 83.4699 108.843C83.1516 108.583 83.1815 108.087 83.3152 107.699Z" fill="#14345A"/>
<path d="M87.4252 111.657C87.464 111.307 87.7475 110.958 88.1001 110.976C88.4507 110.994 88.777 111.312 88.8272 111.659C88.8973 112.14 88.9277 112.474 89.1132 112.659C89.3235 111.667 89.6578 110.701 90.1173 109.796C88.1334 109.361 86.1496 108.926 84.1657 108.491C84.0135 108.457 83.8549 108.424 83.7032 108.46C83.5704 108.493 83.456 108.576 83.3575 108.671C82.9074 109.106 82.7602 109.776 82.7985 110.4C82.8368 111.024 83.0353 111.625 83.18 112.233C83.3247 112.841 83.4152 113.486 83.2387 114.085C84.3154 113.944 85.3528 113.512 86.2102 112.846C86.5703 112.567 86.9712 112.232 87.4128 112.274C87.3984 112.054 87.4053 111.832 87.4252 111.657Z" fill="#14345A"/>
<path d="M88.1543 104.925C89.2554 105.049 90.345 105.273 91.4059 105.591C91.7992 105.709 92.217 105.861 92.4458 106.202C92.6343 106.482 92.6576 106.839 92.6661 107.177C92.6925 108.225 92.6353 109.275 92.496 110.314C89.8477 110.83 87.0766 110.706 84.4855 109.955C83.8678 109.776 83.1705 109.468 83.0283 108.842C82.9591 108.538 83.0417 108.223 83.1238 107.922C83.2983 107.284 83.4813 106.628 83.8842 106.103C84.3547 105.491 85.0877 105.118 85.8442 104.959C86.6016 104.801 87.3859 104.839 88.1543 104.925Z" fill="#5F45AA"/>
<path d="M92.4691 108.021C92.4905 107.521 92.505 106.993 92.2608 106.556C92.0136 106.114 91.5371 105.843 91.0493 105.704C90.5619 105.565 90.0501 105.536 89.5498 105.456C89.8393 105.702 90.0113 106.064 90.0879 106.435C90.1645 106.807 90.1526 107.19 90.1252 107.568C90.0501 108.608 89.8586 109.638 89.5563 110.636C89.984 110.635 90.4157 110.634 90.8339 110.544C91.2522 110.453 91.661 110.264 91.9425 109.943C92.3896 109.433 92.4403 108.698 92.4691 108.021Z" fill="#F47362"/>
<path d="M92.4765 109.568C93.0495 109.461 93.1778 109.824 95.288 110.048C94.352 110.962 93.408 111.464 92.107 111.311C90.8055 111.159 89.6084 110.939 88.3328 110.614C89.7636 110.622 91.0701 109.831 92.4765 109.568Z" fill="#5F45AA"/>
<path d="M84.0229 107.585C83.9951 107.502 83.9065 107.456 83.826 107.42C83.7404 107.382 83.642 107.343 83.5564 107.381C83.4719 107.419 83.4351 107.516 83.4067 107.604C83.3376 107.817 83.2675 108.04 83.3058 108.26C83.3441 108.48 83.5281 108.693 83.7519 108.682C83.8374 108.379 83.923 108.076 84.0085 107.773C84.0259 107.712 84.0433 107.645 84.0229 107.585Z" fill="#14345A"/>
<path d="M90.189 141.82C88.5961 139.187 87.4079 136.329 86.6575 133.368C84.3424 133.458 82.0318 133.941 79.7639 134.636C80.8387 138.774 82.4888 143.324 85.5106 146.427C88.8611 149.868 92.5469 152.879 99.8597 156.026C100.506 155.053 101.153 154.08 101.799 153.107C97.0229 150.369 92.987 146.445 90.189 141.82Z" fill="#F0CD95"/>
<path d="M85.8743 126.44C85.8449 125.089 85.8479 123.593 84.908 122.589C83.9217 121.536 82.1209 121.443 80.8487 122.158C79.576 122.873 78.8027 124.232 78.5202 125.624C78.2377 127.016 78.3884 128.454 78.5953 129.858C78.847 131.566 79.1876 133.268 79.6238 134.947C82.0025 134.217 84.427 133.711 86.856 133.616C86.2607 131.267 85.927 128.857 85.8743 126.44Z" fill="#F47362"/>
<path d="M79.7093 135.042C82.0448 134.293 84.4673 133.831 86.9147 133.674L86.8908 133.303C84.4345 133.461 82.0025 133.922 79.6571 134.668C79.5183 133.651 79.2796 132.645 79.0414 131.67C78.8653 130.947 78.6833 130.201 78.5475 129.462C78.1333 127.204 78.28 125.42 78.9961 124.01C79.774 122.478 81.6544 121.19 83.4557 121.688L83.5552 121.329C81.5673 120.78 79.5084 122.176 78.6629 123.841C77.9085 125.327 77.7508 127.187 78.18 129.528C78.3173 130.278 78.5008 131.03 78.6778 131.757C78.9424 132.842 79.2155 133.962 79.3373 135.083L79.495 135.066L79.5074 135.104C79.5711 135.083 79.6352 135.065 79.6989 135.044L79.7088 135.043C79.7098 135.043 79.7093 135.043 79.7093 135.042Z" fill="#14345A"/>
<path d="M220.264 179.425C219.711 178.884 220.04 177.886 220.666 177.434C221.292 176.981 221.261 177.098 222.833 176.643C223.741 176.38 224.516 175.856 225.967 174.245C227.48 174.458 229.021 174.469 230.536 174.278C230.906 175.851 231.044 177.48 230.943 179.093C227.39 179.364 223.826 179.475 220.264 179.425Z" fill="#14345A"/>
<path d="M247.932 120.647C244.24 121.561 240.402 121.885 236.609 121.604L234.643 121.513C235.049 125.485 233.419 129.88 231.648 133.46C229.877 137.039 228.635 139.848 227.291 143.608C223.939 152.988 225.002 164.85 225.163 174.8L230.976 174.637C231.313 163.294 232.734 150.503 239.308 141.24C241.542 138.093 244.1 135.154 245.948 131.767C247.796 128.38 248.899 124.38 247.932 120.647Z" fill="#189FB1"/>
<path d="M228.025 174.305C227.01 160.426 229.172 146.577 234.451 133.145L234.915 133.326C229.663 146.689 227.512 160.464 228.522 174.27L228.025 174.305Z" fill="#54CED1"/>
<path d="M232.156 155.294C234.049 149.921 235.944 144.54 237.346 139.02C237.667 137.753 237.964 136.433 237.722 135.149C237.479 133.864 236.555 132.618 235.263 132.404C232.394 141.256 229.49 150.353 229.982 159.644C231.05 158.41 231.614 156.832 232.156 155.294Z" fill="#14345A"/>
<path d="M231.808 179.261C231.256 178.721 231.584 177.723 232.211 177.27C232.837 176.818 232.805 176.935 234.377 176.479C235.286 176.216 236.06 175.693 237.512 174.082C239.025 174.294 240.565 174.305 242.081 174.114C242.451 175.688 242.589 177.316 242.487 178.929C238.935 179.201 235.37 179.311 231.808 179.261Z" fill="#14345A"/>
<path d="M242.279 174.886C241.101 163.423 241.023 152.687 244.377 141.974C246.617 134.814 251.406 130.804 250.283 121.358L249.15 117.71C244.428 120.173 240.692 120.371 235.403 121.081C235.59 128.952 233.948 135.809 233.25 142.844C232.188 153.546 234.017 164.292 235.946 174.886H242.279Z" fill="#54CED1"/>
<path d="M240.233 174.648C239.974 172.515 239.846 170.637 239.723 168.822C239.6 167.012 239.473 165.14 239.215 163.021C238.89 160.351 238.555 157.591 238.486 154.85C238.367 150.073 239.04 145.342 240.489 140.788C241.055 139.008 241.746 137.244 242.414 135.537C242.972 134.114 243.548 132.642 244.048 131.173C244.434 130.035 244.835 129.268 245.156 128.651C245.758 127.498 246.155 126.736 245.951 124.586L246.446 124.539C246.664 126.835 246.217 127.693 245.597 128.88C245.267 129.513 244.893 130.23 244.519 131.332C244.016 132.811 243.437 134.289 242.877 135.718C242.212 137.417 241.523 139.174 240.962 140.937C239.53 145.439 238.864 150.115 238.982 154.837C239.051 157.553 239.385 160.302 239.708 162.96C239.967 165.093 240.095 166.971 240.218 168.787C240.341 170.597 240.467 172.468 240.726 174.587L240.233 174.648Z" fill="#189FB1"/>
<path d="M222.475 104.979C218.398 109.698 213.138 113.393 207.309 115.63C207.932 116.787 208.554 117.943 209.177 119.099C214.118 117.094 218.988 114.817 223.313 111.702C225.077 110.431 226.832 109.138 228.448 107.727C227.755 105.489 226.117 104.228 224.125 102.984C223.581 103.655 223.039 104.327 222.475 104.979Z" fill="#F0CD95"/>
<path d="M231.368 96.4457C229.891 96.9189 228.379 98.3295 227.517 99.1499C226.277 100.329 225.2 101.656 224.125 102.984C226.074 104.164 227.68 105.585 228.447 107.728C230.791 105.68 232.838 103.383 234.167 100.526C235.097 98.5284 233.981 95.6085 231.368 96.4457Z" fill="#D3584F"/>
<path d="M227.739 106.347C226.64 105.042 225.258 103.939 223.741 103.158L223.913 102.828C225.473 103.632 226.895 104.766 228.025 106.108L227.739 106.347Z" fill="#14345A"/>
<path d="M245.215 123.674C242.341 125.421 238.918 126.471 235.423 126.708C233.917 126.81 232.583 125.755 232.357 124.267C231.63 119.481 230.466 114.744 228.881 110.116C227.871 107.167 226.676 104.117 227.257 101.081C227.71 98.7154 229.282 96.5266 231.529 95.1353C233.775 93.744 236.661 92.687 239.381 93.0873C244.522 98.9461 246.705 106.796 248.69 113.96C249.207 115.826 249.716 117.804 249.053 119.635C248.439 121.332 246.892 122.655 245.215 123.674Z" fill="#F47362"/>
<path d="M227.288 93.0075C229.679 91.6534 230.096 90.8702 231.386 88.4487L236.086 93.1503C234.224 95.8019 233.31 96.5023 230.636 98.4927C229.362 96.4462 229.171 94.548 227.288 93.0075Z" fill="#F0CD95"/>
<path d="M229.591 96.6278C229.087 95.1616 228.33 93.8596 227.288 93.0075C229.433 91.7928 229.991 91.0339 231.014 89.1431C232.178 91.955 231.365 94.5619 229.591 96.6278Z" fill="#14345A"/>
<path d="M230.14 108.601C230.704 104.537 233.072 100.842 236.239 98.2234C237.306 97.341 238.818 96.5459 240.006 97.2577C240.57 97.595 240.911 98.207 241.126 98.826C242.013 101.376 241.139 104.164 240.268 106.719C238.957 110.566 237.646 114.413 236.242 118.227C235.577 120.034 234.848 121.899 233.452 123.23C231.47 118.567 229.445 113.617 230.14 108.601Z" fill="#D3584F"/>
<path d="M235.143 92.1558C235.318 92.8711 235.104 93.6369 234.722 94.2668C234.34 94.8967 233.801 95.414 233.268 95.9239C232.646 96.5191 232.022 97.1163 231.324 97.6207C231.108 97.777 230.879 97.9293 230.725 98.147C230.623 98.2908 230.559 98.457 230.499 98.6232C230.168 99.5517 229.979 100.531 229.94 101.516C230.999 100.008 232.49 98.8692 233.833 97.6074C235.176 96.345 236.433 94.8516 236.784 93.0447C236.188 92.8517 235.629 92.5487 235.143 92.1558Z" fill="white"/>
<path d="M229.704 96.3842C229.164 96.9407 228.818 98.026 228.853 98.7997C228.889 99.5735 229.155 100.318 229.478 101.023C229.603 99.9485 230.133 98.9262 230.94 98.204C230.341 97.8454 229.984 97.0226 229.704 96.3842Z" fill="white"/>
<path d="M230.553 84.2402C230.119 83.5175 229.539 82.8469 228.768 82.5037C227.595 81.9819 226.23 82.3072 225.016 82.7274C224.077 83.0527 223.135 83.4431 222.392 84.1023C221.649 84.7615 221.126 85.7376 221.235 86.7236C221.29 87.2181 221.495 87.6819 221.704 88.1338C222.214 89.2359 222.478 89.9099 223.057 90.9773C223.165 91.1777 223.541 91.3275 223.737 91.511C223.784 91.6524 223.796 91.8136 223.801 91.9644C223.828 92.8046 223.835 93.4702 224.109 94.2653C224.146 94.3739 224.392 94.5158 224.505 94.5391C224.631 94.5649 224.973 94.5014 225.062 94.4101C225.105 94.3665 225.138 94.3357 225.173 94.302C225.714 94.9771 226.268 95.5624 226.903 96.3346C229.084 95.4835 230.377 93.501 231.184 91.2243C231.991 88.9487 231.797 86.312 230.553 84.2402Z" fill="#F0CD95"/>
<path d="M223.669 90.1882C224.131 90.082 224.612 90.0548 225.083 90.1088C225.077 90.1837 225.087 90.2596 225.112 90.33C224.671 90.2963 224.224 90.3469 223.801 90.4788C223.757 90.3826 223.713 90.2854 223.669 90.1882Z" fill="#14345A"/>
<path d="M225.232 91.1951C225.173 91.1028 225.105 91.0096 225.007 90.9605C224.909 90.9113 224.772 90.9218 224.71 91.012C224.648 91.1018 224.682 91.2273 224.745 91.3171C224.807 91.4064 224.893 91.4783 224.993 91.5224C225.091 91.5661 225.226 91.572 225.284 91.4827C225.34 91.3954 225.288 91.2819 225.232 91.1951Z" fill="#14345A"/>
<path d="M225.896 94.5207C226.189 94.4553 226.44 94.2732 226.701 94.1229C226.737 94.1016 226.777 94.0808 226.819 94.0838C226.9 94.0892 226.949 94.1844 226.936 94.2633C226.922 94.3427 226.867 94.4071 226.812 94.4662C226.686 94.6026 226.551 94.736 226.385 94.8198C226.22 94.9036 226.016 94.9319 225.848 94.853C225.799 94.8307 225.754 94.7985 225.727 94.7529C225.7 94.7072 225.695 94.6462 225.725 94.6021C225.76 94.5475 225.832 94.5346 225.896 94.5207Z" fill="#14345A"/>
<path d="M229.988 82.9704C228.981 81.8847 227.331 81.5652 225.88 81.8737C224.43 82.1817 223.152 83.0304 222.023 83.9892C221.606 84.3428 221.187 84.7411 221.036 85.2654C220.924 85.6567 220.975 86.0749 221.042 86.4761C221.094 86.7851 221.156 87.0976 221.304 87.3739C221.668 88.0554 222.499 88.3892 223.272 88.3589C224.045 88.3287 224.773 87.9964 225.452 87.6258C227.046 86.7564 228.494 85.6488 229.936 84.5462C230.086 84.4311 230.242 84.3106 230.327 84.1424C230.524 83.7561 230.283 83.2888 229.988 82.9704Z" fill="#14345A"/>
<path d="M227.583 88.5479C227.396 88.226 226.973 88.0083 226.64 88.1754C226.309 88.3421 226.129 88.788 226.228 89.1441C226.365 89.6396 226.479 89.9764 226.378 90.2343C225.751 89.3634 225.015 88.5703 224.184 87.8897C225.918 86.6269 227.651 85.3636 229.385 84.1008C229.517 84.0041 229.657 83.9044 229.819 83.8756C229.962 83.8503 230.108 83.8826 230.244 83.9326C230.865 84.1618 231.293 84.7481 231.522 85.3681C231.752 85.9876 231.816 86.6537 231.936 87.303C232.055 87.9527 232.243 88.6149 232.67 89.1198C231.567 89.4402 230.379 89.4621 229.266 89.1823C228.798 89.0648 228.267 88.911 227.858 89.1392C227.779 88.9214 227.677 88.7091 227.583 88.5479Z" fill="#F47362"/>
<path d="M224.122 82.341C223.11 82.9287 222.151 83.6073 221.261 84.3661C220.931 84.6474 220.591 84.9723 220.515 85.3983C220.453 85.75 220.582 86.1051 220.718 86.4355C221.14 87.4607 221.643 88.4527 222.222 89.3986C225.004 88.7736 227.633 87.4771 229.818 85.6503C230.34 85.2148 230.883 84.6206 230.753 83.955C230.691 83.6316 230.476 83.3617 230.268 83.1058C229.827 82.5627 229.37 82.0057 228.757 81.6694C228.04 81.2766 227.172 81.227 226.372 81.3941C225.572 81.5613 224.829 81.9308 224.122 82.341Z" fill="#5F45AA"/>
<path d="M221.435 87.1264C221.202 86.6522 220.961 86.1463 221.012 85.62C221.062 85.0878 221.407 84.6231 221.82 84.2813C222.232 83.9396 222.715 83.6961 223.165 83.4054C222.989 83.766 222.978 84.1896 223.062 84.5809C223.147 84.9728 223.322 85.3388 223.51 85.6929C224.026 86.6666 224.651 87.5827 225.37 88.4195C224.955 88.6005 224.538 88.783 224.095 88.8728C223.651 88.9626 223.175 88.9536 222.766 88.7627C222.115 88.4586 221.752 87.7697 221.435 87.1264Z" fill="#F47362"/>
<path d="M221.922 88.6674C221.322 88.8068 221.353 89.213 219.407 90.3251C220.703 90.8121 221.83 90.897 223.024 90.1976C224.218 89.4978 225.282 88.7766 226.378 87.9205C224.997 88.536 223.395 88.3252 221.922 88.6674Z" fill="#5F45AA"/>
<path d="M229.254 83.1599C229.246 83.0671 229.313 82.9863 229.375 82.9173C229.441 82.8439 229.52 82.7641 229.619 82.7651C229.717 82.7656 229.794 82.8444 229.859 82.9173C230.016 83.0939 230.179 83.2799 230.237 83.5095C230.294 83.7392 230.206 84.0229 229.985 84.1072C229.773 83.8503 229.561 83.5934 229.349 83.3369C229.306 83.2844 229.261 83.2273 229.254 83.1599Z" fill="#14345A"/>
<path d="M229.177 105.949C225.692 112.053 220.673 117.28 214.709 121.018C215.65 122.163 216.591 123.308 217.531 124.452C222.564 121.165 227.458 117.59 231.567 113.208C233.243 111.419 234.904 109.609 236.384 107.698C235.131 105.371 233.043 104.33 230.569 103.384C230.114 104.245 229.659 105.105 229.177 105.949Z" fill="#F0CD95"/>
<path d="M237.163 94.5813C235.63 95.425 234.264 97.3132 233.488 98.4074C232.373 99.9807 231.47 101.682 230.569 103.385C232.982 104.269 235.07 105.494 236.384 107.699C238.533 104.926 240.298 101.94 241.148 98.4917C241.742 96.0797 239.872 93.0893 237.163 94.5813Z" fill="#F47362"/>
<path d="M236.354 108.237L236.058 108.012C237.544 106.067 238.843 103.967 239.919 101.77C240.391 100.807 240.895 99.6797 240.889 98.5012C240.884 97.5087 240.385 96.2473 239.302 95.8218L239.438 95.4756C240.69 95.9676 241.256 97.3485 241.262 98.4992C241.268 99.758 240.745 100.932 240.255 101.933C239.168 104.152 237.855 106.272 236.354 108.237Z" fill="#14345A"/>
<path d="M236.206 107.876C234.942 105.778 232.851 104.24 230.469 103.656L230.559 103.294C233.036 103.903 235.211 105.502 236.526 107.684L236.206 107.876Z" fill="#14345A"/>
<path d="M114.734 192.134L219.701 163.488C222.11 162.83 223.529 160.349 222.87 157.946L221.904 154.427L108.211 185.453L109.177 188.973C109.836 191.376 112.325 192.791 114.734 192.134Z" fill="#14345A"/>
<path d="M214.256 171.432L211.551 172.221L206.477 161.184L211.098 159.923L214.256 171.432Z" fill="#14345A"/>
<path d="M126.507 195.326L123.603 196.172L120.445 184.662L125.066 183.4L126.507 195.326Z" fill="#14345A"/>
<path d="M217.844 157.361L210.672 159.319C208.875 159.809 207.02 158.754 206.528 156.962L196.86 121.728C196.369 119.936 197.427 118.086 199.224 117.595L206.396 115.638C208.193 115.147 210.048 116.203 210.54 117.995L220.207 153.228C220.699 155.021 219.641 156.871 217.844 157.361Z" fill="#14345A"/>
<path d="M122.481 183.386L115.309 185.343C113.512 185.834 111.656 184.778 111.164 182.986L101.497 147.753C101.005 145.961 102.064 144.11 103.861 143.62L111.033 141.663C112.83 141.172 114.685 142.228 115.177 144.02L124.844 179.253C125.336 181.045 124.278 182.896 122.481 183.386Z" fill="#14345A"/>
<path d="M208.956 155.231L120.312 179.422C117.507 180.188 114.61 178.54 113.842 175.742L112.643 171.37C111.875 168.573 113.527 165.683 116.333 164.918L204.977 140.727C207.782 139.961 210.679 141.608 211.447 144.407L212.646 148.778C213.414 151.576 211.762 154.465 208.956 155.231Z" fill="#14345A"/>
<path d="M221.466 156.373L218.76 157.111C215.73 157.938 212.601 156.159 211.772 153.137L203.328 122.357C202.499 119.335 204.283 116.215 207.313 115.388L210.019 114.649C213.049 113.823 216.178 115.602 217.007 118.624L225.452 149.404C226.281 152.426 224.497 155.546 221.466 156.373Z" fill="#5F45AA"/>
<path d="M113.348 185.878L109.881 186.825C107.06 187.595 104.149 185.938 103.377 183.126L94.724 151.587C93.9522 148.774 95.6128 145.871 98.4331 145.101L101.9 144.154C104.72 143.385 107.632 145.041 108.404 147.854L117.057 179.392C117.829 182.205 116.168 185.109 113.348 185.878Z" fill="#5F45AA"/>
<path d="M211.881 162.121L120.914 186.946C119.19 187.416 117.41 186.404 116.938 184.685L114.649 176.34C114.177 174.621 115.192 172.846 116.916 172.375L207.884 147.551C209.608 147.08 211.387 148.092 211.859 149.811L214.149 158.156C214.62 159.876 213.605 161.65 211.881 162.121Z" fill="white"/>
<path d="M211.881 162.121L120.914 186.946C119.19 187.416 117.447 186.539 117.022 184.987L114.954 177.451C114.528 175.898 115.58 174.259 117.304 173.788L208.272 148.964C209.996 148.493 211.738 149.37 212.164 150.923L214.231 158.459C214.658 160.011 213.605 161.65 211.881 162.121Z" fill="#5F45AA"/>
<path d="M201.323 142.223L120.308 164.331C117.872 164.996 115.356 163.565 114.689 161.135L108.01 136.793C107.343 134.363 108.778 131.854 111.215 131.189L192.23 109.08C194.667 108.415 197.182 109.846 197.849 112.277L204.528 136.618C205.194 139.049 203.759 141.558 201.323 142.223Z" fill="white"/>
<path d="M202.337 142.659L120.405 165.018C117.941 165.69 115.43 164.365 114.797 162.058L108.457 138.949C107.824 136.643 109.308 134.227 111.773 133.554L193.705 111.195C196.169 110.523 198.68 111.848 199.313 114.155L205.653 137.264C206.286 139.57 204.802 141.986 202.337 142.659Z" fill="#5F45AA"/>
<path d="M169.068 132.26C169.002 132.146 169.036 131.999 169.073 131.871C169.736 129.498 170.79 125.832 171.454 123.458C172.561 123.733 173.313 125.145 174.45 125.107C174.154 127.855 174.867 130.062 175.142 132.812C172.806 132.605 171.791 132.638 169.455 132.431C169.31 132.418 169.143 132.391 169.068 132.26Z" fill="#F0CD95"/>
<path d="M170.844 118.899C171.496 117.798 172.616 117.015 173.835 116.805C175.054 116.595 177.168 117.224 178.127 118.042C178.633 118.473 178.652 119.666 178.707 120.347C178.75 120.869 178.533 121.219 178.583 121.74C178.634 122.272 178.667 122.273 178.772 122.603C178.927 123.093 178.985 123.615 178.91 124.125C178.695 125.58 177.712 126.714 177.163 128.031C176.995 128.434 176.552 128.627 176.154 128.489C174.338 127.86 172.615 126.853 171.452 125.276C170.126 123.477 169.7 120.83 170.844 118.899Z" fill="#F0CD95"/>
<path d="M179.621 118.168C179.593 119.407 178.688 120.566 177.535 120.836C177.591 120.704 177.647 120.573 177.703 120.441C177.13 121.43 176.118 122.125 175.026 122.281C175.093 122.132 175.16 121.982 175.227 121.832C174.865 122.631 174.069 123.09 173.326 123.507C172.584 123.924 171.794 124.409 171.469 125.224C170.421 124.616 169.652 123.549 169.247 122.367C168.841 121.184 168.779 119.894 168.926 118.647C169.041 117.67 169.323 116.64 170.052 116.021C170.936 115.271 170.448 115.626 171.477 115.119C175.989 112.894 179.648 116.929 179.621 118.168Z" fill="#14345A"/>
<path d="M171.178 119.534C171.38 119.104 171.585 118.666 171.649 118.195C171.712 117.725 171.615 117.208 171.28 116.871C170.945 116.533 170.345 116.447 169.991 116.764C170.859 117.371 171.337 118.488 171.178 119.534Z" fill="#F47362"/>
<path d="M175.902 122.805C175.984 122.52 176.024 122.215 175.965 121.925C175.905 121.635 175.734 121.36 175.479 121.232C175.114 121.051 174.656 121.213 174.382 121.524C174.109 121.836 173.988 122.264 173.931 122.683C173.859 123.198 173.881 123.761 174.167 124.187C174.453 124.613 175.071 124.817 175.466 124.501L175.902 122.805Z" fill="#F0CD95"/>
<path d="M169.878 122.248C169.54 121.356 169.095 120.457 169.154 119.499C169.206 118.637 169.725 117.844 170.433 117.415C170.755 117.22 170.612 116.706 170.24 116.692C169.547 116.667 168.82 116.949 168.293 117.438C167.45 118.22 167.04 119.404 166.875 120.572C166.709 121.739 166.755 122.929 166.652 124.104C166.45 126.388 165.577 128.745 163.772 130.037C165.07 130.361 166.452 130.683 167.714 130.228C169.11 129.725 170.095 128.31 170.404 126.794C170.713 125.28 170.424 123.688 169.878 122.248Z" fill="#14345A"/>
<path d="M167.328 185.041H174.577C172.952 193.067 171.374 201.425 169.966 209.371C169.672 211.028 169.895 212.32 170.72 213.336C170.725 213.343 171.918 214.024 171.926 214.027C173.816 214.593 175.717 215.202 174.754 216.174C173.152 217.467 170.699 217.953 168.578 217.564C167.768 217.416 166.692 217.91 166.428 217.639C166.103 217.308 166.179 216.557 166.284 215.885C166.393 215.181 166.516 214.473 166.651 213.764C166.859 212.672 166.901 211.609 166.754 210.634C165.58 202.853 165.78 194.101 167.328 185.041Z" fill="#F0CD95"/>
<path d="M173.71 214.619C173.402 215.105 172.931 215.538 172.299 215.879C171.398 216.365 170.152 216.34 169.34 216.261C168.355 216.165 167.334 215.805 166.282 215.891C166.179 216.563 166.104 217.309 166.428 217.639C166.692 217.909 167.767 217.415 168.578 217.564C170.698 217.953 173.152 217.466 174.753 216.174C175.396 215.525 174.762 215.039 173.71 214.619Z" fill="#14345A"/>
<path d="M174.358 207.651C172.459 198.603 175.585 188.534 175.793 179.292C175.936 172.914 177.188 166.277 177.684 159.916C173.528 160.085 169.353 159.821 165.252 159.13C163.839 163.256 164.202 167.779 165.061 172.054C165.92 176.329 165.458 180.025 165.968 184.355C166.859 191.916 162.53 197.746 165.149 208.035C167.945 207.743 171.561 207.942 174.358 207.651Z" fill="#189FB1"/>
<path d="M169.754 205.486C169.893 205.999 170.078 206.535 170.529 206.893C171.474 207.642 172.985 207.246 174.167 206.809C172.264 199.605 175.815 192.005 174.217 184.747C173.047 179.438 169.231 174.819 167.581 169.606C167.724 173.17 167.623 175.773 168.283 178.689C168.943 181.604 169.589 182.533 169.651 186.315C169.753 192.52 168.114 199.464 169.754 205.486Z" fill="#14345A"/>
<path d="M172.469 202.766C171.703 198.46 172.278 190.797 171.518 185.041H179.314C180.081 192.038 177.838 198.042 179.044 215.972C180.18 217.943 182.244 218.232 184.47 218.98C184.86 219.111 185.37 219.313 185.227 219.886C185.163 220.143 184.978 220.371 184.789 220.54C184.25 221.02 183.635 221.146 183.055 221.263C180.019 221.877 179.408 221.344 177.937 221.139C176.677 220.964 175.954 221.398 175.302 220.438C175.028 220.026 175.155 219.421 175.353 218.757C175.622 217.855 175.971 216.69 175.749 215.941C174.744 212.566 173.114 206.388 172.469 202.766Z" fill="#F0CD95"/>
<path d="M184.47 218.98C184.251 218.906 184.046 218.813 183.843 218.719C183.219 219.4 182.363 219.79 181.487 219.882C179.527 220.09 176.878 219.722 175.313 218.896C175.14 219.504 175.048 220.054 175.301 220.438C175.953 221.398 176.677 220.964 177.937 221.139C179.408 221.344 180.019 221.877 183.055 221.263C183.634 221.146 184.249 221.02 184.789 220.539C184.978 220.371 185.163 220.143 185.227 219.885C185.37 219.313 184.86 219.111 184.47 218.98Z" fill="#14345A"/>
<path d="M180.66 207.187C178.761 198.138 180.129 191.963 180.337 182.721C180.48 176.343 180.296 165.981 180.05 160.429C175.894 160.598 172.465 160.311 168.363 159.62C166.95 163.746 167.313 168.269 168.172 172.544C169.031 176.818 170.368 181.004 170.879 185.334C171.769 192.895 170.123 200.754 172.27 208.06C175.067 207.768 177.863 207.477 180.66 207.187Z" fill="#54CED1"/>
<path d="M172.096 205.845L172.096 205.349C174.673 205.347 177.248 205.027 179.747 204.399L179.869 204.88C177.33 205.518 174.715 205.843 172.096 205.845Z" fill="#189FB1"/>
<path d="M164.439 162.525C169.427 162.179 174.416 161.832 179.405 161.487C179.416 162.02 179.428 162.553 179.44 163.086C174.543 163.484 169.672 164.223 164.878 165.298C164.453 164.447 164.297 163.465 164.439 162.525Z" fill="#14345A"/>
<path d="M164.248 156.959C163.348 161.45 163.794 162.619 163.634 163.573L180.426 162.259C180.361 161.898 179.907 156.194 179.805 155.856C178.905 152.891 179.132 151.811 179.022 148.714C178.899 145.268 179.625 143.86 180.419 140.505C180.808 138.862 180.869 137.198 179.109 135.034C177.866 133.507 177.965 132.804 176.427 130.074C175.596 128.597 172.455 128.982 170.778 128.726C170.062 128.617 169.341 130.018 168.752 130.441C168.278 130.78 167.596 132.37 167.462 132.829C167.068 134.186 166.65 136.119 166.5 137.524C166.09 141.38 167.134 144.111 166.828 147.976C166.571 151.219 164.948 153.471 164.248 156.959Z" fill="#189FB1"/>
<path d="M163.626 162.856L163.617 162.36C169.129 162.256 174.705 161.901 180.189 161.307L180.243 161.8C174.744 162.396 169.153 162.752 163.626 162.856Z" fill="#54CED1"/>
<path d="M176.433 130.301C176.407 130.301 176.381 130.297 176.355 130.289C174.218 129.587 171.838 129.494 169.651 130.027C169.519 130.059 169.384 129.978 169.351 129.845C169.319 129.712 169.4 129.578 169.534 129.545C171.809 128.99 174.287 129.087 176.51 129.818C176.64 129.861 176.712 130.001 176.669 130.131C176.635 130.235 176.537 130.301 176.433 130.301Z" fill="#54CED1"/>
<path d="M202.343 130.597H179.782V154.394H202.343V130.597Z" fill="#F0CD95"/>
<path d="M202.343 131.465H179.782V155.262H202.343V131.465Z" fill="#D3A479"/>
<path d="M202.322 155.261C193.767 154.229 185.43 151.651 179.782 145.349V155.261H202.322Z" fill="#B27C4F"/>
<path d="M199.883 148.752L198.105 146.669L196.326 148.752H197.246V152.439H198.963V148.752H199.883Z" fill="#14345A"/>
<path d="M175.881 135.083C175.51 133.513 174.797 130.889 173.31 130.406C171.823 129.923 169.994 130.401 169.18 131.794C168.497 132.962 168.64 134.452 168.897 135.796C169.129 137.008 169.438 138.202 169.816 139.372C171.94 138.337 174.154 137.579 176.457 137.403C176.295 136.794 176.12 136.1 175.881 135.083Z" fill="#54CED1"/>
<path d="M199.02 154.631C198.964 154.507 198.802 154.477 198.665 154.485C198.167 154.513 197.727 154.801 197.272 155.006C195.979 155.59 194.406 155.51 193.179 154.798C194.179 155.077 195.218 155.216 196.255 155.207C196.391 155.206 196.548 155.192 196.626 155.081C196.709 154.964 196.658 154.797 196.573 154.682C196.375 154.414 196.034 154.291 195.705 154.238C195.376 154.185 195.036 154.186 194.715 154.096C194.212 153.956 193.788 153.605 193.284 153.467C192.784 153.33 192.253 153.415 191.742 153.5C191.276 153.578 190.81 153.655 190.344 153.733C190.048 153.782 189.907 153.753 189.564 153.689C183.346 150.895 179.119 147.035 177.046 139.541C176.814 138.701 176.644 138.11 176.457 137.403C174.153 137.579 171.94 138.337 169.815 139.372C170.252 140.729 170.782 142.052 171.406 143.326C173.401 147.399 176.078 149.844 179.702 152.397C183.264 154.906 187.675 156.219 190.439 156.309C190.895 156.376 191.238 156.413 191.512 156.508C191.966 156.664 192.389 156.899 192.837 157.074C193.284 157.249 193.775 157.363 194.245 157.262C194.356 157.238 194.463 157.201 194.567 157.158C195.234 157.014 195.902 156.871 196.57 156.728C196.792 156.68 197.015 156.632 197.22 156.537C197.407 156.45 197.574 156.326 197.739 156.202C198.028 155.987 198.317 155.771 198.607 155.556C198.747 155.451 198.904 155.302 198.856 155.133C198.85 155.11 198.834 155.094 198.821 155.075C198.85 155.044 198.884 155.019 198.912 154.986C198.996 154.885 199.073 154.75 199.02 154.631Z" fill="#F0CD95"/>
<path d="M47.7312 179.984C48.4399 181.734 48.514 183.71 49.0934 185.55C50.5317 190.117 53.1959 194.074 54.2095 198.91C53.3088 202.176 57.1572 201.441 58.1449 198.565C55.9491 190.683 56.0491 184.437 54.5854 177.793C52.1435 178.821 50.2945 179.579 47.7312 179.984Z" fill="#F0CD95"/>
<path d="M54.2094 198.91C53.3087 202.176 57.1571 201.441 58.1448 198.565C57.9325 197.801 57.7469 197.058 57.5739 196.324C56.3559 196.781 55.0942 197.107 53.8772 197.567C53.9995 198.009 54.1139 198.454 54.2094 198.91Z" fill="#189FB1"/>
<path d="M64.0486 202.331C64.5554 201.781 64.1874 200.832 63.5587 200.425C62.9301 200.018 62.1468 199.961 61.4227 199.769C60.2957 199.471 59.4259 199.238 58.7092 198.436C58.5252 198.23 58.2228 198.187 57.9782 198.315C56.7547 198.956 55.4423 200.833 54.0746 199.744C53.9289 199.628 53.7115 199.704 53.6807 199.887C53.4912 201.001 53.5429 201.158 53.7031 202.547C57.1521 202.631 60.6056 202.558 64.0486 202.331Z" fill="#F47362"/>
<path d="M53.7718 203.345C54.8162 203.405 55.8626 203.305 56.9045 203.216C59.3384 203.005 61.7764 202.845 64.2168 202.735C64.2342 202.479 64.2128 202.221 64.1541 201.972C60.7106 202.379 57.2337 202.509 53.7688 202.358C53.7703 202.687 53.7713 203.016 53.7718 203.345Z" fill="#14345A"/>
<path d="M52.3236 166.918C50.9405 161.363 48.8403 157.01 47.8456 150.81L34.8811 155.728C36.3796 159.929 37.5642 161.693 39.3462 164.544C42.5604 169.686 45.5663 174.411 46.1462 180.529C48.7095 180.124 52.5195 179.214 54.9619 178.186C54.1324 174.418 53.2561 170.661 52.3236 166.918Z" fill="#14345A"/>
<path d="M46.2222 178.625L46.1526 178.133C48.6104 177.789 51.5198 177.149 53.7454 176.465L53.8921 176.939C51.6436 177.631 48.7044 178.276 46.2222 178.625Z" fill="#5F45AA"/>
<path d="M31.89 176.916C31.8492 177.041 30.9435 179.29 30.9013 179.414C28.7036 185.821 28.8443 192.323 26.4128 197.174C27.8631 197.451 29.0119 198.989 30.4621 199.266C32.4306 191.05 36.4714 184.951 38.0858 180.925C38.2409 180.539 38.7034 179.068 38.9427 178.493C36.276 177.859 34.5572 177.487 31.89 176.916Z" fill="#F0CD95"/>
<path d="M26.4128 197.174C27.8631 197.451 29.0119 198.989 30.4621 199.266C30.7924 197.887 31.1848 196.573 31.6105 195.313C30.2095 195.083 28.8498 194.755 27.5557 194.233C27.2449 195.265 26.8759 196.25 26.4128 197.174Z" fill="#189FB1"/>
<path d="M34.3892 203.612C35.0766 203.362 35.1979 202.391 34.8582 201.742C34.797 201.625 34.705 201.522 34.613 201.429C32.7843 199.576 31.7996 199.243 31.5306 197.441C30.5175 196.236 28.1313 197.806 26.7393 196.762C26.6184 196.671 26.4433 196.704 26.3503 196.823C25.5864 197.8 25.6217 197.698 25.103 199.06C28.1268 200.715 31.2267 202.235 34.3892 203.612Z" fill="#F47362"/>
<path d="M34.7298 203.518C33.4199 203.215 32.2969 202.408 31.1311 201.739C30.0708 201.131 28.9533 200.629 27.8383 200.129C26.9262 199.719 26.0141 199.31 25.102 198.9C24.9358 199.185 24.8105 199.494 24.7314 199.815C28.3456 201.227 31.1431 202.932 34.3354 204.251C34.4672 204.007 34.5985 203.762 34.7298 203.518Z" fill="#14345A"/>
<path d="M45.0653 162.021C45.7934 158.208 46.0684 155.483 45.8347 151.607C42.6363 150.807 37.7073 150.618 34.4149 150.809L33.7386 152.58C33.4879 155.715 34.3831 158.996 33.9076 162.105C33.1661 166.955 31.7646 171.972 29.4849 176.725C32.1516 177.296 36.1989 179.081 39.2396 178.945C40.829 175.132 43.9995 167.603 45.0653 162.021Z" fill="#14345A"/>
<path d="M39.4792 177.054C36.6727 176.647 34.2413 175.992 31.0867 174.79L31.2637 174.327C34.3815 175.514 36.7826 176.162 39.5503 176.563L39.4792 177.054Z" fill="#5F45AA"/>
<path d="M39.5873 179.212L39.1372 179.002C42.8732 171.047 45.7418 162.3 45.6284 153.517L46.1879 153.393C46.3018 162.251 43.3551 171.19 39.5873 179.212Z" fill="#5F45AA"/>
<path d="M44.8301 128.513C44.0701 126.349 42.6791 124.284 40.5485 123.07C38.4179 121.856 35.4757 121.659 33.4153 122.968C31.2215 124.361 30.5163 126.989 30.3263 129.399C30.0981 132.291 30.3716 135.195 30.6725 138.081C31.2355 143.479 33.0627 144.57 32.6822 153.581C36.5942 153.892 44.5023 154.057 48.5914 152.958C47.6614 147.865 45.5905 130.676 44.8301 128.513Z" fill="#5F45AA"/>
<path d="M41.024 125.367L40.6446 125.155C39.0163 124.245 37.0349 123.941 35.2057 124.319L35.1301 123.955C36.9016 123.587 38.8129 123.834 40.4407 124.629C40.2442 123.977 39.9786 123.312 39.714 122.823L40.0423 122.646C40.376 123.264 40.7112 124.146 40.9166 124.947L41.024 125.367Z" fill="#14345A"/>
<path d="M71.7593 115.217H43.75V146.017H71.7593V115.217Z" fill="#F0CD95"/>
<path d="M71.7593 116.209H43.75V147.009H71.7593V116.209Z" fill="#D3A479"/>
<path d="M46.3948 135.416V116.209H43.7495V132.853V147.009H46.3948H68.3879C60.26 144.582 52.5841 140.924 46.3948 135.416Z" fill="#B27C4F"/>
<path d="M68.0005 140.75L66.2221 138.667L64.4436 140.75H65.3637V144.437H67.0805V140.75H68.0005Z" fill="#14345A"/>
<path d="M66.3074 146.682C65.7708 146.591 65.2342 146.791 64.7005 146.899C63.1862 147.208 61.5335 146.744 60.4041 145.691C61.3978 146.229 62.468 146.627 63.5721 146.868C63.7168 146.9 63.8869 146.923 63.9968 146.824C64.1137 146.719 64.0993 146.53 64.0366 146.386C63.8919 146.054 63.5597 145.841 63.2225 145.705C62.8858 145.569 62.5252 145.488 62.2059 145.316C61.7051 145.046 61.3396 144.571 60.8383 144.303C60.3404 144.037 59.7561 143.998 59.1926 143.965C58.6788 143.936 58.1651 143.905 57.6508 143.876C57.5156 143.868 57.3798 143.86 57.2445 143.852C51.2616 142.71 49.4016 141.086 45.9396 138.545C43.6688 136.879 42.0003 134.618 40.2979 132.377C38.4394 133.271 36.7285 134.496 35.1316 135.886C37.5322 139.009 39.7662 141.035 43.1232 143.082C47.3824 145.678 51.8286 146.646 57.7374 146.854C57.9015 146.931 58.0646 147.009 58.2193 147.105C58.6639 147.381 59.0558 147.733 59.489 148.026C59.9217 148.32 60.416 148.559 60.9392 148.565C61.4714 148.571 61.9717 148.337 62.4859 148.201C63.1494 148.025 63.8431 148.012 64.525 147.931C65.2068 147.851 65.9051 147.692 66.4487 147.273C66.5616 147.187 66.676 147.062 66.6486 146.922C66.6198 146.778 66.4536 146.707 66.3074 146.682Z" fill="#F0CD95"/>
<path d="M37.1101 126.79C36.5889 125.657 36.0413 124.389 34.9039 123.872C33.7103 123.328 32.2049 123.885 31.4281 124.94C30.6512 125.995 30.5189 127.418 30.8004 128.697C31.0819 129.975 31.7339 131.138 32.4197 132.254C33.2538 133.611 34.1584 134.932 35.1322 136.199C36.8077 134.741 38.6021 133.456 40.5521 132.518C39.2014 130.74 38.0421 128.818 37.1101 126.79Z" fill="#14345A"/>
<path d="M34.9254 134.935L34.6001 134.56C36.2358 133.149 38.074 132.007 40.0653 131.166L40.2593 131.623C38.3162 132.443 36.5218 133.557 34.9254 134.935Z" fill="#5F45AA"/>
<path d="M39.7677 123.764C39.2674 121.243 38.5707 119.779 38.0698 117.258C37.0404 117.543 34.874 116.129 33.8162 115.976C33.8162 119.173 33.8162 121.618 33.1323 123.447C35.7523 122.567 37.0707 123.158 39.7677 123.764Z" fill="#F0CD95"/>
<path d="M34.7183 116.256C34.6577 119.04 36.7385 121.157 39.2669 121.702C38.8611 120.259 38.4185 119.012 38.0704 117.258C37.2826 117.476 35.8309 116.702 34.7183 116.256Z" fill="#14345A"/>
<path d="M42.3504 115.546C42.3723 115.448 42.3091 115.353 42.2485 115.273C41.8128 114.697 41.3488 114.142 40.8654 113.576C40.8594 113.359 41.1359 113.108 41.1613 112.892C41.1757 112.769 41.1295 112.648 41.0842 112.533C40.9002 112.069 40.9201 112.126 40.8216 111.637C40.6968 111.018 40.6192 110.335 40.1994 109.829C39.7887 109.333 39.1257 109.045 38.5165 108.885C37.6143 108.65 36.6659 108.554 35.7448 108.699C34.8238 108.845 33.9301 109.243 33.2691 109.899C32.5624 110.601 32.2163 111.469 32.0755 112.453C31.8189 114.249 32.8757 115.897 34.1991 117.115C34.2588 117.198 34.5905 117.151 34.9794 117.79C35.4544 118.57 36.2725 118.964 37.1075 119.25C37.9202 119.53 38.8059 119.708 39.6782 119.654C40.2059 119.622 40.8151 119.564 41.2986 119.336C41.4851 119.248 41.6541 119.104 41.7278 118.912C41.7954 118.734 41.768 118.532 41.6711 118.371C41.5746 118.211 41.3955 118.079 41.4602 117.863C41.4776 117.805 41.6929 117.602 41.5835 117.547C41.5656 117.538 41.4413 117.387 41.2274 117.405C41.1986 117.407 41.212 117.251 41.2274 117.227C41.3165 117.085 41.4413 117.05 41.5303 116.908C41.4975 116.689 41.4801 116.614 41.4234 116.393C41.6691 116.268 41.8685 116.18 42.0286 115.984C42.0938 115.906 42.328 115.646 42.3504 115.546Z" fill="#F0CD95"/>
<path d="M37.2931 111.634C37.2528 112.46 37.3517 113.292 37.585 114.086C37.6218 114.211 37.6621 114.338 37.6556 114.468C37.6491 114.598 37.5845 114.735 37.4646 114.787C37.2165 114.351 36.8629 113.976 36.4416 113.704C36.2626 113.587 36.0477 113.486 35.8413 113.543C35.5753 113.616 35.4504 113.89 35.4365 114.165C35.4171 114.551 35.5419 114.933 35.6782 115.289C35.7588 115.5 35.9692 115.946 35.6195 116.035C34.5448 116.309 34.6134 117.221 33.7645 117.325C33.5347 116.807 33.1886 116.351 32.8593 115.89C32.5301 115.429 32.2108 114.948 32.0472 114.406C31.8836 113.864 31.8935 113.245 32.1959 112.766C32.4988 112.287 33.0389 112.017 33.5665 111.808C34.7969 111.321 36.099 111.04 37.402 110.804L37.2931 111.634Z" fill="#14345A"/>
<path d="M37.4258 111.156C35.4543 111.412 33.5406 112.127 31.9064 113.255C31.7467 112.398 31.5886 111.499 31.8497 110.667C32.1789 109.616 33.1338 108.858 34.1653 108.466C35.1967 108.074 36.3147 107.989 37.4118 107.871C38.509 107.753 39.63 107.589 40.5993 107.063C40.4799 107.278 40.3605 107.493 40.2412 107.709C40.5018 107.729 40.7689 107.636 40.9598 107.458C40.9966 108.321 40.737 109.193 40.2342 109.896C40.377 109.764 40.5197 109.633 40.6624 109.501C40.5082 110.129 39.9418 110.586 39.334 110.81C38.7263 111.035 38.0683 111.072 37.4258 111.156Z" fill="#14345A"/>
<path d="M39.2859 113.64L39.0845 113.454C39.5206 112.983 40.0697 112.618 40.6725 112.397L40.7674 112.653C40.205 112.86 39.6927 113.201 39.2859 113.64Z" fill="#14345A"/>
<path d="M40.1021 113.605C40.0757 113.739 40.0777 113.878 40.1085 114.011C40.1249 114.082 40.1642 114.164 40.2373 114.17C40.2965 114.175 40.3463 114.127 40.3786 114.077C40.4766 113.925 40.4945 113.725 40.4258 113.558C40.395 113.483 40.3308 113.406 40.2503 113.414C40.1637 113.424 40.119 113.521 40.1021 113.605Z" fill="#14345A"/>
</g>
<defs>
<clipPath id="clip0_415_8499">
<rect width="373" height="248" fill="white"/>
</clipPath>
</defs>
</svg>
