<svg width="20" height="20" viewBox="0 0 20 20" fill="none" xmlns="http://www.w3.org/2000/svg">
<path d="M2.24444 10C2.24444 5.73333 5.71111 2.24444 10 2.24444V0C4.48889 0 0 4.48889 0 10C0 15.5111 4.48889 20 10 20V17.7556C5.71111 17.7556 2.24444 14.2667 2.24444 10Z" fill="#294277"/>
<path d="M19.7554 9.99998L14.2443 4.44443C13.7554 3.95554 12.9776 3.95554 12.511 4.44443C12.0221 4.93331 12.0221 5.71109 12.511 6.17776L15.0887 8.79998H11.711H11.0443H8.84429C8.1554 8.79998 7.62207 9.35554 7.62207 10.0222C7.62207 10.7111 8.17763 11.2444 8.84429 11.2444H11.0443H11.711H15.0665L12.4887 13.8222C11.9998 14.3111 11.9998 15.0889 12.4887 15.5555C12.9776 16.0444 13.7554 16.0444 14.2221 15.5555L19.7332 10.0222V9.99998H19.7554Z" fill="#294277"/>
</svg>
