<svg width="20" height="14" viewBox="0 0 20 14" fill="none" xmlns="http://www.w3.org/2000/svg">
<path d="M19 5.66668C18.8987 5.60817 18.7837 5.57736 18.6667 5.57736C18.5496 5.57736 18.4347 5.60817 18.3333 5.66668L9.66667 10.5667L1.00001 5.66668C0.898464 5.60806 0.783258 5.57725 0.666008 5.57736C0.548758 5.57748 0.433613 5.60852 0.332188 5.66734C0.230763 5.72617 0.146647 5.8107 0.0883249 5.91242C0.030003 6.01413 -0.000461277 6.12943 5.27943e-06 6.24668V12C5.27943e-06 12.5304 0.210719 13.0392 0.585792 13.4142C0.960864 13.7893 1.46957 14 2.00001 14H17.3333C17.8638 14 18.3725 13.7893 18.7476 13.4142C19.1226 13.0392 19.3333 12.5304 19.3333 12V6.25001C19.3344 6.13198 19.3041 6.01578 19.2455 5.91329C19.187 5.8108 19.1022 5.7257 19 5.66668Z" fill="#A9A9A9"/>
<path d="M17.3333 0H2.00001C1.46957 0 0.960865 0.210714 0.585792 0.585787C0.210719 0.960859 5.25525e-06 1.46957 5.25525e-06 2V3.25C-0.000461123 3.36747 0.0301219 3.48298 0.0886574 3.58484C0.147193 3.68669 0.231602 3.77126 0.333339 3.83L9.33334 8.91333C9.43468 8.97185 9.54965 9.00265 9.66667 9.00265C9.7837 9.00265 9.89866 8.97185 10 8.91333L19 3.83C19.1017 3.77126 19.1862 3.68669 19.2447 3.58484C19.3032 3.48298 19.3338 3.36747 19.3333 3.25V2C19.3333 1.46957 19.1226 0.960859 18.7476 0.585787C18.3725 0.210714 17.8638 0 17.3333 0Z" fill="#A9A9A9"/>
</svg>
