<svg width="15" height="17" viewBox="0 0 15 17" fill="none" xmlns="http://www.w3.org/2000/svg">
<path d="M7.45577 8.00821C9.66718 8.00821 11.4599 6.21552 11.4599 4.00411C11.4599 1.7927 9.66718 0 7.45577 0C5.24436 0 3.45166 1.7927 3.45166 4.00411C3.45166 6.21552 5.24436 8.00821 7.45577 8.00821Z" fill="#A9A9A9"/>
<path d="M3.03984e-06 14.8568V15.3091C3.03984e-06 16.2411 0.758932 17 1.6909 17H13.2205C14.1525 17 14.9114 16.2411 14.9114 15.3091V14.8568C14.9114 12.8623 14.1373 10.9893 12.7288 9.58376C12.237 9.09197 11.6814 8.67304 11.0804 8.34214C10.9771 8.28142 10.8466 8.29054 10.7495 8.36339C9.79626 9.09197 8.65483 9.47446 7.45572 9.47446C6.25661 9.47446 5.11519 9.09197 4.16197 8.36339C4.06483 8.29054 3.9343 8.28142 3.83107 8.34214C1.46626 9.65661 3.03984e-06 12.155 3.03984e-06 14.8568Z" fill="#A9A9A9"/>
</svg>
