<svg width="261" height="193" viewBox="0 0 261 193" fill="none" xmlns="http://www.w3.org/2000/svg">
<path d="M57.907 53.1938L9.25806 85.8491L57.1771 157.731L105.826 125.075L57.907 53.1938Z" fill="#E9E9E9"/>
<path d="M80.6866 121.676L80.1359 125.104L55.9503 121.606L56.501 118.177L80.6866 121.676Z" fill="#E0E0E0"/>
<path d="M68.507 109.445L71.9757 109.946L68.1298 133.84L64.6567 133.336L68.507 109.445Z" fill="#E0E0E0"/>
<path d="M46.2508 79.0764C46.2855 79.1243 41.412 82.4614 35.3634 86.5164C29.3149 90.5714 24.385 93.8258 24.3503 93.7736C24.3156 93.7214 29.1891 90.3886 35.2377 86.3293C41.2863 82.27 46.1945 79.0242 46.2508 79.0764Z" fill="#B9B9B9"/>
<path d="M64.1235 74.569C64.1582 74.6212 56.0501 80.1207 46.0168 86.8558C35.9836 93.5909 27.8061 99.0077 27.7801 98.9598C27.7541 98.9119 35.8448 93.4038 45.8911 86.6687C55.9373 79.9336 64.0888 74.5168 64.1235 74.569Z" fill="#B9B9B9"/>
<path d="M67.7092 79.9466C67.7439 79.9989 59.6358 85.5027 49.6025 92.2378C39.5693 98.9729 31.3918 104.39 31.3658 104.337C31.3398 104.285 39.4392 98.7858 49.4768 92.0463C59.5144 85.3069 67.6745 79.8944 67.7092 79.9466Z" fill="#B9B9B9"/>
<path d="M71.2949 85.3286C71.3296 85.3808 63.2215 90.8846 53.1883 97.6154C43.155 104.346 34.9775 109.772 34.9775 109.719C34.9775 109.667 43.0466 104.163 53.0842 97.4283C63.1218 90.6932 71.2602 85.2764 71.2949 85.3286Z" fill="#B9B9B9"/>
<path d="M74.8677 90.7106C74.9024 90.7628 66.7942 96.2623 56.761 102.997C46.7278 109.732 38.5503 115.149 38.5286 115.097C38.5069 115.045 46.6107 109.545 56.6569 102.81C66.7032 96.0752 74.8677 90.6584 74.8677 90.7106Z" fill="#E0E0E0"/>
<path d="M220.584 101.359L179.726 128.784L219.969 189.152L260.827 161.726L220.584 101.359Z" fill="#E9E9E9"/>
<path d="M239.718 158.884L239.254 161.764L218.941 158.827L219.409 155.947L239.718 158.884Z" fill="#B9B9B9"/>
<path d="M229.49 148.612L232.404 149.034L229.173 169.1L226.255 168.678L229.49 148.612Z" fill="#B9B9B9"/>
<path d="M210.78 123.129C210.815 123.181 206.726 125.987 201.645 129.394C196.563 132.801 192.418 135.524 192.383 135.485C192.349 135.446 196.442 132.631 201.519 129.22C206.596 125.809 210.746 123.055 210.78 123.129Z" fill="#E0E0E0"/>
<path d="M225.804 119.322C225.839 119.374 219.036 124.003 210.629 129.655C202.221 135.307 195.34 139.858 195.306 139.805C195.271 139.753 202.074 135.124 210.481 129.468C218.889 123.812 225.757 119.269 225.804 119.322Z" fill="#E0E0E0"/>
<path d="M228.818 123.838C228.852 123.89 222.049 128.519 213.642 134.175C205.235 139.832 198.354 144.374 198.319 144.322C198.284 144.269 205.066 139.662 213.495 134.006C221.924 128.35 228.792 123.79 228.818 123.838Z" fill="#E0E0E0"/>
<path d="M231.827 128.35C231.862 128.402 225.054 133.031 216.651 138.687C208.248 144.343 201.363 148.886 201.328 148.833C201.294 148.781 208.097 144.156 216.504 138.496C224.911 132.835 231.797 128.306 231.827 128.35Z" fill="#E0E0E0"/>
<path d="M234.862 132.879C234.897 132.931 228.094 137.556 219.686 143.212C211.279 148.868 204.398 153.411 204.363 153.363C204.329 153.315 211.132 148.681 219.539 143.025C227.946 137.369 234.806 132.827 234.862 132.879Z" fill="#E0E0E0"/>
<path d="M155.945 55.8384L111.365 31.9124L76.2552 97.7823L120.836 121.708L155.945 55.8384Z" fill="#E9E9E9"/>
<path d="M113.206 101.1L110.379 102.071L103.198 82.1568L106.03 81.1823L113.206 101.1Z" fill="#B9B9B9"/>
<path d="M117.542 86.8122L118.574 89.6707L98.8626 96.445L97.8307 93.5865L117.542 86.8122Z" fill="#B9B9B9"/>
<path d="M131.546 57.431C131.512 57.4963 126.994 55.1381 121.448 52.1665C115.903 49.1949 111.441 46.728 111.476 46.6627C111.51 46.5975 116.033 48.9556 121.578 51.9272C127.124 54.8988 131.581 57.3614 131.546 57.431Z" fill="#B9B9B9"/>
<path d="M142.247 69.2784C142.213 69.3436 134.729 65.3931 125.533 60.4592C116.336 55.5254 108.913 51.4704 108.948 51.4051C108.982 51.3399 116.462 55.2861 125.658 60.2243C134.855 65.1625 142.282 69.2131 142.247 69.2784Z" fill="#B9B9B9"/>
<path d="M139.62 74.2079C139.585 74.2731 132.101 70.3269 122.905 65.3887C113.709 60.4505 106.286 56.3999 106.32 56.3346C106.355 56.2694 113.834 60.2199 123.031 65.1538C132.227 70.0876 139.655 74.1426 139.62 74.2079Z" fill="#B9B9B9"/>
<path d="M136.992 79.1374C136.958 79.2026 129.474 75.2564 120.277 70.3226C111.081 65.3887 103.658 61.3468 103.693 61.2685C103.727 61.1902 111.207 65.1494 120.403 70.0833C129.6 75.0171 137.027 79.0721 136.992 79.1374Z" fill="#B9B9B9"/>
<path d="M134.365 84.0669C134.33 84.1321 126.846 80.1859 117.65 75.2521C108.454 70.3182 101.026 66.2632 101.065 66.198C101.104 66.1327 108.579 70.0789 117.776 75.0128C126.972 79.9466 134.399 84.0016 134.365 84.0669Z" fill="#B9B9B9"/>
<path opacity="0.2" d="M134.595 0H133.476V19.135H134.595V0Z" fill="black"/>
<path d="M107.92 42.2858H160.15C160.15 42.2858 155.329 19.1437 133.641 19.1437C114.35 19.1437 107.92 42.2858 107.92 42.2858Z" fill="#294277"/>
<path d="M134.595 0H133.476V19.135H134.595V0Z" fill="#294277"/>
<path d="M250.328 191.363C250.328 191.424 194.287 191.476 125.168 191.476C56.05 191.476 0 191.437 0 191.363C0 191.289 56.0327 191.25 125.168 191.25C194.304 191.25 250.328 191.298 250.328 191.363Z" fill="#263238"/>
<path d="M13.8573 164.114C14.5903 164.167 15.3052 164.367 15.9593 164.704C16.6134 165.04 17.1932 165.505 17.6642 166.071C18.6007 167.21 19.2638 168.55 19.6023 169.987C20.3351 172.737 19.8842 175.987 19.1037 178.724C16.1379 177.658 14.3039 174.482 13.467 172.811C12.1663 170.174 11.3902 164.605 13.8443 164.109" fill="#294277"/>
<path d="M23.3747 182.061C22.9293 181.368 22.6747 180.569 22.6366 179.745C22.5985 178.921 22.7784 178.102 23.1579 177.371C23.5493 176.646 24.0806 176.007 24.7208 175.491C25.3611 174.975 26.0974 174.592 26.8867 174.364C27.6108 174.138 28.452 174.047 29.0807 174.469C29.3641 174.684 29.5848 174.971 29.7198 175.301C29.8548 175.631 29.8991 175.991 29.8482 176.344C29.7343 177.051 29.435 177.714 28.981 178.267C27.5371 180.229 25.7854 181.861 23.3443 182.061" fill="#294277"/>
<path d="M23.7043 191.254C23.6399 191.069 23.5949 190.878 23.5699 190.684C23.4918 190.275 23.3878 189.749 23.262 189.118C22.8728 187.39 22.7645 185.611 22.9412 183.849C23.1456 182.078 23.8177 180.394 24.888 178.972C25.215 178.546 25.592 178.162 26.011 177.827C26.1248 177.737 26.2435 177.653 26.3665 177.575C26.4056 177.542 26.4495 177.516 26.4966 177.497C25.9481 177.967 25.4471 178.49 25.0007 179.059C23.9869 180.483 23.3485 182.141 23.1449 183.879C22.8675 185.907 23.21 187.765 23.4094 189.1C23.5135 189.766 23.6002 190.306 23.6479 190.68C23.6821 190.869 23.7009 191.061 23.7043 191.254Z" fill="#263238"/>
<path d="M14.8113 168.303C14.8608 168.372 14.9016 168.447 14.9327 168.525C15.0107 168.699 15.1148 168.917 15.2362 169.191C15.5007 169.77 15.8692 170.609 16.3158 171.649C17.209 173.733 18.4057 176.631 19.6545 179.859C20.9032 183.088 21.9655 186.033 22.6896 188.178C23.0625 189.248 23.353 190.119 23.5568 190.723C23.6478 191.01 23.7172 191.241 23.7736 191.419C23.8045 191.499 23.8263 191.583 23.8386 191.667C23.7946 191.594 23.7597 191.515 23.7345 191.432C23.6695 191.258 23.5871 191.032 23.4787 190.749L22.5638 188.226C21.7877 186.098 20.7038 183.157 19.4594 179.933C18.215 176.709 17.0356 173.803 16.1771 171.706C15.7435 170.675 15.4096 169.835 15.1625 169.221C15.0498 168.943 14.9587 168.721 14.8893 168.543C14.8568 168.465 14.8306 168.385 14.8113 168.303Z" fill="#263238"/>
<path d="M20.1792 185.172C19.287 183.681 18.0541 182.425 16.5824 181.507C15.1107 180.59 13.4424 180.037 11.7155 179.894C10.8483 179.833 9.78171 179.981 9.39148 180.764C9.00125 181.547 9.52156 182.505 10.1199 183.14C11.3912 184.474 13.0278 185.401 14.8233 185.804C16.6189 186.207 18.493 186.067 20.2095 185.402" fill="#294277"/>
<path d="M13.0508 182.252C13.2346 182.243 13.4189 182.25 13.6015 182.274C13.8152 182.286 14.0281 182.31 14.2388 182.348C14.486 182.396 14.7765 182.422 15.08 182.509C15.4193 182.581 15.7538 182.674 16.0816 182.787C16.4614 182.91 16.8335 183.055 17.1959 183.222C18.0295 183.597 18.8179 184.066 19.546 184.619C20.2656 185.186 20.9175 185.834 21.4884 186.551C21.735 186.863 21.9623 187.19 22.1692 187.53C22.3561 187.823 22.5269 188.127 22.6808 188.439C22.8111 188.693 22.9269 188.955 23.0277 189.222C23.1146 189.42 23.1885 189.624 23.2488 189.831C23.313 190.005 23.3609 190.184 23.3919 190.367C23.3442 190.367 23.1361 189.618 22.5507 188.504C22.3913 188.205 22.2162 187.915 22.0261 187.634C21.8148 187.305 21.5861 186.987 21.341 186.681C20.2069 185.275 18.7607 184.155 17.1179 183.41C16.7406 183.244 16.3808 183.088 16.0296 182.974C15.7071 182.857 15.3786 182.756 15.0453 182.674C13.8313 182.339 13.0465 182.3 13.0508 182.252Z" fill="#263238"/>
<path d="M209.87 45.8927C208.595 46.1842 207.975 47.6591 207.854 48.9644C207.732 50.2696 207.897 51.6532 207.351 52.8453C206.735 54.1854 205.265 55.1774 205.217 56.6523C205.187 57.5529 205.72 58.3926 205.694 59.3019C205.651 60.7812 204.151 61.9124 204.068 63.3743C204.012 64.4403 204.719 65.4584 204.55 66.5113C204.42 67.3292 203.782 67.9732 203.513 68.7563C202.98 70.3226 204.051 72.0412 205.443 72.9201C206.223 73.412 207.1 73.7271 208.014 73.8435C208.927 73.9598 209.855 73.8745 210.733 73.5936C211.61 73.3127 212.416 72.8429 213.094 72.217C213.772 71.5912 214.305 70.8244 214.657 69.9702C215.428 68.0906 215.259 65.9718 215.09 63.9486C214.57 57.637 214.183 51.3167 213.928 44.9877" fill="#263238"/>
<path d="M206.167 68.1603C206.429 67.9967 206.634 67.7548 206.752 67.4685C206.878 67.128 206.928 66.7643 206.9 66.4025C206.852 65.9228 206.746 65.4508 206.583 64.9972C206.376 64.427 206.299 63.8174 206.358 63.2134C206.466 62.5346 206.952 61.9777 207.39 61.4295C207.626 61.1612 207.823 60.861 207.975 60.5376C208.128 60.2106 208.153 59.8379 208.045 59.4934C207.819 58.7842 207.125 58.2621 206.809 57.4398C206.66 57.0327 206.636 56.5903 206.739 56.1693C206.838 55.7747 206.983 55.3934 207.173 55.0338C207.539 54.3862 207.83 53.6986 208.04 52.9845C208.344 51.6053 208.201 50.287 208.409 49.2037C208.524 48.336 208.908 47.5265 209.506 46.889C209.675 46.7173 209.868 46.5708 210.078 46.4539C210.151 46.416 210.228 46.3882 210.308 46.3713C210.036 46.5214 209.787 46.7088 209.566 46.9282C209.013 47.572 208.664 48.3676 208.565 49.2124C208.489 49.7894 208.448 50.3706 208.443 50.9527C208.442 51.6377 208.375 52.321 208.244 52.9932C208.037 53.7237 207.746 54.4275 207.377 55.0903C207.052 55.7734 206.752 56.574 207.039 57.3223C207.325 58.0707 208.014 58.5884 208.279 59.389C208.398 59.7845 208.369 60.2102 208.196 60.5854C208.027 60.9413 207.808 61.271 207.546 61.5644C207.112 62.1126 206.64 62.6347 206.536 63.2438C206.475 63.8216 206.543 64.4056 206.735 64.9537C206.89 65.4214 206.986 65.9066 207.021 66.3982C207.043 66.7767 206.976 67.1551 206.826 67.5033C206.733 67.7215 206.583 67.9108 206.393 68.0515C206.325 68.1013 206.248 68.1382 206.167 68.1603Z" fill="#455A64"/>
<path d="M202.776 78.4761L198.874 89.7882L182.554 90.6584L179.831 96.7496L196.871 98.4899C197.676 98.8216 198.54 98.986 199.41 98.9733C200.28 98.9606 201.139 98.771 201.934 98.416C202.729 98.061 203.444 97.5479 204.036 96.9078C204.628 96.2677 205.084 95.5138 205.378 94.6916L209.926 81.9524L202.776 78.4761Z" fill="#B78876"/>
<path d="M236.514 185.215C236.514 185.215 224.556 147.093 224.3 145.858C224.07 144.735 228.636 117.303 229.217 110.181L213.057 110.785V110.946L206.189 111.329L212.337 189.261H219.773L219.036 163.396C223.623 175.748 230.197 188.339 230.197 188.339L236.514 185.215Z" fill="#B78876"/>
<path d="M219.339 172.676C219.339 172.441 219.248 164.009 219.248 164.009C219.157 164.514 216.4 156.691 216.465 156.217C216.499 155.969 219.339 172.676 219.339 172.676Z" fill="#A36957"/>
<path d="M216.153 152.51C216.114 152.665 216.098 152.825 216.105 152.984C216.081 153.419 216.081 153.855 216.105 154.289C216.105 154.564 216.144 154.859 216.179 155.181C216.213 155.503 216.261 155.843 216.335 156.195C216.489 156.965 216.693 157.723 216.946 158.466C217.484 160.046 218.082 161.425 218.503 162.425C218.702 162.861 218.876 163.274 219.023 163.605C219.076 163.758 219.149 163.905 219.24 164.04C219.217 163.889 219.173 163.743 219.11 163.605C219.01 163.317 218.858 162.904 218.676 162.395C218.295 161.377 217.722 159.985 217.189 158.423C216.937 157.691 216.73 156.944 216.569 156.186C216.491 155.838 216.439 155.503 216.391 155.19C216.343 154.877 216.309 154.581 216.287 154.32C216.235 153.78 216.213 153.345 216.2 153.041C216.208 152.862 216.192 152.684 216.153 152.51Z" fill="#A36957"/>
<path d="M212.198 189.657V188.957L219.816 188.622L219.838 191.515L219.37 191.546C217.276 191.667 208.725 192.024 207.329 191.602C205.764 191.132 212.198 189.657 212.198 189.657Z" fill="#455A64"/>
<path d="M219.938 191.341C219.894 191.344 219.851 191.344 219.808 191.341L219.435 191.367L218.056 191.428C216.894 191.476 215.285 191.52 213.512 191.528C211.739 191.537 210.126 191.506 208.959 191.472L207.585 191.415H207.208H207.078C207.121 191.412 207.164 191.412 207.208 191.415H207.585L208.964 191.441C210.126 191.441 211.734 191.476 213.508 191.467C215.281 191.459 216.894 191.428 218.056 191.398L219.435 191.363H219.938V191.341Z" fill="#263238"/>
<path d="M209.714 191.585C209.65 191.357 209.563 191.137 209.454 190.928C209.316 190.735 209.158 190.558 208.981 190.401C209.218 190.486 209.414 190.657 209.532 190.88C209.675 191.085 209.74 191.336 209.714 191.585Z" fill="#263238"/>
<path d="M211.96 190.441C211.96 190.441 211.834 190.323 211.721 190.149C211.609 189.975 211.539 189.823 211.561 189.81C211.583 189.797 211.687 189.923 211.799 190.097C211.912 190.271 211.982 190.427 211.96 190.441Z" fill="#263238"/>
<path d="M212.575 190.132C212.575 190.153 212.437 190.071 212.307 189.953C212.177 189.836 212.081 189.727 212.098 189.71C212.116 189.692 212.237 189.77 212.367 189.888C212.497 190.005 212.593 190.092 212.575 190.132Z" fill="#263238"/>
<path d="M212.961 189.392C212.834 189.439 212.698 189.457 212.562 189.444C212.43 189.462 212.295 189.448 212.168 189.405C212.294 189.358 212.429 189.341 212.562 189.353C212.697 189.334 212.833 189.348 212.961 189.392Z" fill="#263238"/>
<path d="M213.091 188.887C212.962 188.971 212.812 189.017 212.658 189.018C212.51 189.037 212.361 189.016 212.224 188.957C212.367 188.933 212.513 188.921 212.658 188.922C212.801 188.896 212.946 188.885 213.091 188.887Z" fill="#263238"/>
<path d="M211.704 189.775C211.542 189.805 211.376 189.805 211.214 189.775C211.039 189.754 210.866 189.716 210.698 189.662C210.594 189.633 210.494 189.592 210.399 189.54C210.341 189.506 210.298 189.452 210.277 189.388C210.269 189.351 210.272 189.314 210.285 189.279C210.298 189.244 210.321 189.214 210.351 189.192C210.471 189.133 210.603 189.103 210.736 189.101C210.87 189.1 211.002 189.129 211.123 189.185C211.244 189.241 211.351 189.324 211.437 189.426C211.522 189.529 211.584 189.65 211.617 189.779C211.626 189.822 211.626 189.867 211.617 189.91C211.568 189.753 211.492 189.605 211.392 189.475C211.276 189.344 211.126 189.251 210.958 189.205C210.766 189.143 210.558 189.158 210.377 189.248C210.303 189.305 210.334 189.396 210.416 189.449C210.505 189.497 210.598 189.536 210.694 189.566C210.857 189.62 211.023 189.662 211.192 189.692C211.517 189.762 211.704 189.762 211.704 189.775Z" fill="#263238"/>
<path d="M211.578 189.801C211.515 189.7 211.493 189.578 211.518 189.462C211.533 189.334 211.58 189.211 211.652 189.105C211.693 189.032 211.751 188.971 211.821 188.927C211.892 188.883 211.972 188.857 212.055 188.852C212.104 188.864 212.147 188.894 212.176 188.936C212.204 188.978 212.215 189.029 212.207 189.079C212.196 189.157 212.168 189.231 212.125 189.296C212.059 189.404 211.982 189.505 211.895 189.596C211.819 189.683 211.724 189.75 211.617 189.792C211.617 189.792 211.713 189.705 211.847 189.549C211.925 189.459 211.993 189.361 212.051 189.257C212.116 189.153 212.164 188.966 212.051 188.944C211.938 188.922 211.808 189.057 211.734 189.153C211.665 189.247 211.618 189.355 211.596 189.47C211.578 189.58 211.572 189.69 211.578 189.801Z" fill="#263238"/>
<path d="M219.777 189.261C219.777 189.261 219.561 189.261 219.218 189.283C218.772 189.337 218.35 189.515 218 189.797C217.649 190.079 217.385 190.455 217.237 190.88C217.124 191.206 217.115 191.428 217.098 191.424C217.08 191.419 217.098 191.367 217.098 191.272C217.109 191.131 217.135 190.993 217.176 190.858C217.314 190.413 217.579 190.018 217.939 189.723C218.303 189.433 218.746 189.259 219.209 189.222C219.353 189.205 219.499 189.205 219.643 189.222C219.689 189.23 219.734 189.243 219.777 189.261Z" fill="#263238"/>
<path d="M216.131 190.732C215.767 190.817 215.394 190.854 215.021 190.841C214.65 190.859 214.278 190.827 213.915 190.745C213.915 190.719 214.41 190.745 215.021 190.745C215.632 190.745 216.127 190.706 216.131 190.732Z" fill="#263238"/>
<path d="M217.614 190.719C217.614 190.719 217.575 190.823 217.523 190.937C217.471 191.05 217.445 191.154 217.419 191.15C217.393 191.145 217.38 191.032 217.44 190.897C217.501 190.762 217.597 190.697 217.614 190.719Z" fill="#263238"/>
<path d="M218.174 190.018C218.174 190.018 218.144 190.114 218.065 190.193C217.987 190.271 217.909 190.323 217.887 190.306C217.865 190.288 217.917 190.21 217.996 190.127C218.074 190.045 218.152 189.997 218.174 190.018Z" fill="#263238"/>
<path d="M218.971 189.697C218.971 189.723 218.867 189.723 218.754 189.762C218.641 189.801 218.563 189.862 218.542 189.844C218.52 189.827 218.585 189.723 218.724 189.675C218.862 189.627 218.979 189.67 218.971 189.697Z" fill="#263238"/>
<path d="M219.54 189.54C219.54 189.566 219.509 189.605 219.444 189.627C219.379 189.649 219.322 189.653 219.313 189.627C219.305 189.601 219.348 189.562 219.409 189.54C219.47 189.518 219.531 189.518 219.54 189.54Z" fill="#263238"/>
<path d="M230.045 188.983L229.759 188.343L236.57 184.911L237.771 187.521L237.338 187.743C235.478 188.713 227.825 192.551 226.377 192.742C224.777 192.973 230.045 188.983 230.045 188.983Z" fill="#455A64"/>
<path d="M237.797 187.334L237.685 187.404L237.351 187.578L236.119 188.204C235.079 188.722 233.63 189.422 232.013 190.162C230.396 190.902 228.913 191.533 227.838 191.981L226.559 192.498L226.212 192.633C226.172 192.652 226.13 192.665 226.086 192.673L226.203 192.616L226.546 192.464L227.812 191.92C228.883 191.459 230.357 190.815 231.974 190.075C233.591 189.335 235.044 188.648 236.093 188.143L237.333 187.547L237.676 187.386L237.797 187.334Z" fill="#263238"/>
<path d="M228.584 191.759C228.433 191.575 228.263 191.409 228.076 191.263C227.873 191.142 227.656 191.046 227.43 190.976C227.679 190.972 227.923 191.046 228.129 191.186C228.336 191.326 228.494 191.526 228.584 191.759Z" fill="#263238"/>
<path d="M230.149 189.792C230.149 189.792 229.984 189.74 229.811 189.627C229.637 189.514 229.511 189.405 229.524 189.383C229.537 189.362 229.689 189.435 229.863 189.549C230.036 189.662 230.162 189.77 230.149 189.792Z" fill="#263238"/>
<path d="M230.574 189.261C230.574 189.283 230.426 189.261 230.257 189.209C230.088 189.157 229.962 189.092 229.967 189.066C230.076 189.055 230.187 189.073 230.288 189.118C230.452 189.157 230.582 189.218 230.574 189.261Z" fill="#263238"/>
<path d="M230.634 188.426C230.634 188.452 230.491 188.544 230.292 188.639C230.177 188.709 230.048 188.752 229.915 188.765C229.915 188.739 230.058 188.648 230.253 188.552C230.37 188.483 230.5 188.44 230.634 188.426Z" fill="#263238"/>
<path d="M230.548 187.913C230.548 187.913 230.422 188.087 230.197 188.213C230.069 188.3 229.917 188.346 229.763 188.343C229.887 188.26 230.019 188.188 230.158 188.13C230.37 188.013 230.526 187.891 230.548 187.913Z" fill="#263238"/>
<path d="M229.659 189.296C229.527 189.387 229.38 189.455 229.225 189.496C229.055 189.546 228.881 189.583 228.705 189.605C228.598 189.618 228.491 189.618 228.384 189.605C228.317 189.6 228.255 189.569 228.211 189.518C228.191 189.487 228.18 189.451 228.18 189.414C228.18 189.377 228.191 189.34 228.211 189.309C228.342 189.149 228.526 189.04 228.729 189C228.932 188.96 229.143 188.993 229.325 189.092C229.433 189.148 229.527 189.227 229.602 189.322C229.655 189.392 229.676 189.435 229.672 189.44C229.565 189.32 229.437 189.221 229.295 189.148C229.142 189.076 228.972 189.051 228.805 189.074C228.705 189.085 228.609 189.115 228.521 189.162C228.433 189.21 228.356 189.275 228.293 189.353C228.245 189.435 228.293 189.505 228.41 189.518C228.51 189.527 228.61 189.527 228.709 189.518C228.882 189.501 229.053 189.47 229.221 189.427C229.468 189.357 229.659 189.283 229.659 189.296Z" fill="#263238"/>
<path d="M229.537 189.37C229.441 189.301 229.373 189.199 229.347 189.083C229.309 188.961 229.3 188.831 229.321 188.705C229.328 188.621 229.357 188.541 229.404 188.471C229.451 188.402 229.515 188.346 229.59 188.309C229.698 188.274 229.949 188.496 229.967 188.578C229.984 188.661 229.841 188.618 229.832 188.687C229.818 188.811 229.789 188.932 229.746 189.048C229.714 189.16 229.654 189.262 229.572 189.344C229.572 189.344 229.624 189.227 229.685 189.031C229.716 188.915 229.738 188.797 229.75 188.678C229.75 188.557 229.75 188.37 229.611 188.4C229.472 188.43 229.433 188.6 229.403 188.722C229.377 188.835 229.377 188.953 229.403 189.066C229.439 189.171 229.484 189.273 229.537 189.37Z" fill="#263238"/>
<path d="M236.8 185.502C236.8 185.502 236.592 185.576 236.297 185.755C235.912 185.986 235.598 186.32 235.391 186.721C235.19 187.124 235.105 187.576 235.144 188.026C235.17 188.374 235.252 188.574 235.235 188.583C235.207 188.54 235.185 188.493 235.17 188.443C235.127 188.31 235.096 188.173 235.079 188.035C235.017 187.571 235.097 187.1 235.308 186.683C235.52 186.267 235.853 185.925 236.262 185.702C236.385 185.634 236.514 185.579 236.648 185.537C236.697 185.518 236.748 185.506 236.8 185.502Z" fill="#263238"/>
<path d="M234.073 188.348C233.461 188.774 232.779 189.087 232.057 189.27C232.057 189.244 232.512 189.07 233.067 188.835C233.622 188.6 234.06 188.326 234.073 188.348Z" fill="#263238"/>
<path d="M235.422 187.726C235.443 187.726 235.422 187.834 235.422 187.961C235.422 188.087 235.422 188.191 235.422 188.2C235.422 188.209 235.335 188.104 235.335 187.961C235.335 187.817 235.4 187.713 235.422 187.726Z" fill="#263238"/>
<path d="M235.643 186.855C235.665 186.855 235.643 186.955 235.617 187.06C235.591 187.164 235.525 187.243 235.504 187.234C235.482 187.225 235.504 187.134 235.53 187.029C235.556 186.925 235.617 186.847 235.643 186.855Z" fill="#263238"/>
<path d="M236.241 186.216C236.241 186.242 236.154 186.281 236.067 186.364C235.981 186.446 235.933 186.533 235.911 186.525C235.89 186.516 235.911 186.394 236.007 186.294C236.102 186.194 236.236 186.216 236.241 186.216Z" fill="#263238"/>
<path d="M236.697 185.859C236.697 185.859 236.697 185.929 236.644 185.977C236.592 186.024 236.544 186.051 236.527 186.033C236.51 186.016 236.527 185.964 236.579 185.916C236.631 185.868 236.679 185.842 236.697 185.859Z" fill="#263238"/>
<path d="M228.167 97.3022L226.901 81.7697L233.405 81.8871C233.405 81.8871 233.704 79.5942 232.746 74.5734C232.156 71.493 230.114 69.6047 227.82 68.4822V68.4387L227.621 68.3865C225.733 67.5359 223.716 67.0079 221.655 66.8245L213.655 66.9159C213.655 66.9159 207.546 66.1328 204.177 70.5228C202.876 72.2065 198.839 83.7319 198.839 83.7319L208.443 88.3699L207.546 81.9785C207.546 81.9785 207.728 86.6121 208.318 88.0697C208.643 88.8876 209.618 91.4285 209.618 91.4285L209.493 99.0947L228.167 97.3022Z" fill="#294277"/>
<path d="M223.758 79.5159L222.57 84.589H233.769L233.032 76.0788L223.758 79.5159Z" fill="#294277"/>
<path d="M233.769 84.589C233.28 84.4985 232.784 84.4491 232.286 84.4411C231.367 84.3889 230.118 84.341 228.696 84.3497C227.274 84.3584 226.021 84.4193 225.102 84.489C224.605 84.5063 224.11 84.5675 223.623 84.6717C224.12 84.7114 224.618 84.7114 225.115 84.6717C226.03 84.6412 227.283 84.6064 228.696 84.6021C230.11 84.5977 231.363 84.6021 232.282 84.6238C232.778 84.6517 233.275 84.6401 233.769 84.589Z" fill="#263238"/>
<path d="M223.272 76.0396C223.219 76.4726 223.207 76.9097 223.237 77.3449C223.237 78.1411 223.272 79.2375 223.32 80.4514C223.367 81.6652 223.424 82.766 223.476 83.5579C223.478 83.9965 223.524 84.4339 223.615 84.8631C223.668 84.4301 223.679 83.9931 223.649 83.5579C223.649 82.7617 223.615 81.6609 223.567 80.447C223.519 79.2331 223.463 78.1367 223.411 77.3405C223.409 76.9033 223.363 76.4674 223.272 76.0396Z" fill="#263238"/>
<g opacity="0.3">
<path d="M213.083 80.434C213.083 80.434 215.572 98.9555 222.57 98.4638C222.57 98.4638 225.722 98.429 226.732 96.3276V95.5009L213.083 80.434Z" fill="black"/>
</g>
<g opacity="0.3">
<path d="M223.272 77.1317L221.932 86.2119L222.8 87.8043L224.23 84.6891L223.623 84.6717L223.272 77.1317Z" fill="black"/>
</g>
<path d="M209.579 91.4372C209.496 91.3016 209.432 91.1552 209.389 91.0021C209.28 90.7193 209.137 90.306 208.955 89.7883C208.521 88.4392 208.163 87.0665 207.884 85.6767C207.606 84.2862 207.429 82.8771 207.355 81.4608C207.329 80.9169 207.32 80.4775 207.329 80.1555C207.318 79.9982 207.328 79.8401 207.359 79.6856C207.394 79.6856 207.42 80.3556 207.511 81.4259C207.633 82.8295 207.832 84.2253 208.105 85.6071C208.426 87.2256 208.812 88.6744 209.107 89.7143C209.246 90.1972 209.363 90.6106 209.458 90.9499C209.517 91.107 209.558 91.2706 209.579 91.4372Z" fill="#263238"/>
<path d="M212.406 96.7583C212.346 96.7583 212.172 96.3798 212.02 95.8881C211.89 95.5869 211.832 95.2589 211.851 94.9309C212.043 95.1968 212.174 95.5011 212.237 95.8229C212.362 96.1184 212.419 96.4378 212.406 96.7583Z" fill="#263238"/>
<path d="M213.374 96.6887C213.045 95.8159 213.031 94.8557 213.335 93.9738C213.369 94.4256 213.369 94.8794 213.335 95.3312C213.382 95.7821 213.396 96.2359 213.374 96.6887Z" fill="#263238"/>
<path d="M208.639 88.5831C208.608 88.6353 206.375 87.5737 203.648 86.2075C200.921 84.8414 198.731 83.684 198.757 83.6275C198.783 83.5709 201.02 84.6369 203.748 86.003C206.475 87.3692 208.665 88.5265 208.639 88.5831Z" fill="#263238"/>
<path d="M212.575 68.4169C212.623 66.2154 212.636 63.9008 212.636 63.9008C212.636 63.9008 209.822 63.3569 209.332 59.6413C208.864 56.0997 210.173 47.7853 210.173 47.7853C214.284 46.2277 218.555 47.6417 221.369 50.9831L220.671 68.852C220.588 70.9274 218.745 72.5111 216.534 72.4067C214.297 72.2979 212.528 70.514 212.575 68.4169Z" fill="#B78876"/>
<path d="M209.957 54.429C209.953 54.551 209.996 54.6698 210.076 54.7612C210.157 54.8526 210.269 54.9096 210.39 54.9207C210.452 54.9266 210.514 54.92 210.573 54.901C210.632 54.8821 210.686 54.8514 210.733 54.8107C210.779 54.77 210.817 54.7201 210.844 54.6642C210.871 54.6084 210.886 54.5476 210.889 54.4856C210.893 54.3641 210.85 54.2458 210.769 54.1551C210.688 54.0644 210.576 54.0083 210.455 53.9983C210.394 53.9889 210.33 53.993 210.27 54.0103C210.21 54.0277 210.155 54.0578 210.107 54.0987C210.06 54.1396 210.022 54.1903 209.996 54.2473C209.97 54.3043 209.957 54.3663 209.957 54.429Z" fill="#263238"/>
<path d="M209.783 53.8068C209.84 53.8677 210.217 53.611 210.715 53.6284C211.214 53.6458 211.583 53.9069 211.643 53.846C211.704 53.7851 211.617 53.7068 211.457 53.5806C211.24 53.4228 210.979 53.3361 210.711 53.3326C210.447 53.3225 210.187 53.3988 209.97 53.5501C209.809 53.6676 209.753 53.7764 209.783 53.8068Z" fill="#263238"/>
<path d="M215.121 54.751C215.116 54.8732 215.158 54.9926 215.239 55.0842C215.32 55.1759 215.433 55.2326 215.554 55.2426C215.616 55.2521 215.68 55.2479 215.74 55.2303C215.801 55.2127 215.856 55.1822 215.904 55.1408C215.951 55.0994 215.989 55.0481 216.015 54.9906C216.041 54.9331 216.054 54.8706 216.053 54.8075C216.058 54.6857 216.015 54.5668 215.934 54.4759C215.853 54.385 215.74 54.3292 215.619 54.3202C215.557 54.3108 215.494 54.3149 215.434 54.3323C215.374 54.3496 215.319 54.3798 215.271 54.4207C215.224 54.4616 215.186 54.5123 215.16 54.5693C215.134 54.6263 215.121 54.6883 215.121 54.751Z" fill="#263238"/>
<path d="M215.086 54.1288C215.142 54.1941 215.52 53.9374 216.018 53.9504C216.517 53.9635 216.885 54.2289 216.95 54.168C217.015 54.107 216.92 54.0287 216.76 53.9069C216.546 53.7449 216.286 53.6564 216.018 53.6546C215.753 53.6466 215.492 53.7227 215.272 53.8721C215.116 53.9896 215.06 54.0983 215.086 54.1288Z" fill="#263238"/>
<path d="M213.143 57.8662C212.877 57.7743 212.6 57.7173 212.32 57.6965C212.19 57.6965 212.068 57.6486 212.051 57.5616C212.04 57.4256 212.074 57.2898 212.146 57.1744L212.554 56.1954C212.933 55.3634 213.245 54.5021 213.486 53.6198C213.042 54.4192 212.662 55.2528 212.35 56.1128C212.216 56.4565 212.081 56.7872 211.955 57.1004C211.871 57.2559 211.844 57.4358 211.877 57.6095C211.894 57.6566 211.922 57.6992 211.958 57.7339C211.994 57.7687 212.038 57.7945 212.086 57.8096C212.157 57.8305 212.232 57.8422 212.307 57.8444C212.584 57.8872 212.865 57.8945 213.143 57.8662Z" fill="#263238"/>
<path d="M212.636 63.9008C214.371 63.9705 216.091 63.5563 217.605 62.7043C217.605 62.7043 216.343 65.2147 212.662 64.7753L212.636 63.9008Z" fill="#A36957"/>
<path d="M216.716 52.6451C216.612 52.8061 216.222 52.7365 215.788 52.6451C215.355 52.5538 214.973 52.4798 214.921 52.2927C214.869 52.1056 215.325 51.8576 215.906 51.9751C216.487 52.0926 216.82 52.5059 216.716 52.6451Z" fill="#263238"/>
<path d="M211.656 51.9055C211.617 52.0926 211.201 52.1622 210.724 52.184C210.247 52.2057 209.827 52.184 209.77 51.9925C209.714 51.8011 210.117 51.5314 210.694 51.5052C211.27 51.4791 211.695 51.7271 211.656 51.9055Z" fill="#263238"/>
<path d="M213.152 59.0888C213.097 59.0757 213.04 59.0815 212.989 59.1052C212.938 59.1288 212.896 59.169 212.87 59.2193C212.846 59.2637 212.833 59.3137 212.834 59.3645C212.834 59.4153 212.848 59.4651 212.873 59.509C212.899 59.5528 212.936 59.5891 212.98 59.6144C213.024 59.6396 213.073 59.6529 213.124 59.6529C213.175 59.6529 213.224 59.6396 213.268 59.6144C213.312 59.5891 213.349 59.5528 213.375 59.509C213.4 59.4651 213.414 59.4153 213.414 59.3645C213.415 59.3137 213.402 59.2637 213.378 59.2193C213.347 59.1608 213.297 59.1148 213.236 59.0887C213.175 59.0626 213.107 59.058 213.044 59.0757" fill="#A36957"/>
<path d="M213.269 59.141C213.269 59.1192 213.187 58.993 212.966 59.0409C212.9 59.0582 212.839 59.0926 212.79 59.1407C212.742 59.1888 212.706 59.2489 212.688 59.315C212.665 59.3983 212.667 59.4867 212.694 59.5688C212.721 59.651 212.772 59.7232 212.84 59.7762C212.912 59.8258 212.998 59.8523 213.085 59.8523C213.172 59.8523 213.258 59.8258 213.33 59.7762C213.388 59.7372 213.433 59.6825 213.461 59.6185C213.488 59.5545 213.497 59.4839 213.486 59.4151C213.443 59.1845 213.274 59.1497 213.265 59.1801C213.256 59.2106 213.326 59.2889 213.313 59.4238C213.31 59.4571 213.299 59.4892 213.281 59.5173C213.262 59.5453 213.238 59.5685 213.209 59.5847C213.175 59.6042 213.137 59.6145 213.098 59.6145C213.059 59.6145 213.021 59.6042 212.987 59.5847C212.957 59.559 212.934 59.5258 212.92 59.4885C212.907 59.4511 212.903 59.4108 212.909 59.3716C212.914 59.3372 212.928 59.3045 212.948 59.2765C212.968 59.2484 212.995 59.2258 213.026 59.2106C213.148 59.1366 213.256 59.1714 213.269 59.141Z" fill="#263238"/>
<path d="M219.686 55.347C219.253 56.3651 218.177 57.1526 218.325 58.2534C218.42 58.9626 218.875 59.6239 218.789 60.3374C218.676 61.2076 217.752 61.8515 217.618 62.7435C217.458 63.8355 218.52 64.6839 218.941 65.702C219.561 67.19 218.771 68.8607 218.75 70.488C218.775 71.7234 219.246 72.9076 220.075 73.8212C220.905 74.7348 222.036 75.3158 223.259 75.4566C224.248 75.5393 225.362 75.2391 225.861 74.3863C226.294 73.6815 226.199 72.7852 226.45 72.0064C226.832 70.8404 227.937 69.9876 228.185 68.7868C228.618 66.6114 225.973 64.784 226.147 62.5564C226.221 61.6035 226.806 60.7769 227.053 59.8545C227.21 59.2483 227.222 58.6134 227.088 58.0016C226.954 57.3898 226.678 56.8186 226.281 56.3347C225.626 55.5559 224.681 55.0294 224.113 54.1941C223.485 53.2325 223.463 52.0186 223.246 50.8831C222.955 49.5028 222.32 48.2192 221.4 47.1521C220.48 46.085 219.306 45.2693 217.987 44.7813C216.668 44.2932 215.247 44.1488 213.857 44.3614C212.467 44.574 211.153 45.1368 210.039 45.9971C210.039 45.9971 209.41 48.8643 212.346 49.3472C215.281 49.8302 216.638 49.2733 216.968 50.4523C216.89 50.9381 216.928 51.4353 217.079 51.9035C217.23 52.3716 217.489 52.7972 217.835 53.1455C219.032 54.4421 220.172 54.1636 219.686 55.347Z" fill="#263238"/>
<path d="M224.347 75.2347C224.257 75.2378 224.167 75.229 224.079 75.2086C223.824 75.1634 223.575 75.0949 223.333 75.0041C222.438 74.6597 221.652 74.0777 221.061 73.3204C220.646 72.7977 220.321 72.2096 220.098 71.58C219.845 70.863 219.712 70.1088 219.704 69.348C219.695 68.5095 219.8 67.6737 220.016 66.8637C220.134 66.4359 220.279 66.016 220.45 65.6063C220.629 65.1986 220.786 64.7818 220.922 64.3576C221.041 63.9396 221.041 63.4965 220.922 63.0785C220.795 62.667 220.631 62.268 220.432 61.8863C220.231 61.5079 220.062 61.1136 219.925 60.7073C219.791 60.3051 219.76 59.8759 219.834 59.4586C220.007 58.6406 220.502 58.0315 220.796 57.4093C221.077 56.8334 221.211 56.1966 221.187 55.5559C221.147 54.6183 220.808 53.7183 220.22 52.9889C219.992 52.7334 219.747 52.4935 219.487 52.271C219.791 52.4424 220.063 52.6663 220.289 52.9323C220.921 53.6606 221.293 54.579 221.347 55.5428C221.383 56.2114 221.252 56.8785 220.965 57.4833C220.666 58.1272 220.185 58.7407 220.038 59.489C219.89 60.2374 220.241 61.0249 220.627 61.7819C220.838 62.1745 221.009 62.5869 221.139 63.0132C221.267 63.4684 221.267 63.9503 221.139 64.4055C220.995 64.8444 220.828 65.2757 220.64 65.6977C220.47 66.0984 220.325 66.5097 220.207 66.929C219.991 67.7185 219.885 68.5339 219.89 69.3524C219.877 70.7464 220.325 72.1054 221.165 73.2159C221.727 73.9638 222.474 74.5505 223.333 74.9171C223.979 75.1695 224.352 75.2086 224.347 75.2347Z" fill="#455A64"/>
<path d="M223.914 53.2804C223.703 53.3353 223.486 53.3674 223.268 53.3761C222.673 53.44 222.072 53.4239 221.481 53.3282C221.034 53.2617 220.604 53.1062 220.217 52.8709C219.829 52.6356 219.493 52.3251 219.227 51.9577C218.979 51.4929 218.781 51.0028 218.637 50.4959C218.452 49.9894 218.104 49.5593 217.649 49.2733C216.699 48.6685 215.585 48.5945 214.613 48.4771C213.718 48.4323 212.848 48.1598 212.086 47.6852C211.575 47.3458 211.206 46.8303 211.049 46.2364C211.011 46.0754 211.001 45.9092 211.019 45.7447C211.019 45.6316 211.045 45.5751 211.054 45.5751C211.059 45.7906 211.086 46.0049 211.136 46.2146C211.316 46.77 211.684 47.2443 212.177 47.5547C212.925 47.9927 213.769 48.2378 214.635 48.2682C215.606 48.3813 216.76 48.4379 217.774 49.0818C218.271 49.3947 218.649 49.8647 218.85 50.4175C218.985 50.9117 219.173 51.39 219.409 51.8446C219.914 52.5398 220.67 53.0084 221.516 53.1499C222.088 53.2565 222.67 53.2959 223.25 53.2673C223.472 53.2549 223.693 53.2592 223.914 53.2804Z" fill="#455A64"/>
<path d="M222.838 49.7388C222.675 49.7936 222.503 49.8187 222.331 49.8128C221.523 49.8182 220.745 49.5059 220.163 48.9426C219.898 48.6757 219.672 48.3725 219.491 48.042C219.101 47.3807 218.724 46.567 217.913 46.2277C217.132 45.9647 216.3 45.8916 215.485 46.0145C214.797 46.1114 214.1 46.1114 213.412 46.0145C212.934 45.9479 212.484 45.749 212.111 45.4402C212.015 45.3561 211.931 45.2595 211.86 45.153C211.808 45.0776 211.786 45.0385 211.795 45.0356C211.795 45.0356 211.916 45.1748 212.168 45.3706C212.539 45.6352 212.969 45.8027 213.421 45.8579C214.096 45.9342 214.778 45.9225 215.45 45.8231C216.301 45.6837 217.172 45.7584 217.987 46.0406C218.405 46.2294 218.764 46.5305 219.023 46.9108C219.251 47.2499 219.461 47.6014 219.652 47.9637C219.823 48.2799 220.034 48.5724 220.28 48.8338C220.498 49.0549 220.748 49.2412 221.022 49.3864C221.425 49.5977 221.868 49.7208 222.322 49.7475C222.656 49.7432 222.834 49.7171 222.838 49.7388Z" fill="#455A64"/>
<path d="M225.64 74.2949C225.618 74.2949 225.757 74.0078 225.917 73.4683C226.134 72.7109 226.231 71.9238 226.203 71.1362C226.172 69.9703 225.855 68.8302 225.28 67.8165C224.963 67.2466 224.482 66.7375 224.087 66.111C223.879 65.7918 223.731 65.4361 223.654 65.0624C223.585 64.6691 223.618 64.2648 223.749 63.8877C223.992 63.135 224.425 62.5042 224.521 61.8124C224.616 61.1206 224.287 60.5071 223.957 59.9285C223.787 59.6469 223.632 59.3564 223.493 59.0583C223.366 58.7692 223.283 58.4627 223.246 58.149C223.205 57.5961 223.223 57.0405 223.298 56.4913C223.437 55.715 223.365 54.9155 223.09 54.1767C222.967 53.9178 222.793 53.6869 222.578 53.4979C222.578 53.4979 222.6 53.4979 222.63 53.524C222.682 53.5496 222.729 53.5834 222.769 53.6241C222.939 53.7659 223.076 53.9424 223.172 54.1419C223.486 54.8871 223.584 55.7059 223.454 56.5044C223.394 57.0433 223.387 57.5868 223.433 58.1272C223.54 58.7351 223.779 59.3116 224.135 59.8153C224.32 60.1094 224.478 60.4195 224.608 60.7421C224.744 61.0902 224.789 61.4679 224.738 61.8385C224.634 62.5999 224.187 63.2438 223.962 63.953C223.843 64.2952 223.812 64.6616 223.87 65.0189C223.946 65.3646 224.084 65.6935 224.278 65.9892C224.647 66.5939 225.145 67.1117 225.462 67.7078C226.043 68.7556 226.353 69.9328 226.364 71.1319C226.377 71.9345 226.254 72.7335 225.999 73.4944C225.93 73.7003 225.846 73.901 225.748 74.0948C225.721 74.1663 225.685 74.2337 225.64 74.2949Z" fill="#455A64"/>
<path d="M207.979 155.364C207.979 155.364 205.057 127.588 204.888 117.325C204.719 107.061 209.488 96.9323 209.488 96.9323L228.167 96.1535C228.167 96.1535 231.861 106.565 231.927 110.946C232.057 119.448 229.676 127.841 229.949 134.584L230.574 155.381" fill="#263238"/>
<path d="M231.202 121.214C231.105 121.299 231.002 121.378 230.895 121.449L230.726 121.567L230.543 121.745C230.383 121.885 230.238 122.041 230.11 122.211C229.507 122.95 229.069 124.277 228.649 125.926C228.434 126.841 228.117 127.728 227.703 128.572C227.578 128.803 227.433 129.022 227.27 129.229C227.192 129.333 227.118 129.446 227.027 129.546L226.741 129.833C226.331 130.218 225.855 130.524 225.336 130.738C224.291 131.2 223.107 131.417 222.032 131.961C220.93 132.556 220.079 133.529 219.634 134.702C219.105 135.881 218.767 137.117 218.334 138.274C217.9 139.431 217.315 140.536 216.382 141.241C215.491 141.863 214.433 142.198 213.347 142.203C212.341 142.264 211.409 142.233 210.572 142.359C209.819 142.438 209.099 142.711 208.482 143.151C208.032 143.505 207.694 143.983 207.511 144.526C207.395 144.869 207.37 145.236 207.437 145.592C207.49 145.836 207.555 145.953 207.542 145.958C207.472 145.848 207.422 145.728 207.394 145.601C207.303 145.238 207.315 144.856 207.429 144.5C207.601 143.929 207.941 143.424 208.404 143.051C209.037 142.572 209.785 142.272 210.572 142.181C211.44 142.042 212.363 142.059 213.356 141.994C214.41 141.987 215.436 141.659 216.3 141.054C217.176 140.286 217.823 139.289 218.169 138.174C218.602 137.03 218.919 135.79 219.47 134.589C219.936 133.367 220.826 132.356 221.976 131.739C223.094 131.182 224.278 130.969 225.297 130.525C225.796 130.318 226.254 130.023 226.65 129.655L226.923 129.381C227.01 129.285 227.083 129.176 227.161 129.076C227.314 128.879 227.449 128.667 227.565 128.445C227.98 127.614 228.301 126.738 228.523 125.835C228.956 124.19 229.429 122.846 230.066 122.102C230.193 121.932 230.339 121.778 230.5 121.641C230.569 121.58 230.63 121.519 230.691 121.471L230.869 121.358C230.977 121.303 231.088 121.255 231.202 121.214Z" fill="#FAFAFA"/>
<path d="M231.315 108.362C231.335 108.484 231.344 108.608 231.341 108.732C231.34 109.091 231.296 109.449 231.211 109.798C230.838 111.071 230.104 112.207 229.1 113.07C228.436 113.681 227.71 114.22 226.932 114.675C226.095 115.171 225.171 115.645 224.222 116.185C223.224 116.721 222.295 117.377 221.455 118.138C220.594 118.996 219.884 119.995 219.357 121.093C218.825 122.205 218.218 123.279 217.54 124.308C217.195 124.787 216.797 125.225 216.352 125.613C215.913 125.987 215.432 126.307 214.917 126.566C213.985 127.025 213.014 127.399 212.016 127.684C211.088 127.971 210.221 128.228 209.467 128.554C208.782 128.828 208.13 129.178 207.524 129.598C207.068 129.916 206.658 130.295 206.306 130.725C206.011 131.098 205.765 131.508 205.573 131.944C205.604 131.823 205.644 131.705 205.694 131.591C205.837 131.262 206.019 130.953 206.236 130.669C206.582 130.22 206.991 129.825 207.45 129.494C208.059 129.059 208.715 128.694 209.406 128.406C210.241 128.065 211.094 127.767 211.96 127.514C212.944 127.223 213.901 126.847 214.821 126.392C215.31 126.136 215.768 125.827 216.187 125.469C216.615 125.087 216.999 124.658 217.332 124.19C218.001 123.166 218.602 122.1 219.131 120.997C219.675 119.875 220.409 118.857 221.299 117.986C222.154 117.214 223.101 116.55 224.118 116.011C225.071 115.476 225.995 115.01 226.832 114.518C227.608 114.078 228.334 113.556 229 112.961C229.996 112.124 230.736 111.021 231.133 109.78C231.244 109.316 231.305 108.84 231.315 108.362Z" fill="#FAFAFA"/>
<path d="M204.983 118.778C204.966 118.751 204.953 118.722 204.944 118.691C204.912 118.607 204.884 118.521 204.862 118.434C204.788 118.088 204.803 117.729 204.905 117.39C205.148 116.52 206.106 115.402 207.65 114.849C208.422 114.584 209.293 114.414 210.204 114.188C210.96 114.062 211.675 113.757 212.29 113.297C212.905 112.838 213.401 112.238 213.738 111.547C213.984 111.04 214.2 110.518 214.384 109.985C214.723 108.827 215.183 107.708 215.758 106.648C216.417 105.606 217.416 104.826 218.585 104.442C219.649 104.096 220.733 103.82 221.833 103.615C222.814 103.426 223.764 103.101 224.655 102.649C225.411 102.216 226.062 101.622 226.563 100.909C227.303 99.8792 227.726 98.6536 227.777 97.3848C227.779 96.9192 227.749 96.4539 227.686 95.9925C227.817 96.4445 227.877 96.9143 227.864 97.3848C227.847 98.6811 227.439 99.9417 226.693 101C226.185 101.737 225.52 102.351 224.746 102.797C223.843 103.266 222.878 103.604 221.88 103.802C220.791 104.01 219.717 104.287 218.663 104.633C217.541 105.002 216.581 105.751 215.949 106.752C215.383 107.798 214.928 108.9 214.592 110.041C214.404 110.584 214.183 111.115 213.928 111.629C213.671 112.124 213.344 112.578 212.957 112.978C212.196 113.675 211.258 114.149 210.247 114.349C209.328 114.584 208.461 114.732 207.702 114.984C206.197 115.497 205.244 116.555 204.988 117.399C204.883 117.724 204.854 118.07 204.905 118.408C204.942 118.529 204.968 118.653 204.983 118.778Z" fill="#FAFAFA"/>
<path d="M229.711 142.272C229.729 142.363 229.739 142.454 229.741 142.547C229.75 142.81 229.722 143.074 229.659 143.33C229.386 144.273 228.81 145.099 228.02 145.679C227.492 146.101 226.909 146.447 226.286 146.706C225.622 146.989 224.889 147.215 224.118 147.454C223.316 147.689 222.533 147.98 221.772 148.324C220.982 148.703 220.273 149.234 219.686 149.886C219.053 150.548 218.507 151.274 217.9 151.918C217.319 152.542 216.645 153.07 215.901 153.485C214.635 154.177 213.219 154.548 211.778 154.564C210.812 154.574 209.852 154.413 208.942 154.089C208.695 154.004 208.454 153.901 208.222 153.78C208.138 153.745 208.058 153.7 207.984 153.646C208.071 153.67 208.157 153.7 208.24 153.737C208.478 153.839 208.721 153.929 208.968 154.007C209.877 154.292 210.826 154.426 211.778 154.403C213.188 154.366 214.568 153.988 215.801 153.302C216.522 152.892 217.175 152.374 217.74 151.766C218.334 151.131 218.876 150.408 219.522 149.73C220.143 149.053 220.891 148.506 221.724 148.12C222.496 147.774 223.292 147.483 224.105 147.25C224.868 147.015 225.596 146.815 226.273 146.528C226.877 146.279 227.446 145.95 227.964 145.549C228.74 144.998 229.32 144.211 229.616 143.304C229.679 142.964 229.711 142.618 229.711 142.272Z" fill="#FAFAFA"/>
<path d="M227.582 84.6064L223.966 84.6934C223.827 85.4251 223.55 86.1235 223.151 86.7514C220.116 81.4869 217.787 74.4385 217.206 71.6061C217.293 71.3233 217.393 71.0101 217.518 70.662C217.608 70.1333 217.592 69.5919 217.471 69.0696C217.367 68.4387 217.193 67.5903 217.141 67.1987C216.981 65.9979 216.786 65.8108 216.369 65.9457C215.806 66.1328 216.603 69.3089 216.14 69.3785C215.888 69.4133 215.585 68.3256 215.498 67.4337C215.411 66.5417 215.004 63.792 214.713 63.6093C214.279 63.3395 213.902 63.7659 214.015 64.6535C214.128 65.5411 214.262 68.2386 213.794 68.2777C213.326 68.3169 212.927 63.7572 212.927 63.7572C212.927 63.7572 213 62.7652 212.454 62.787C211.474 62.8305 212.242 67.6338 212.324 68.0906C212.385 68.4039 211.89 68.4648 211.83 68.1211C211.769 67.7774 211.544 63.5658 210.529 63.6006C209.757 63.6006 211.123 67.5555 210.689 68.4692C210.256 69.3828 209.961 65.3714 209.228 65.4236C208.955 65.4453 208.751 65.4975 209.254 67.7643C209.736 69.5654 210.315 71.3388 210.989 73.0767C212.151 79.3637 217.25 99.4776 225.241 95.7968C229.715 93.7345 231.528 84.6064 231.528 84.6064H227.582Z" fill="#B78876"/>
<path d="M212.168 68.3952C212.202 68.4039 212.238 68.4039 212.272 68.3952C212.324 68.3792 212.369 68.3449 212.399 68.2987C212.428 68.2524 212.44 68.1972 212.432 68.1428C212.432 67.8731 212.38 67.4815 212.32 66.9725C212.218 66.359 212.151 65.7401 212.12 65.119C212.12 64.7535 212.12 64.362 212.142 63.9486C212.148 63.7385 212.17 63.5291 212.207 63.3221C212.242 63.1263 212.372 62.887 212.523 62.9262H212.549C212.701 62.9262 212.823 63.0393 212.87 63.222C212.924 63.4114 212.944 63.6087 212.931 63.8051C213.02 65.0235 213.175 66.2363 213.395 67.438C213.43 67.599 213.464 67.7643 213.516 67.9297C213.539 68.0143 213.568 68.0971 213.603 68.1777C213.625 68.2225 213.65 68.266 213.677 68.3082C213.696 68.34 213.723 68.3668 213.754 68.3864C213.786 68.4061 213.822 68.418 213.859 68.4213C213.922 68.4143 213.982 68.3887 214.03 68.3476C214.079 68.3066 214.114 68.252 214.132 68.1907C214.169 68.1056 214.197 68.0166 214.214 67.9253C214.248 67.7499 214.271 67.5727 214.284 67.3945C214.323 66.6695 214.313 65.9427 214.253 65.2191C214.199 64.8578 214.184 64.4915 214.21 64.127C214.226 63.9696 214.302 63.8245 214.423 63.7224C214.45 63.7058 214.481 63.6953 214.513 63.6915C214.546 63.6878 214.578 63.6909 214.609 63.7006C214.646 63.7095 214.681 63.7242 214.713 63.7441C214.735 63.7607 214.752 63.7834 214.761 63.8094C214.897 64.1622 214.998 64.5282 215.06 64.9015C215.138 65.2843 215.203 65.6803 215.264 66.0762C215.324 66.4721 215.381 66.8724 215.428 67.277C215.466 67.6946 215.532 68.1089 215.628 68.517C215.679 68.7257 215.744 68.9306 215.823 69.1305C215.867 69.2424 215.929 69.3466 216.005 69.4394C216.034 69.478 216.074 69.5074 216.119 69.5244C216.165 69.5413 216.214 69.545 216.261 69.5351C216.305 69.5206 216.344 69.4949 216.375 69.4606C216.407 69.4263 216.428 69.3845 216.439 69.3393C216.49 69.117 216.506 68.8879 216.486 68.6606C216.486 68.4431 216.46 68.2255 216.439 68.0167C216.408 67.6512 216.374 67.2901 216.361 66.9333C216.35 66.758 216.35 66.5822 216.361 66.4069C216.369 66.3293 216.388 66.2532 216.417 66.1806C216.426 66.1567 216.439 66.1346 216.456 66.1154H216.512C216.799 65.9979 216.894 66.3982 216.972 66.7201C217.05 67.0421 217.08 67.4076 217.15 67.7513C217.263 68.4344 217.41 69.1174 217.484 69.7701C217.534 70.0826 217.522 70.4019 217.449 70.7098C217.345 71.0231 217.241 71.332 217.141 71.6409V71.6714V71.6975C217.649 73.835 218.296 75.9366 219.079 77.9888C219.764 79.8466 220.454 81.4695 221.056 82.7747C221.659 84.08 222.205 85.1024 222.578 85.7898L223.012 86.5686C223.059 86.6615 223.116 86.749 223.181 86.8297C223.145 86.7331 223.1 86.6399 223.047 86.5512L222.613 85.755C222.258 85.0546 221.746 84.0147 221.156 82.7095C220.567 81.4042 219.899 79.7813 219.231 77.9235C218.467 75.8744 217.833 73.779 217.332 71.6496V71.7105C217.432 71.406 217.531 71.0971 217.635 70.7882C217.726 70.4491 217.743 70.0947 217.688 69.7483C217.609 69.0652 217.466 68.4039 217.354 67.7165C217.289 67.3771 217.245 67.029 217.176 66.6723C217.171 66.489 217.141 66.3073 217.085 66.1328C217.035 66.0266 216.951 65.9406 216.846 65.8891C216.735 65.8526 216.615 65.8526 216.504 65.8891H216.434C216.398 65.9009 216.364 65.9202 216.335 65.9457C216.287 65.9867 216.249 66.039 216.226 66.098C216.187 66.1921 216.162 66.2919 216.153 66.3938C216.14 66.5821 216.14 66.7711 216.153 66.9594C216.153 67.3249 216.205 67.6904 216.235 68.0558C216.235 68.269 216.27 68.4909 216.278 68.6867C216.296 68.883 216.285 69.0807 216.248 69.2741C216.248 69.3176 216.213 69.3089 216.248 69.3306L216.222 69.3045C216.167 69.2334 216.123 69.1542 216.092 69.0696C216.016 68.8814 215.954 68.688 215.905 68.4909C215.81 68.0947 215.745 67.6918 215.71 67.2857C215.664 66.8768 215.608 66.4721 215.541 66.0718C215.481 65.6716 215.411 65.28 215.333 64.8884C215.268 64.4899 215.157 64.1001 215.004 63.7267C214.974 63.6644 214.927 63.6116 214.869 63.5745C214.819 63.5451 214.765 63.5217 214.709 63.5049C214.647 63.4886 214.583 63.4848 214.519 63.4938C214.456 63.5027 214.395 63.5242 214.34 63.5571C214.251 63.6241 214.176 63.7089 214.121 63.8063C214.066 63.9036 214.031 64.0113 214.019 64.1227C213.991 64.3204 213.991 64.5211 214.019 64.7187C214.019 64.9058 214.063 65.0886 214.076 65.2713C214.136 65.9832 214.149 66.6983 214.115 67.4119C214.105 67.5814 214.083 67.7501 214.05 67.9166C214.037 67.9944 214.015 68.0704 213.985 68.1428C213.973 68.1715 213.957 68.198 213.937 68.2212C213.937 68.2603 213.907 68.2212 213.911 68.2734C213.911 68.2299 213.911 68.2734 213.911 68.2168C213.892 68.1874 213.874 68.1569 213.859 68.1254C213.829 68.0558 213.803 67.9775 213.777 67.9036C213.729 67.7469 213.694 67.5859 213.659 67.4293C213.433 66.2379 213.27 65.0354 213.169 63.8268C213.183 63.6081 213.158 63.3887 213.096 63.1785C213.067 63.0689 213.009 62.9695 212.927 62.8914C212.884 62.8502 212.834 62.8182 212.779 62.7973C212.724 62.7763 212.665 62.7669 212.606 62.7696H212.632C212.558 62.7588 212.484 62.77 212.416 62.8017C212.349 62.8334 212.293 62.8843 212.255 62.9479C212.19 63.0517 212.146 63.1669 212.125 63.2873C212.088 63.503 212.068 63.7212 212.064 63.9399C212.064 64.375 212.064 64.7535 212.064 65.1234C212.105 65.7484 212.185 66.3703 212.302 66.9855C212.376 67.4902 212.432 67.8818 212.458 68.1472C212.467 68.1937 212.459 68.2416 212.436 68.2828C212.413 68.3241 212.376 68.3561 212.333 68.3734C212.203 68.3865 212.164 68.3908 212.168 68.3952Z" fill="#A36957"/>
<path d="M183.928 90.5975C183.082 90.5794 182.237 90.6775 181.418 90.889C179.176 91.4807 175.313 93.8302 175.152 96.7322H177.962C177.962 96.7322 176.388 100.091 176.848 99.7778C178.049 98.9685 180.434 96.5364 180.434 96.5364L183.928 90.5975Z" fill="#B78876"/>
<path d="M222.227 40.0277C222.162 40.0277 221.911 37.7044 221.659 34.8067C221.408 31.9091 221.252 29.5857 221.312 29.5857C221.373 29.5857 221.629 31.9091 221.88 34.8067C222.132 37.7044 222.288 40.0277 222.227 40.0277Z" fill="#263238"/>
<path d="M234.545 29.7641C234.593 29.7989 232.698 32.5617 230.309 35.9336C227.92 39.3055 225.939 42.0248 225.887 41.9726C225.835 41.9204 227.734 39.175 230.123 35.8031C232.512 32.4312 234.493 29.7293 234.545 29.7641Z" fill="#263238"/>
<path d="M239.662 42.2858C239.662 42.3467 237.459 42.8558 234.719 43.4214C231.979 43.987 229.741 44.396 229.728 44.3351C229.715 44.2742 231.927 43.7651 234.671 43.1995C237.416 42.6339 239.631 42.2249 239.662 42.2858Z" fill="#263238"/>
<path d="M92.2112 102.044L76.8622 181.143L74.8677 191.498L177.195 191.002C181.791 190.98 185.866 186.886 187.336 180.803L205.486 106.13C206.609 101.514 204.146 96.7104 200.66 96.7147L97.0674 96.8235C94.8128 96.8191 92.7922 98.9597 92.2112 102.044Z" fill="#294277"/>
<g opacity="0.5">
<path d="M92.2112 102.044L76.8622 181.143L74.8677 191.498L177.195 191.002C181.791 190.98 185.866 186.886 187.336 180.803L205.486 106.13C206.609 101.514 204.146 96.7104 200.66 96.7147L97.0674 96.8235C94.8128 96.8191 92.7922 98.9597 92.2112 102.044Z" fill="black"/>
</g>
<path d="M167.391 175.774L156.551 88.1436C156.118 84.5541 153.261 81.874 149.892 81.8871L126.131 81.961C125.248 81.971 124.376 82.1613 123.569 82.5204C122.762 82.8794 122.036 83.3997 121.435 84.0494L110.162 96.0882L44.0829 96.445C40.0462 96.4667 36.9417 100.304 37.475 104.611L47.5386 185.602C47.9722 189.187 50.8296 191.863 54.1899 191.859L169.373 191.628C182.198 191.894 183.425 188.095 183.425 188.095C168.701 191.363 167.391 175.796 167.391 175.774Z" fill="#294277"/>
<g opacity="0.5">
<path d="M117.724 158.249L113.839 162.434L83.921 135.424L87.806 131.239L117.724 158.249Z" fill="white"/>
<path d="M112.213 130.312L116.505 134.188L89.4363 163.361L85.1394 159.484L112.213 130.312Z" fill="white"/>
</g>
<path d="M183.837 45.153C183.697 45.0936 183.576 44.9954 183.489 44.8698C183.403 44.7442 183.353 44.5965 183.347 44.4438L183.174 40.4062C183.168 40.2808 183.191 40.1556 183.241 40.0406C183.291 39.9257 183.368 39.8241 183.464 39.7439C183.561 39.6636 183.674 39.607 183.796 39.5785C183.918 39.55 184.045 39.5504 184.167 39.5795C184.502 39.6522 184.849 39.6554 185.186 39.5888C185.523 39.5222 185.843 39.3873 186.126 39.1923C186.387 39.0267 186.611 38.8092 186.785 38.5533C186.959 38.2974 187.078 38.0085 187.137 37.7043C187.176 37.3964 187.153 37.0837 187.07 36.7847C186.986 36.4858 186.844 36.2067 186.651 35.964C186.448 35.6879 186.192 35.4546 185.899 35.2777C185.606 35.1008 185.281 34.9836 184.943 34.9329C184.26 34.8948 183.585 35.0889 183.027 35.4837C182.468 35.8785 182.058 36.4509 181.864 37.1083C181.799 37.3075 181.661 37.4739 181.477 37.5729C181.293 37.6719 181.078 37.6959 180.876 37.6398C180.675 37.5838 180.503 37.452 180.397 37.2719C180.29 37.0918 180.256 36.8774 180.303 36.6732C180.598 35.6392 181.239 34.7386 182.118 34.123C182.997 33.5073 184.06 33.2141 185.129 33.2926C185.686 33.367 186.221 33.5528 186.705 33.8391C187.188 34.1253 187.609 34.5062 187.943 34.959C188.268 35.3786 188.505 35.8594 188.642 36.3728C188.778 36.8862 188.81 37.4218 188.737 37.948C188.638 38.4734 188.433 38.9729 188.135 39.4159C187.837 39.8589 187.451 40.2359 187.002 40.5237C186.352 40.9631 185.592 41.2118 184.808 41.2416L184.943 44.3568C184.948 44.4936 184.918 44.6296 184.857 44.752C184.796 44.8743 184.705 44.9792 184.592 45.0569C184.48 45.1346 184.35 45.1825 184.214 45.1962C184.078 45.21 183.941 45.1891 183.815 45.1356L183.837 45.153Z" fill="#294277"/>
<path d="M185.025 46.8063C185.034 46.9377 185.004 47.0688 184.939 47.1832C184.874 47.2975 184.777 47.3898 184.659 47.4485C184.542 47.5072 184.409 47.5296 184.279 47.5129C184.149 47.4962 184.027 47.441 183.928 47.3545C183.829 47.268 183.758 47.154 183.723 47.0269C183.689 46.8998 183.693 46.7653 183.735 46.6404C183.777 46.5156 183.854 46.406 183.958 46.3256C184.062 46.2451 184.188 46.1974 184.318 46.1885C184.405 46.182 184.493 46.1928 184.576 46.2204C184.658 46.248 184.735 46.2918 184.8 46.3493C184.866 46.4068 184.92 46.4767 184.958 46.5552C184.997 46.6336 185.02 46.719 185.025 46.8063Z" fill="#294277"/>
<path d="M169.906 39.4577C169.925 39.3717 169.938 39.2845 169.945 39.1967C169.945 39.0052 169.993 38.7616 170.027 38.4179C170.07 37.9959 170.141 37.5772 170.24 37.1648C170.296 36.9212 170.326 36.6514 170.413 36.3773C170.5 36.1032 170.587 35.8074 170.682 35.5072C171.184 34.0197 171.916 32.6206 172.85 31.3608C174.075 29.7295 175.627 28.3747 177.407 27.3842C178.42 26.811 179.499 26.3639 180.62 26.0528C181.83 25.731 183.076 25.5672 184.327 25.5655C184.986 25.5549 185.645 25.5898 186.3 25.6699C186.634 25.7047 186.963 25.7917 187.297 25.8483C187.635 25.9063 187.968 25.9877 188.294 26.092C189.661 26.4752 190.961 27.0665 192.149 27.8453C194.79 29.5645 196.803 32.0996 197.881 35.0677C198.462 36.6576 198.756 38.3387 198.748 40.032C198.766 41.7765 198.459 43.5089 197.842 45.1399L197.647 45.6359L197.621 45.7012L197.647 45.7664C198.735 48.2769 199.815 50.7438 200.834 53.1324L201.016 52.9236L194.512 50.4218L194.434 50.3914L194.369 50.4523C192.648 52.1251 190.542 53.3448 188.238 54.0026C186.269 54.5465 184.208 54.6652 182.19 54.351C180.172 54.0368 178.243 53.2967 176.531 52.1796C175.129 51.2569 173.893 50.102 172.876 48.7642C171.402 46.8114 170.447 44.5148 170.101 42.09C170.049 41.6549 170.006 41.2894 169.967 40.9588C169.928 40.6281 169.967 40.3584 169.945 40.1278C169.923 39.8972 169.945 39.7449 169.945 39.6187C169.967 39.6154 169.986 39.6041 170 39.5869C170.013 39.5697 170.02 39.548 170.018 39.5261C170.017 39.5043 170.007 39.4838 169.991 39.4689C169.975 39.454 169.954 39.4457 169.932 39.4457C169.91 39.4457 169.889 39.454 169.873 39.4689C169.857 39.4838 169.847 39.5043 169.845 39.5261C169.844 39.548 169.85 39.5697 169.864 39.5869C169.878 39.6041 169.897 39.6154 169.919 39.6187C169.919 39.7449 169.919 39.9146 169.919 40.1278C169.919 40.341 169.919 40.6368 169.919 40.9675C169.919 41.2981 169.993 41.6767 170.036 42.1074C170.179 43.1539 170.427 44.1831 170.777 45.1791C171.274 46.4944 171.942 47.7379 172.763 48.8773C173.784 50.2389 175.029 51.416 176.444 52.358C178.178 53.503 180.133 54.265 182.182 54.5936C184.232 54.9221 186.327 54.8097 188.329 54.2636C190.661 53.599 192.794 52.3677 194.538 50.6785L194.395 50.709L200.899 53.2238L201.224 53.35L201.081 53.0149C200.049 50.6263 198.982 48.1638 197.898 45.649V45.7751L198.098 45.2661C198.731 43.5995 199.045 41.8284 199.026 40.0451C199.039 38.3158 198.746 36.5979 198.159 34.972C197.057 31.9448 195 29.3614 192.301 27.6148C191.083 26.8178 189.749 26.2159 188.346 25.8309C188.015 25.7255 187.676 25.6456 187.332 25.5916C186.994 25.5307 186.66 25.4437 186.322 25.4132C185.659 25.3306 184.991 25.2928 184.323 25.3001C183.051 25.3055 181.786 25.4781 180.559 25.8135C179.423 26.1371 178.33 26.5958 177.303 27.1797C175.505 28.1945 173.943 29.5812 172.72 31.2477C171.788 32.5283 171.067 33.9501 170.582 35.4593C170.491 35.7726 170.405 36.0728 170.326 36.3295C170.258 36.5918 170.203 36.8575 170.162 37.1257C170.069 37.5409 170.008 37.9628 169.98 38.3874C169.954 38.7224 169.936 38.9791 169.923 39.1706C169.905 39.2651 169.899 39.3617 169.906 39.4577Z" fill="#263238"/>
</svg>
