<svg width="375" height="222" viewBox="0 0 375 222" fill="none" xmlns="http://www.w3.org/2000/svg">
<g clip-path="url(#clip0_402_24784)">
<path d="M14.8166 155.452H3.88062V194.053H14.8166V155.452Z" fill="#00686A"/>
<path d="M5.7326 164.36H0V194.054H5.7326V164.36Z" fill="#00686A"/>
<path d="M20.5492 166.631H12.7V194.053H20.5492V166.631Z" fill="#00686A"/>
<path d="M35.5421 147.942H18.2561V194.053H35.5421V147.942Z" fill="#00686A"/>
<path d="M168.097 161.304H51.417V194.054H168.097V161.304Z" fill="#00686A"/>
<path d="M78.4925 129.602H61.2065V194.053H78.4925V129.602Z" fill="#00686A"/>
<path d="M100.717 103.14H83.4314V194.053H100.717V103.14Z" fill="#00686A"/>
<path d="M109.36 41.3084H92.0742V194.053H109.36V41.3084Z" fill="#00686A"/>
<path d="M166.422 103.14H149.136V194.053H166.422V103.14Z" fill="#00686A"/>
<path d="M217.662 129.602H197.201V194.053H217.662V129.602Z" fill="#00686A"/>
<path d="M230.891 194.053H204.521V77.6389H217.31L230.891 92.8348V194.053Z" fill="#00686A"/>
<path d="M200.376 194.053H183.09V103.14H189.969L200.376 117.725V194.053Z" fill="#00686A"/>
<path d="M187.236 41.3084H157.779V194.053H187.236V41.3084Z" fill="#00686A"/>
<path d="M183.09 36.4178H161.836V60.6963H183.09V36.4178Z" fill="#00686A"/>
<path d="M179.915 28.8198H165.01V48.557H179.915V28.8198Z" fill="#00686A"/>
<path d="M130.35 0H115.446V19.7372H130.35V0Z" fill="#00686A"/>
<path d="M115.71 19.1259H98.4243V194.053H115.71V19.1259Z" fill="#00686A"/>
<path d="M133.349 4.45398H107.067V194.053H133.349V4.45398Z" fill="#00686A"/>
<path d="M137.935 36.4178H123.471V194.053H137.935V36.4178Z" fill="#00686A"/>
<path d="M145.167 90.6515H130.703V194.053H145.167V90.6515Z" fill="#00686A"/>
<path d="M245.973 98.7734H230.891V194.053H245.973V98.7734Z" fill="#00686A"/>
<path d="M264.229 73.0103H251.264V85.3242H264.229V73.0103Z" fill="#00686A"/>
<path d="M251.529 84.8875H236.448V194.054H251.529V84.8875Z" fill="#00686A"/>
<path d="M266.874 75.7175H243.944V194.053H266.874V75.7175Z" fill="#00686A"/>
<path d="M270.931 95.7168H258.32V194.054H270.931V95.7168Z" fill="#00686A"/>
<path d="M277.193 129.515H264.581V194.053H277.193V129.515Z" fill="#00686A"/>
<path d="M324.818 106.546H277.193V194.053H324.818V106.546Z" fill="#00686A"/>
<path d="M76.5521 123.489H63.2349V145.409H76.5521V123.489Z" fill="#00686A"/>
<path d="M54.6802 194.053H34.2192V96.6774L48.683 108.817H54.6802V194.053Z" fill="#00686A"/>
<path d="M341.751 163.836H329.492V194.054H341.751V163.836Z" fill="#00686A"/>
<path d="M337.341 170.823H321.378V194.054H337.341V170.823Z" fill="#00686A"/>
<path d="M346.602 147.243H340.075V194.053H346.602V147.243Z" fill="#00686A"/>
<path d="M359.125 142.527H344.75V194.053H359.125V142.527Z" fill="#00686A"/>
<path d="M375 134.755H357.979V194.053H375V134.755Z" fill="#00686A"/>
<path d="M318.556 91.0008H289.099V194.054H318.556V91.0008Z" fill="#00686A"/>
<path d="M314.499 87.6822H293.244V104.101H314.499V87.6822Z" fill="#00686A"/>
<path d="M311.324 82.6168H296.419V95.8914H311.324V82.6168Z" fill="#00686A"/>
<path d="M371.913 131.174H360.095V141.479H371.913V131.174Z" fill="#00686A"/>
<path d="M216.78 73.0976H206.55V87.3328H216.78V73.0976Z" fill="#00686A"/>
<path d="M249.236 126.283H87.6648V193.966H249.236V126.283Z" fill="#B0BBBE"/>
<path d="M252.411 121.305H84.4897L97.2778 102.267H239.623L252.411 121.305Z" fill="#2B2E39"/>
<path d="M252.499 121.305H84.4897V126.283H252.499V121.305Z" fill="#1A1D23"/>
<path d="M239.093 137.2H168.45V194.053H239.093V137.2Z" fill="white"/>
<path d="M236.8 139.208H170.743V194.053H236.8V139.208Z" fill="#787878"/>
<path d="M231.421 139.208H176.3V194.053H231.421V139.208Z" fill="#3F3F3F"/>
<path d="M231.332 156.762H219.338V194.053H231.332V156.762Z" fill="#9DB4B9"/>
<path d="M124.089 135.802H94.7202V147.767H124.089V135.802Z" fill="#B2BCBE"/>
<path d="M123.207 135.017H93.8384V146.981H123.207V135.017Z" fill="white"/>
<path d="M121.178 136.414H95.9551V145.671H121.178V136.414Z" fill="#1A474F"/>
<path d="M112.183 136.414L100.629 145.584H97.719L109.272 136.414H112.183Z" fill="white"/>
<path d="M118.621 136.414L107.068 145.584H104.157L115.711 136.414H118.621Z" fill="white"/>
<path d="M124.089 160.954H94.7202V181.128H124.089V160.954Z" fill="#B2BCBE"/>
<path d="M123.207 160.168H93.8384V180.342H123.207V160.168Z" fill="white"/>
<path d="M121.178 161.566H95.9551V178.945H121.178V161.566Z" fill="#1A474F"/>
<path d="M112.183 161.566L100.629 178.945H97.719L109.272 161.566H112.183Z" fill="white"/>
<path d="M118.621 161.566L107.068 178.945H104.157L115.711 161.566H118.621Z" fill="white"/>
<path d="M161.307 160.954H131.938V181.128H161.307V160.954Z" fill="#B2BCBE"/>
<path d="M160.513 160.168H131.144V180.342H160.513V160.168Z" fill="white"/>
<path d="M158.396 161.566H133.173V178.945H158.396V161.566Z" fill="#1A474F"/>
<path d="M149.489 161.566L137.935 178.945H135.025L146.578 161.566H149.489Z" fill="white"/>
<path d="M155.927 161.566L144.374 178.945H141.463L153.017 161.566H155.927Z" fill="white"/>
<path d="M161.307 135.802H131.938V147.767H161.307V135.802Z" fill="#B2BCBE"/>
<path d="M160.513 135.017H131.144V146.981H160.513V135.017Z" fill="white"/>
<path d="M158.396 136.414H133.173V145.671H158.396V136.414Z" fill="#1A474F"/>
<path d="M149.489 136.414L137.935 145.584H135.025L146.578 136.414H149.489Z" fill="white"/>
<path d="M155.927 136.414L144.374 145.584H141.463L153.017 136.414H155.927Z" fill="white"/>
<path d="M206.285 180.342V171.085H188.558V180.342H179.739V194.053H215.193V180.342H206.285Z" fill="#9DB4B9"/>
<path d="M236.8 139.208H170.743V154.055H236.8V139.208Z" fill="#B3B3B3"/>
<path d="M235.213 141.828C235.213 142.265 234.86 142.614 234.419 142.614H173.477C173.036 142.614 172.684 142.265 172.684 141.828C172.684 141.392 173.036 141.042 173.477 141.042H234.419C234.86 141.042 235.213 141.392 235.213 141.828Z" fill="#DEDEDE"/>
<path d="M235.213 144.798C235.213 145.234 234.86 145.584 234.419 145.584H173.477C173.036 145.584 172.684 145.234 172.684 144.798C172.684 144.361 173.036 144.012 173.477 144.012H234.419C234.86 144.012 235.213 144.361 235.213 144.798Z" fill="#DEDEDE"/>
<path d="M235.213 147.854C235.213 148.291 234.86 148.64 234.419 148.64H173.477C173.036 148.64 172.684 148.291 172.684 147.854C172.684 147.418 173.036 147.068 173.477 147.068H234.419C234.86 147.068 235.213 147.418 235.213 147.854Z" fill="#DEDEDE"/>
<path d="M235.213 150.911C235.213 151.348 234.86 151.697 234.419 151.697H173.477C173.036 151.697 172.684 151.348 172.684 150.911C172.684 150.474 173.036 150.125 173.477 150.125H234.419C234.86 150.125 235.213 150.474 235.213 150.911Z" fill="#DEDEDE"/>
<path d="M239.623 79.9968H97.7188V102.267H239.623V79.9968Z" fill="#1A1D23"/>
<path d="M241.21 74.3202H96.1313V79.9968H241.21V74.3202Z" fill="#121418"/>
<path d="M136.524 85.4988H107.156V97.4634H136.524V85.4988Z" fill="#B2BCBE"/>
<path d="M135.642 84.7128H106.274V96.6774H135.642V84.7128Z" fill="white"/>
<path d="M133.614 86.1101H108.39V95.3674H133.614V86.1101Z" fill="#1A474F"/>
<path d="M124.706 86.1101L113.153 95.2801H110.242L121.796 86.1101H124.706Z" fill="white"/>
<path d="M131.144 86.1101L119.591 95.2801H116.681L128.234 86.1101H131.144Z" fill="white"/>
<path d="M184.06 85.4988H154.692V97.4634H184.06V85.4988Z" fill="#B2BCBE"/>
<path d="M183.267 84.7128H153.898V96.6774H183.267V84.7128Z" fill="white"/>
<path d="M181.15 86.1101H155.927V95.3674H181.15V86.1101Z" fill="#1A474F"/>
<path d="M172.243 86.1101L160.689 95.2801H157.779L169.332 86.1101H172.243Z" fill="white"/>
<path d="M178.681 86.1101L167.127 95.2801H164.217L175.77 86.1101H178.681Z" fill="white"/>
<path d="M231.597 85.4988H202.228V97.4634H231.597V85.4988Z" fill="#B2BCBE"/>
<path d="M230.803 84.7128H201.435V96.6774H230.803V84.7128Z" fill="white"/>
<path d="M228.775 86.1101H203.551V95.3674H228.775V86.1101Z" fill="#1A474F"/>
<path d="M219.779 86.1101L208.226 95.2801H205.315L216.869 86.1101H219.779Z" fill="white"/>
<path d="M226.217 86.1101L214.664 95.2801H211.753L223.307 86.1101H226.217Z" fill="white"/>
<path d="M289.981 122.353H281.25V139.645H289.981V122.353Z" fill="#D76625"/>
<path d="M287.247 122.353H284.513V127.506H287.247V122.353Z" fill="#E5D3C0"/>
<path d="M306.121 122.353H289.981V139.645H306.121V122.353Z" fill="#FD9438"/>
<path opacity="0.5" d="M305.503 138.947V122.965H290.599L305.503 138.947Z" fill="#FDD2B5"/>
<path d="M286.982 122.353H284.337V127.331H286.982V122.353Z" fill="#E5E5E5"/>
<path d="M297.037 134.231H291.128V135.017H297.037V134.231Z" fill="#53280E"/>
<path d="M295.185 135.803H291.128V136.589H295.185V135.803Z" fill="#53280E"/>
<path d="M292.803 137.113H291.392V138.423H292.803V137.113Z" stroke="#53280E" stroke-width="0.4398" stroke-miterlimit="10" stroke-linecap="round" stroke-linejoin="round"/>
<path d="M294.92 137.113H293.509V138.423H294.92V137.113Z" stroke="#53280E" stroke-width="0.4398" stroke-miterlimit="10" stroke-linecap="round" stroke-linejoin="round"/>
<path d="M314.852 156.85H306.121V174.142H314.852V156.85Z" fill="#D76625"/>
<path d="M312.118 156.85H309.384V162.002H312.118V156.85Z" fill="#E5D3C0"/>
<path d="M330.991 156.85H314.852V174.142H330.991V156.85Z" fill="#FD9438"/>
<path opacity="0.5" d="M330.286 173.53V157.548H315.469L330.286 173.53Z" fill="#FDD2B5"/>
<path d="M311.765 156.85H309.119V161.828H311.765V156.85Z" fill="#E5E5E5"/>
<path d="M321.907 168.814H315.998V169.6H321.907V168.814Z" fill="#53280E"/>
<path d="M320.055 170.299H315.998V171.085H320.055V170.299Z" fill="#53280E"/>
<path d="M317.586 171.609H316.175V172.919H317.586V171.609Z" stroke="#53280E" stroke-width="0.4398" stroke-miterlimit="10" stroke-linecap="round" stroke-linejoin="round"/>
<path d="M319.791 171.609H318.38V172.919H319.791V171.609Z" stroke="#53280E" stroke-width="0.4398" stroke-miterlimit="10" stroke-linecap="round" stroke-linejoin="round"/>
<path d="M289.981 156.85H281.25V174.142H289.981V156.85Z" fill="#D76625"/>
<path d="M287.247 156.85H284.513V162.002H287.247V156.85Z" fill="#E5D3C0"/>
<path d="M306.121 156.85H289.981V174.142H306.121V156.85Z" fill="#FD9438"/>
<path opacity="0.5" d="M305.503 173.53V157.548H290.599L305.503 173.53Z" fill="#FDD2B5"/>
<path d="M286.982 156.85H284.337V161.828H286.982V156.85Z" fill="#E5E5E5"/>
<path d="M297.037 168.814H291.128V169.6H297.037V168.814Z" fill="#53280E"/>
<path d="M295.185 170.299H291.128V171.085H295.185V170.299Z" fill="#53280E"/>
<path d="M292.803 171.609H291.392V172.919H292.803V171.609Z" stroke="#53280E" stroke-width="0.4398" stroke-miterlimit="10" stroke-linecap="round" stroke-linejoin="round"/>
<path d="M294.92 171.609H293.509V172.919H294.92V171.609Z" stroke="#53280E" stroke-width="0.4398" stroke-miterlimit="10" stroke-linecap="round" stroke-linejoin="round"/>
<path d="M314.852 139.558H306.121V156.85H314.852V139.558Z" fill="#CB581F"/>
<path d="M312.118 139.558H309.384V144.71H312.118V139.558Z" fill="#E5D3C0"/>
<path d="M330.991 139.558H314.852V156.85H330.991V139.558Z" fill="#EC832E"/>
<path opacity="0.5" d="M330.286 156.238V140.257H315.469L330.286 156.238Z" fill="#FDD2B5"/>
<path d="M311.765 139.558H309.119V144.536H311.765V139.558Z" fill="#E5E5E5"/>
<path d="M321.907 151.522H315.998V152.308H321.907V151.522Z" fill="#53280E"/>
<path d="M320.055 153.094H315.998V153.88H320.055V153.094Z" fill="#53280E"/>
<path d="M317.586 154.404H316.175V155.714H317.586V154.404Z" stroke="#53280E" stroke-width="0.4398" stroke-miterlimit="10" stroke-linecap="round" stroke-linejoin="round"/>
<path d="M319.791 154.404H318.38V155.714H319.791V154.404Z" stroke="#53280E" stroke-width="0.4398" stroke-miterlimit="10" stroke-linecap="round" stroke-linejoin="round"/>
<path d="M289.981 139.558H281.25V156.85H289.981V139.558Z" fill="#CB581F"/>
<path d="M287.247 139.558H284.513V144.71H287.247V139.558Z" fill="#E5D3C0"/>
<path d="M306.121 139.558H289.981V156.85H306.121V139.558Z" fill="#EC832E"/>
<path opacity="0.5" d="M305.503 156.238V140.257H290.599L305.503 156.238Z" fill="#FDD2B5"/>
<path d="M286.982 139.558H284.337V144.536H286.982V139.558Z" fill="#E5E5E5"/>
<path d="M297.037 151.522H291.128V152.308H297.037V151.522Z" fill="#53280E"/>
<path d="M295.185 153.094H291.128V153.88H295.185V153.094Z" fill="#53280E"/>
<path d="M292.803 154.404H291.392V155.714H292.803V154.404Z" stroke="#53280E" stroke-width="0.4398" stroke-miterlimit="10" stroke-linecap="round" stroke-linejoin="round"/>
<path d="M294.92 154.404H293.509V155.714H294.92V154.404Z" stroke="#53280E" stroke-width="0.4398" stroke-miterlimit="10" stroke-linecap="round" stroke-linejoin="round"/>
<path d="M314.852 174.142H306.121V191.433H314.852V174.142Z" fill="#CB581F"/>
<path d="M312.118 174.142H309.384V179.294H312.118V174.142Z" fill="#E5D3C0"/>
<path d="M330.991 174.142H314.852V191.433H330.991V174.142Z" fill="#EC832E"/>
<path opacity="0.5" d="M330.286 190.735V174.84H315.469L330.286 190.735Z" fill="#FDD2B5"/>
<path d="M311.765 174.142H309.119V179.12H311.765V174.142Z" fill="#E5E5E5"/>
<path d="M321.907 186.106H315.998V186.892H321.907V186.106Z" fill="#53280E"/>
<path d="M320.055 187.591H315.998V188.377H320.055V187.591Z" fill="#53280E"/>
<path d="M317.586 188.901H316.175V190.211H317.586V188.901Z" stroke="#53280E" stroke-width="0.4398" stroke-miterlimit="10" stroke-linecap="round" stroke-linejoin="round"/>
<path d="M319.791 188.901H318.38V190.211H319.791V188.901Z" stroke="#53280E" stroke-width="0.4398" stroke-miterlimit="10" stroke-linecap="round" stroke-linejoin="round"/>
<path d="M289.981 174.142H281.25V191.433H289.981V174.142Z" fill="#CB581F"/>
<path d="M287.247 174.142H284.513V179.294H287.247V174.142Z" fill="#E5D3C0"/>
<path d="M306.121 174.142H289.981V191.433H306.121V174.142Z" fill="#EC832E"/>
<path opacity="0.5" d="M305.503 190.735V174.84H290.599L305.503 190.735Z" fill="#FDD2B5"/>
<path d="M286.982 174.142H284.337V179.12H286.982V174.142Z" fill="#E5E5E5"/>
<path d="M297.037 186.106H291.128V186.892H297.037V186.106Z" fill="#53280E"/>
<path d="M295.185 187.591H291.128V188.377H295.185V187.591Z" fill="#53280E"/>
<path d="M292.803 188.901H291.392V190.211H292.803V188.901Z" stroke="#53280E" stroke-width="0.4398" stroke-miterlimit="10" stroke-linecap="round" stroke-linejoin="round"/>
<path d="M294.92 188.901H293.509V190.211H294.92V188.901Z" stroke="#53280E" stroke-width="0.4398" stroke-miterlimit="10" stroke-linecap="round" stroke-linejoin="round"/>
<path d="M340.957 156.85H332.226V174.142H340.957V156.85Z" fill="#D76625"/>
<path d="M338.223 156.85H335.489V162.002H338.223V156.85Z" fill="#E5D3C0"/>
<path d="M357.097 156.85H340.957V174.142H357.097V156.85Z" fill="#FD9438"/>
<path opacity="0.5" d="M356.391 173.53V157.548H341.575L356.391 173.53Z" fill="#FDD2B5"/>
<path d="M337.87 156.85H335.225V161.828H337.87V156.85Z" fill="#E5E5E5"/>
<path d="M348.013 168.814H342.104V169.6H348.013V168.814Z" fill="#53280E"/>
<path d="M346.161 170.299H342.104V171.085H346.161V170.299Z" fill="#53280E"/>
<path d="M343.691 171.609H342.28V172.919H343.691V171.609Z" stroke="#53280E" stroke-width="0.4398" stroke-miterlimit="10" stroke-linecap="round" stroke-linejoin="round"/>
<path d="M345.896 171.609H344.485V172.919H345.896V171.609Z" stroke="#53280E" stroke-width="0.4398" stroke-miterlimit="10" stroke-linecap="round" stroke-linejoin="round"/>
<path d="M340.957 174.142H332.226V191.434H340.957V174.142Z" fill="#CB581F"/>
<path d="M338.223 174.142H335.489V179.294H338.223V174.142Z" fill="#E5D3C0"/>
<path d="M357.097 174.142H340.957V191.434H357.097V174.142Z" fill="#EC832E"/>
<path opacity="0.5" d="M356.391 190.735V174.84H341.575L356.391 190.735Z" fill="#FDD2B5"/>
<path d="M337.87 174.142H335.225V179.12H337.87V174.142Z" fill="#E5E5E5"/>
<path d="M348.013 186.106H342.104V186.892H348.013V186.106Z" fill="#53280E"/>
<path d="M346.161 187.591H342.104V188.377H346.161V187.591Z" fill="#53280E"/>
<path d="M343.691 188.901H342.28V190.211H343.691V188.901Z" stroke="#53280E" stroke-width="0.4398" stroke-miterlimit="10" stroke-linecap="round" stroke-linejoin="round"/>
<path d="M345.896 188.901H344.485V190.211H345.896V188.901Z" stroke="#53280E" stroke-width="0.4398" stroke-miterlimit="10" stroke-linecap="round" stroke-linejoin="round"/>
<path d="M363.623 191.434H280.104V198.769H363.623V191.434Z" fill="#999999"/>
<path d="M363.623 179.906H280.104V187.242H363.623V179.906Z" fill="#E47326"/>
<path d="M363.623 168.814H280.104V176.15H363.623V168.814Z" fill="#E47326"/>
<path d="M363.623 157.636H280.104V164.972H363.623V157.636Z" fill="#E47326"/>
<path d="M363.623 146.544H280.104V153.88H363.623V146.544Z" fill="#E47326"/>
<path d="M280.015 143.138H276.928V198.682H280.015V143.138Z" fill="#999999"/>
<path d="M357.008 143.138H353.922V198.682H357.008V143.138Z" fill="#999999"/>
<path d="M364.858 198.857H349.159V202.525H364.858V198.857Z" fill="#271C28"/>
<path d="M276.929 161.216H273.136V199.381H276.929V161.216Z" fill="#070508"/>
<path d="M360.448 198.857H270.226V204.97H360.448V198.857Z" fill="#271C28"/>
<path d="M275.606 149.164V158.684C275.606 159.208 274.106 159.732 274.106 160.343V200.778C274.106 203.049 273.136 203.922 271.196 203.922C269.256 203.922 221.278 204.184 221.278 204.184C221.278 204.184 221.278 178.421 221.278 177.984C221.278 177.46 221.367 175.801 222.866 175.626C224.365 175.452 231.244 174.316 231.244 174.316C231.244 174.316 233.096 156.326 233.537 151.522V151.435C233.89 147.592 235.125 147.33 239.534 147.33H272.519C274.459 147.33 275.606 146.981 275.606 149.164Z" fill="#E0E0E0"/>
<path d="M245.179 198.769V205.057H271.284C273.224 205.057 276.928 202.961 276.928 200.691V198.769H245.179Z" fill="#1C151D"/>
<path d="M257.702 203.835C257.702 204.446 256.997 204.97 256.027 204.97H221.631C220.749 204.97 220.573 204.446 220.573 203.835V199.992C220.573 199.381 220.749 198.857 221.631 198.857H256.027C256.909 198.857 257.702 199.381 257.702 199.992V203.835Z" fill="#1C151D"/>
<path d="M246.678 204.97C246.678 198.857 251.705 193.966 257.791 193.966C263.964 193.966 268.903 198.944 268.903 204.97H246.678Z" fill="#161016"/>
<path d="M267.315 204.97C267.315 210.123 263.082 214.315 257.879 214.315C252.675 214.315 248.442 210.123 248.442 204.97C248.442 199.817 252.675 195.625 257.879 195.625C263.082 195.625 267.315 199.817 267.315 204.97Z" fill="#0A070A"/>
<path d="M263.699 204.97C263.699 208.114 261.054 210.734 257.879 210.734C254.704 210.734 252.058 208.114 252.058 204.97C252.058 201.826 254.704 199.206 257.879 199.206C261.142 199.206 263.699 201.739 263.699 204.97Z" fill="#CCCCCC"/>
<path d="M259.113 204.97C259.113 205.581 258.584 206.105 257.967 206.105C257.349 206.105 256.82 205.581 256.82 204.97C256.82 204.359 257.349 203.835 257.967 203.835C258.584 203.835 259.113 204.359 259.113 204.97Z" fill="#919191"/>
<path d="M261.847 200.691C262.553 201.651 262.994 202.787 262.994 204.097C262.994 207.241 260.348 209.861 257.173 209.861C255.674 209.861 254.351 209.337 253.292 208.376C254.351 209.773 256.026 210.734 257.967 210.734C261.142 210.734 263.788 208.114 263.788 204.97C263.699 203.223 262.994 201.739 261.847 200.691Z" fill="#CCCCCC"/>
<path d="M325.435 204.97C325.435 198.857 330.462 193.966 336.547 193.966C342.721 193.966 347.66 198.944 347.66 204.97H325.435Z" fill="#161016"/>
<path d="M336.636 191.958C329.316 191.958 323.319 197.809 323.319 205.145H325.612C325.612 199.119 330.55 194.228 336.636 194.228C342.721 194.228 347.66 199.119 347.66 205.145H349.953C349.865 197.809 343.956 191.958 336.636 191.958Z" fill="#616161"/>
<path d="M346.161 204.97C346.161 210.123 341.927 214.315 336.724 214.315C331.52 214.315 327.287 210.123 327.287 204.97C327.287 199.817 331.52 195.625 336.724 195.625C341.927 195.625 346.161 199.817 346.161 204.97Z" fill="#0A070A"/>
<path d="M342.545 204.97C342.545 208.114 339.899 210.734 336.724 210.734C333.549 210.734 330.903 208.114 330.903 204.97C330.903 201.826 333.549 199.206 336.724 199.206C339.987 199.206 342.545 201.739 342.545 204.97Z" fill="#CCCCCC"/>
<path d="M337.87 204.97C337.87 205.581 337.341 206.105 336.724 206.105C336.107 206.105 335.577 205.581 335.577 204.97C335.577 204.359 336.107 203.835 336.724 203.835C337.429 203.835 337.87 204.359 337.87 204.97Z" fill="#919191"/>
<path d="M340.604 200.691C341.31 201.651 341.751 202.787 341.751 204.097C341.751 207.241 339.105 209.861 335.93 209.861C334.431 209.861 333.108 209.337 332.05 208.376C333.108 209.773 334.784 210.734 336.724 210.734C339.899 210.734 342.545 208.114 342.545 204.97C342.545 203.223 341.839 201.739 340.604 200.691Z" fill="#CCCCCC"/>
<path d="M233.449 153.444C232.92 159.208 231.332 174.229 231.332 174.229H234.154L235.83 153.444H233.449Z" fill="#201E33"/>
<path d="M256.115 153.444H238.3V174.229H256.115V153.444Z" fill="#201E33"/>
<path d="M236.977 152.308V197.197C236.977 197.197 245.62 197.197 246.59 197.197C248.971 190.648 256.82 188.988 256.82 188.988V152.308H236.977Z" stroke="#B3B3B3" stroke-width="0.8366" stroke-miterlimit="10"/>
<path d="M224.541 180.342H221.366V191.434H224.541V180.342Z" fill="#B3B3B3"/>
<path d="M223.748 181.914H221.366V189.861H223.748V181.914Z" fill="#B3B3B3"/>
<path d="M223.748 183.574H221.366V188.202H223.748V183.574Z" fill="#B3B3B3"/>
<path d="M223.748 185.233H221.366V186.63H223.748V185.233Z" fill="#B3B3B3"/>
<path d="M223.748 197.197H221.366V192.569H222.954L223.748 197.197Z" fill="#FF8C0F"/>
<path d="M223.307 195.975C223.307 196.324 222.954 196.673 222.601 196.673C222.249 196.673 221.896 196.324 221.896 195.975C221.896 195.625 222.249 195.276 222.601 195.276C222.954 195.276 223.307 195.538 223.307 195.975Z" fill="#FFBA11"/>
<path d="M272.607 185.932C272.607 186.281 272.254 186.63 271.902 186.63H266.169C265.816 186.63 265.463 186.281 265.463 185.932C265.463 185.582 265.816 185.233 266.169 185.233H271.902C272.254 185.233 272.607 185.495 272.607 185.932Z" fill="#999999"/>
<path d="M271.637 188.202C271.637 188.552 271.284 188.901 270.931 188.901H265.199C264.846 188.901 264.493 188.552 264.493 188.202C264.493 187.853 264.846 187.504 265.199 187.504H270.931C271.372 187.504 271.637 187.853 271.637 188.202Z" fill="#999999"/>
<path d="M270.226 190.56C270.226 190.91 269.873 191.259 269.52 191.259H263.788C263.435 191.259 263.082 190.91 263.082 190.56C263.082 190.211 263.435 189.862 263.788 189.862H269.52C269.873 189.862 270.226 190.211 270.226 190.56Z" fill="#999999"/>
<path d="M269.52 155.016H259.819V176.674H269.52V155.016Z" stroke="#B3B3B3" stroke-width="0.8366" stroke-miterlimit="10"/>
<path d="M354.892 183.748C354.892 184.185 355.245 184.534 355.686 184.534C356.127 184.534 356.479 184.185 356.479 183.748C356.479 183.312 356.127 182.962 355.686 182.962C355.156 182.962 354.892 183.312 354.892 183.748Z" fill="#444444"/>
<path d="M354.892 161.304C354.892 161.74 355.245 162.09 355.686 162.09C356.127 162.09 356.479 161.74 356.479 161.304C356.479 160.867 356.127 160.518 355.686 160.518C355.156 160.518 354.892 160.867 354.892 161.304Z" fill="#444444"/>
<path d="M354.892 150.212C354.892 150.649 355.245 150.998 355.686 150.998C356.127 150.998 356.479 150.649 356.479 150.212C356.479 149.776 356.127 149.426 355.686 149.426C355.156 149.426 354.892 149.776 354.892 150.212Z" fill="#444444"/>
<path d="M354.892 172.395C354.892 172.832 355.245 173.181 355.686 173.181C356.127 173.181 356.479 172.832 356.479 172.395C356.479 171.958 356.127 171.609 355.686 171.609C355.156 171.696 354.892 172.046 354.892 172.395Z" fill="#444444"/>
<path d="M277.722 183.748C277.722 184.185 278.075 184.534 278.516 184.534C278.957 184.534 279.31 184.185 279.31 183.748C279.31 183.312 278.957 182.962 278.516 182.962C278.075 182.962 277.722 183.312 277.722 183.748Z" fill="#444444"/>
<path d="M277.722 161.304C277.722 161.74 278.075 162.09 278.516 162.09C278.957 162.09 279.31 161.74 279.31 161.304C279.31 160.867 278.957 160.518 278.516 160.518C278.075 160.518 277.722 160.867 277.722 161.304Z" fill="#444444"/>
<path d="M277.722 150.212C277.722 150.649 278.075 150.998 278.516 150.998C278.957 150.998 279.31 150.649 279.31 150.212C279.31 149.776 278.957 149.426 278.516 149.426C278.075 149.426 277.722 149.776 277.722 150.212Z" fill="#444444"/>
<path d="M277.722 172.395C277.722 172.832 278.075 173.181 278.516 173.181C278.957 173.181 279.31 172.832 279.31 172.395C279.31 171.958 278.957 171.609 278.516 171.609C278.075 171.696 277.722 172.046 277.722 172.395Z" fill="#444444"/>
<path d="M44.8024 215.013C39.599 215.013 35.4539 216.149 35.4539 217.459C35.4539 218.856 39.6872 219.904 44.8024 219.904C50.0058 219.904 54.1509 218.769 54.1509 217.459C54.1509 216.149 50.0058 215.013 44.8024 215.013Z" fill="#98A9AD"/>
<path d="M103.099 217.633C103.099 216.236 93.3091 215.188 81.2265 215.188C69.144 215.188 59.3545 216.323 59.3545 217.633C59.3545 219.031 69.144 220.079 81.2265 220.079C93.3091 220.079 103.099 219.031 103.099 217.633Z" fill="#98A9AD"/>
<path d="M115.446 219.817C114.828 219.817 114.211 219.817 113.594 219.817C112.359 219.642 110.771 219.555 109.007 219.555C105.127 219.555 101.864 220.079 101.864 220.603C101.864 221.214 105.039 221.651 109.007 221.651C109.625 221.651 110.242 221.651 110.86 221.651C112.094 221.825 113.682 221.913 115.446 221.913C119.326 221.913 122.589 221.389 122.589 220.865C122.589 220.253 119.414 219.817 115.446 219.817Z" fill="#98A9AD"/>
<path d="M48.5947 151.26C48.5947 151.26 49.4767 150.649 50.0058 150.212C51.4169 149.339 53.3572 149.688 53.3572 149.688C53.3572 149.688 53.3572 150.212 51.9461 150.998C50.4468 151.697 48.5947 151.26 48.5947 151.26Z" fill="#870A05"/>
<path d="M56.7084 176.762C56.7084 176.762 48.4182 175.277 47.8891 174.578C46.9189 173.268 45.8606 169.513 45.8606 169.513L48.0654 168.465L49.7411 172.657L56.7084 175.452V176.762Z" fill="#FDAB70"/>
<path d="M48.9475 169.513C48.2419 166.98 47.0072 163.574 46.8308 163.138C46.1253 161.391 43.8322 163.574 44.0968 164.797C44.2732 165.408 44.9788 167.679 45.7725 170.386L48.9475 169.513Z" fill="#FF3300"/>
<path d="M58.9133 178.159C58.2078 177.984 56.7085 176.762 56.7085 176.762L56.7967 175.539C56.7967 175.539 58.2078 175.364 58.7369 175.539C59.3543 175.801 59.7071 178.421 58.9133 178.159Z" fill="#FDAB70"/>
<path d="M42.5977 213.965C42.3331 215.013 41.9803 216.061 43.0387 216.585C43.656 216.847 47.0074 217.546 48.2421 217.546C49.124 217.546 50.1824 217.546 50.2706 217.197C50.3588 216.847 50.0942 216.061 49.6532 215.974C48.4185 215.799 47.1838 215.537 46.2136 214.227C45.6845 213.878 42.4213 213.616 42.5977 213.965Z" fill="#030000"/>
<path d="M48.4184 183.137C48.4184 183.137 40.8337 174.578 39.4226 179.993C38.0115 185.495 40.2163 190.473 40.2163 190.473L42.9503 198.507C43.7441 204.359 42.5976 213.965 42.5976 213.965L46.7427 214.664L47.8892 198.507L48.4184 183.137Z" fill="#6A0605"/>
<path d="M39.4226 215.013C39.0698 216.061 38.6288 217.109 39.6872 217.633C40.3045 217.983 43.3913 219.031 44.626 219.031C45.2434 219.031 46.6545 219.205 46.8309 218.769C47.0072 218.419 46.7427 217.546 46.3017 217.459C45.067 217.197 43.8323 216.847 43.0385 215.45C42.5975 215.013 39.3344 214.577 39.4226 215.013Z" fill="#170300"/>
<path d="M45.7725 188.552C45.7725 188.552 49.1239 185.408 48.5065 181.041C48.1538 178.072 39.6872 178.421 39.0698 180.954C38.5406 183.486 39.599 191.608 39.599 191.608L40.9219 200.341L38.9816 215.101L43.3913 216.149L46.0371 200.167L45.7725 188.552Z" fill="#B40806"/>
<path d="M46.7426 164.972C45.5961 164.972 42.4211 162.264 42.4211 162.264C42.4211 162.264 43.0385 160.343 41.892 158.684C41.8038 158.509 42.5975 158.596 43.4795 158.684C43.5677 158.684 43.6558 158.684 43.744 158.684C44.0968 158.771 44.5378 158.858 44.8906 158.946C45.6843 159.12 46.3017 159.47 46.2135 159.732C46.2135 159.819 46.1253 159.906 46.1253 159.994C45.6843 160.867 45.3315 161.566 45.6843 161.915C45.7725 162.002 45.8607 162.09 46.0371 162.09C46.478 162.264 47.8891 164.972 46.7426 164.972Z" fill="#FDAB70"/>
<path d="M46.2134 159.819C46.2134 159.906 46.1252 159.994 46.1252 160.081C45.6843 160.954 45.3315 161.653 45.6843 162.002C45.0669 161.74 44.4496 161.304 44.0968 160.692C43.6558 160.081 43.5676 159.382 43.5676 158.684C43.6558 158.684 43.744 158.684 43.8322 158.684C44.185 158.771 44.626 158.858 44.9787 158.946C45.7725 159.208 46.3898 159.557 46.2134 159.819Z" fill="#DE8556"/>
<path d="M39.0699 180.866L48.5066 180.954C48.5066 180.954 48.0656 175.626 48.3302 171.696C48.3302 162.439 46.0372 162.177 46.0372 162.177C46.0372 162.177 45.8608 162.788 44.6261 162.788C43.0386 162.788 42.4212 162.177 42.4212 162.177C42.4212 162.177 40.9219 162.701 39.7754 163.574C38.0997 164.972 39.0699 180.866 39.0699 180.866Z" fill="#FF4000"/>
<path d="M48.3302 171.784C48.3302 170.474 48.242 169.426 48.242 168.465H43.8323V178.945H38.9817C39.0699 180.168 38.9817 181.74 38.9817 181.74L48.5066 181.478C48.5066 181.39 48.1538 175.714 48.3302 171.784Z" fill="#B40806"/>
<path d="M49.565 155.889C49.3886 160.081 47.7129 160.867 45.7726 160.867C44.0088 160.867 41.0984 160.081 41.0984 155.54C41.0984 150.911 40.1282 147.418 44.6261 147.418C50.4469 147.418 49.7414 151.173 49.565 155.889Z" fill="#FDAB70"/>
<path d="M47.4482 157.548C47.4482 157.548 47.1836 158.334 46.1253 158.422C45.4197 158.509 44.9788 157.548 44.9788 157.548H47.4482Z" fill="white"/>
<path d="M47.4482 157.548C47.2718 157.898 47.0072 158.771 46.1253 158.684C45.4197 158.684 45.067 157.898 44.9788 157.548C44.9788 157.548 45.2433 158.422 46.2135 158.422C46.919 158.422 47.4482 157.548 47.4482 157.548Z" fill="#DE8556"/>
<path d="M46.6545 155.976C46.6545 156.064 46.3899 156.238 46.0372 156.238C45.5962 156.238 45.5962 155.54 45.5962 155.54C45.5962 155.54 45.6844 155.889 46.0372 155.889C46.3899 155.889 46.6545 155.889 46.6545 155.976Z" fill="#CBB6B3"/>
<path d="M48.8592 154.142C48.8592 154.404 48.6828 154.579 48.4183 154.579C48.1537 154.579 47.9773 154.404 47.9773 154.142C47.9773 153.88 48.1537 153.706 48.4183 153.706C48.6828 153.706 48.8592 153.968 48.8592 154.142Z" fill="#0D060C"/>
<path d="M48.681 153.968C48.681 154.055 48.5932 154.142 48.5055 154.142C48.4178 154.142 48.3301 154.055 48.3301 153.968C48.3301 153.88 48.4178 153.793 48.5055 153.793C48.5932 153.88 48.681 153.88 48.681 153.968Z" fill="white"/>
<path d="M49.3885 155.278C49.3885 155.452 49.0357 155.627 48.5948 155.627C48.1538 155.627 47.801 155.452 47.801 155.278C47.801 155.103 48.1538 154.928 48.5948 154.928C49.0357 154.928 49.3885 155.103 49.3885 155.278Z" fill="#FB8D74"/>
<path d="M43.3911 154.142C43.3911 154.404 43.5675 154.579 43.8321 154.579C44.0967 154.579 44.2731 154.404 44.2731 154.142C44.2731 153.88 44.0967 153.706 43.8321 153.706C43.5675 153.706 43.3911 153.968 43.3911 154.142Z" fill="#0D060C"/>
<path d="M43.5674 153.968C43.5674 154.055 43.6551 154.142 43.7428 154.142C43.8306 154.142 43.9183 154.055 43.9183 153.968C43.9183 153.88 43.8306 153.793 43.7428 153.793C43.6551 153.88 43.5674 153.88 43.5674 153.968Z" fill="white"/>
<path d="M43.0385 152.396C43.2149 152.308 43.303 152.221 43.4794 152.221C43.6558 152.221 43.8322 152.134 44.0086 152.134C44.0968 152.134 44.185 152.134 44.2732 152.221C44.3614 152.308 44.4496 152.308 44.4496 152.308C44.5378 152.396 44.3614 152.57 44.2732 152.57C44.185 152.57 44.0968 152.483 43.9204 152.483C43.8322 152.483 43.6558 152.483 43.4794 152.483C43.303 152.483 43.2149 152.483 43.0385 152.57C43.0385 152.658 42.9503 152.483 43.0385 152.396Z" fill="#0D060C"/>
<path d="M49.1239 152.396C48.9475 152.308 48.8593 152.221 48.6829 152.221C48.5065 152.221 48.3301 152.134 48.1537 152.134C48.0655 152.134 47.9773 152.134 47.8891 152.221C47.801 152.308 47.7128 152.308 47.7128 152.308C47.6246 152.396 47.801 152.57 47.8891 152.57C47.9773 152.57 48.0655 152.483 48.2419 152.483C48.3301 152.483 48.5065 152.483 48.6829 152.483C48.8593 152.483 48.9475 152.483 49.1239 152.57C49.1239 152.658 49.2121 152.483 49.1239 152.396Z" fill="#0D060C"/>
<path d="M42.8621 155.278C42.8621 155.452 43.2148 155.627 43.6558 155.627C44.0968 155.627 44.4496 155.452 44.4496 155.278C44.4496 155.103 44.0968 154.928 43.6558 154.928C43.2148 154.928 42.8621 155.103 42.8621 155.278Z" fill="#FB8D74"/>
<path d="M49.6531 153.182C49.6531 153.182 50.3586 150.3 49.6531 148.378C48.9475 146.457 47.0954 145.933 45.508 145.846C43.8323 145.758 41.451 145.846 41.0101 146.981C38.5407 146.457 39.599 154.754 39.599 154.754C39.599 154.754 40.7455 153.706 42.0684 153.356C40.9219 150.387 44.1851 150.125 47.2718 150.3C49.5649 150.387 49.6531 153.182 49.6531 153.182Z" fill="#0D060C"/>
<path d="M39.4224 155.278C39.4224 155.976 40.0397 157.286 41.098 156.937C41.8918 156.762 42.2446 156.326 42.2446 155.54C42.2446 154.754 41.4508 155.627 41.1862 154.841C40.7453 153.793 39.4224 154.23 39.4224 155.278Z" fill="#FDAB70"/>
<path d="M41.0101 154.928C40.8337 154.492 40.3045 153.706 39.599 154.666C39.5108 153.618 40.04 152.832 40.1281 152.046C40.5691 149.164 40.5691 151.872 41.9802 153.269C40.7455 153.968 41.8038 155.365 41.8038 155.365L41.3629 155.802C41.3629 155.889 41.0101 155.365 41.0101 154.928Z" fill="#0D060C"/>
<path d="M48.3301 150.998C45.2433 151.086 39.158 151.086 39.158 150.824C39.158 146.806 41.1864 145.496 44.7142 145.496C47.9773 145.496 49.9176 146.02 50.1822 150.038C50.1822 150.212 49.3884 150.474 48.3301 150.998Z" fill="#FD2012"/>
<path d="M49.565 150.736C48.2421 151.784 45.5081 151.784 44.5379 151.61C43.215 151.348 42.9504 150.998 42.9504 150.998C42.9504 150.998 46.6546 150.038 48.9476 149.688C51.858 149.252 53.1809 149.688 53.1809 149.688C53.1809 149.688 50.9761 149.688 49.565 150.736Z" fill="#FE120A"/>
<path d="M100.982 215.537C100.982 217.022 99.7471 218.245 98.2478 218.245C97.7187 218.245 97.3659 218.245 97.3659 218.245C97.3659 218.245 96.7485 212.83 98.2478 212.83C99.7471 212.83 100.982 214.053 100.982 215.537Z" fill="#0E0A0E"/>
<path d="M100.012 215.537C100.012 217.022 98.777 218.245 97.2777 218.245C95.7784 218.245 94.5437 217.022 94.5437 215.537C94.5437 214.053 95.7784 212.83 97.2777 212.83C98.777 212.83 100.012 214.053 100.012 215.537Z" fill="#1C151D"/>
<path d="M98.8652 215.537C98.8652 216.411 98.1596 217.109 97.2777 217.109C96.3957 217.109 95.6902 216.411 95.6902 215.537C95.6902 214.664 96.3957 213.965 97.2777 213.965C98.1596 214.053 98.8652 214.751 98.8652 215.537Z" fill="#8C8C8C"/>
<path d="M97.4541 216.935C96.5722 216.935 95.8666 216.236 95.8666 215.363C95.8666 215.013 96.043 214.664 96.2194 214.402C95.8666 214.664 95.6021 215.101 95.6021 215.625C95.6021 216.498 96.3076 217.197 97.1895 217.197C97.6305 217.197 98.0715 216.935 98.4242 216.673C98.2479 216.76 97.8951 216.935 97.4541 216.935Z" fill="#4D4D4D"/>
<path d="M72.4071 214.839C72.4071 216.323 71.1724 217.546 69.6731 217.546C69.144 217.546 68.7912 217.546 68.7912 217.546C68.7912 217.546 68.1738 212.131 69.6731 212.131C71.1724 212.131 72.4071 213.354 72.4071 214.839Z" fill="#0E0A0E"/>
<path d="M71.437 214.839C71.437 216.323 70.2023 217.546 68.703 217.546C67.2037 217.546 65.969 216.323 65.969 214.839C65.969 213.354 67.2037 212.131 68.703 212.131C70.2905 212.131 71.437 213.354 71.437 214.839Z" fill="#1C151D"/>
<path d="M70.2905 214.839C70.2905 215.712 69.5849 216.411 68.703 216.411C67.821 216.411 67.1155 215.712 67.1155 214.839C67.1155 213.965 67.821 213.267 68.703 213.267C69.5849 213.267 70.2905 213.965 70.2905 214.839Z" fill="#8C8C8C"/>
<path d="M68.9675 216.149C68.0856 216.149 67.3801 215.45 67.3801 214.577C67.3801 214.227 67.5565 213.878 67.7328 213.616C67.3801 213.878 67.1155 214.315 67.1155 214.839C67.1155 215.712 67.821 216.411 68.703 216.411C69.1439 216.411 69.5849 216.149 69.9377 215.887C69.6731 216.061 69.3203 216.149 68.9675 216.149Z" fill="#4D4D4D"/>
<path d="M69.2321 215.537C69.2321 217.022 67.9974 218.245 66.4981 218.245C65.9689 218.245 65.6161 218.245 65.6161 218.245C65.6161 218.245 64.9988 212.83 66.4981 212.83C67.9974 212.83 69.2321 214.053 69.2321 215.537Z" fill="#0E0A0E"/>
<path d="M68.262 215.537C68.262 217.022 67.0273 218.245 65.528 218.245C64.0287 218.245 62.7939 217.022 62.7939 215.537C62.7939 214.053 64.0287 212.83 65.528 212.83C67.0273 212.83 68.262 214.053 68.262 215.537Z" fill="#1C151D"/>
<path d="M67.1154 215.537C67.1154 216.411 66.4099 217.109 65.5279 217.109C64.646 217.109 63.9404 216.411 63.9404 215.537C63.9404 214.664 64.646 213.965 65.5279 213.965C66.4099 214.053 67.1154 214.751 67.1154 215.537Z" fill="#8C8C8C"/>
<path d="M65.7925 216.935C64.9106 216.935 64.205 216.236 64.205 215.363C64.205 215.013 64.3814 214.664 64.5578 214.402C64.205 214.664 63.9404 215.101 63.9404 215.625C63.9404 216.498 64.646 217.197 65.5279 217.197C65.9689 217.197 66.4099 216.935 66.7626 216.673C66.498 216.76 66.1453 216.935 65.7925 216.935Z" fill="#4D4D4D"/>
<path d="M97.7187 215.537C97.7187 217.022 96.484 218.245 94.9847 218.245C94.4555 218.245 94.1027 218.245 94.1027 218.245C94.1027 218.245 93.4854 212.83 94.9847 212.83C96.484 212.83 97.7187 214.053 97.7187 215.537Z" fill="#0E0A0E"/>
<path d="M96.8367 215.537C96.8367 217.022 95.602 218.245 94.1027 218.245C92.6034 218.245 91.3687 217.022 91.3687 215.537C91.3687 214.053 92.6034 212.83 94.1027 212.83C95.602 212.83 96.8367 214.053 96.8367 215.537Z" fill="#1C151D"/>
<path d="M95.602 215.537C95.602 216.411 94.8964 217.109 94.0145 217.109C93.1325 217.109 92.427 216.411 92.427 215.537C92.427 214.664 93.1325 213.965 94.0145 213.965C94.8964 214.053 95.602 214.751 95.602 215.537Z" fill="#8C8C8C"/>
<path d="M94.2791 216.935C93.3971 216.935 92.6916 216.236 92.6916 215.363C92.6916 215.013 92.868 214.664 93.0444 214.402C92.6916 214.664 92.427 215.101 92.427 215.625C92.427 216.498 93.1325 217.197 94.0145 217.197C94.4555 217.197 94.8964 216.935 95.2492 216.673C94.9846 216.76 94.6318 216.935 94.2791 216.935Z" fill="#4D4D4D"/>
<path d="M67.3801 197.459C67.3801 197.459 76.7287 197.983 76.7287 202.088C76.7287 205.232 76.7287 210.909 76.7287 210.909H68.9676L67.3801 197.459Z" fill="#DE3100"/>
<path d="M54.7683 174.491C54.7683 174.491 57.9433 178.159 58.3842 178.77C60.0599 180.866 60.5891 183.137 59.0016 184.447C57.4141 185.757 55.2093 184.709 53.5336 182.7C53.0044 182.089 50.094 178.246 50.094 178.246L48.9475 179.12C48.9475 179.12 52.0343 182.875 52.4753 183.486C54.7683 186.281 57.8551 187.504 60.0599 185.757C62.2648 184.01 61.6474 180.692 59.4426 177.897C59.0016 177.286 55.9148 173.53 55.9148 173.53L54.7683 174.491Z" fill="#2B2E39"/>
<path d="M56.0029 174.84C56.2675 175.102 56.2675 175.539 56.0029 175.714L50.8877 179.731C50.7113 179.906 50.2703 179.818 50.0939 179.556C49.8294 179.294 49.8294 178.858 50.0939 178.683L55.2092 174.578C55.3856 174.404 55.8265 174.491 56.0029 174.84Z" fill="#2B2E39"/>
<path d="M64.9989 197.547L59.0017 184.534L60.2364 184.01L66.2336 197.023L64.9989 197.547Z" fill="#2B2E39"/>
<path d="M67.3801 197.459C67.3801 197.459 64.2051 197.896 64.2051 201.389C64.2051 204.009 64.2051 208.813 64.2051 208.813H67.3801V197.459Z" fill="#2B2E39"/>
<path d="M67.3801 197.459C67.3801 197.459 70.5551 197.983 70.5551 202.088C70.5551 205.232 70.5551 210.909 70.5551 210.909H67.3801V197.459Z" fill="#FF4D00"/>
<path d="M67.3801 197.547C67.3801 198.42 66.6745 199.119 65.7926 199.119C64.9106 199.119 64.2051 198.42 64.2051 197.547C64.2051 196.673 64.9106 195.975 65.7926 195.975C66.6745 195.975 67.3801 196.673 67.3801 197.547Z" fill="#21232C"/>
<path d="M66.5863 197.547C66.5863 197.983 66.2335 198.333 65.7925 198.333C65.3516 198.333 64.9988 197.983 64.9988 197.547C64.9988 197.11 65.3516 196.761 65.7925 196.761C66.2335 196.761 66.5863 197.11 66.5863 197.547Z" fill="#14151B"/>
<path d="M61.5593 184.884C61.5593 185.757 60.8537 186.456 59.9718 186.456C59.0898 186.456 58.3843 185.757 58.3843 184.884C58.3843 184.01 59.0898 183.312 59.9718 183.312C60.8537 183.312 61.5593 184.01 61.5593 184.884Z" fill="#21232C"/>
<path d="M60.7655 184.884C60.7655 185.32 60.4127 185.67 59.9717 185.67C59.5308 185.67 59.178 185.32 59.178 184.884C59.178 184.447 59.5308 184.098 59.9717 184.098C60.4127 184.098 60.7655 184.447 60.7655 184.884Z" fill="#14151B"/>
<path d="M67.38 207.852H62.5293V210.559H67.38V207.852Z" fill="#2B2E39"/>
<path d="M100.894 210.559H61.3828V213.267H100.894V210.559Z" fill="#FF4D00"/>
<path d="M86.3417 171.784H81.4028V181.478H86.3417V171.784Z" fill="#D76625"/>
<path d="M84.4895 171.784H82.9902V174.666H84.4895V171.784Z" fill="#E5D3C0"/>
<path d="M81.4909 171.784H72.407V181.478H81.4909V171.784Z" fill="#FD9438"/>
<path opacity="0.5" d="M72.7598 181.041V172.133H81.05L72.7598 181.041Z" fill="#FDD2B5"/>
<path d="M84.666 171.784H83.1667V174.578H84.666V171.784Z" fill="#E5E5E5"/>
<path d="M80.7854 178.421H77.4341V178.858H80.7854V178.421Z" fill="#53280E"/>
<path d="M80.7855 179.294H78.4924V179.731H80.7855V179.294Z" fill="#53280E"/>
<path d="M80.6973 180.08H79.9036V180.779H80.6973V180.08Z" stroke="#53280E" stroke-width="0.2471" stroke-miterlimit="10" stroke-linecap="round" stroke-linejoin="round"/>
<path d="M79.4624 180.08H78.6687V180.779H79.4624V180.08Z" stroke="#53280E" stroke-width="0.2471" stroke-miterlimit="10" stroke-linecap="round" stroke-linejoin="round"/>
<path d="M100.364 171.784H95.4255V181.478H100.364V171.784Z" fill="#D76625"/>
<path d="M98.4241 171.784H96.9248V174.666H98.4241V171.784Z" fill="#E5D3C0"/>
<path d="M95.4255 171.784H86.3416V181.478H95.4255V171.784Z" fill="#FD9438"/>
<path opacity="0.5" d="M86.6943 181.041V172.133H95.0727L86.6943 181.041Z" fill="#FDD2B5"/>
<path d="M98.6004 171.784H97.1011V174.578H98.6004V171.784Z" fill="#E5E5E5"/>
<path d="M94.72 178.421H91.3687V178.858H94.72V178.421Z" fill="#53280E"/>
<path d="M94.8082 179.294H92.5151V179.731H94.8082V179.294Z" fill="#53280E"/>
<path d="M94.6319 180.08H93.8381V180.779H94.6319V180.08Z" stroke="#53280E" stroke-width="0.2471" stroke-miterlimit="10" stroke-linecap="round" stroke-linejoin="round"/>
<path d="M93.397 180.08H92.6033V180.779H93.397V180.08Z" stroke="#53280E" stroke-width="0.2471" stroke-miterlimit="10" stroke-linecap="round" stroke-linejoin="round"/>
<path d="M86.3417 191.172H81.4028V200.865H86.3417V191.172Z" fill="#D76625"/>
<path d="M84.4895 191.172H82.9902V194.053H84.4895V191.172Z" fill="#E5D3C0"/>
<path d="M81.4909 191.172H72.407V200.865H81.4909V191.172Z" fill="#FD9438"/>
<path opacity="0.5" d="M72.7598 200.516V191.521H81.05L72.7598 200.516Z" fill="#FDD2B5"/>
<path d="M84.666 191.172H83.1667V193.966H84.666V191.172Z" fill="#E5E5E5"/>
<path d="M80.7854 197.809H77.4341V198.245H80.7854V197.809Z" fill="#53280E"/>
<path d="M80.7855 198.682H78.4924V199.119H80.7855V198.682Z" fill="#53280E"/>
<path d="M80.6973 199.468H79.9036V200.167H80.6973V199.468Z" stroke="#53280E" stroke-width="0.2471" stroke-miterlimit="10" stroke-linecap="round" stroke-linejoin="round"/>
<path d="M79.4624 199.468H78.6687V200.167H79.4624V199.468Z" stroke="#53280E" stroke-width="0.2471" stroke-miterlimit="10" stroke-linecap="round" stroke-linejoin="round"/>
<path d="M100.364 191.172H95.4255V200.865H100.364V191.172Z" fill="#D76625"/>
<path d="M98.4241 191.172H96.9248V194.053H98.4241V191.172Z" fill="#E5D3C0"/>
<path d="M95.4255 191.172H86.3416V200.865H95.4255V191.172Z" fill="#FD9438"/>
<path opacity="0.5" d="M86.6943 200.516V191.521H95.0727L86.6943 200.516Z" fill="#FDD2B5"/>
<path d="M98.6004 191.172H97.1011V193.966H98.6004V191.172Z" fill="#E5E5E5"/>
<path d="M94.72 197.809H91.3687V198.245H94.72V197.809Z" fill="#53280E"/>
<path d="M94.8082 198.682H92.5151V199.119H94.8082V198.682Z" fill="#53280E"/>
<path d="M94.6319 199.468H93.8381V200.167H94.6319V199.468Z" stroke="#53280E" stroke-width="0.2471" stroke-miterlimit="10" stroke-linecap="round" stroke-linejoin="round"/>
<path d="M93.397 199.468H92.6033V200.167H93.397V199.468Z" stroke="#53280E" stroke-width="0.2471" stroke-miterlimit="10" stroke-linecap="round" stroke-linejoin="round"/>
<path d="M86.3417 181.478H81.4028V191.172H86.3417V181.478Z" fill="#CB581F"/>
<path d="M84.4895 181.478H82.9902V184.36H84.4895V181.478Z" fill="#E5D3C0"/>
<path d="M81.4909 181.478H72.407V191.172H81.4909V181.478Z" fill="#EC832E"/>
<path opacity="0.5" d="M72.7598 190.822V181.827H81.05L72.7598 190.822Z" fill="#FDD2B5"/>
<path d="M84.666 181.478H83.1667V184.272H84.666V181.478Z" fill="#E5E5E5"/>
<path d="M80.7854 188.115H77.4341V188.552H80.7854V188.115Z" fill="#53280E"/>
<path d="M80.7855 188.988H78.4924V189.425H80.7855V188.988Z" fill="#53280E"/>
<path d="M80.6973 189.774H79.9036V190.473H80.6973V189.774Z" stroke="#53280E" stroke-width="0.2471" stroke-miterlimit="10" stroke-linecap="round" stroke-linejoin="round"/>
<path d="M79.4624 189.774H78.6687V190.473H79.4624V189.774Z" stroke="#53280E" stroke-width="0.2471" stroke-miterlimit="10" stroke-linecap="round" stroke-linejoin="round"/>
<path d="M100.364 181.478H95.4255V191.172H100.364V181.478Z" fill="#CB581F"/>
<path d="M98.4241 181.478H96.9248V184.36H98.4241V181.478Z" fill="#E5D3C0"/>
<path d="M95.4255 181.478H86.3416V191.172H95.4255V181.478Z" fill="#EC832E"/>
<path opacity="0.5" d="M86.6943 190.822V181.827H95.0727L86.6943 190.822Z" fill="#FDD2B5"/>
<path d="M98.6004 181.478H97.1011V184.272H98.6004V181.478Z" fill="#E5E5E5"/>
<path d="M94.72 188.115H91.3687V188.552H94.72V188.115Z" fill="#53280E"/>
<path d="M94.8082 188.988H92.5151V189.425H94.8082V188.988Z" fill="#53280E"/>
<path d="M94.6319 189.774H93.8381V190.473H94.6319V189.774Z" stroke="#53280E" stroke-width="0.2471" stroke-miterlimit="10" stroke-linecap="round" stroke-linejoin="round"/>
<path d="M93.397 189.774H92.6033V190.473H93.397V189.774Z" stroke="#53280E" stroke-width="0.2471" stroke-miterlimit="10" stroke-linecap="round" stroke-linejoin="round"/>
<path d="M86.3417 200.865H81.4028V210.559H86.3417V200.865Z" fill="#CB581F"/>
<path d="M84.4895 200.865H82.9902V203.747H84.4895V200.865Z" fill="#E5D3C0"/>
<path d="M81.4909 200.865H72.407V210.559H81.4909V200.865Z" fill="#EC832E"/>
<path opacity="0.5" d="M72.7598 210.21V201.215H81.05L72.7598 210.21Z" fill="#FDD2B5"/>
<path d="M84.666 200.865H83.1667V203.66H84.666V200.865Z" fill="#E5E5E5"/>
<path d="M80.7854 207.59H77.4341V208.027H80.7854V207.59Z" fill="#53280E"/>
<path d="M80.7855 208.463H78.4924V208.9H80.7855V208.463Z" fill="#53280E"/>
<path d="M80.6973 209.162H79.9036V209.861H80.6973V209.162Z" stroke="#53280E" stroke-width="0.2471" stroke-miterlimit="10" stroke-linecap="round" stroke-linejoin="round"/>
<path d="M79.4624 209.162H78.6687V209.861H79.4624V209.162Z" stroke="#53280E" stroke-width="0.2471" stroke-miterlimit="10" stroke-linecap="round" stroke-linejoin="round"/>
<path d="M100.364 200.865H95.4255V210.559H100.364V200.865Z" fill="#CB581F"/>
<path d="M98.4241 200.865H96.9248V203.747H98.4241V200.865Z" fill="#E5D3C0"/>
<path d="M95.4255 200.865H86.3416V210.559H95.4255V200.865Z" fill="#EC832E"/>
<path opacity="0.5" d="M86.6943 210.21V201.215H95.0727L86.6943 210.21Z" fill="#FDD2B5"/>
<path d="M98.6004 200.865H97.1011V203.66H98.6004V200.865Z" fill="#E5E5E5"/>
<path d="M94.72 207.59H91.3687V208.027H94.72V207.59Z" fill="#53280E"/>
<path d="M94.8082 208.463H92.5151V208.9H94.8082V208.463Z" fill="#53280E"/>
<path d="M94.6319 209.162H93.8381V209.861H94.6319V209.162Z" stroke="#53280E" stroke-width="0.2471" stroke-miterlimit="10" stroke-linecap="round" stroke-linejoin="round"/>
<path d="M93.397 209.162H92.6033V209.861H93.397V209.162Z" stroke="#53280E" stroke-width="0.2471" stroke-miterlimit="10" stroke-linecap="round" stroke-linejoin="round"/>
<path d="M50.7997 178.77C50.7997 178.77 41.7157 176.762 41.3629 175.888C40.7456 174.316 40.04 169.775 40.04 169.775L42.6859 169.338L43.656 174.578L52.1226 177.635L50.7997 178.77Z" fill="#FDAB70"/>
<path d="M43.1268 170.648C43.1268 168.028 42.4213 164.622 42.4213 164.098C42.2449 162.264 39.3345 163.749 39.3345 164.972C39.3345 165.583 39.8636 167.854 39.8636 170.736L43.1268 170.648Z" fill="#FF3300"/>
<path d="M57.9432 177.373C57.5905 177.548 57.4141 177.111 57.6787 176.936C57.9432 176.674 58.4724 176.325 58.8252 175.976C59.178 175.714 59.5307 176.325 59.178 176.5C58.8252 176.762 58.296 177.111 57.9432 177.373Z" fill="#FDAB70"/>
<path d="M58.3842 177.722C58.1196 177.897 57.855 177.46 58.1196 177.286C58.3842 177.111 58.8252 176.674 59.1779 176.412C59.4425 176.238 59.7953 176.762 59.5307 176.936C59.2661 177.286 58.737 177.548 58.3842 177.722Z" fill="#FDAB70"/>
<path d="M58.8253 178.072C58.5607 178.246 58.3844 177.897 58.5607 177.722C58.8253 177.548 59.1781 177.198 59.5309 176.936C59.7955 176.762 60.1482 177.198 59.8837 177.373C59.5309 177.635 59.0899 177.897 58.8253 178.072Z" fill="#FDAB70"/>
<path d="M57.6786 176.762C57.414 176.936 57.1495 176.5 57.414 176.325C57.6786 176.15 58.1196 175.714 58.4724 175.452C58.7369 175.277 59.0897 175.801 58.8251 175.976C58.5606 176.238 58.0314 176.587 57.6786 176.762Z" fill="#FDAB70"/>
<path d="M57.5905 176.587C57.8551 176.587 57.8551 177.024 57.6787 177.111C57.4141 177.198 57.0614 177.286 56.7968 177.286C56.5322 177.286 56.444 176.674 56.7086 176.674C56.9732 176.674 57.3259 176.587 57.5905 176.587Z" fill="#FDAB70"/>
<path d="M52.387 179.469C52.6516 179.731 52.2106 179.993 51.9461 179.818C51.6815 179.556 51.2405 179.12 50.9759 178.683C50.7113 178.334 51.2405 177.984 51.5051 178.246C51.6815 178.596 52.1224 179.12 52.387 179.469Z" fill="#FDAB70"/>
<path d="M52.74 178.945C52.9164 179.207 52.5636 179.469 52.299 179.294C52.0344 179.032 51.6817 178.683 51.4171 178.334C51.1525 178.072 51.6817 177.635 51.9462 177.897C52.1226 178.159 52.4754 178.596 52.74 178.945Z" fill="#FDAB70"/>
<path d="M53.0927 178.508C53.269 178.77 52.9163 178.945 52.7399 178.77C52.5635 178.596 52.2107 178.246 51.9461 177.897C51.7698 177.635 52.2107 177.286 52.3871 177.548C52.5635 177.81 52.8281 178.246 53.0927 178.508Z" fill="#FDAB70"/>
<path d="M51.7698 179.731C51.9462 179.993 51.5934 180.255 51.3288 180.08C51.0642 179.818 50.7114 179.469 50.4469 179.12C50.1823 178.858 50.7114 178.421 50.976 178.683C51.2406 178.945 51.5934 179.382 51.7698 179.731Z" fill="#FDAB70"/>
<path d="M51.5051 179.644C51.5051 179.382 51.9461 179.382 52.0343 179.556C52.1225 179.818 52.2107 179.906 52.2989 180.255C52.3871 180.517 51.6815 180.604 51.6815 180.342C51.5051 180.08 51.5051 179.906 51.5051 179.644Z" fill="#FDAB70"/>
<path d="M44.8905 168.814C44.9787 169.251 44.185 169.95 44.2732 169.164C42.7739 162.002 41.01 162.788 41.01 162.788L41.9801 162.352C41.8919 162.439 44.3614 163.4 44.8905 168.814Z" fill="#B40806"/>
<path d="M48.1538 168.465C48.242 168.902 47.4482 169.6 47.5364 168.814C46.8309 162.963 46.0371 162.264 46.0371 162.264C46.0371 162.264 47.6246 163.05 48.1538 168.465Z" fill="#B40806"/>
<path d="M107.332 156.064C107.332 156.064 106.45 155.452 105.921 155.016C104.51 154.142 102.569 154.492 102.569 154.492C102.569 154.492 102.569 155.016 104.069 155.802C105.48 156.5 107.332 156.064 107.332 156.064Z" fill="#870A05"/>
<path d="M99.218 181.652C99.218 181.652 107.508 180.168 108.037 179.469C109.008 178.159 110.066 174.404 110.066 174.404L107.861 173.356L106.185 177.548L99.218 180.342V181.652Z" fill="#FDAB70"/>
<path d="M107.067 174.316C107.773 171.784 109.008 168.378 109.184 167.941C109.89 166.194 112.183 168.378 111.918 169.6C111.742 170.212 111.036 172.482 110.242 175.19L107.067 174.316Z" fill="#FF3300"/>
<path d="M98.1597 182.875C98.8652 182.7 99.218 181.565 99.218 181.565L99.1298 180.342C99.1298 180.342 97.2778 180.255 97.0132 180.779C96.7486 181.216 97.4541 183.137 98.1597 182.875Z" fill="#FDAB70"/>
<path d="M110.86 217.459C111.124 218.507 111.389 219.642 110.33 220.079C109.713 220.341 106.362 220.952 105.127 220.865C104.245 220.865 103.187 220.865 103.099 220.428C103.01 220.079 103.275 219.293 103.804 219.205C105.039 219.118 106.273 218.856 107.332 217.633C107.685 217.197 110.948 217.109 110.86 217.459Z" fill="#030000"/>
<path d="M107.508 187.94C107.508 187.94 115.093 179.382 116.504 184.796C117.562 188.901 112.183 191.957 112.183 191.957L110.419 202.874L110.771 217.459L106.715 217.633L106.009 202.437L107.508 187.94Z" fill="#6A0605"/>
<path d="M118.973 218.419C119.15 219.467 119.326 220.603 118.268 220.952C117.651 221.127 114.299 221.651 113.153 221.389C112.535 221.301 111.124 221.127 111.036 220.777C110.948 220.428 111.301 219.642 111.83 219.642C113.064 219.642 114.299 219.555 115.446 218.332C115.887 217.895 119.15 218.07 118.973 218.419Z" fill="#170300"/>
<path d="M110.154 193.355C110.154 193.355 106.803 190.211 107.42 185.844C107.773 182.875 116.24 183.224 116.857 185.757C117.386 188.29 115.975 193.442 115.975 193.442L116.68 204.533L119.062 218.419H114.828L112.447 205.494L110.154 193.355Z" fill="#B40806"/>
<path d="M109.184 169.775C110.33 169.775 113.505 167.068 113.505 167.068C113.505 167.068 112.888 165.146 114.035 163.487C114.123 163.312 113.329 163.4 112.447 163.487C112.359 163.487 112.271 163.487 112.183 163.487C111.83 163.574 111.389 163.662 111.036 163.749C110.242 163.924 109.625 164.273 109.713 164.535C109.713 164.622 109.801 164.71 109.801 164.797C110.242 165.67 110.595 166.369 110.242 166.718C110.154 166.806 110.066 166.893 109.89 166.893C109.537 167.155 108.037 169.775 109.184 169.775Z" fill="#FDAB70"/>
<path d="M109.713 164.622C109.713 164.71 109.801 164.797 109.801 164.884C110.242 165.758 110.595 166.456 110.242 166.806C110.86 166.544 111.477 166.107 111.83 165.496C112.271 164.884 112.359 164.186 112.359 163.487C112.271 163.487 112.183 163.487 112.094 163.487C111.742 163.574 111.301 163.662 110.948 163.749C110.154 164.098 109.625 164.36 109.713 164.622Z" fill="#DE8556"/>
<path d="M116.857 185.757L107.42 185.844C107.42 185.844 107.861 180.517 107.597 176.587C107.597 167.33 109.89 167.068 109.89 167.068C109.89 167.068 110.066 167.679 111.212 167.679C112.8 167.679 113.417 167.068 113.417 167.068C113.417 167.068 114.917 167.592 116.063 168.465C117.827 169.775 116.857 185.757 116.857 185.757Z" fill="#FF4000"/>
<path d="M107.597 176.587C107.597 175.277 107.685 174.229 107.685 173.268H112.094V183.748H116.945C116.857 184.971 116.945 186.543 116.945 186.543L107.42 186.281C107.42 186.194 107.861 180.517 107.597 176.587Z" fill="#B40806"/>
<path d="M106.362 160.692C106.538 164.884 108.214 165.67 110.154 165.67C111.918 165.67 114.828 164.884 114.828 160.343C114.828 155.714 115.798 152.221 111.301 152.221C105.48 152.221 106.185 156.064 106.362 160.692Z" fill="#FDAB70"/>
<path d="M108.478 162.352C108.478 162.352 108.743 163.138 109.801 163.225C110.507 163.312 110.948 162.352 110.948 162.352H108.478Z" fill="white"/>
<path d="M108.478 162.352C108.655 162.701 108.919 163.574 109.801 163.487C110.507 163.487 110.86 162.701 110.948 162.352C110.948 162.352 110.683 163.225 109.713 163.225C109.007 163.225 108.478 162.352 108.478 162.352Z" fill="#DE8556"/>
<path d="M109.36 160.78C109.36 160.867 109.625 161.042 109.978 161.042C110.33 161.042 110.419 160.343 110.419 160.343C110.419 160.343 110.33 160.692 109.978 160.692C109.625 160.692 109.36 160.692 109.36 160.78Z" fill="#CBB6B3"/>
<path d="M107.067 158.946C107.067 159.208 107.244 159.382 107.508 159.382C107.773 159.382 107.949 159.208 107.949 158.946C107.949 158.684 107.773 158.509 107.508 158.509C107.244 158.596 107.067 158.771 107.067 158.946Z" fill="#0D060C"/>
<path d="M107.243 158.858C107.243 158.946 107.331 159.033 107.419 159.033C107.507 159.033 107.594 158.946 107.594 158.858C107.594 158.771 107.507 158.684 107.419 158.684C107.331 158.684 107.243 158.771 107.243 158.858Z" fill="white"/>
<path d="M106.538 160.081C106.538 160.256 106.891 160.43 107.332 160.43C107.773 160.43 108.126 160.256 108.126 160.081C108.126 159.906 107.773 159.732 107.332 159.732C106.891 159.732 106.538 159.906 106.538 160.081Z" fill="#FB8D74"/>
<path d="M112.535 158.946C112.535 159.208 112.359 159.382 112.094 159.382C111.83 159.382 111.653 159.208 111.653 158.946C111.653 158.684 111.83 158.509 112.094 158.509C112.359 158.596 112.535 158.771 112.535 158.946Z" fill="#0D060C"/>
<path d="M112.357 158.858C112.357 158.946 112.269 159.033 112.182 159.033C112.094 159.033 112.006 158.946 112.006 158.858C112.006 158.771 112.094 158.684 112.182 158.684C112.357 158.684 112.357 158.771 112.357 158.858Z" fill="white"/>
<path d="M112.888 157.286C112.712 157.199 112.623 157.112 112.447 157.112C112.271 157.112 112.094 157.024 111.918 157.024C111.83 157.024 111.741 157.024 111.653 157.112C111.565 157.199 111.477 157.199 111.477 157.199C111.389 157.286 111.565 157.461 111.653 157.461C111.741 157.461 111.83 157.374 112.006 157.374C112.094 157.374 112.271 157.374 112.447 157.374C112.623 157.374 112.712 157.374 112.888 157.461C112.888 157.461 113.064 157.286 112.888 157.286Z" fill="#0D060C"/>
<path d="M106.803 157.286C106.979 157.199 107.067 157.112 107.244 157.112C107.42 157.112 107.596 157.024 107.773 157.024C107.861 157.024 107.949 157.024 108.037 157.112C108.126 157.199 108.214 157.199 108.214 157.199C108.302 157.286 108.126 157.461 108.037 157.461C107.949 157.461 107.861 157.374 107.685 157.374C107.596 157.374 107.42 157.374 107.244 157.374C107.067 157.374 106.979 157.374 106.803 157.461C106.803 157.461 106.714 157.286 106.803 157.286Z" fill="#0D060C"/>
<path d="M113.065 160.081C113.065 160.256 112.712 160.43 112.271 160.43C111.83 160.43 111.477 160.256 111.477 160.081C111.477 159.906 111.83 159.732 112.271 159.732C112.712 159.732 113.065 159.906 113.065 160.081Z" fill="#FB8D74"/>
<path d="M106.274 157.985C106.274 157.985 105.568 155.103 106.274 153.182C106.979 151.26 108.831 150.736 110.419 150.649C112.094 150.562 114.476 150.649 114.917 151.784C117.386 151.26 116.328 159.557 116.328 159.557C116.328 159.557 115.181 158.509 113.858 158.16C115.005 155.19 111.742 154.928 108.655 155.103C106.362 155.19 106.274 157.985 106.274 157.985Z" fill="#0D060C"/>
<path d="M116.504 160.081C116.504 160.78 115.887 162.09 114.828 161.74C114.035 161.566 113.682 161.129 113.682 160.343C113.682 159.557 114.476 160.43 114.74 159.644C115.181 158.596 116.504 159.033 116.504 160.081Z" fill="#FDAB70"/>
<path d="M114.916 159.732C115.093 159.295 115.622 158.509 116.328 159.47C116.416 158.422 115.887 157.636 115.798 156.85C115.357 153.968 115.357 156.675 113.946 158.072C115.181 158.771 114.123 160.168 114.123 160.168L114.564 160.605C114.564 160.692 114.916 160.168 114.916 159.732Z" fill="#0D060C"/>
<path d="M107.596 155.802C110.683 155.889 116.769 155.889 116.769 155.627C116.769 151.61 114.74 150.3 111.212 150.3C107.949 150.3 106.009 150.824 105.744 154.841C105.833 155.103 106.538 155.278 107.596 155.802Z" fill="#FD2012"/>
<path d="M106.362 155.54C107.685 156.588 110.419 156.588 111.389 156.413C112.712 156.151 112.976 155.802 112.976 155.802C112.976 155.802 109.272 154.841 106.979 154.492C104.069 154.055 102.746 154.492 102.746 154.492C102.746 154.492 104.951 154.492 106.362 155.54Z" fill="#FE120A"/>
<path d="M111.036 173.705C110.948 174.142 111.742 174.84 111.654 174.054C113.153 166.893 114.917 167.679 114.917 167.679L113.947 167.242C114.035 167.242 111.565 168.203 111.036 173.705Z" fill="#B40806"/>
<path d="M107.773 173.268C107.685 173.705 108.479 174.404 108.39 173.618C109.096 167.766 109.89 167.068 109.89 167.068C109.89 167.068 108.302 167.854 107.773 173.268Z" fill="#B40806"/>
<path d="M105.215 183.574C105.215 183.574 114.299 181.565 114.652 180.692C115.269 179.12 115.975 174.578 115.975 174.578L113.329 174.142L112.359 179.382L104.333 182.264L103.363 181.565V183.748L105.215 183.574Z" fill="#FDAB70"/>
<path d="M112.8 175.452C112.8 172.832 113.505 169.426 113.505 168.902C113.682 167.068 116.592 168.552 116.592 169.775C116.592 170.386 116.063 172.657 116.063 175.539L112.8 175.452Z" fill="#FF3300"/>
<path d="M101.864 182.613C101.511 182.613 101.511 183.137 101.864 183.137C102.217 183.137 102.834 183.224 103.363 183.312C103.804 183.312 103.804 182.7 103.363 182.7C102.922 182.613 102.305 182.613 101.864 182.613Z" fill="#FDAB70"/>
<path d="M102.04 182.002C101.688 182.002 101.776 182.526 102.04 182.526C102.393 182.526 102.922 182.613 103.363 182.7C103.716 182.7 103.716 182.089 103.363 182.089C103.01 182.002 102.393 182.002 102.04 182.002Z" fill="#FDAB70"/>
<path d="M102.129 181.478C101.864 181.478 101.864 181.914 102.129 181.914C102.393 181.914 102.922 182.002 103.363 182.002C103.716 182.002 103.716 181.478 103.363 181.478C103.011 181.478 102.481 181.478 102.129 181.478Z" fill="#FDAB70"/>
<path d="M101.952 183.224C101.599 183.224 101.688 183.748 101.952 183.748C102.305 183.748 102.834 183.836 103.275 183.923C103.628 183.923 103.628 183.312 103.275 183.312C102.922 183.137 102.393 183.224 101.952 183.224Z" fill="#FDAB70"/>
<path d="M106.591 179.516L103.957 182.797L104.371 183.123L107.005 179.842L106.591 179.516Z" fill="#0A2861"/>
<path d="M109.537 185.408L109.625 185.146L102.481 178.421L96.1313 178.508L95.8667 178.683L109.537 185.408Z" fill="#AF1106"/>
<path d="M103.01 185.408H109.537L102.393 178.683H95.8667L103.01 185.408Z" fill="#FE330A"/>
<path d="M98.6888 184.447H104.245C104.245 184.447 104.774 183.923 104.333 183.312C103.451 181.74 102.04 179.207 101.952 178.945C101.776 178.421 102.305 178.421 102.305 178.421C102.305 178.421 102.128 178.159 101.599 178.159C100.982 178.159 98.8652 178.246 97.1895 178.246C96.3076 178.246 96.3958 178.77 96.3958 178.77C96.3958 178.77 98.6888 182.788 98.8652 183.486C99.1298 184.098 98.6888 184.447 98.6888 184.447Z" fill="white"/>
<path d="M98.7771 181.303C99.1298 181.128 98.7771 180.692 98.5125 180.866C98.1597 181.041 97.6305 181.303 97.1896 181.565C96.8368 181.74 97.1896 182.351 97.5424 182.089C97.8069 181.914 98.3361 181.565 98.7771 181.303Z" fill="#FDAB70"/>
<path d="M98.9536 181.914C99.2182 181.74 98.9536 181.303 98.689 181.478C98.4244 181.652 97.8953 181.827 97.4543 182.089C97.1015 182.264 97.5425 182.788 97.8071 182.613C98.1598 182.438 98.6008 182.089 98.9536 181.914Z" fill="#FDAB70"/>
<path d="M99.13 182.438C99.3946 182.264 99.13 181.914 98.8654 182.089C98.6008 182.264 98.1599 182.438 97.8071 182.613C97.5425 182.788 97.8071 183.224 98.0717 183.05C98.4245 182.875 98.7772 182.613 99.13 182.438Z" fill="#FDAB70"/>
<path d="M98.3361 180.866C98.6007 180.692 98.3361 180.255 98.0716 180.43C97.807 180.604 97.2778 180.779 96.8369 181.041C96.4841 181.216 96.925 181.74 97.1896 181.565C97.5424 181.39 97.9834 181.128 98.3361 180.866Z" fill="#FDAB70"/>
</g>
<defs>
<clipPath id="clip0_402_24784">
<rect width="375" height="222" fill="white"/>
</clipPath>
</defs>
</svg>
