<svg width="264" height="249" viewBox="0 0 264 249" fill="none" xmlns="http://www.w3.org/2000/svg">
<path d="M55.8968 184.26C49.4234 178.228 43.6033 171.273 38.6004 163.328C33.2358 154.809 29.4108 145.416 27.5847 135.592C24.1242 116.975 28.4302 96.7318 40.8769 82.125C53.3236 67.5188 74.1817 59.4431 93.3036 63.5553C116.791 68.6062 134.186 89.9305 157.978 93.4052C171.445 95.372 184.953 91.2796 198.171 88.0999C211.387 84.9203 225.832 82.7173 238.244 88.1322C252.016 94.1405 260.201 108.487 262.808 122.86C265.773 139.209 262.581 156.533 253.957 170.891C228.926 212.562 171.798 221.181 126.477 215.265C100.341 211.853 75.082 202.138 55.8968 184.26Z" fill="#FFEBDE"/>
<path d="M253.243 240.994H32.5583V166.536H56.1722V184.381L62.9107 189.459V100.197L62.9887 100.115L88.7134 73.0484V102.98H99.1984V166.771H111.153V91.4718H142.358V146.944H151.613V69.8603L164.402 83.3158H177.075V144.912H193.678V88.1418L206.511 74.6394L219.286 88.0813V139.604H222.535V96.5131H244.332V166.536H253.243V240.994ZM33.1235 240.429H252.678V167.101H243.767V97.0782H223.1V140.169H218.721V88.3074L206.511 75.46L194.243 88.3679V145.478H176.509V83.881H164.159L164.076 83.7928L152.178 71.2755V147.509H141.792V92.0375H111.719V167.337H98.6333V103.545H88.1483V74.4636L63.4764 100.423V190.593L55.607 184.663V167.101H33.1235V240.429Z" fill="#FFD0B0"/>
<path d="M207.806 123.672H205.214V79.7972H207.806V123.672ZM205.78 123.107H207.24V80.3624H205.78V123.107Z" fill="#FFD0B0"/>
<path d="M203.226 123.672H200.635V84.5925H203.226V123.672ZM201.2 123.106H202.661V85.1576H201.2V123.106Z" fill="#FFD0B0"/>
<path d="M198.646 123.671H196.056V89.1272H198.646V123.671ZM196.621 123.106H198.081V89.6924H196.621V123.106Z" fill="#FFD0B0"/>
<path d="M212.385 123.672H209.794V84.5925H212.385V123.672ZM210.359 123.106H211.82V85.1576H210.359V123.106Z" fill="#FFD0B0"/>
<path d="M216.965 123.671H214.374V89.1272H216.965V123.671ZM214.939 123.106H216.4V89.6924H214.939V123.106Z" fill="#FFD0B0"/>
<path d="M39.7968 173.911H35.5032V169.617H39.7968V173.911ZM36.0689 173.346H39.2322V170.182H36.0689V173.346Z" fill="#FFD0B0"/>
<path d="M46.4315 173.911H42.1379V169.617H46.4315V173.911ZM42.7031 173.346H45.8664V170.183H42.7031V173.346Z" fill="#FFD0B0"/>
<path d="M53.0648 173.911H48.7712V169.617H53.0648V173.911ZM49.3364 173.346H52.4996V170.183H49.3364V173.346Z" fill="#FFD0B0"/>
<path d="M39.7968 180.464H35.5032V176.171H39.7968V180.464ZM36.0689 179.899H39.2322V176.736H36.0689V179.899Z" fill="#FFD0B0"/>
<path d="M46.4315 180.464H42.1379V176.171H46.4315V180.464ZM42.7031 179.899H45.8664V176.736H42.7031V179.899Z" fill="#FFD0B0"/>
<path d="M53.0648 180.464H48.7712V176.171H53.0648V180.464ZM49.3364 179.899H52.4996V176.736H49.3364V179.899Z" fill="#FFD0B0"/>
<path d="M39.7968 187.018H35.5032V182.724H39.7968V187.018ZM36.0689 186.452H39.2322V183.289H36.0689V186.452Z" fill="#FFD0B0"/>
<path d="M46.4315 187.017H42.1379V182.724H46.4315V187.017ZM42.7031 186.452H45.8664V183.289H42.7031V186.452Z" fill="#FFD0B0"/>
<path d="M53.0648 187.017H48.7712V182.724H53.0648V187.017ZM49.3364 186.452H52.4996V183.289H49.3364V186.452Z" fill="#FFD0B0"/>
<path d="M119.414 100.016H114.833V95.4358H119.414V100.016ZM115.398 99.4513H118.849V96.001H115.398V99.4513Z" fill="#FFD0B0"/>
<path d="M125.724 100.016H121.143V95.4356H125.724V100.016ZM121.708 99.4511H125.158V96.0007H121.708V99.4511Z" fill="#FFD0B0"/>
<path d="M132.033 100.016H127.452V95.4356H132.033V100.016ZM128.017 99.4511H131.468V96.0007H128.017V99.4511Z" fill="#FFD0B0"/>
<path d="M138.342 100.016H133.762V95.4356H138.342V100.016ZM134.327 99.4511H137.777V96.0007H134.327V99.4511Z" fill="#FFD0B0"/>
<path d="M119.414 106.177H114.833V101.596H119.414V106.177ZM115.398 105.612H118.849V102.162H115.398V105.612Z" fill="#FFD0B0"/>
<path d="M125.724 106.177H121.143V101.596H125.724V106.177ZM121.708 105.612H125.158V102.162H121.708V105.612Z" fill="#FFD0B0"/>
<path d="M132.033 106.177H127.452V101.596H132.033V106.177ZM128.017 105.612H131.468V102.162H128.017V105.612Z" fill="#FFD0B0"/>
<path d="M138.342 106.177H133.762V101.596H138.342V106.177ZM134.327 105.612H137.777V102.162H134.327V105.612Z" fill="#FFD0B0"/>
<path d="M69.9426 134.498H66.3391V101.596H69.9426V134.498ZM66.9043 133.933H69.3775V102.162H66.9043V133.933Z" fill="#FFD0B0"/>
<path d="M75.536 134.498H71.9319V96.5581H75.536V134.498ZM72.4976 133.933H74.9714V97.1233H72.4976V133.933Z" fill="#FFD0B0"/>
<path d="M81.1292 134.498H77.5256V89.5793H81.1292V134.498ZM78.0908 133.933H80.564V90.1444H78.0908V133.933Z" fill="#FFD0B0"/>
<path d="M174.053 91.0871H154.139V88.1392H174.053V91.0871ZM154.704 90.5219H173.487V88.7043H154.704V90.5219Z" fill="#FFD0B0"/>
<path d="M174.053 96.0006H154.139V93.0527H174.053V96.0006ZM154.704 95.4355H173.487V93.6179H154.704V95.4355Z" fill="#FFD0B0"/>
<path d="M174.053 100.915H154.139V97.9672H174.053V100.915ZM154.704 100.35H173.487V98.5324H154.704V100.35Z" fill="#FFD0B0"/>
<path d="M174.053 105.828H154.139V102.88H174.053V105.828ZM154.704 105.263H173.487V103.445H154.704V105.263Z" fill="#FFD0B0"/>
<path d="M229.252 103.104H225.665V99.5171H229.252V103.104ZM226.23 102.539H228.687V100.082H226.23V102.539Z" fill="#FFD0B0"/>
<path d="M235.296 103.104H231.708V99.5171H235.296V103.104ZM232.274 102.539H234.731V100.082H232.274V102.539Z" fill="#FFD0B0"/>
<path d="M241.34 103.104H237.753V99.5171H241.34V103.104ZM238.318 102.539H240.776V100.082H238.318V102.539Z" fill="#FFD0B0"/>
<path d="M229.252 108.356H225.665V104.769H229.252V108.356ZM226.23 107.791H228.687V105.334H226.23V107.791Z" fill="#FFD0B0"/>
<path d="M235.296 108.356H231.708V104.769H235.296V108.356ZM232.274 107.791H234.731V105.334H232.274V107.791Z" fill="#FFD0B0"/>
<path d="M241.34 108.356H237.753V104.769H241.34V108.356ZM238.318 107.791H240.776V105.334H238.318V107.791Z" fill="#FFD0B0"/>
<path d="M102.238 74.0586C96.4155 75.8932 90.6248 78.0657 84.8669 80.584L85.8356 67.5027L75.3884 60.4578C81.3001 57.8502 87.2632 55.5686 93.2517 53.6001L102.238 74.0586Z" fill="#B2143A"/>
<path d="M94.4609 71.8276L102.237 74.0583L100.479 70.0575L96.5871 70.4435L94.4609 71.8276Z" fill="#A50E32"/>
<path d="M180.956 74.0586C186.778 75.8932 192.568 78.0657 198.327 80.584L197.358 67.5027L207.805 60.4578C201.893 57.8502 195.93 55.5686 189.942 53.6001L180.956 74.0586Z" fill="#B2143A"/>
<path d="M188.731 71.8276L180.956 74.0583L182.713 70.0575L186.605 70.4435L188.731 71.8276Z" fill="#A50E32"/>
<path d="M197.718 51.3691L188.732 71.8276C157.575 62.0175 125.619 62.0175 94.4618 71.8276L85.4756 51.3691C122.468 39.2197 160.725 39.2129 197.718 51.3691Z" fill="#D83651"/>
<path d="M110.03 35.7588L102.881 36.9929L103.261 39.1927L110.41 37.9586L110.03 35.7588Z" fill="#D83651"/>
<path d="M172.1 38.2583L179.249 39.4924L179.629 37.2926L172.48 36.0585L172.1 38.2583Z" fill="#D83651"/>
<path d="M141.719 248.432C205.391 248.432 257.006 245.409 257.006 241.68C257.006 237.95 205.391 234.927 141.719 234.927C78.0481 234.927 26.4324 237.95 26.4324 241.68C26.4324 245.409 78.0481 248.432 141.719 248.432Z" fill="#FFD0B0"/>
<path d="M41.8923 149.729H40.012V241.679H41.8923V149.729Z" fill="#0A254C"/>
<path d="M60.2701 145.277C62.7221 134.608 56.0613 123.972 45.3929 121.52C34.7244 119.068 24.0881 125.729 21.6361 136.397C19.184 147.066 25.8448 157.702 36.5133 160.154C47.1818 162.606 57.8181 155.945 60.2701 145.277Z" fill="white"/>
<path d="M60.2701 145.277C62.7221 134.608 56.0613 123.972 45.3929 121.52C34.7244 119.068 24.0881 125.729 21.6361 136.397C19.184 147.066 25.8448 157.702 36.5133 160.154C47.1818 162.606 57.8181 155.945 60.2701 145.277Z" stroke="#D83651" stroke-width="4" stroke-miterlimit="10"/>
<path d="M46.5456 132.111C47.7946 132.676 48.7577 133.478 49.4325 134.518C50.1073 135.558 50.4447 136.789 50.4447 138.212C50.4447 139.617 50.1073 140.844 49.4325 141.893C48.7577 142.942 47.7946 143.744 46.5456 144.3C45.2966 144.856 43.8232 145.135 42.1266 145.135H38.2687V150.415H33.8367V131.262H42.1266C43.8232 131.262 45.2966 131.545 46.5456 132.111ZM44.9179 140.661C45.6114 140.087 45.9578 139.271 45.9578 138.212C45.9578 137.136 45.6114 136.31 44.9179 135.736C44.2245 135.162 43.2122 134.874 41.8807 134.874H38.2687V141.523H41.8807C43.2122 141.523 44.2245 141.236 44.9179 140.661Z" fill="#0A254C"/>
<path d="M170.931 205.822H159.189C153.912 205.822 149.635 213.849 149.635 223.751C149.635 233.652 153.912 241.679 159.189 241.679C159.357 241.679 159.525 241.67 159.692 241.654H170.425C170.593 241.67 170.762 241.679 170.931 241.679C176.208 241.679 180.485 233.652 180.485 223.751C180.485 213.849 176.208 205.822 170.931 205.822Z" fill="#0A254C"/>
<path d="M243.592 225.235H220.548C220.548 212.964 225.705 203.022 232.07 203.022C238.435 203.022 243.592 212.964 243.592 225.235Z" fill="#0A254C"/>
<path d="M230.593 205.822H218.85C213.574 205.822 209.297 213.849 209.297 223.751C209.297 233.652 213.574 241.679 218.85 241.679C219.019 241.679 219.187 241.67 219.353 241.654H230.087C230.254 241.67 230.423 241.679 230.593 241.679C235.869 241.679 240.147 233.652 240.147 223.751C240.147 213.849 235.869 205.822 230.593 205.822Z" fill="#0A254C"/>
<path d="M230.593 241.679C235.869 241.679 240.146 233.652 240.146 223.751C240.146 213.849 235.869 205.823 230.593 205.823C225.316 205.823 221.039 213.849 221.039 223.751C221.039 233.652 225.316 241.679 230.593 241.679Z" fill="#234B7C"/>
<path d="M230.593 231.729C232.842 231.729 234.665 228.157 234.665 223.75C234.665 219.343 232.842 215.771 230.593 215.771C228.343 215.771 226.52 219.343 226.52 223.75C226.52 228.157 228.343 231.729 230.593 231.729Z" fill="#EFB041"/>
<path d="M232.782 223.75C232.782 226.118 231.802 228.038 230.594 228.038C229.385 228.038 228.405 226.118 228.405 223.75C228.405 221.382 229.385 219.462 230.594 219.462C231.802 219.462 232.782 221.382 232.782 223.75Z" fill="#D83651"/>
<path d="M231.002 222.104C231.002 223.095 230.593 223.898 230.087 223.898C229.581 223.898 229.171 223.095 229.171 222.104C229.171 221.114 229.581 220.311 230.087 220.311C230.593 220.31 231.002 221.114 231.002 222.104Z" fill="white"/>
<path d="M178.358 110.014H83.7222V225.235H178.358V110.014Z" fill="#E2762D"/>
<path d="M249.547 110.01V225.233H243.592C243.592 224.327 243.566 223.433 243.51 222.557C243.497 222.4 243.491 222.243 243.478 222.085C243.364 220.574 243.176 219.12 242.918 217.722C242.886 217.565 242.855 217.408 242.824 217.25C242.515 215.701 242.118 214.24 241.646 212.887C241.596 212.729 241.539 212.572 241.476 212.414C240.884 210.784 240.173 209.317 239.373 208.051C239.273 207.894 239.171 207.73 239.065 207.579C237.509 205.287 235.646 203.738 233.606 203.216C233.103 203.09 232.592 203.021 232.07 203.021C231.547 203.021 231.038 203.09 230.534 203.216C228.494 203.738 226.63 205.287 225.075 207.579C224.968 207.73 224.867 207.894 224.766 208.051C223.967 209.317 223.255 210.784 222.663 212.414C222.601 212.572 222.544 212.729 222.493 212.887C222.021 214.24 221.625 215.701 221.316 217.25C221.284 217.408 221.253 217.565 221.222 217.722C220.963 219.12 220.775 220.574 220.661 222.085C220.649 222.243 220.642 222.4 220.629 222.557C220.573 223.433 220.547 224.326 220.547 225.233H169.921V110.01H249.547Z" fill="#E89236"/>
<path d="M244.835 223.975C244.82 223.459 244.798 222.958 244.767 222.477L244.733 221.983C244.619 220.461 244.425 218.948 244.156 217.494L244.059 217.004C243.742 215.418 243.331 213.893 242.835 212.472C242.785 212.317 242.719 212.13 242.644 211.945C242.044 210.288 241.296 208.739 240.438 207.379L240.37 207.273C240.279 207.131 240.188 206.987 240.092 206.852C238.338 204.267 236.198 202.581 233.918 201.997C233.293 201.841 232.673 201.762 232.07 201.762C231.465 201.762 230.845 201.841 230.228 201.995C227.941 202.581 225.801 204.267 224.032 206.873C223.951 206.987 223.859 207.131 223.769 207.273L223.706 207.372C222.844 208.737 222.096 210.286 221.48 211.985C221.419 212.135 221.352 212.32 221.292 212.507C220.808 213.898 220.396 215.422 220.081 217.004L219.986 217.476C219.714 218.947 219.519 220.461 219.405 221.991L219.374 222.46C219.342 222.95 219.319 223.455 219.305 223.975H171.181V111.269H248.288V223.975H244.835Z" fill="#EFB041"/>
<path d="M249.547 115.71H169.922V116.183H249.547V115.71Z" fill="#E89236"/>
<path d="M249.547 120.546H169.922V121.018H249.547V120.546Z" fill="#E89236"/>
<path d="M249.547 125.381H169.922V125.853H249.547V125.381Z" fill="#E89236"/>
<path d="M249.547 130.217H169.922V130.689H249.547V130.217Z" fill="#E89236"/>
<path d="M249.547 135.052H169.922V135.524H249.547V135.052Z" fill="#E89236"/>
<path d="M249.547 139.887H169.922V140.359H249.547V139.887Z" fill="#E89236"/>
<path d="M249.547 144.722H169.922V145.195H249.547V144.722Z" fill="#E89236"/>
<path d="M249.547 149.557H169.922V150.03H249.547V149.557Z" fill="#E89236"/>
<path d="M249.547 154.392H169.922V154.865H249.547V154.392Z" fill="#E89236"/>
<path d="M249.547 159.228H169.922V159.701H249.547V159.228Z" fill="#E89236"/>
<path d="M249.547 164.062H169.922V164.535H249.547V164.062Z" fill="#E89236"/>
<path d="M249.547 168.897H169.922V169.37H249.547V168.897Z" fill="#E89236"/>
<path d="M249.547 173.733H169.922V174.206H249.547V173.733Z" fill="#E89236"/>
<path d="M249.547 178.569H169.922V179.041H249.547V178.569Z" fill="#E89236"/>
<path d="M249.547 183.404H169.922V183.876H249.547V183.404Z" fill="#E89236"/>
<path d="M249.547 188.239H169.922V188.712H249.547V188.239Z" fill="#E89236"/>
<path d="M249.547 193.074H169.922V193.547H249.547V193.074Z" fill="#E89236"/>
<path d="M249.547 197.91H169.922V198.382H249.547V197.91Z" fill="#E89236"/>
<path d="M169.922 203.217H230.533C231.037 203.091 231.547 203.022 232.069 203.022C232.592 203.022 233.102 203.092 233.606 203.217H249.547V202.745H169.922V203.217Z" fill="#E89236"/>
<path d="M169.922 208.051H224.766C224.867 207.894 224.968 207.73 225.075 207.579H169.922V208.051Z" fill="#E89236"/>
<path d="M169.922 212.887H222.494C222.544 212.73 222.601 212.573 222.664 212.415H169.922V212.887H169.922Z" fill="#E89236"/>
<path d="M169.922 217.722H221.222C221.253 217.564 221.284 217.407 221.316 217.25H169.922V217.722Z" fill="#E89236"/>
<path d="M169.922 222.558H220.63C220.642 222.401 220.649 222.244 220.662 222.087H169.922V222.558Z" fill="#E89236"/>
<path d="M239.373 208.051H249.547V207.579H239.064C239.171 207.73 239.272 207.894 239.373 208.051Z" fill="#E89236"/>
<path d="M241.645 212.887H249.547V212.415H241.476C241.538 212.573 241.595 212.73 241.645 212.887Z" fill="#E89236"/>
<path d="M242.918 217.722H249.547V217.25H242.823C242.854 217.407 242.886 217.565 242.918 217.722Z" fill="#E89236"/>
<path d="M243.509 222.558H249.546V222.087H243.477C243.49 222.244 243.496 222.401 243.509 222.558Z" fill="#E89236"/>
<path d="M77.386 168.149H63.1302C62.9562 168.149 62.8154 168.009 62.8154 167.835V147.226C62.8154 147.052 62.9562 146.911 63.1302 146.911H68.5417C68.7158 146.911 68.8565 147.052 68.8565 147.226C68.8565 147.4 68.7158 147.541 68.5417 147.541H63.445V167.52H77.386C77.5601 167.52 77.7008 167.661 77.7008 167.835C77.7008 168.009 77.5601 168.149 77.386 168.149Z" fill="#0A254C"/>
<path d="M61.2084 165.332H65.0532C65.9468 165.332 66.6713 164.607 66.6713 163.714V151.347C66.6713 150.454 65.9468 149.729 65.0532 149.729H61.2084C60.3149 149.729 59.5903 150.454 59.5903 151.347V163.714C59.5903 164.608 60.3149 165.332 61.2084 165.332Z" fill="#0A254C"/>
<path d="M158.135 225.235H135.091C135.091 212.964 140.248 203.022 146.613 203.022C152.978 203.022 158.135 212.964 158.135 225.235Z" fill="#0A254C"/>
<path d="M145.405 205.822H133.663C128.386 205.822 124.109 213.849 124.109 223.751C124.109 233.653 128.386 241.679 133.663 241.679C133.832 241.679 133.999 241.671 134.166 241.654H144.899C145.067 241.671 145.236 241.679 145.405 241.679C150.682 241.679 154.959 233.652 154.959 223.751C154.959 213.849 150.682 205.822 145.405 205.822Z" fill="#0A254C"/>
<path d="M145.405 241.679C150.868 241.679 155.296 233.653 155.296 223.751C155.296 213.849 150.868 205.823 145.405 205.823C139.943 205.823 135.514 213.849 135.514 223.751C135.514 233.653 139.943 241.679 145.405 241.679Z" fill="#234B7C"/>
<path d="M145.406 231.729C147.655 231.729 149.478 228.157 149.478 223.75C149.478 219.344 147.655 215.771 145.406 215.771C143.157 215.771 141.333 219.344 141.333 223.75C141.333 228.157 143.157 231.729 145.406 231.729Z" fill="#EFB041"/>
<path d="M147.594 223.75C147.594 226.118 146.614 228.038 145.405 228.038C144.197 228.038 143.217 226.118 143.217 223.75C143.217 221.382 144.197 219.462 145.405 219.462C146.614 219.462 147.594 221.382 147.594 223.75Z" fill="#D83651"/>
<path d="M145.815 222.105C145.815 223.095 145.406 223.898 144.9 223.898C144.394 223.898 143.984 223.095 143.984 222.105C143.984 221.114 144.394 220.311 144.9 220.311C145.405 220.31 145.815 221.114 145.815 222.105Z" fill="white"/>
<path d="M80.7993 205.822H69.0568C63.7804 205.822 59.5032 213.849 59.5032 223.751C59.5032 233.653 63.7804 241.679 69.0568 241.679C69.2258 241.679 69.3931 241.671 69.5598 241.654H80.2929C80.4607 241.671 80.6297 241.679 80.7993 241.679C86.0757 241.679 90.3529 233.652 90.3529 223.751C90.3534 213.849 86.0762 205.822 80.7993 205.822Z" fill="#0A254C"/>
<path d="M164.772 138.01V225.235H158.18C158.18 212.964 153.024 203.022 146.659 203.022C140.294 203.022 135.137 212.964 135.137 225.235H49.9075V191.771C49.9075 190.165 50.2285 188.579 50.8519 187.099L70.2055 141.031C70.9735 139.199 72.768 138.01 74.7511 138.01L164.772 138.01Z" fill="#D83651"/>
<path d="M158.931 179.454H151.922V180.982H158.931V179.454Z" fill="#F4C84D"/>
<path d="M60.5176 184.837H56.7954C56.1755 184.837 55.8714 184.334 56.1167 183.714L57.5884 179.992C57.8337 179.372 58.535 178.869 59.1556 178.869H62.8778C63.4978 178.869 63.8018 179.372 63.5566 179.992L62.0849 183.714C61.8396 184.335 61.1382 184.837 60.5176 184.837Z" fill="white"/>
<path d="M60.5177 185.152H56.7955C56.4038 185.152 56.0817 184.997 55.8895 184.713C55.686 184.414 55.6617 184.008 55.8239 183.598L57.2956 179.876C57.589 179.135 58.4062 178.554 59.1556 178.554H62.8778C63.27 178.554 63.5922 178.71 63.7843 178.993C63.9878 179.292 64.0121 179.699 63.8499 180.107L62.3782 183.83C62.0843 184.571 61.2671 185.152 60.5177 185.152ZM59.155 179.183C58.6622 179.183 58.079 179.607 57.8806 180.107L56.4089 183.829C56.3247 184.041 56.3252 184.235 56.41 184.359C56.501 184.494 56.67 184.522 56.7949 184.522H60.5171C61.0099 184.522 61.5932 184.099 61.7916 183.598L63.2633 179.876C63.3469 179.664 63.3469 179.47 63.2627 179.346C63.1711 179.212 63.0021 179.183 62.8767 179.183H59.155Z" fill="#0A254C"/>
<path d="M119.483 184.837H115.761C115.14 184.837 114.837 184.334 115.082 183.714L116.553 179.992C116.799 179.372 117.5 178.869 118.12 178.869H121.843C122.463 178.869 122.767 179.372 122.521 179.992L121.05 183.714C120.805 184.335 120.104 184.837 119.483 184.837Z" fill="white"/>
<path d="M119.483 185.152H115.761C115.369 185.152 115.047 184.996 114.855 184.713C114.652 184.414 114.627 184.007 114.79 183.598L116.261 179.876C116.555 179.134 117.372 178.554 118.121 178.554H121.843C122.236 178.554 122.558 178.709 122.75 178.993C122.953 179.292 122.978 179.699 122.815 180.107L121.344 183.829C121.05 184.571 120.233 185.152 119.483 185.152ZM118.121 179.183C117.628 179.183 117.045 179.606 116.847 180.107L115.375 183.829C115.291 184.041 115.291 184.235 115.376 184.359C115.467 184.493 115.636 184.522 115.762 184.522H119.484C119.977 184.522 120.56 184.098 120.758 183.598L122.23 179.875C122.314 179.663 122.314 179.47 122.229 179.346C122.138 179.211 121.969 179.183 121.843 179.183H118.121Z" fill="#0A254C"/>
<path d="M161.612 142.336H142.952C142.858 142.336 142.772 142.392 142.736 142.479L129.739 172.521L123.892 186.039C123.879 186.068 123.872 186.101 123.872 186.133V192.883H49.9089V193.513H123.872V223.311C123.872 223.441 123.978 223.547 124.109 223.547C124.239 223.547 124.345 223.441 124.345 223.311V186.182L129.72 173.756V213.182C129.72 213.313 129.826 213.419 129.957 213.419H134.047C134.151 213.419 134.242 213.351 134.273 213.251L135.592 208.919C136.875 204.708 139.944 201.327 144.011 199.642C145.799 198.901 147.689 198.525 149.625 198.525H161.612C161.743 198.525 161.848 198.419 161.848 198.289V142.573C161.848 142.442 161.742 142.336 161.612 142.336ZM161.375 198.052H149.625C147.625 198.052 145.676 198.439 143.83 199.205C139.632 200.944 136.464 204.435 135.14 208.781L133.871 212.946H130.193V172.663L143.107 142.808H161.376V198.052H161.375Z" fill="#B2143A"/>
<path d="M128.093 211.668V223.539C128.093 225.395 126.727 226.891 125.046 226.891H49.916C48.2352 226.891 46.8687 225.395 46.8687 223.539V211.668C46.8687 209.819 48.2347 208.316 49.916 208.316H125.047C126.727 208.316 128.093 209.819 128.093 211.668Z" fill="#930F3F"/>
<path d="M117.472 211.668V223.539C117.472 225.395 116.106 226.891 114.425 226.891H49.916C48.2352 226.891 46.8687 225.395 46.8687 223.539V211.668C46.8687 209.819 48.2347 208.316 49.916 208.316H114.425C116.106 208.316 117.472 209.819 117.472 211.668Z" fill="#BC1E48"/>
<path d="M62.7126 221.877H51.8558C51.4127 221.877 51.0532 221.482 51.0532 220.995V216.516C51.0532 216.029 51.4121 215.634 51.8558 215.634H60.5119C60.8063 215.634 61.0776 215.811 61.2178 216.097L63.4185 220.575C63.7073 221.163 63.3202 221.877 62.7126 221.877Z" fill="white"/>
<path d="M62.1021 221.13H56.9031C56.6912 221.13 56.5188 220.94 56.5188 220.707V218.563C56.5188 218.329 56.6906 218.14 56.9031 218.14H61.0481C61.1893 218.14 61.3188 218.225 61.386 218.362L62.4401 220.506C62.5785 220.788 62.3932 221.13 62.1021 221.13Z" fill="#F4C84D"/>
<path d="M53.7393 221.076C54.9772 221.076 55.9807 219.972 55.9807 218.61C55.9807 217.248 54.9772 216.144 53.7393 216.144C52.5013 216.144 51.4978 217.248 51.4978 218.61C51.4978 219.972 52.5013 221.076 53.7393 221.076Z" fill="#D6E9EA"/>
<path d="M101.916 221.877H112.773C113.216 221.877 113.575 221.482 113.575 220.995V216.516C113.575 216.029 113.216 215.634 112.773 215.634H104.117C103.823 215.634 103.551 215.811 103.411 216.097L101.21 220.575C100.921 221.163 101.308 221.877 101.916 221.877Z" fill="white"/>
<path d="M102.526 221.13H107.725C107.937 221.13 108.11 220.94 108.11 220.707V218.563C108.11 218.329 107.938 218.14 107.725 218.14H103.58C103.439 218.14 103.31 218.225 103.242 218.361L102.188 220.506C102.05 220.788 102.235 221.13 102.526 221.13Z" fill="#F4C84D"/>
<path d="M108.649 218.61C108.649 219.971 109.652 221.076 110.89 221.076C112.128 221.076 113.132 219.972 113.132 218.61C113.132 217.248 112.128 216.144 110.89 216.144C109.652 216.144 108.649 217.248 108.649 218.61Z" fill="#D6E9EA"/>
<path d="M97.0927 221.37H67.5903C67.3931 221.37 67.2094 221.258 67.1066 221.073L64.6029 216.586C64.3706 216.17 64.643 215.634 65.0866 215.634H99.5969C100.041 215.634 100.313 216.169 100.081 216.586L97.577 221.073C97.473 221.257 97.2899 221.37 97.0927 221.37Z" fill="#930F3F"/>
<path d="M138.14 147.436L128.229 170.612C127.858 171.48 127.002 172.041 126.064 172.041H62.7886C61.101 172.041 59.9616 170.316 60.6229 168.761L70.5393 145.585C70.9106 144.716 71.7606 144.155 72.705 144.155H135.98C137.667 144.155 138.807 145.881 138.14 147.436Z" fill="#6EC4F7"/>
<path d="M135.977 145.412C136.352 145.412 136.685 145.591 136.892 145.905C137.098 146.218 137.132 146.595 136.985 146.939L127.07 170.116C126.897 170.52 126.501 170.781 126.062 170.781H62.7896C62.4149 170.781 62.0814 170.601 61.8746 170.289C61.6683 169.976 61.6344 169.599 61.7819 169.254L71.6972 146.077C71.8701 145.673 72.2658 145.412 72.7049 145.412H135.977ZM135.977 144.153H72.7049C71.7622 144.153 70.9105 144.715 70.5397 145.582L60.6244 168.759C59.9598 170.313 61.0997 172.04 62.7896 172.04H126.061C127.004 172.04 127.856 171.478 128.226 170.611L138.142 147.434C138.807 145.88 137.667 144.153 135.977 144.153Z" fill="#26407A"/>
<path d="M85.2781 171.636C85.2057 171.636 85.1345 171.603 85.0882 171.54L81.9283 167.29H68.0099C67.8794 167.29 67.7737 167.185 67.7737 167.054C67.7737 166.924 67.8794 166.818 68.0099 166.818H82.047C82.1216 166.818 82.1917 166.854 82.2363 166.913L85.4668 171.258C85.5448 171.363 85.5234 171.511 85.4182 171.589C85.3764 171.621 85.3267 171.636 85.2781 171.636Z" fill="#214084"/>
<path d="M115.141 171.636C115.069 171.636 114.998 171.603 114.951 171.54L111.791 167.29H97.873C97.7424 167.29 97.6367 167.185 97.6367 167.054C97.6367 166.924 97.7424 166.818 97.873 166.818H111.91C111.985 166.818 112.055 166.854 112.099 166.913L115.33 171.258C115.408 171.363 115.386 171.511 115.281 171.589C115.239 171.621 115.19 171.636 115.141 171.636Z" fill="#214084"/>
<g opacity="0.4">
<path d="M104.298 144.155L76.4132 172.04H66.6228L94.5076 144.155H104.298Z" fill="white"/>
<path d="M112.445 144.155L84.5543 172.04H80.3235L108.202 144.155H112.445Z" fill="white"/>
<path d="M124.735 144.155L96.8496 172.04H94.2244L122.115 144.155H124.735Z" fill="white"/>
</g>
<path d="M160.043 145.805V170.384C160.043 171.297 159.3 172.04 158.387 172.04H134.94C134.732 172.04 134.537 172.003 134.361 171.934C133.511 171.625 133.032 170.637 133.417 169.736L136.735 161.986L143.931 145.157C144.189 144.546 144.793 144.156 145.455 144.156H158.387C159.3 144.155 160.043 144.892 160.043 145.805Z" fill="#6EC4F7"/>
<path d="M158.386 145.412C158.604 145.412 158.781 145.59 158.781 145.807V170.386C158.781 170.604 158.604 170.781 158.386 170.781H134.937C134.753 170.781 134.651 170.67 134.607 170.604C134.564 170.537 134.501 170.401 134.574 170.231L145.089 145.652C145.151 145.506 145.294 145.412 145.452 145.412H158.386ZM158.386 144.153H145.452C144.79 144.153 144.192 144.548 143.932 145.157L133.417 169.735C132.95 170.827 133.75 172.04 134.937 172.04H158.386C159.3 172.04 160.041 171.3 160.041 170.386V145.807C160.041 144.893 159.3 144.153 158.386 144.153Z" fill="#26407A"/>
<g opacity="0.4">
<path d="M160.043 145.804V146.251L134.362 171.933C133.512 171.624 133.034 170.636 133.418 169.735L136.736 161.985L154.56 144.155H158.388C159.301 144.155 160.043 144.892 160.043 145.804Z" fill="white"/>
<path d="M160.044 149.28V152.56L140.564 172.04H137.284L160.044 149.28Z" fill="white"/>
</g>
<path d="M106.342 195.924L105.891 196.366L105.04 197.197L103.888 198.323L103.043 199.155L101.891 200.281L101.04 201.112L99.888 202.239L99.0431 203.065L97.8913 204.191L97.0458 205.023L95.9629 206.081C95.7753 206.265 95.4526 206.376 95.1186 206.376H70.848C70.514 206.376 70.2127 206.266 70.0613 206.081L69.1847 205.023L68.5008 204.191L67.5683 203.065L66.8845 202.239L65.9519 201.112L65.2624 200.281L64.3299 199.155L63.646 198.323L62.7135 197.197L62.024 196.366L61.6595 195.924C61.33 195.524 61.833 195.013 62.5638 195.013H105.617C106.346 195.013 106.755 195.524 106.342 195.924Z" fill="#214084"/>
<path d="M97.8903 204.193L97.0443 205.024H69.1826L68.4988 204.193H97.8903Z" fill="#2E5599"/>
<path d="M99.8868 202.239L99.0418 203.066H67.5659L66.8821 202.239H99.8868Z" fill="#2E5599"/>
<path d="M101.89 200.282L101.039 201.113H65.9495L65.26 200.282H101.89Z" fill="#2E5599"/>
<path d="M103.888 198.324L103.043 199.156H64.3281L63.6448 198.324H103.888Z" fill="#2E5599"/>
<path d="M105.891 196.366L105.039 197.198H62.7117L62.0222 196.366H105.891Z" fill="#2E5599"/>
<path d="M61.4987 205.822H52.486C51.94 205.822 51.498 205.38 51.498 204.834V200.144C51.498 199.598 51.9406 199.156 52.486 199.156H61.4987C62.0446 199.156 62.4866 199.598 62.4866 200.144V204.834C62.4872 205.38 62.0446 205.822 61.4987 205.822Z" fill="white"/>
<path d="M57.428 202.489C57.428 204.115 56.2298 205.434 54.7513 205.434C53.2729 205.434 52.0747 204.115 52.0747 202.489C52.0747 200.863 53.2729 199.545 54.7513 199.545C56.2293 199.545 57.428 200.863 57.428 202.489Z" fill="#D6E9EA"/>
<path d="M54.8672 201.55C54.8672 202.159 54.4179 202.653 53.864 202.653C53.3101 202.653 52.8608 202.159 52.8608 201.55C52.8608 200.941 53.3101 200.447 53.864 200.447C54.4184 200.447 54.8672 200.941 54.8672 201.55Z" fill="white"/>
<path d="M62.1346 202.858C62.1346 204.19 61.1529 205.27 59.9423 205.27C58.7317 205.27 57.75 204.19 57.75 202.858C57.75 201.526 58.7317 200.446 59.9423 200.446C61.1529 200.447 62.1346 201.526 62.1346 202.858Z" fill="#D6E9EA"/>
<path d="M60.0371 202.089C60.0371 202.588 59.6691 202.993 59.2153 202.993C58.7615 202.993 58.3936 202.588 58.3936 202.089C58.3936 201.59 58.7615 201.185 59.2153 201.185C59.6697 201.185 60.0371 201.59 60.0371 202.089Z" fill="white"/>
<path d="M106.478 205.822H115.491C116.037 205.822 116.479 205.38 116.479 204.834V200.144C116.479 199.598 116.036 199.156 115.491 199.156H106.478C105.932 199.156 105.49 199.598 105.49 200.144V204.834C105.49 205.38 105.933 205.822 106.478 205.822Z" fill="white"/>
<path d="M110.551 202.489C110.551 204.115 111.749 205.434 113.227 205.434C114.705 205.434 115.904 204.115 115.904 202.489C115.904 200.863 114.706 199.545 113.227 199.545C111.749 199.545 110.551 200.863 110.551 202.489Z" fill="#D6E9EA"/>
<path d="M113.111 201.55C113.111 202.159 113.56 202.653 114.114 202.653C114.668 202.653 115.117 202.159 115.117 201.55C115.117 200.941 114.668 200.447 114.114 200.447C113.56 200.447 113.111 200.941 113.111 201.55Z" fill="white"/>
<path d="M105.844 202.858C105.844 204.19 106.826 205.27 108.036 205.27C109.247 205.27 110.229 204.19 110.229 202.858C110.229 201.526 109.247 200.446 108.036 200.446C106.825 200.447 105.844 201.526 105.844 202.858Z" fill="#D6E9EA"/>
<path d="M107.94 202.089C107.94 202.588 108.308 202.993 108.762 202.993C109.216 202.993 109.584 202.588 109.584 202.089C109.584 201.59 109.216 201.185 108.762 201.185C108.308 201.185 107.94 201.59 107.94 202.089Z" fill="white"/>
<path d="M149.395 168.149H135.139C134.965 168.149 134.824 168.009 134.824 167.835C134.824 167.66 134.965 167.52 135.139 167.52H149.08V147.541H143.983C143.809 147.541 143.668 147.4 143.668 147.226C143.668 147.052 143.809 146.911 143.983 146.911H149.395C149.569 146.911 149.709 147.052 149.709 147.226V167.835C149.709 168.009 149.569 168.149 149.395 168.149Z" fill="#0A254C"/>
<path d="M151.317 165.332H147.472C146.579 165.332 145.854 164.607 145.854 163.714V151.347C145.854 150.454 146.579 149.729 147.472 149.729H151.317C152.211 149.729 152.935 150.454 152.935 151.347V163.714C152.935 164.608 152.211 165.332 151.317 165.332Z" fill="#0A254C"/>
<path d="M103.595 125.035H103.192C94.9382 125.035 87.5797 130.234 84.8171 138.01H94.2057H103.594H125.388L143.763 125.035H103.595Z" fill="#2E5599"/>
<path d="M144.165 125.035V138.011H125.387C128.15 130.234 135.508 125.035 143.762 125.035H144.165Z" fill="#0A254C"/>
<path d="M53.3234 229.13C52.2835 231.046 47.2196 232.646 43.3482 237.71C42.6982 238.557 41.9013 240.615 41.89 241.677H39.3129C38.9907 235.839 41.7714 229.899 46.3379 226.242C47.4456 225.361 48.7116 224.586 50.1189 224.456C51.0288 224.372 51.9952 224.62 52.7074 225.163C52.8769 225.287 53.0295 225.434 53.1595 225.592C53.346 225.807 53.4986 226.056 53.606 226.327C53.962 227.226 53.7868 228.277 53.3234 229.13Z" fill="#E89236"/>
<path d="M53.1603 225.592C51.9622 226.039 50.8092 226.604 49.7185 227.277C44.6885 230.402 41.3596 235.788 40.7888 241.677H40.2236C40.3819 240.016 40.7436 238.377 41.3088 236.805C43.2473 231.47 47.4521 227.214 52.7082 225.163C52.8777 225.287 53.0303 225.434 53.1603 225.592Z" fill="#EFB041"/>
<path d="M41.8906 241.677H36.838C35.7359 236.907 33.1361 232.668 29.536 229.345C27.7897 227.734 25.8172 226.389 24.0482 224.801C22.641 223.535 21.2846 221.93 21.2676 220.037C21.262 218.703 21.9684 217.471 23.0027 216.606C23.1835 216.459 23.37 216.318 23.5678 216.199C23.8843 215.996 24.2178 215.826 24.5682 215.696C26.3824 215.024 28.4283 215.261 30.2538 215.906C32.9609 216.861 35.3233 218.681 37.1206 220.913C38.9235 223.151 40.1781 225.79 41.0089 228.537C42.2806 232.764 42.6366 237.331 41.8906 241.677Z" fill="#EFB041"/>
<path d="M40.3981 241.677H39.8329C39.8273 239.891 39.6747 238.105 39.3582 236.347C38.4482 231.199 36.1819 226.293 32.514 222.529C29.8859 219.827 26.6023 217.719 23.0022 216.606C23.1831 216.459 23.3696 216.318 23.5674 216.199C24.9746 216.663 26.331 217.267 27.6196 218.008C32.0731 220.557 35.5998 224.541 37.7305 229.198C39.5277 233.103 40.3811 237.387 40.3981 241.677Z" fill="#E89236"/>
<path d="M263.381 220.037C262.918 220.772 262.239 221.337 261.572 221.896C258.447 224.496 255.327 227.096 252.202 229.696C253.253 229.164 253.869 229.023 255.028 228.814C256.186 228.599 257.469 228.757 258.379 229.498C258.747 229.797 259.029 230.204 259.199 230.651C259.272 230.832 259.317 231.018 259.346 231.21C259.419 231.713 259.346 232.222 259.074 232.657C258.408 233.736 256.961 233.951 255.706 234.132C250.806 234.85 246.042 237.014 242.945 240.88H239.972C240.961 235.958 239.785 231.052 238.129 226.316C237.581 224.745 236.897 223.19 236.796 221.529C236.694 219.867 237.321 218.03 238.791 217.256C239.039 217.126 239.299 217.03 239.565 216.974H239.57C239.763 216.928 239.949 216.906 240.141 216.9C241.486 216.838 242.894 217.567 243.747 218.658C244.9 220.122 245.239 222.066 245.313 223.931C245.386 225.796 245.262 227.768 245.075 229.673C246.714 225.615 247.2 221.348 246.601 217.008C246.358 215.244 245.923 213.475 246.149 211.712C246.375 209.949 247.466 208.134 249.195 207.733C249.314 207.705 249.433 207.688 249.551 207.671H249.557C249.755 207.648 249.953 207.648 250.15 207.665C251.049 207.722 251.925 208.129 252.609 208.728C253.536 209.542 254.141 210.666 254.559 211.819C255.785 215.21 255.904 219.274 254.271 222.484C255.096 220.653 256.316 219.138 257.792 217.776C258.656 216.985 259.662 216.273 260.821 216.109C261.776 215.968 262.838 216.301 263.426 217.03C263.545 217.171 263.641 217.33 263.714 217.505C263.726 217.522 263.731 217.533 263.737 217.55C264.059 218.353 263.844 219.296 263.381 220.037Z" fill="#D83651"/>
<path d="M244.12 237.421C244.103 237.444 244.081 237.461 244.064 237.483C245.46 235.262 246.986 233.132 248.642 231.097C251.773 227.248 255.345 223.744 259.256 220.687C260.697 219.568 262.183 218.505 263.715 217.505C263.641 217.33 263.545 217.171 263.427 217.03C260.052 219.223 256.888 221.732 253.971 224.507C251.366 226.988 248.958 229.684 246.782 232.555C247.449 231.244 248.077 229.916 248.642 228.548C250.575 223.891 251.745 218.844 251.4 213.78C251.258 211.695 250.852 209.632 250.151 207.665C249.953 207.648 249.755 207.648 249.557 207.671C251.049 211.729 251.196 216.205 250.467 220.449C249.597 225.502 247.489 230.227 245.019 234.68C244.51 235.59 243.99 236.494 243.454 237.387C243.42 237.433 243.391 237.478 243.369 237.529C243.035 238.094 242.691 238.659 242.346 239.218C242.312 239.269 242.284 239.326 242.25 239.382C243.437 233.329 243.194 227.011 241.555 221.06C241.165 219.647 240.695 218.256 240.142 216.9C239.949 216.906 239.763 216.928 239.571 216.973C242.114 223.258 242.979 230.215 242.086 236.941C241.911 238.246 241.668 239.541 241.362 240.824V240.829C241.345 240.846 241.334 240.863 241.323 240.88H241.345H241.413H241.464H241.922H241.99H242.058H242.125C245.222 236.099 250.185 232.708 255.797 231.6C256.967 231.368 258.154 231.238 259.346 231.21C259.318 231.018 259.273 230.831 259.199 230.651C253.525 230.837 248.043 233.267 244.12 237.421Z" fill="#B2143A"/>
</svg>
