<svg width="31" height="18" viewBox="0 0 31 18" fill="none" xmlns="http://www.w3.org/2000/svg">
<path d="M17.8143 0H1.81734C1.26415 0 0.815796 0.434578 0.815796 0.970762V15.1345C0.815796 15.6704 1.26415 16.1053 1.81734 16.1053H3.30829C3.30829 14.4773 4.67473 13.1525 6.35431 13.1525C8.03389 13.1525 9.40032 14.4773 9.40032 16.1053H18.8158V0.970762C18.8158 0.434578 18.3674 0 17.8143 0Z" fill="#07CB55"/>
<path d="M29.9879 9.22393L25.17 3.09185C25.0613 2.95402 24.8333 2.8421 24.6596 2.8421H19.7632V16.1053H20.8053C20.8053 14.4965 22.0905 13.1873 23.6706 13.1873C25.2507 13.1873 26.5362 14.4965 26.5362 16.1053H29.242C29.7624 16.1053 30.1842 15.6755 30.1842 15.1459V9.79346C30.1842 9.61694 30.0966 9.36176 29.9879 9.22393ZM21.4567 8.94317V4.16855H24.0619L27.8136 8.94317H21.4567Z" fill="#64EC9A"/>
<path d="M6.49996 14.2105C5.45539 14.2105 4.60522 15.0605 4.60522 16.1052C4.60522 17.1495 5.45539 18 6.49996 18C7.54478 18 8.3947 17.15 8.3947 16.1052C8.3947 15.0603 7.54478 14.2105 6.49996 14.2105Z" fill="#07CB55"/>
<path d="M23.553 14.2105C22.5081 14.2105 21.658 15.0605 21.658 16.1052C21.658 17.1495 22.5081 18 23.553 18C24.5973 18 25.4474 17.15 25.4474 16.1052C25.4474 15.0603 24.5973 14.2105 23.553 14.2105Z" fill="#07CB55"/>
</svg>
