<svg width="15" height="18" viewBox="0 0 15 18" fill="none" xmlns="http://www.w3.org/2000/svg">
<path d="M0.804441 12.3691C0.59109 12.3691 0.386477 12.4538 0.235615 12.6047C0.0847535 12.7556 0 12.9602 0 13.1735V15.5868C0 16.2269 0.25426 16.8407 0.706846 17.2933C1.15943 17.7459 1.77327 18.0002 2.41332 18.0002H12.0666C12.7067 18.0002 13.3205 17.7459 13.7731 17.2933C14.2257 16.8407 14.4799 16.2269 14.4799 15.5868V13.1735C14.4799 12.9602 14.3952 12.7556 14.2443 12.6047C14.0935 12.4538 13.8888 12.3691 13.6755 12.3691C13.4621 12.3691 13.2575 12.4538 13.1067 12.6047C12.9558 12.7556 12.8711 12.9602 12.8711 13.1735V15.5868C12.8711 15.8002 12.7863 16.0048 12.6354 16.1557C12.4846 16.3065 12.28 16.3913 12.0666 16.3913H2.41332C2.19997 16.3913 1.99536 16.3065 1.8445 16.1557C1.69364 16.0048 1.60888 15.8002 1.60888 15.5868V13.1735C1.60888 12.9602 1.52413 12.7556 1.37327 12.6047C1.2224 12.4538 1.01779 12.3691 0.804441 12.3691Z" fill="#294277"/>
<path d="M7.23988 13.9778C7.45324 13.9778 7.65785 13.893 7.80871 13.7422C7.95957 13.5913 8.04433 13.3867 8.04433 13.1734V2.74699L10.5928 5.29949C10.6678 5.37417 10.7568 5.43336 10.8547 5.47366C10.9525 5.51396 11.0574 5.53458 11.1632 5.53436C11.2691 5.53413 11.3739 5.51306 11.4716 5.47235C11.5693 5.43164 11.658 5.37208 11.7327 5.29707C11.8074 5.22207 11.8666 5.13309 11.9069 5.03521C11.9472 4.93733 11.9678 4.83248 11.9676 4.72663C11.9673 4.62078 11.9463 4.51601 11.9056 4.4183C11.8648 4.3206 11.8053 4.23187 11.7303 4.15718L7.80863 0.23553C7.65777 0.0847201 7.45319 0 7.23988 0C7.02658 0 6.822 0.0847201 6.67115 0.23553L2.7495 4.15718C2.67449 4.23187 2.61493 4.3206 2.57422 4.4183C2.5335 4.51601 2.51243 4.62078 2.51221 4.72663C2.51198 4.83248 2.53261 4.93733 2.57291 5.03521C2.61321 5.13309 2.67239 5.22207 2.74708 5.29707C2.82177 5.37208 2.9105 5.43164 3.00821 5.47235C3.10591 5.51306 3.21068 5.53413 3.31653 5.53436C3.42238 5.53458 3.52723 5.51396 3.62511 5.47366C3.72299 5.43336 3.81197 5.37417 3.88697 5.29949L6.43544 2.74699V13.1734C6.43544 13.3867 6.5202 13.5913 6.67106 13.7422C6.82192 13.893 7.02653 13.9778 7.23988 13.9778Z" fill="#294277"/>
</svg>
