<svg width="19" height="15" viewBox="0 0 19 15" fill="none" xmlns="http://www.w3.org/2000/svg">
<path fill-rule="evenodd" clip-rule="evenodd" d="M1.17537 0H16.1754C16.847 0 17.3507 0.503731 17.3507 1.17537V1.39925H2.01493C1.73507 1.39925 1.51119 1.62313 1.51119 1.90299C1.51119 2.18284 1.73507 2.40672 2.01493 2.40672H17.3507V4.08582C17.3507 4.70149 16.847 5.26119 16.1754 5.26119H14.2164C13.5448 5.26119 13.041 5.76493 13.041 6.3806V8.6194C13.041 9.23507 13.5448 9.73881 14.2164 9.73881H16.1754C16.847 9.73881 17.3507 10.2985 17.3507 10.9142V13.8246C17.3507 14.4963 16.847 15 16.1754 15H1.17537C0.503731 15 0 14.4963 0 13.8246V1.17537C0 0.503731 0.503731 0 1.17537 0Z" fill="white"/>
<path fill-rule="evenodd" clip-rule="evenodd" d="M14.3844 5.48508H17.8545C18.4142 5.48508 18.862 5.93284 18.862 6.49254V8.50746C18.862 9.06717 18.4142 9.51493 17.8545 9.51493H14.3844C13.8247 9.51493 13.3769 9.06717 13.3769 8.50746V6.49254C13.3769 5.93284 13.8247 5.48508 14.3844 5.48508ZM15.112 6.77239C15.5038 6.77239 15.7836 7.10821 15.7836 7.5C15.7836 7.89179 15.5038 8.17164 15.112 8.17164C14.7202 8.17164 14.3844 7.89179 14.3844 7.5C14.3844 7.10821 14.7202 6.77239 15.112 6.77239Z" fill="white"/>
</svg>
